<svg width="95" height="95" viewBox="0 0 95 95" fill="none" xmlns="http://www.w3.org/2000/svg">
<circle cx="47.5" cy="47.5" r="47.5" fill="#FF9819"/>
<g clip-path="url(#clip0_167_1473)">
<path d="M61.0422 28.8916C61.5491 28.9428 61.9823 29.051 62.3307 29.1396C62.4941 29.181 62.7087 29.2351 62.8278 29.2509C63.2688 28.9123 63.7758 28.2882 63.761 27.7674C63.2915 27.5863 62.5109 27.2487 61.9183 26.342C61.3316 25.4187 61.2292 24.5416 61.1544 23.9018C61.1111 23.5356 61.0776 23.2462 60.9683 22.9578C60.8079 22.5384 60.7961 22.0758 60.9349 21.6495C61.0215 21.3818 61.1258 21.1514 61.2292 20.927L57.3281 22.1575V27.8698C57.5978 27.9623 57.8676 28.0549 58.1097 28.1405C59.1128 28.4998 59.9062 28.7823 61.0422 28.8916Z" fill="#45AAB8"/>
<path d="M16.9688 25.828V31.8878C17.5574 31.8839 18.1382 31.8524 18.8607 31.813L19.6551 31.7697C20.0735 31.7471 20.4889 31.6043 20.9693 31.44C21.6199 31.2155 22.3592 30.9635 23.2471 30.9635C23.9608 30.9635 24.6616 31.1338 25.3123 31.4596C26.5379 32.0572 27.159 32.9943 27.6581 33.7454C27.9278 34.1519 28.1611 34.5033 28.4564 34.7504C29.1543 35.3361 29.7479 35.5458 30.5708 35.8352C31.3839 36.1226 32.3063 36.4475 33.3714 37.1621C34.2514 37.7537 34.9818 38.2932 35.6729 38.872V17.5652L18.2573 23.9813C17.4855 24.2648 16.9688 25.0071 16.9688 25.828Z" fill="#45AAB8"/>
<path d="M34.7761 57.4198C34.719 57.4158 34.6639 57.4109 34.6088 57.408C34.6068 57.47 34.6048 57.533 34.6028 57.5861C34.5812 58.2663 34.5487 59.294 33.8459 60.2105C33.0387 61.2834 31.9273 61.8504 30.6319 61.8504C29.9251 61.8504 29.2587 61.6861 28.672 61.5413L28.3147 61.4547C27.1078 61.1801 26.3626 60.4654 25.8173 59.9447C25.5584 59.6966 25.3133 59.4623 25.1686 59.4269C24.8093 59.3403 24.4972 59.2655 24.321 59.2655C24.2787 59.2655 24.201 59.2655 24.0257 59.3363C23.5828 59.5175 23.3288 60.1288 22.8543 61.4823C22.7057 61.9095 22.5492 62.3525 22.373 62.7945C22.2135 63.1981 22.1781 63.7188 22.1416 64.271C22.0678 65.3637 21.9674 66.8619 20.731 68.0382C19.849 68.8789 18.8489 69.2884 17.6765 69.2884C17.4334 69.2884 17.2011 69.2628 16.9688 69.2342V74.0626C16.9688 74.6877 17.27 75.2813 17.774 75.6504C18.1136 75.8994 18.5162 76.0313 18.9375 76.0313C19.1383 76.0313 19.3381 76.0008 19.5311 75.9398L35.6719 70.8427V57.5182C35.5626 57.4778 35.4533 57.4562 35.3372 57.4513C35.1423 57.4454 34.9553 57.4326 34.7761 57.4198Z" fill="#45AAB8"/>
<path d="M38.2627 17.0701C38.0619 17.0022 37.8533 16.9688 37.6406 16.9688V40.7385C38.0176 41.1342 38.4075 41.5614 38.8347 42.0467C39.3456 42.6285 39.6871 43.2102 39.9628 43.6778C40.2915 44.2359 40.4756 44.5372 40.7601 44.7212C40.7995 44.7458 40.8182 44.7517 40.8369 44.7527C40.9875 44.7527 41.2838 44.6651 41.5703 44.5795C42.09 44.4249 42.7397 44.231 43.5006 44.231C44.0627 44.231 44.611 44.3383 45.1435 44.5559L45.4851 44.6966C47.0296 45.3296 48.9511 46.1171 49.7809 48.8389C50.2997 50.5123 50.2977 51.9229 49.7799 53.5412C49.399 54.755 48.6164 55.3722 48.1488 55.7403C48.0396 55.8279 47.888 55.9461 47.8584 55.9854L47.8417 56.0366C47.8181 56.1193 47.8663 56.3772 47.9106 56.6036C48.0317 57.2287 48.2148 58.1737 47.7728 59.2732C47.0207 61.1002 45.5452 62.0275 43.3864 62.0275C43.161 62.0275 42.9326 62.0187 42.7082 62.0049C41.3173 61.9232 40.4323 61.2302 39.7866 60.7232C39.5493 60.5372 39.3239 60.361 39.0877 60.2212C38.5207 59.8865 38.056 59.5144 37.6406 59.1472V70.2185L38.2342 70.4055L55.3594 75.8157V37.8513C55.1792 37.8552 55.003 37.8582 54.816 37.8651C54.4488 37.8779 54.0669 37.8907 53.6574 37.8907C53.432 37.8907 53.1977 37.8867 52.9526 37.8759C52.864 37.8729 52.7764 37.871 52.6917 37.871C52.2369 37.871 51.8176 37.9192 51.3736 37.9694C50.8933 38.0245 50.3962 38.0806 49.836 38.0806C49.147 38.0806 48.4865 37.9911 47.8161 37.806C47.5946 37.745 47.3594 37.7007 47.1103 37.6544C46.1102 37.4664 44.6002 37.1829 43.5213 35.409C42.2514 33.2739 42.2386 30.6466 43.4947 28.3698C44.7419 26.1382 46.687 26.0201 47.9746 25.9423C48.2817 25.9236 48.5701 25.9059 48.8586 25.8645C49.2277 25.8134 49.5968 25.7887 49.9552 25.7887C51.5489 25.7887 52.7547 26.2731 53.9182 26.7416C54.3927 26.9316 54.8613 27.1058 55.3574 27.2633V22.7687L54.7668 22.5728L38.2627 17.0701Z" fill="#45AAB8"/>
<path d="M75.0262 45.4525L74.9238 45.4319C73.4492 45.1365 72.2906 44.6719 71.0917 43.2771C70.2264 42.2878 70.0404 41.1282 69.9035 40.2826C69.8563 39.9863 69.7854 39.5433 69.7086 39.4035C69.5649 39.4154 69.2883 39.4921 69.0432 39.5591C68.5421 39.6979 67.919 39.8701 67.1975 39.8967C66.5921 39.9233 66.0369 40.0729 65.4502 40.2314C64.7336 40.4243 63.9215 40.6429 62.9814 40.6429C62.3071 40.6429 61.6584 40.5336 60.992 40.3062C59.9535 39.9509 59.2752 39.3779 58.7299 38.9182C58.3568 38.6032 58.0871 38.3759 57.7386 38.2312C57.5949 38.1701 57.461 38.1268 57.3271 38.0835V75.8097L74.6837 70.0245C75.4899 69.7558 76.0313 69.0047 76.0313 68.1562V45.61C75.6877 45.5687 75.353 45.5136 75.0262 45.4525Z" fill="#45AAB8"/>
<path d="M76.3896 15.7609C75.7064 15.2599 74.8874 15.001 74.0605 15.001C73.6638 15.001 73.2642 15.061 72.8773 15.1831L55.3919 20.7045L38.8849 15.2018C38.4813 15.0669 38.061 15 37.6396 15C37.179 15 36.7173 15.0807 36.2792 15.2431L17.5761 22.1338C16.0287 22.7037 15 24.1783 15 25.8281V74.0625C15 75.3166 15.5975 76.4969 16.6104 77.2391C17.2936 77.7391 18.1106 78 18.9375 78C19.3352 78 19.7358 77.939 20.1227 77.8169L37.6406 72.2847L55.1586 77.8169C55.5444 77.939 55.9431 78 56.3428 78C56.7641 78 57.1844 77.9331 57.589 77.7982L75.3077 71.892C76.9152 71.3555 78 69.8513 78 68.1562V18.9375C78 17.6834 77.4025 16.5031 76.3896 15.7609ZM35.6719 70.8426L19.5311 75.9397C19.3381 76.0007 19.1383 76.0312 18.9375 76.0312C18.5162 76.0312 18.1136 75.8993 17.774 75.6503C17.27 75.2812 16.9688 74.6876 16.9688 74.0625V69.2351C17.2001 69.2627 17.4334 69.2893 17.6765 69.2893C18.8489 69.2893 19.849 68.8798 20.731 68.0381C21.9674 66.8618 22.0668 65.3636 22.1416 64.2709C22.1781 63.7187 22.2135 63.198 22.373 62.7944C22.5502 62.3524 22.7057 61.9094 22.8543 61.4822C23.3288 60.1287 23.5828 59.5174 24.0257 59.3363C24.201 59.2654 24.2787 59.2654 24.321 59.2654C24.4982 59.2654 24.8093 59.3402 25.1686 59.4268C25.3133 59.4622 25.5584 59.6965 25.8173 59.9446C26.3626 60.4653 27.1088 61.18 28.3147 61.4546L28.672 61.5412C29.2597 61.686 29.9251 61.8503 30.6319 61.8503C31.9263 61.8503 33.0377 61.2833 33.8459 60.2104C34.5487 59.2939 34.5802 58.2662 34.6028 57.586C34.6048 57.5329 34.6068 57.4709 34.6088 57.4079C34.6639 57.4108 34.719 57.4157 34.7761 57.4197C34.9562 57.4335 35.1423 57.4453 35.3372 57.4512C35.4533 57.4561 35.5626 57.4778 35.6719 57.5181V70.8426ZM35.6719 55.5257C35.5784 55.5129 35.4947 55.4873 35.3962 55.4834C35.0301 55.4726 34.6973 55.4293 34.3873 55.4293C33.9098 55.4293 33.4807 55.5297 33.0515 55.9963C32.3102 56.7946 32.9481 58.1481 32.2738 59.0262C31.7836 59.6778 31.2333 59.8806 30.6338 59.8806C30.0511 59.8806 29.4221 59.6906 28.7537 59.5331C27.411 59.227 26.967 57.8351 25.6303 57.5102C25.1292 57.3901 24.7286 57.2937 24.322 57.2937C23.9982 57.2937 23.6714 57.3547 23.2845 57.5102C21.6229 58.1865 21.3463 60.0588 20.542 62.0679C19.8845 63.7315 20.5371 65.5024 19.3726 66.6118C18.8066 67.1522 18.2642 67.3185 17.6775 67.3185C17.4501 67.3185 17.2139 67.293 16.9697 67.2555V33.8557C17.8311 33.8488 18.6648 33.7907 19.7644 33.7346C21.1376 33.6588 22.122 32.9314 23.2481 32.9314C23.6261 32.9314 24.0198 33.0131 24.45 33.2287C25.7661 33.8705 26.0112 35.2693 27.1915 36.2576C28.9732 37.7519 30.3878 37.5294 32.2738 38.7943C33.6795 39.7383 34.654 40.5248 35.6729 41.5368L35.6719 55.5257ZM35.6719 38.8711C34.9808 38.2923 34.2504 37.7519 33.3704 37.1612C32.3053 36.4466 31.383 36.1217 30.5699 35.8343C29.7469 35.5449 29.1533 35.3352 28.4554 34.7495C28.1601 34.5024 27.9278 34.152 27.6571 33.7445C27.158 32.9924 26.5369 32.0563 25.3113 31.4587C24.6607 31.1329 23.9598 30.9626 23.2461 30.9626C22.3582 30.9626 21.6189 31.2156 20.9683 31.4391C20.4879 31.6035 20.0725 31.7462 19.6541 31.7688L18.8607 31.8131C18.1382 31.8525 17.5574 31.884 16.9688 31.8879V25.8281C16.9688 25.0072 17.4855 24.2649 18.2573 23.9814L35.6719 17.5653V38.8711ZM37.6406 43.7054C38.376 44.6986 38.6644 45.7105 39.6891 46.374C40.0868 46.6319 40.4658 46.7225 40.8359 46.7225C41.7228 46.7225 42.5625 46.2017 43.4996 46.2017C43.7841 46.2017 44.0784 46.25 44.3846 46.375C45.9566 47.0306 47.2934 47.4361 47.8988 49.4246C48.2955 50.7043 48.3063 51.6847 47.8988 52.9555C47.4972 54.2401 46.3208 54.1722 45.9507 55.4844C45.621 56.6066 46.374 57.4718 45.9507 58.5271C45.429 59.7969 44.4653 60.0617 43.3854 60.0617C43.2004 60.0617 43.0124 60.0539 42.8224 60.042C41.6628 59.9741 41.1411 59.1492 40.0858 58.5271C39.0808 57.9345 38.3868 57.1234 37.6406 56.4845V43.7054ZM55.3594 35.8825C54.8249 35.8934 54.2756 35.9219 53.6574 35.9219C53.4566 35.9219 53.2499 35.918 53.0333 35.9091C52.9171 35.9042 52.8039 35.9022 52.6917 35.9022C51.602 35.9022 50.7682 36.1119 49.836 36.1119C49.3763 36.1119 48.894 36.0607 48.3428 35.9091C47.0729 35.5567 46.0186 35.724 45.2134 34.401C44.2793 32.831 44.3265 30.938 45.2134 29.3295C46.1427 27.666 47.5434 28.044 49.1263 27.8146C49.4177 27.7752 49.6923 27.7565 49.9561 27.7565C51.9219 27.7565 53.2184 28.7675 55.3584 29.3236L55.3594 35.8825ZM55.3594 27.2624C54.8632 27.1049 54.3957 26.9306 53.9202 26.7406C52.7557 26.2721 51.5508 25.7878 49.9571 25.7878C49.5988 25.7878 49.2297 25.8124 48.8605 25.8636C48.5721 25.9049 48.2827 25.9236 47.9766 25.9413C46.689 26.0191 44.7439 26.1372 43.4967 28.3688C42.2416 30.6457 42.2534 33.273 43.5232 35.4081C44.6021 37.1829 46.1122 37.4654 47.1123 37.6534C47.3613 37.6997 47.5966 37.744 47.8181 37.805C48.4884 37.9901 49.149 38.0797 49.838 38.0797C50.3981 38.0797 50.8952 38.0226 51.3756 37.9684C51.8196 37.9182 52.2389 37.87 52.6937 37.87C52.7783 37.87 52.866 37.872 52.9545 37.8749C53.1997 37.8857 53.433 37.8897 53.6594 37.8897C54.0689 37.8897 54.4508 37.8759 54.818 37.8641C55.004 37.8572 55.1812 37.8542 55.3613 37.8503V75.8147L38.2362 70.4065L37.6406 70.2205V59.1492C38.056 59.5164 38.5207 59.8885 39.0877 60.2232C39.3239 60.363 39.5493 60.5382 39.7866 60.7252C40.4323 61.2322 41.3173 61.9252 42.7082 62.0069C42.9336 62.0216 43.162 62.0295 43.3864 62.0295C45.5452 62.0295 47.0207 61.1032 47.7728 59.2752C48.2138 58.1757 48.0317 57.2307 47.9106 56.6056C47.8663 56.3792 47.8171 56.1213 47.8417 56.0386L47.8584 55.9874C47.888 55.948 48.0396 55.8299 48.1488 55.7423C48.6174 55.3741 49.4 54.7569 49.7799 53.5432C50.2977 51.9239 50.2997 50.5143 49.7809 48.8408C48.9511 46.119 47.0296 45.3315 45.4851 44.6986L45.1435 44.5578C44.611 44.3403 44.0627 44.233 43.5006 44.233C42.7397 44.233 42.09 44.4259 41.5703 44.5815C41.2838 44.6671 40.9875 44.7547 40.8369 44.7547C40.8172 44.7537 40.7995 44.7478 40.7601 44.7232C40.4766 44.5391 40.2915 44.2389 39.9628 43.6798C39.6881 43.2112 39.3456 42.6304 38.8347 42.0487C38.4075 41.5634 38.0176 41.1361 37.6406 40.7404V16.9688C37.8533 16.9688 38.0619 17.0022 38.2627 17.0701L54.7688 22.5718L55.3594 22.7687V27.2624ZM57.3281 22.1574L61.2282 20.9259C61.1258 21.1514 61.0205 21.3807 60.9339 21.6485C60.7951 22.0757 60.8069 22.5374 60.9674 22.9567C61.0766 23.2451 61.1111 23.5345 61.1534 23.9007C61.2282 24.5406 61.3316 25.4186 61.9173 26.341C62.5109 27.2476 63.2915 27.5862 63.76 27.7664C63.7748 28.2871 63.2678 28.9112 62.8268 29.2498C62.7077 29.2331 62.4931 29.1799 62.3297 29.1386C61.9813 29.05 61.5481 28.9417 61.0412 28.8905C59.9052 28.7813 59.1118 28.4987 58.1087 28.1394C57.8666 28.0528 57.5969 27.9603 57.3271 27.8687L57.3281 22.1574ZM76.0312 68.1562C76.0312 69.0048 75.4898 69.7559 74.6846 70.0236L57.3281 75.8088V38.0826C57.462 38.1259 57.5949 38.1702 57.7396 38.2303C58.0881 38.375 58.3578 38.6024 58.7309 38.9174C59.2762 39.3771 59.9544 39.95 60.993 40.3053C61.6594 40.5317 62.3081 40.642 62.9824 40.642C63.9225 40.642 64.7346 40.4235 65.4512 40.2305C66.0389 40.072 66.5931 39.9234 67.1985 39.8958C67.92 39.8702 68.5431 39.697 69.0442 39.5582C69.2893 39.4912 69.5649 39.4145 69.7096 39.4027C69.7864 39.5424 69.8573 39.9854 69.9045 40.2817C70.0413 41.1273 70.2274 42.2869 71.0926 43.2762C72.2916 44.671 73.4502 45.1366 74.9248 45.431L75.0272 45.4516C75.353 45.5127 75.6887 45.5678 76.0322 45.6091L76.0312 68.1562ZM76.0312 43.6315C75.8009 43.5961 75.5617 43.5498 75.3107 43.5016C74.1619 43.2722 73.4414 42.9887 72.5741 41.9798C71.5504 40.8103 72.1459 38.9183 71.0178 37.93C70.5827 37.5579 70.1654 37.4339 69.744 37.4339C68.9329 37.4329 68.108 37.8946 67.1108 37.93C65.4709 38.0029 64.3428 38.6742 62.9824 38.6742C62.562 38.6742 62.1191 38.6112 61.6318 38.4449C60.3108 37.992 59.8048 36.9575 58.5035 36.4161C58.0841 36.2389 57.7012 36.1296 57.3291 36.0479V29.9527C58.4375 30.3474 59.4258 30.7136 60.8483 30.8504C61.6269 30.9282 62.2559 31.2245 62.8859 31.2245C63.2403 31.2245 63.5956 31.13 63.9766 30.8504C65.1569 29.9704 66.1708 28.3678 65.5437 26.8066C65.1362 25.7779 64.1548 26.1648 63.5799 25.2857C62.9637 24.3171 63.256 23.4322 62.8072 22.2558C63.0867 21.3935 63.5632 20.7871 63.827 20.105L73.4679 17.0603C73.6599 16.9993 73.8597 16.9688 74.0615 16.9688C74.4799 16.9688 74.8933 17.1036 75.227 17.3487C75.73 17.7188 76.0312 18.3124 76.0312 18.9375V43.6315Z" fill="#394240"/>
<path d="M69.4417 53.7075C68.7743 53.5028 68.1443 53.3098 67.4631 53.3098C66.8213 53.3098 66.2415 53.484 65.6873 53.8443C65.0652 54.2548 64.886 54.7618 64.8447 55.1132C64.7354 56.0631 65.4392 56.8093 66.1844 57.5987C66.6825 58.1264 67.4346 58.9237 67.2889 59.3027C67.1944 59.5547 66.9089 59.6925 66.3252 59.9258C65.5997 60.2172 64.5011 60.6552 64.2639 61.9644C64.13 62.6909 64.2954 63.3583 64.7413 63.8938C65.3683 64.6449 66.5043 65.0583 67.9435 65.0583C69.4102 65.0583 70.8523 64.635 71.8101 63.9204C73.4373 62.6722 74.0614 60.8491 73.6647 58.5034C73.2689 56.1104 71.8298 54.4586 69.4417 53.7075ZM70.622 62.3513C70.0215 62.8002 68.9692 63.0906 67.9435 63.0906C67.0388 63.0906 66.4443 62.8622 66.2533 62.6338C66.2198 62.5935 66.1618 62.5245 66.1992 62.3188C66.2356 62.1229 66.3872 62.0225 67.0556 61.7558C67.7594 61.4742 68.7231 61.0883 69.1296 60.0016C69.7134 58.4729 68.5006 57.1883 67.6147 56.2492C67.3804 56.0011 67.0536 55.6546 66.8912 55.4193C67.408 55.1467 67.9976 55.3248 68.9131 55.6064C70.5294 56.1153 71.4478 57.1676 71.7225 58.8292C72.0001 60.4682 71.6575 61.5569 70.622 62.3513Z" fill="#394240"/>
<path d="M75.226 17.3497C74.8923 17.1046 74.4789 16.9697 74.0605 16.9697C73.8597 16.9697 73.6599 17.0002 73.467 17.0613L63.826 20.1059C63.5612 20.7871 63.0857 21.3945 62.8062 22.2568C63.255 23.4331 62.9627 24.3181 63.5789 25.2867C64.1538 26.1658 65.1352 25.7789 65.5427 26.8076C66.1698 28.3688 65.1559 29.9723 63.9756 30.8514C63.5937 31.1309 63.2393 31.2254 62.8849 31.2254C62.2539 31.2254 61.6259 30.9291 60.8473 30.8514C59.4248 30.7146 58.4365 30.3484 57.3281 29.9526V36.0469C57.7002 36.1286 58.0841 36.2379 58.5025 36.4151C59.8028 36.9565 60.3098 37.9911 61.6308 38.4439C62.1181 38.6102 62.5611 38.6732 62.9814 38.6732C64.3428 38.6732 65.4699 38.0019 67.1099 37.929C68.107 37.8936 68.9319 37.4319 69.7431 37.4329C70.1644 37.4329 70.5817 37.5569 71.0168 37.929C72.1449 38.9174 71.5494 40.8093 72.5731 41.9788C73.4404 42.9868 74.1609 43.2703 75.3097 43.5006C75.5617 43.5488 75.7999 43.5951 76.0303 43.6305V18.9375C76.0313 18.3124 75.73 17.7188 75.226 17.3497Z" fill="#F9EBB2"/>
<path d="M49.1272 27.8147C47.5453 28.044 46.1445 27.666 45.2143 29.3296C44.3274 30.9391 44.2801 32.832 45.2143 34.4011C46.0185 35.7251 47.0738 35.5568 48.3436 35.9092C48.8949 36.0608 49.3772 36.112 49.8369 36.112C50.7691 36.112 51.6029 35.9023 52.6926 35.9023C52.8038 35.9023 52.918 35.9043 53.0341 35.9092C53.2507 35.918 53.4574 35.922 53.6582 35.922C54.2764 35.922 54.8257 35.8934 55.3602 35.8826V29.3237C53.2202 28.7685 51.9238 27.7566 49.958 27.7566C49.6932 27.7566 49.4185 27.7753 49.1272 27.8147Z" fill="#F9EBB2"/>
<path d="M44.3856 46.374C44.0784 46.2489 43.7851 46.2007 43.5006 46.2007C42.5635 46.2007 41.7238 46.7214 40.8369 46.7214C40.4668 46.7214 40.0878 46.6309 39.6901 46.373C38.6644 45.7105 38.376 44.6986 37.6406 43.7053V56.4825C38.3878 57.1214 39.0808 57.9335 40.0858 58.5251C41.1411 59.1472 41.6638 59.9721 42.8224 60.04C43.0124 60.0519 43.2014 60.0597 43.3854 60.0597C44.4663 60.0597 45.429 59.7949 45.9507 58.5251C46.374 57.4698 45.621 56.6046 45.9507 55.4824C46.3208 54.1702 47.4962 54.2372 47.8988 52.9535C48.3063 51.6827 48.2955 50.7023 47.8988 49.4226C47.2944 47.4351 45.9566 47.0296 44.3856 46.374Z" fill="#F9EBB2"/>
<path d="M27.1905 36.2586C26.0102 35.2703 25.7651 33.8715 24.449 33.2297C24.0188 33.0141 23.6251 32.9324 23.2471 32.9324C22.12 32.9324 21.1356 33.6598 19.7634 33.7356C18.6638 33.7917 17.8301 33.8498 16.9688 33.8567V67.2565C17.2129 67.294 17.4481 67.3195 17.6765 67.3195C18.2632 67.3195 18.8046 67.1532 19.3716 66.6128C20.5371 65.5034 19.8845 63.7325 20.541 62.0689C21.3453 60.0598 21.6229 58.1875 23.2835 57.5112C23.6704 57.3557 23.9972 57.2947 24.321 57.2947C24.7276 57.2947 25.1282 57.3911 25.6293 57.5112C26.9651 57.8361 27.41 59.228 28.7527 59.5341C29.4211 59.6906 30.0501 59.8816 30.6329 59.8816C31.2323 59.8816 31.7826 59.6788 32.2728 59.0272C32.9471 58.1481 32.3092 56.7946 33.0505 55.9973C33.4807 55.5297 33.9089 55.4303 34.3863 55.4303C34.6964 55.4303 35.0291 55.4736 35.3953 55.4844C35.4947 55.4883 35.5784 55.5139 35.6709 55.5267V41.5388C34.6521 40.5268 33.6775 39.7403 32.2718 38.7963C30.3868 37.5304 28.9712 37.7519 27.1905 36.2586Z" fill="#F9EBB2"/>
<path d="M68.914 55.6055C67.9986 55.3239 67.4099 55.1448 66.8921 55.4184C67.0545 55.6527 67.3814 56.0002 67.6156 56.2483C68.5016 57.1873 69.7143 58.4729 69.1306 60.0007C68.724 61.0874 67.7594 61.4733 67.0565 61.7548C66.3881 62.0216 66.2365 62.122 66.2001 62.3179C66.1627 62.5236 66.2208 62.5926 66.2542 62.6329C66.4442 62.8603 67.0398 63.0897 67.9444 63.0897C68.9701 63.0897 70.0215 62.7993 70.6229 62.3504C71.6585 61.556 72.001 60.4683 71.7234 58.8283C71.4488 57.1667 70.5294 56.1144 68.914 55.6055Z" fill="#F9EBB2"/>
<path opacity="0.2" d="M55.3594 75.8157L37.6406 70.125V16.9688L55.3594 22.875V75.8157Z" fill="#231F20"/>
</g>
<defs>
<clipPath id="clip0_167_1473">
<rect width="63" height="63" fill="white" transform="translate(15 15)"/>
</clipPath>
</defs>
</svg>
