<svg width="95" height="95" viewBox="0 0 95 95" fill="none" xmlns="http://www.w3.org/2000/svg">
<circle cx="47.5" cy="47.5" r="47.5" fill="#FF9819"/>
<g clip-path="url(#clip0_167_814)">
<path d="M22.3167 31.2778C24.1183 30.0368 26.8343 30.2748 28.4519 31.5913L26.5966 28.9337C25.1035 26.8351 25.6383 24.5647 27.7696 23.0913C29.9009 21.6237 35.9403 25.5696 35.9403 25.5696C34.4338 23.4502 34.7156 20.7642 36.8661 19.2777C37.9 18.5657 39.1784 18.2874 40.4205 18.5038C41.6625 18.7202 42.7666 19.4136 43.4901 20.4318L63.4618 48.2362L60.9164 72.5557L39.674 64.9208L21.1456 37.8473C20.7843 37.3404 20.528 36.7682 20.3913 36.1635C20.2546 35.5588 20.2402 34.9334 20.349 34.3233C20.4578 33.7131 20.6875 33.13 21.0252 32.6075C21.3628 32.0849 21.8017 31.633 22.3167 31.2778Z" fill="#EF9645"/>
<circle cx="49.5" cy="47.5" r="47.5" fill="#FF9819"/>
<path d="M18.1655 46.7459C18.1655 46.7459 15.9958 43.6292 19.1603 41.4929C22.3208 39.3565 24.4886 42.4713 24.4886 42.4713L34.553 56.9364C34.8999 56.366 35.2794 55.8031 35.703 55.2477L21.7343 35.1745C21.7343 35.1745 19.5666 32.0597 22.7291 29.9234C25.8897 27.7871 28.0574 30.9019 28.0574 30.9019L41.1962 49.7851C41.6849 49.3922 42.1852 48.9974 42.7008 48.6102L27.469 26.7161C27.469 26.7161 25.3013 23.6013 28.4638 21.465C31.6243 19.3286 33.7921 22.4434 33.7921 22.4434L49.0239 44.3337C49.5835 43.9956 50.1374 43.7029 50.6933 43.3931L36.4563 22.9326C36.4563 22.9326 34.2885 19.8178 37.4491 17.6815C40.6097 15.5452 42.7774 18.66 42.7774 18.66L57.8309 40.2953L60.1194 43.5857C50.6358 49.9966 49.733 62.0572 55.1514 69.8451C56.2343 71.4034 57.8156 70.3362 57.8156 70.3362C51.3124 60.9881 53.298 50.484 62.7836 44.075L59.9872 30.2823C59.9872 30.2823 58.9426 26.6481 62.6284 25.6167C66.316 24.5873 67.3625 28.2215 67.3625 28.2215L70.5921 37.6735C71.8724 41.4211 73.2352 45.1554 75.0388 48.6876C80.1313 58.661 77.0896 71.0559 67.4871 77.548C57.0125 84.6256 42.6931 81.9944 35.5094 71.6735L18.1655 46.7459Z" fill="#FFDC5D"/>
<path d="M36.0001 74.5237C28.3334 74.5237 20.5863 66.8888 20.5863 59.3332C20.5863 58.2887 19.81 57.4443 18.7501 57.4443C17.6902 57.4443 16.7529 58.2887 16.7529 59.3332C16.7529 70.6666 24.5001 78.3014 36.0001 78.3014C37.06 78.3014 37.9168 77.3778 37.9168 76.3332C37.9168 75.2887 37.06 74.5237 36.0001 74.5237Z" fill="#5DADEC"/>
<path d="M26.4167 78.2223C20.6667 78.2223 16.8333 74.4445 16.8333 68.7778C16.8333 68.2769 16.6314 67.7964 16.272 67.4422C15.9125 67.0879 15.425 66.8889 14.9167 66.8889C14.4083 66.8889 13.9208 67.0879 13.5614 67.4422C13.2019 67.7964 13 68.2769 13 68.7778C13 76.3334 18.75 82.0001 26.4167 82.0001C26.925 82.0001 27.4125 81.801 27.772 81.4468C28.1314 81.0926 28.3333 80.6121 28.3333 80.1112C28.3333 79.6102 28.1314 79.1298 27.772 78.7755C27.4125 78.4213 26.925 78.2223 26.4167 78.2223ZM59 17.7778C58.4917 17.7778 58.0042 17.9768 57.6447 18.3311C57.2853 18.6853 57.0833 19.1658 57.0833 19.6667C57.0833 20.1677 57.2853 20.6481 57.6447 21.0024C58.0042 21.3566 58.4917 21.5556 59 21.5556C66.6667 21.5556 74.3333 28.3348 74.3333 36.6667C74.3333 37.1677 74.5353 37.6481 74.8947 38.0024C75.2542 38.3566 75.7417 38.5556 76.25 38.5556C76.7583 38.5556 77.2458 38.3566 77.6053 38.0024C77.9647 37.6481 78.1667 37.1677 78.1667 36.6667C78.1667 26.2514 70.5 17.7778 59 17.7778Z" fill="#5DADEC"/>
<path d="M68.5832 14.0793C67.5252 14.0793 66.6665 14.8462 66.6665 15.8889C66.6665 16.9316 67.5252 17.8571 68.5832 17.8571C74.3332 17.8571 78.086 22.0599 78.086 27.2222C78.086 28.2649 79.0233 29.1111 80.0832 29.1111C81.1431 29.1111 81.9193 28.2649 81.9193 27.2222C81.9193 19.9746 76.2498 14.0793 68.5832 14.0793Z" fill="#5DADEC"/>
</g>
<defs>
<clipPath id="clip0_167_814">
<rect width="69" height="68" fill="white" transform="translate(13 14)"/>
</clipPath>
</defs>
</svg>
