<svg width="95" height="101" viewBox="0 0 95 101" fill="none" xmlns="http://www.w3.org/2000/svg">
<circle cx="47.5" cy="53.5" r="47.5" fill="#FF9819"/>
<path d="M23.8572 38.3145H70.7858C78.7572 38.3145 85.1857 44.743 85.1857 52.7145V67.1145H9.32861V52.843C9.32861 44.8716 15.8858 38.3145 23.8572 38.3145Z" fill="#64B829"/>
<path d="M86.0859 68.143H8.42871V52.843C8.42871 44.3573 15.3716 37.543 23.7287 37.543H70.6573C79.143 37.543 85.9573 44.4858 85.9573 52.843V68.143H86.0859ZM10.2287 66.343H84.2859V52.843C84.2859 45.3858 78.243 39.343 70.7859 39.343H23.8573C16.4001 39.343 10.3573 45.3858 10.3573 52.843V66.343H10.2287Z" fill="#141515"/>
<path d="M39.8 67.243H9.32861V58.3716C11.3858 51.6859 17.3 46.9287 24.2429 46.9287C32.9858 46.9287 40.0572 54.3859 40.0572 63.643C40.1858 64.9287 40.0572 66.0859 39.8 67.243Z" fill="#B2D577"/>
<path d="M40.5716 68.1431H8.42871V58.1145C10.743 50.9145 17.043 46.0288 24.243 46.0288C33.5001 46.0288 40.9573 54.0002 40.9573 63.7717C40.9573 65.0574 40.8287 66.2145 40.5716 67.5002V68.1431ZM10.2287 66.3431H38.9001C39.0287 65.4431 39.1573 64.5431 39.1573 63.7717C39.1573 55.0288 32.4716 47.9574 24.243 47.9574C17.943 47.9574 12.2859 52.2002 10.2287 58.6288V66.3431Z" fill="#141515"/>
<path d="M85.1856 55.0285V67.2428H54.457C54.1999 66.0856 54.0713 64.9285 54.0713 63.7714C54.0713 53.9999 61.5284 46.2856 70.657 46.2856C76.957 46.2856 82.2284 49.7571 85.1856 55.0285Z" fill="#B2D577"/>
<path d="M86.0857 68.143H53.6857L53.5571 67.3716C53.3 66.2145 53.1714 64.9288 53.1714 63.643C53.1714 53.4859 61.0142 45.2573 70.6571 45.2573C76.9571 45.2573 82.7428 48.8573 85.9571 54.5145L86.0857 54.7716V68.143ZM55.2285 66.343H84.2857V55.2859C81.4571 50.2716 76.3142 47.1859 70.7857 47.1859C62.1714 47.1859 55.1 54.643 55.1 63.7716C54.9714 64.543 55.1 65.443 55.2285 66.343Z" fill="#141515"/>
<path d="M9.32861 60.9429H85.0572V67.2429H9.32861V60.9429Z" fill="#97CA1B"/>
<path d="M86.0859 68.143H8.42871V60.043H86.0859V68.143ZM10.2287 66.343H84.2859V61.843H10.2287V66.343Z" fill="#141515"/>
<path d="M45.0712 17.1001C58.4426 17.1001 70.1426 26.4858 72.0712 38.443H23.7283C22.9569 38.443 22.1855 38.443 21.4141 38.5715C21.4141 26.6144 31.6998 17.1001 45.0712 17.1001Z" fill="#97CA1B"/>
<path d="M20.5142 39.6002V38.5716C20.5142 32.9145 22.6999 27.5145 26.8142 23.4002C31.4427 18.7716 37.9999 16.2002 45.0713 16.2002C58.6999 16.2002 71.0427 25.8431 72.9713 38.3145L73.0999 39.4716L71.9427 39.3431H23.7284C22.957 39.3431 22.3142 39.3431 21.5427 39.4716L20.5142 39.6002ZM45.0713 18.0002C38.3856 18.0002 32.3427 20.3145 28.0999 24.6859C24.6284 28.1573 22.5713 32.6573 22.4427 37.5431H71.0427C68.5999 26.4859 57.5427 18.0002 45.0713 18.0002Z" fill="#141515"/>
<path d="M67.7002 38.4427H25.1431C27.3288 29.057 35.3002 22.2427 45.3288 22.2427C55.3573 22.2427 64.2288 29.057 67.7002 38.4427Z" fill="#90CED9"/>
<path d="M68.9858 39.3428H23.9858L24.243 38.1856C26.5573 28.0285 35.043 21.3428 45.3287 21.3428C55.4858 21.3428 64.8716 28.0285 68.6001 38.1856L68.9858 39.3428ZM26.3001 37.5428H66.2858C62.6858 28.7999 54.3287 23.1428 45.3287 23.1428C36.3287 23.1428 28.8716 28.7999 26.3001 37.5428Z" fill="#141515"/>
<path d="M43.2712 38.4427H39.4141V23.0141C40.5712 22.6284 41.8569 22.3712 43.2712 22.2427V38.4427Z" fill="#97CA1B"/>
<path d="M44.1713 39.3428H38.5142V22.3713L39.157 22.2428C40.4427 21.8571 41.7284 21.5999 43.1427 21.4713L44.1713 21.3428V39.3428ZM40.4427 37.5428H42.3713V23.3999L40.4427 23.7856V37.5428Z" fill="#141515"/>
<path d="M25.2716 72.9002C30.2859 72.9002 34.4002 68.7859 34.4002 63.7716C34.4002 58.7574 30.2859 54.6431 25.2716 54.6431C20.2574 54.6431 16.1431 58.7574 16.1431 63.7716C16.1431 68.7859 20.2574 72.9002 25.2716 72.9002Z" fill="#A1A69C"/>
<path d="M25.2712 73.7998C19.7427 73.7998 15.2427 69.2998 15.2427 63.7712C15.2427 58.2427 19.7427 53.7427 25.2712 53.7427C30.7998 53.7427 35.2998 58.2427 35.2998 63.7712C35.2998 69.2998 30.7998 73.7998 25.2712 73.7998ZM25.2712 55.4141C20.7712 55.4141 17.0427 59.1427 17.0427 63.6427C17.0427 68.1427 20.7712 71.8712 25.2712 71.8712C29.7712 71.8712 33.4998 68.1427 33.4998 63.6427C33.4998 59.1427 29.7712 55.4141 25.2712 55.4141Z" fill="#141515"/>
<path d="M20.8999 63.7713C20.8999 64.9307 21.3605 66.0426 22.1803 66.8624C23.0001 67.6822 24.112 68.1428 25.2713 68.1428C26.4307 68.1428 27.5426 67.6822 28.3624 66.8624C29.1822 66.0426 29.6428 64.9307 29.6428 63.7713C29.6428 62.612 29.1822 61.5001 28.3624 60.6803C27.5426 59.8605 26.4307 59.3999 25.2713 59.3999C24.112 59.3999 23.0001 59.8605 22.1803 60.6803C21.3605 61.5001 20.8999 62.612 20.8999 63.7713Z" fill="#DAD9B4"/>
<path d="M25.2714 68.9144C22.4429 68.9144 20 66.6002 20 63.643C20 60.8144 22.3143 58.3716 25.2714 58.3716C28.1 58.3716 30.5429 60.6859 30.5429 63.643C30.5429 66.6002 28.1 68.9144 25.2714 68.9144ZM25.2714 60.3002C23.3429 60.3002 21.8 61.843 21.8 63.7716C21.8 65.7002 23.3429 67.243 25.2714 67.243C27.2 67.243 28.7429 65.7002 28.7429 63.7716C28.6143 61.843 27.2 60.3002 25.2714 60.3002Z" fill="#141515"/>
<path d="M70.0143 72.9002C75.0286 72.9002 79.1429 68.7859 79.1429 63.7716C79.1429 58.7574 75.0286 54.6431 70.0143 54.6431C65 54.6431 60.8857 58.7574 60.8857 63.7716C60.8857 68.7859 64.8715 72.9002 70.0143 72.9002Z" fill="#A1A69C"/>
<path d="M70.0144 73.7998C64.4858 73.7998 59.9858 69.2998 59.9858 63.7712C59.9858 58.2427 64.4858 53.7427 70.0144 53.7427C75.543 53.7427 80.043 58.2427 80.043 63.7712C80.043 69.2998 75.543 73.7998 70.0144 73.7998ZM70.0144 55.4141C65.5144 55.4141 61.7858 59.1427 61.7858 63.6427C61.7858 68.1427 65.5144 71.8712 70.0144 71.8712C74.5144 71.8712 78.243 68.1427 78.243 63.6427C78.243 59.1427 74.5144 55.4141 70.0144 55.4141Z" fill="#141515"/>
<path d="M65.6431 63.7715C65.643 64.3456 65.756 64.9141 65.9756 65.4445C66.1953 65.975 66.5173 66.4569 66.9232 66.8629C67.3291 67.2689 67.8111 67.591 68.3415 67.8107C68.8719 68.0304 69.4404 68.1435 70.0145 68.1435C70.5886 68.1435 71.1571 68.0304 71.6875 67.8107C72.2179 67.591 72.6998 67.2689 73.1058 66.8629C73.5117 66.4569 73.8337 65.975 74.0533 65.4445C74.273 64.9141 74.386 64.3456 74.3859 63.7715C74.386 63.1973 74.273 62.6288 74.0533 62.0984C73.8337 61.568 73.5117 61.086 73.1058 60.68C72.6998 60.274 72.2179 59.952 71.6875 59.7322C71.1571 59.5125 70.5886 59.3994 70.0145 59.3994C69.4404 59.3994 68.8719 59.5125 68.3415 59.7322C67.8111 59.952 67.3291 60.274 66.9232 60.68C66.5173 61.086 66.1953 61.568 65.9756 62.0984C65.756 62.6288 65.643 63.1973 65.6431 63.7715Z" fill="#DAD9B4"/>
<path d="M70.0141 68.9144C67.1855 68.9144 64.7427 66.6002 64.7427 63.643C64.7427 60.8144 67.057 58.3716 70.0141 58.3716C72.8427 58.3716 75.2855 60.6859 75.2855 63.643C75.157 66.6002 72.8427 68.9144 70.0141 68.9144ZM70.0141 60.3002C68.0855 60.3002 66.5427 61.843 66.5427 63.7716C66.5427 65.7002 68.0855 67.243 70.0141 67.243C71.9427 67.243 73.4855 65.7002 73.4855 63.7716C73.357 61.843 71.8141 60.3002 70.0141 60.3002Z" fill="#141515"/>
<path d="M41.4713 56.7C40.957 56.7 40.5713 56.3142 40.5713 55.8V43.0714C40.5713 42.5571 40.957 42.1714 41.4713 42.1714C41.9856 42.1714 42.3713 42.5571 42.3713 43.0714V55.8C42.3713 56.3142 41.9856 56.7 41.4713 56.7Z" fill="#141515"/>
<path d="M60.1143 34.8428H66.8C67.4429 34.8428 68.0858 35.3571 68.0858 36.1285V39.3428C68.0858 39.9856 67.5715 40.6285 66.8 40.6285H60.1143C59.4715 40.6285 58.8286 40.1142 58.8286 39.3428V35.9999C58.8286 35.3571 59.4715 34.8428 60.1143 34.8428Z" fill="#DAE483"/>
<path d="M66.8001 41.4002H60.1144C58.9573 41.4002 57.9287 40.3716 57.9287 39.2145V36.0002C57.9287 34.843 58.9573 33.8145 60.1144 33.8145H66.8001C67.9573 33.8145 68.9859 34.843 68.9859 36.0002V39.2145C68.9859 40.3716 67.9573 41.4002 66.8001 41.4002ZM60.1144 35.743C59.8573 35.743 59.7287 35.8716 59.7287 36.1287V39.343C59.7287 39.6002 59.8573 39.7287 60.1144 39.7287H66.8001C67.0573 39.7287 67.1859 39.6002 67.1859 39.343V36.0002C67.1859 35.743 67.0573 35.6145 66.8001 35.6145H60.1144V35.743Z" fill="#141515"/>
<path d="M5.85693 60.5571H12.1569V63.3857H5.85693V60.5571Z" fill="#6E7377"/>
<path d="M12.2856 64.2858H5.85703C5.34275 64.2858 4.95703 63.9001 4.95703 63.3858V60.5572C4.95703 60.0429 5.34275 59.6572 5.85703 59.6572H12.2856C12.7999 59.6572 13.1856 60.0429 13.1856 60.5572V63.3858C13.1856 63.9001 12.6713 64.2858 12.2856 64.2858ZM6.75703 62.4858H11.257V61.4572H6.75703V62.4858Z" fill="#141515"/>
<path d="M80.8145 53.6143H86.4716C87.3716 53.6143 88.1431 54.3857 88.1431 55.2857V56.1857C88.1431 57.0857 87.3716 57.8571 86.4716 57.8571H80.8145C79.9145 57.8571 79.1431 57.0857 79.1431 56.1857V55.2857C79.1431 54.2571 79.9145 53.6143 80.8145 53.6143Z" fill="#FFE638"/>
<path d="M86.4712 58.7572H80.8141C79.3998 58.7572 78.2427 57.6001 78.2427 56.1858V55.2858C78.2427 53.8715 79.3998 52.7144 80.8141 52.7144H86.4712C87.8855 52.7144 89.0427 53.8715 89.0427 55.2858V56.1858C89.0427 57.6001 87.8855 58.7572 86.4712 58.7572ZM80.8141 54.5144C80.4284 54.5144 80.0427 54.9001 80.0427 55.2858V56.1858C80.0427 56.5715 80.4284 56.9572 80.8141 56.9572H86.4712C86.857 56.9572 87.2427 56.5715 87.2427 56.1858V55.2858C87.2427 54.9001 86.857 54.5144 86.4712 54.5144H80.8141Z" fill="#141515"/>
<path d="M81.3286 49.2426C81.3286 49.9928 81.6266 50.7123 82.1571 51.2427C82.6875 51.7732 83.407 52.0712 84.1572 52.0712C84.9074 52.0712 85.6268 51.7732 86.1573 51.2427C86.6877 50.7123 86.9858 49.9928 86.9858 49.2426C86.9858 48.4925 86.6877 47.773 86.1573 47.2425C85.6268 46.7121 84.9074 46.4141 84.1572 46.4141C83.407 46.4141 82.6875 46.7121 82.1571 47.2425C81.6266 47.773 81.3286 48.4925 81.3286 49.2426Z" fill="#FCDD10"/>
<path d="M84.1573 52.9713C82.1001 52.9713 80.4287 51.2999 80.4287 49.2427C80.4287 47.1856 82.1001 45.5142 84.1573 45.5142C86.2144 45.5142 87.8859 47.1856 87.8859 49.2427C88.0144 51.2999 86.2144 52.9713 84.1573 52.9713ZM84.1573 47.3142C83.1287 47.3142 82.2287 48.2142 82.2287 49.2427C82.2287 50.2713 83.1287 51.1713 84.1573 51.1713C85.1859 51.1713 86.0859 50.2713 86.0859 49.2427C86.0859 48.2142 85.3144 47.3142 84.1573 47.3142Z" fill="#141515"/>
<path d="M46.6143 31.757C46.3571 31.757 46.1 31.6284 45.9714 31.4998C45.5857 31.1141 45.5857 30.5998 45.9714 30.2141L50.0857 26.0998C50.4714 25.7141 50.9857 25.7141 51.3714 26.0998C51.7571 26.4855 51.7571 26.9998 51.3714 27.3855L47.2571 31.4998C47.1286 31.757 46.8714 31.757 46.6143 31.757Z" fill="#141515"/>
<path d="M47.2573 36.5142C47.0002 36.5142 46.7431 36.3856 46.6145 36.2571C46.2288 35.8713 46.2288 35.3571 46.6145 34.9713L54.0716 27.2571C54.4573 26.8713 54.9716 26.8713 55.3573 27.2571C55.7431 27.6428 55.7431 28.1571 55.3573 28.5428L47.9002 36.2571C47.7716 36.5142 47.5145 36.5142 47.2573 36.5142Z" fill="#141515"/>
</svg>
