<svg width="95" height="95" viewBox="0 0 95 95" fill="none" xmlns="http://www.w3.org/2000/svg">
<circle cx="47.5" cy="47.5" r="47.5" fill="#FF9819"/>
<path d="M61.5346 42.4922C59.0873 43.8769 57.4369 46.0586 55.6577 47.4674C52.5099 49.9631 49.6841 45.9942 47.1482 45.9942C44.6123 45.9942 44.4835 47.8539 37.3587 47.8539C34.2593 47.8539 32.1822 46.5175 32.4479 42.4519C32.5445 40.9062 31.828 39.3525 30.3547 38.958C28.5433 38.475 26.5226 37.5008 26.5226 35.8263C26.5226 33.9908 28.6641 33.5963 29.0666 32.0989C29.4933 30.5371 28.1247 29.8689 27.2955 28.7498C25.1621 25.8758 25.5325 23.6297 28.0684 21.4158C29.2518 20.3853 29.9924 19.7573 30.1052 18.1955C30.2259 16.5532 29.9039 14.7177 30.6606 13.1881C31.3369 11.8115 32.9229 11.5136 34.2029 10.9017C35.652 10.2094 36.28 9.1467 37.1253 7.84251C38.7273 5.35488 42.0683 4.75109 44.733 5.99088C44.9987 4.63034 46.7699 4.05872 48.6376 4.00237C50.5858 3.94601 52.8078 4.90407 54.3696 6.0553C56.2132 7.41585 57.5415 9.28356 59.2321 10.8132C62.5007 13.7677 69.4564 17.0926 67.4759 22.7119C66.7514 24.7648 65.4552 25.3445 66.6387 27.5745C67.7416 29.6435 68.3051 30.7947 66.5904 32.6866C65.9141 33.4272 65.1896 33.7734 65.1654 34.8602C65.1413 35.8505 66.0429 36.7119 65.9785 37.7424C65.8497 39.9402 63.6841 41.2926 61.5266 42.5083L61.5346 42.4922Z" fill="#231E1A"/>
<path d="M34.139 55.8321C33.0763 54.9224 28.3587 56.3473 29.1235 57.3537C29.8883 58.36 31.9251 58.5774 33.3581 58.0541C34.6301 57.5952 35.3063 56.8304 34.139 55.8321Z" fill="#FFBC82"/>
<path d="M35.725 58.8268C34.8716 58.8268 33.9377 58.6497 32.9475 58.3035C32.2471 58.054 31.8767 57.2892 32.1183 56.5888C32.3678 55.8884 33.1326 55.5181 33.833 55.7596C35.1533 56.2265 36.208 56.2507 36.9567 55.8481C38.3494 55.0994 38.9291 52.7728 39.3477 51.0741C39.7583 49.4157 40.0883 48.1115 41.2315 47.6929C41.9319 47.4353 42.7048 47.7975 42.9624 48.4979C43.1798 49.0937 42.9543 49.7458 42.4472 50.0839C42.3023 50.3898 42.1091 51.1546 41.9641 51.7262C41.4167 53.9079 40.6761 56.9028 38.2367 58.2231C37.488 58.6256 36.6427 58.8268 35.725 58.8268Z" fill="#FFBC82"/>
<path d="M38.0435 49.8101C36.4817 48.4415 34.4369 47.6123 32.1989 47.6123C27.28 47.6123 23.2949 51.5973 23.2949 56.5162C23.2949 56.951 23.3351 57.3776 23.3995 57.8043L32.1989 56.5162L38.0435 49.8101Z" fill="#4F4F4F"/>
<path d="M23.3909 58.1988C23.1977 58.1988 23.0367 58.062 23.0045 57.8688C22.9723 57.6594 23.1172 57.4582 23.3346 57.426L31.997 56.162L37.7531 49.5606C37.898 49.3995 38.1396 49.3835 38.3006 49.5203C38.4616 49.6572 38.4777 49.9067 38.3409 50.0677L32.4881 56.7819C32.4237 56.8544 32.3431 56.8946 32.2546 56.9107L23.4473 58.1988C23.4473 58.1988 23.407 58.1988 23.3909 58.1988Z" fill="#292929"/>
<path opacity="0.5" d="M35.845 48.9649C34.6535 48.2887 32.6973 54.7774 32.6973 54.7774C32.6973 54.7774 37.1814 49.7297 35.845 48.9649Z" fill="#8C8C8C"/>
<path opacity="0.5" d="M32.0937 48.1275C30.7251 48.0551 31.8682 54.729 31.8682 54.729C31.8682 54.729 33.6313 48.208 32.0937 48.1275Z" fill="#8C8C8C"/>
<path opacity="0.5" d="M23.8978 55.2845C24.0105 53.9159 30.4671 55.9527 30.4671 55.9527C30.4671 55.9527 23.769 56.8222 23.8978 55.2845Z" fill="#8C8C8C"/>
<path opacity="0.5" d="M25.3233 51.7182C26.0317 50.5428 30.9104 55.2443 30.9104 55.2443C30.9104 55.2443 24.5263 53.0304 25.3233 51.7182Z" fill="#8C8C8C"/>
<path opacity="0.5" d="M28.2691 49.0938C27.0374 49.6896 31.2719 54.9788 31.2719 54.9788C31.2719 54.9788 29.6538 48.4176 28.2691 49.0938Z" fill="#8C8C8C"/>
<path d="M32.311 56.1621C31.4013 54.8338 30.7089 55.3409 30.9585 56.0494C30.403 55.3087 29.5416 55.5181 29.759 56.4197C28.8171 55.8562 28.2696 56.8061 29.5577 57.6917C30.4996 58.3518 33.4783 57.8527 32.3191 56.154L32.311 56.1621Z" fill="#FFBC82"/>
<path d="M59.3213 64.8725C59.6594 64.7276 58.9027 63.8179 58.6128 63.5119C60.1263 64.0594 60.1102 65.1059 60.4162 65.1945C60.8428 65.3152 60.9395 64.1801 60.9314 64.172C61.0602 64.3733 61.1649 64.9691 61.4869 64.961C61.7928 64.953 61.8733 64.3492 61.8733 64.1237C61.8975 62.3285 60.6094 61.0807 58.0493 60.1951C56.5519 59.6718 55.9561 61.8616 56.5519 63.3026C56.6485 63.5361 58.9751 65.0093 59.3132 64.8725H59.3213Z" fill="#FFBC82"/>
<path d="M57.1874 62.7632C57.0264 62.7632 56.8734 62.7391 56.7124 62.6746C53.2104 61.3705 52.502 57.4901 51.6889 53.0059C51.4876 51.8869 51.2703 50.7276 51.0127 49.5361C50.8516 48.8115 51.3105 48.087 52.035 47.926C52.7596 47.765 53.4842 48.2239 53.6452 48.9484C53.9189 50.1882 54.1362 51.3716 54.3456 52.5148C55.1184 56.7655 55.6901 59.4061 57.6624 60.1387C58.3628 60.3964 58.7171 61.1772 58.4514 61.8776C58.2501 62.417 57.7349 62.7552 57.1874 62.7552V62.7632Z" fill="#FFBC82"/>
<path opacity="0.2" d="M29.147 85.466C29.147 86.738 37.1895 87.7685 47.1159 87.7685C57.0422 87.7685 65.0848 86.738 65.0848 85.466C65.0848 84.194 57.0422 83.1636 47.1159 83.1636C37.1895 83.1636 29.147 84.194 29.147 85.466Z" fill="url(#paint0_radial_167_1474)"/>
<path d="M51.6966 80.6357C49.9094 80.6357 49.6035 81.6984 49.6035 82.9141C49.6035 85.4097 51.5034 87.7283 53.4034 87.7283C54.772 87.7283 55.2872 85.2648 54.4822 82.753C53.9347 81.0463 52.8559 80.6277 51.6966 80.6277V80.6357Z" fill="#E62628"/>
<path d="M38.373 80.6357C40.281 80.6357 40.3695 81.9802 40.3695 83.5742C40.3695 84.806 39.8543 87.0843 38.856 87.0843C38.381 87.0843 38.6064 85.8686 38.6064 85.8686C37.3989 86.883 35.668 87.7364 34.1947 87.7364C32.8261 87.7364 33.116 85.2729 34.7502 82.7611C35.8612 81.0544 36.9802 80.6357 38.373 80.6357Z" fill="#E62628"/>
<path d="M52.0189 84.7092C51.1172 84.7092 50.296 84.0974 50.0706 83.1877C48.3398 76.2723 47.6394 66.692 47.6152 66.2895C47.5347 65.1785 48.372 64.2205 49.4749 64.14C50.5698 64.0434 51.5439 64.8968 51.6244 65.9997C51.6244 66.0963 52.3329 75.6363 53.9752 82.2136C54.2409 83.2924 53.5888 84.3872 52.51 84.6529C52.349 84.6931 52.1799 84.7173 52.0189 84.7173V84.7092Z" fill="#FFBC82"/>
<path d="M37.3588 84.5725C37.0288 84.5725 36.6906 84.4919 36.3847 84.3229C35.4106 83.7835 35.0644 82.5598 35.6038 81.5857C38.9529 75.5477 41.4566 65.7421 41.4807 65.6375C41.7545 64.5587 42.8493 63.9066 43.9281 64.1803C45.0069 64.4541 45.659 65.549 45.3853 66.6277C45.2806 67.0464 42.7286 77.0371 39.1219 83.5339C38.7516 84.1941 38.0673 84.5725 37.3588 84.5725Z" fill="#FFBC82"/>
<path d="M51.0928 47.0566C51.6563 47.1935 53.4677 47.6363 53.669 49.0049C53.83 50.0675 53.1537 51.1061 52.2923 51.9916C51.4309 52.8772 51.0928 47.0566 51.0928 47.0566Z" fill="#FFBC82"/>
<path d="M42.6801 47.0566C42.1166 47.1935 40.3052 47.6363 40.1039 49.0049C39.9429 50.0675 40.6192 51.1061 41.4806 51.9916C42.342 52.8772 42.6801 47.0566 42.6801 47.0566Z" fill="#FFBC82"/>
<path d="M42.1891 59.6883C42.6641 58.0138 42.7447 55.6791 41.5532 53.755C39.5727 50.559 42.3421 50.7683 42.5273 47.0087C44.8458 46.1553 48.7987 45.9862 51.2139 47.0167C51.0206 49.7217 54.0557 50.9695 52.1236 53.7711C50.4249 56.2265 50.9643 57.9493 51.5037 59.648C52.0511 61.3628 53.3875 62.7797 52.9528 68.2461C52.6549 72.0137 53.5244 74.7751 54.8607 76.8924C55.0942 77.2627 54.8446 78.0919 54.0074 78.1643C53.0252 78.2529 53.0011 77.4237 51.9384 77.5686C51.0528 77.6894 51.0689 78.9453 49.8936 79.0016C49.0321 79.0419 48.6618 77.9148 47.897 77.8906C47.0598 77.8665 46.9793 79.1143 45.7234 78.9211C44.709 78.7681 43.7912 77.7618 43.5255 77.2386C42.3582 74.9522 41.4646 72.7061 41.062 67.755C40.6917 63.1983 41.5612 61.878 42.1972 59.6641L42.1891 59.6883Z" fill="#E62628"/>
<path d="M44.3468 46.7186C44.8137 45.8733 44.3951 44.5369 44.3146 43.1039C44.1295 39.8595 49.7246 39.7388 49.7246 43.2811C49.7246 44.8509 49.6038 46.0424 49.9259 46.5496C50.8597 48.0067 49.2094 51.7986 46.4239 51.5812C43.5901 51.3638 43.7108 47.8538 44.3468 46.7106V46.7186Z" fill="#FFBC82"/>
<path d="M44.6198 46.0183C44.3622 47.8618 50.062 47.25 49.7158 45.6077C49.2811 43.5467 44.8855 44.1103 44.6198 46.0183Z" fill="#F19960"/>
<path opacity="0.5" d="M48.4766 48.989C48.2109 48.683 47.1724 49.5123 46.7216 50.3576C46.2788 49.5123 45.2322 48.683 44.9666 48.989C44.7009 49.2949 45.353 49.3996 45.8843 49.9309C46.472 50.5186 46.5123 51.0418 46.7135 51.0418C46.9148 51.0418 46.9551 50.5186 47.5428 49.9309C48.0741 49.3915 48.7262 49.2868 48.4605 48.989H48.4766Z" fill="#F19960"/>
<path opacity="0.6" d="M49.1125 50.9454C49.7082 50.4462 49.8692 49.762 50.5374 49.762C51.0285 49.762 51.4552 50.1564 51.5518 50.8407C51.7128 52.0241 50.7709 53.4894 49.1205 53.4894C48.3316 53.4894 47.7036 53.0385 47.7036 52.322C47.7036 51.7021 48.5167 51.4365 49.1125 50.9454Z" fill="#FF3B3B"/>
<path opacity="0.6" d="M44.4273 50.9454C43.8719 50.4462 43.896 49.762 43.2681 49.762C42.8092 49.762 42.2376 50.1564 42.149 50.8407C41.9961 52.0241 42.8736 53.4894 44.4193 53.4894C45.1599 53.4894 45.7476 53.0385 45.7476 52.322C45.7476 51.7021 44.9908 51.4365 44.4354 50.9454H44.4273Z" fill="#FF3B3B"/>
<path opacity="0.6" d="M46.7293 58.6816C49.4987 58.6816 51.1088 60.6138 51.4711 62.6828C51.8253 64.7518 50.98 70.0571 47.8483 67.9881C44.3624 65.6856 41.8587 63.3832 42.5671 61.4349C42.9777 60.3159 44.2658 58.6816 46.7293 58.6816Z" fill="#FF3B3B"/>
<path d="M60.1178 32.2595C59.2484 39.1669 53.0333 46.6217 45.5302 46.1789C36.4974 45.6396 31.9408 35.5763 32.8746 27.3648C33.9293 18.0422 38.4456 10.209 48.6779 11.9076C55.9798 13.1233 61.2932 22.945 60.1259 32.2595H60.1178Z" fill="#FFBC82"/>
<path opacity="0.3" d="M47.5432 25.8111C49.1291 25.4649 50.5863 25.1751 51.3028 23.5006C57.4856 27.4615 57.8157 31.8812 59.136 33.121C64.071 24.7484 55.634 12.2781 47.1809 12.2781C31.7077 12.2781 33.197 24.4183 33.5271 28.1297C34.791 25.5696 35.3868 23.6455 38.0837 22.3896C40.1688 21.4155 42.5759 20.1516 43.8399 18.1309C44.4115 21.1498 48.2677 21.979 47.5351 25.8111H47.5432Z" fill="#D14F2E"/>
<path d="M52.6632 7.54429C57.3325 8.26884 61.0116 12.278 62.7827 16.3114C64.7954 20.8922 65.0932 25.32 64.3767 31.7604C64.0064 35.1014 63.8937 41.2359 61.5268 42.4918C60.593 42.9829 59.5625 44.0939 60.1582 45.3578C60.9472 47.0162 62.1306 45.7684 62.2353 44.6655C63.0484 45.39 62.8793 47.0485 62.1789 47.7569C59.9006 50.0755 56.4469 48.5136 55.3681 45.8569C53.9271 42.3147 57.1393 40.4872 58.049 37.3072C59.0473 33.8374 59.2485 30.6978 57.091 27.6385C55.0622 24.7725 53.5406 22.462 50.2238 20.8841C51.1979 22.945 49.3222 26.3585 46.7701 25.328C48.9035 24.5551 48.2595 22.6632 47.2371 21.2061C46.8748 20.6909 43.3647 17.052 43.9363 16.4804C42.5758 17.849 41.0623 19.2015 39.4038 20.2159C37.7937 21.1981 36.2641 21.5603 35.137 23.1704C34.5574 23.9916 34.1307 24.9255 33.849 25.8835C33.6396 26.6 33.7926 27.8478 33.3981 28.4516C32.3435 30.102 30.1215 28.5482 29.872 27.1072C29.5339 25.1589 30.83 24.1607 31.6431 22.5586C32.3838 21.0934 31.6189 20.1837 31.9087 18.7587C32.271 17.0037 34.8311 15.1923 35.8294 13.6305C37.0853 11.6742 38.5988 9.90312 40.6678 8.76799C44.2503 6.80365 48.7103 6.93244 52.6551 7.54429H52.6632Z" fill="#231E1A"/>
<path d="M45.329 7.98738C44.057 6.53828 41.521 6.02307 39.9512 7.31116C38.164 8.76831 37.6889 11.2318 35.3462 12.1817C33.1645 13.0754 31.3048 13.1478 31.5222 16.046C31.6269 17.471 31.9006 20.2323 33.72 19.2099C34.4526 18.7993 34.9678 18.3163 35.8292 18.1472C36.7551 17.9701 37.7131 18.1472 38.6389 17.9701C41.3761 17.471 42.9299 15.0316 44.1938 12.7775C44.6688 13.6228 45.1438 14.2588 45.3611 15.1927C45.5705 16.0702 45.7073 16.9638 46.126 17.7769C46.7459 18.9845 47.7683 19.9506 48.4043 21.142C48.4043 21.1742 48.4043 21.1742 48.4043 21.142C48.3801 20.2404 48.364 18.2036 47.889 15.732C50.9966 19.6849 55.5371 22.4301 58.8539 23.2996C60.0212 23.6055 61.4864 24 62.6055 23.3318C63.5796 22.7521 64.2156 20.023 64.1753 18.9845C64.0626 16.2956 61.1886 14.13 59.0713 12.8821C56.5917 11.4169 54.885 10.1288 53.0253 7.93908C52.1317 6.88445 50.9241 5.76542 49.5635 5.62051C48.2352 5.48365 46.0213 5.88617 45.337 7.97932L45.329 7.98738Z" fill="#423631"/>
<path d="M63.1049 35.6086C62.8795 35.4315 62.5494 35.3188 62.0986 35.3107C60.416 35.2866 60.3436 37.75 60.2712 38.7805C60.2229 39.4568 59.8767 40.1572 59.4902 40.7046C64.7956 40.9864 64.1193 36.3975 63.0969 35.6086H63.1049Z" fill="#423631"/>
<path d="M31.0471 22.0355C31.3289 22.0999 31.6267 22.2851 31.9085 22.6232C32.9953 23.9032 31.1437 25.5294 30.395 26.2459C29.9039 26.7129 29.5819 27.4294 29.4048 28.0654C25.8062 24.1528 29.7832 21.7457 31.0471 22.0355Z" fill="#423631"/>
<path d="M37.2139 45.9939C36.119 45.0198 36.6342 43.8846 36.1754 42.7978C35.7245 41.719 33.4703 41.3889 33.5911 43.5062C33.6958 45.2934 35.8131 46.2273 37.2139 45.9939Z" fill="#423631"/>
<path d="M62.5171 33.0406C62.8633 31.6156 61.7925 30.9796 61.551 29.8203C61.3176 28.6772 62.976 27.1234 64.0789 28.9348C65.0047 30.4644 63.7971 32.4368 62.509 33.0406H62.5171Z" fill="#423631"/>
<path d="M31.885 37.9271C30.6694 37.106 31.0316 35.9145 30.4359 34.8921C29.8402 33.8857 27.5618 33.8536 27.9644 35.9306C28.3025 37.6856 30.5244 38.3377 31.885 37.9191V37.9271Z" fill="#423631"/>
<path d="M33.6235 25.3203C35.8535 24.4025 38.9611 24.6601 40.4746 26.3669C38.3653 26.4796 36.7794 25.1834 33.6235 25.3203Z" fill="#292929"/>
<path opacity="0.3" d="M42.9135 33.5803C42.6639 33.8942 43.5173 34.6752 44.5236 34.7154C45.4091 34.7476 46.4557 33.7333 45.9404 33.4756C45.4333 33.2261 45.1596 33.54 44.443 33.5561C43.646 33.5803 43.2033 33.218 42.9135 33.5723V33.5803Z" fill="#BF3C1B"/>
<path d="M34.6212 32.7912C34.6937 31.7366 35.8771 30.9879 37.2618 31.1167C38.6385 31.2455 39.7011 32.2036 39.6287 33.2582C39.5482 34.3128 38.3728 35.0615 36.9881 34.9327C35.6034 34.8039 34.5487 33.8459 34.6212 32.7912Z" fill="#FF7752"/>
<path d="M52.7032 31.2938C54.3133 31.1731 55.7061 31.9539 55.8188 33.0408C55.9234 34.1276 54.7078 35.1098 53.0896 35.2306C51.4795 35.3513 50.0787 34.5704 49.9741 33.4835C49.8694 32.3967 51.085 31.4146 52.7032 31.2938Z" fill="#FF7752"/>
<path d="M51.4469 30.4968C52.0024 30.2956 52.9282 30.2633 53.7172 30.4163C54.7557 29.418 53.8379 27.3812 52.0105 27.8723C50.3681 28.3151 50.9639 30.3358 51.455 30.4968H51.4469Z" fill="#292929"/>
<path d="M56.8169 25.2318C53.8301 24.459 50.4892 24.6361 49.0562 26.4877C51.7853 26.5602 52.8801 25.3284 56.8169 25.2318Z" fill="#292929"/>
<path d="M56.9942 28.2989C56.9942 28.2989 56.0442 29.5548 53.2909 28.8464C51.0206 28.2587 49.2334 29.74 49.2334 29.74C49.2334 29.74 50.3041 27.2443 53.146 27.4697C54.6112 27.5824 55.4887 28.8302 57.0022 28.2989H56.9942Z" fill="#292929"/>
<path d="M52.8719 28.3231C52.2842 28.3392 52.2118 29.2006 52.727 29.3375C53.4435 29.5227 53.532 28.299 52.8719 28.3231Z" fill="#B59898"/>
<path d="M38.252 30.4564C37.7287 30.223 36.8351 30.1585 36.0703 30.2873C35.1042 29.2488 36.0622 27.2442 37.8012 27.8078C39.371 28.3149 38.7189 30.3115 38.2439 30.4564H38.252Z" fill="#292929"/>
<path d="M32.9873 28.0332C32.9873 28.0332 33.8567 29.3293 36.5376 28.7255C38.7434 28.2264 40.4099 29.7882 40.4099 29.7882C40.4099 29.7882 39.468 27.2523 36.7308 27.365C35.3139 27.4213 34.4284 28.6289 32.9954 28.0412L32.9873 28.0332Z" fill="#292929"/>
<path d="M37.5359 28.2426C38.0994 28.2829 38.1396 29.1442 37.6405 29.2569C36.9481 29.4099 36.8999 28.1863 37.5359 28.2426Z" fill="#B59898"/>
<path d="M36.4487 35.7297C38.719 36.2208 40.949 35.9471 44.3786 36.0276C47.2124 36.1 51.3664 36.8648 53.5964 35.6814C49.9012 41.3329 47.6149 42.3875 44.7086 42.5646C41.0698 42.79 39.8139 40.4876 39.2503 38.7567C39.0168 38.0241 37.1652 36.1483 36.4487 35.7216V35.7297Z" fill="#FF3B3B"/>
<path d="M51.882 36.6794C51.882 36.6794 45.8522 38.37 37.9385 36.5989C37.9385 36.5989 39.1782 37.098 39.774 38.4989C40.3214 39.7789 42.2294 40.6644 45.1356 40.592C49.6601 40.4793 51.882 36.6794 51.882 36.6794Z" fill="#78231F"/>
<path d="M50.1992 37.0256C50.1992 37.0256 50.0704 38.1687 48.4603 38.6196C46.3913 39.1992 44.1693 39.2475 41.8669 38.9255C40.3211 38.7081 39.5483 36.9128 39.5483 36.9128C39.5483 36.9128 43.9761 37.8789 50.1992 37.0256Z" fill="#FFF9F0"/>
<path d="M49.4507 38.6841C49.6117 38.3863 49.5393 37.9033 48.8067 38.3541C47.7762 38.982 46.0534 39.1269 43.9763 39.0625C42.0522 39.0062 41.0781 38.4829 40.7077 38.8049C40.3294 39.135 42.0522 41.0027 45.3529 40.6324C48.7905 40.254 49.4507 38.6761 49.4507 38.6761V38.6841Z" fill="#FFF9F0"/>
<path d="M49.7967 37.8387C49.7967 37.8387 42.044 37.259 40.1924 37.9111C40.1924 37.9111 39.6449 37.2832 39.5483 36.9128C39.5483 36.9128 44.9664 37.8226 50.1992 37.0256C50.1992 37.0256 50.0865 37.5569 49.7967 37.8387Z" fill="#E8DAC5"/>
<path d="M48.1868 38.5876C48.1868 38.5876 45.5865 39.602 42.0845 38.8694C42.0845 38.8694 45.4174 40.1736 48.1868 38.5876Z" fill="#E8DAC5"/>
<path d="M64.8438 18.6622C64.3286 18.6381 63.8053 18.9118 63.5557 19.5397C62.485 17.503 59.611 17.9779 60.4724 20.86C57.1394 19.3706 55.6581 25.7709 58.6851 26.1412C57.8962 28.7979 60.5206 29.925 61.5994 28.7416C62.8875 30.6576 67.0497 31.5753 67.2429 28.0492C70.6483 27.6547 70.9783 21.0854 67.7903 20.0147C67.3153 19.8537 66.7035 19.8054 66.2204 19.91C66.0514 19.1211 65.4476 18.6783 64.8519 18.6542L64.8438 18.6622Z" fill="#E62628"/>
<path opacity="0.15" d="M66.196 21.7296C69.0298 22.752 67.4841 28.0573 65.0125 26.8739C64.9723 28.8946 62.5732 28.3471 61.9292 27.3006C63.169 27.4857 63.7728 27.0188 64.127 25.4489C65.8176 26.5841 67.0655 24.3379 66.0511 22.4139C65.8579 22.0516 65.6325 21.7779 65.3588 21.5364L66.2041 21.7376L66.196 21.7296Z" fill="black"/>
<path d="M61.2854 24.6197C60.2952 25.2477 59.4015 24.7485 59.2566 23.6295C59.0795 22.3333 60.8345 21.4559 61.551 21.6893C61.1565 20.0792 64.3848 19.7411 62.984 22.2368C63.6281 22.124 65.206 22.0999 65.3992 23.2431C65.5361 24.0401 64.5458 24.668 64.0628 24.6761C64.409 23.71 63.4349 23.0177 62.8311 23.3477C62.1307 23.7261 62.1146 24.9981 62.6781 25.5455C62.8713 25.7307 63.2255 25.8917 63.5154 25.8676C61.543 27.4455 60.7782 25.4167 61.2934 24.6278L61.2854 24.6197Z" fill="#FF3B3B"/>
<defs>
<radialGradient id="paint0_radial_167_1474" cx="0" cy="0" r="1" gradientUnits="userSpaceOnUse" gradientTransform="translate(42.6373 -23.1114) rotate(180) scale(17.4683 1.89874)">
<stop/>
<stop offset="0.92"/>
</radialGradient>
</defs>
</svg>
