<svg width="95" height="95" viewBox="0 0 95 95" fill="none" xmlns="http://www.w3.org/2000/svg">
<circle cx="47.5" cy="47.5" r="47.5" fill="#FF9819"/>
<path d="M69.1642 70.5272C69.1642 70.5272 67.1271 44.9839 40.6688 49.8632C15.2719 54.5474 20.6269 79.8102 20.6269 79.8102C20.6269 79.8102 39.7662 66.392 69.152 70.5272H69.1642Z" fill="#E8E8E8"/>
<path d="M20.4072 81.2736C20.4072 81.2736 28.0068 76.1991 41.9739 76.5894C46.2068 76.6992 59.6006 75.6258 74.6778 77.2238C75.7024 77.3336 76.1538 76.2967 75.8122 75.8576C73.2993 72.6128 71.5062 71.7711 69.1031 69.9414C65.6998 67.9287 55.6361 67.7578 46.4873 68.2214C27.8116 69.1484 19.224 78.3094 19.224 78.3094C19.224 78.3094 18.6873 81.6884 20.3951 81.2614L20.4072 81.2736Z" fill="#B8B8B8"/>
<path d="M19.2605 80.3588C19.2605 80.3588 27.104 74.2107 41.0712 74.5279C43.5474 74.5889 54.1234 73.8692 62.8696 74.4791C70.1276 74.9793 75.9707 76.0527 75.8121 75.8576C73.2992 72.6128 71.3597 71.1368 69.103 69.9414C65.6997 67.9287 55.636 67.7578 46.4872 68.2214C27.8115 69.1484 20.0168 77.4311 20.0168 77.4311C20.0168 77.4311 18.3944 78.285 19.2483 80.3588H19.2605Z" fill="#F5F5F5"/>
<path d="M51.2327 68.0386C51.2327 68.0386 50.7813 47.0817 31.5567 53.3395L29.5928 54.2422C29.5928 54.2422 30.6418 52.4368 34.96 50.1679C38.4854 48.3138 61.7843 42.0072 65.9683 69.9781L52.9039 69.2705L51.2449 68.0386H51.2327Z" fill="#EDEDED"/>
<path d="M33.6424 70.417C33.6424 70.417 34.3866 56.5962 26.7626 58.2186C19.1264 59.8288 20.2974 77.4188 20.2974 77.4188C20.2974 77.4188 24.0423 73.0763 32.63 71.7588L33.6424 70.4292V70.417Z" fill="#EDEDED"/>
<path d="M23.1761 63.0373C21.4074 64.6109 20.2973 71.6372 20.956 76.6385C20.956 76.6385 24.1398 74.1988 26.6283 72.8692C28.8728 71.6737 27.8725 58.8411 23.1761 63.0373Z" fill="#E8E8E8"/>
<path d="M49.3413 54.8643C49.3413 54.8643 51.2443 57.7919 54.794 57.8407C58.3437 57.8895 61.93 58.3286 59.6245 55.2058C59.6245 55.2058 62.4546 57.9993 63.1987 61.8173C63.9306 65.6476 53.4156 65.9038 52.2811 61.9637C51.1467 58.0236 49.3413 54.8643 49.3413 54.8643Z" fill="white"/>
<path d="M52.7818 68.1849C52.7818 68.1849 52.5988 51.4122 39.144 50.2655C39.144 50.2655 54.026 49.9362 52.7818 68.1849Z" fill="white"/>
<path d="M31.3368 60.4634C31.3368 60.4634 31.4831 64.318 26.9941 62.1101C26.9941 62.1101 27.7748 63.2324 28.214 66.1234C28.6531 69.0144 33.874 67.1968 33.1909 64.8425C32.8128 63.5739 33.1056 63.696 31.3368 60.4756V60.4634Z" fill="white"/>
<path d="M33.6426 69.3437C33.6426 69.3437 34.1793 56.4622 26.8359 58.2066C26.8359 58.2066 32.8131 57.2429 33.6426 69.3437Z" fill="white"/>
<path d="M40.0467 69.3802C43.877 69.0265 45.7068 68.7947 48.6588 68.8069C48.6588 68.8069 42.3034 72.5396 57.8563 74.101C53.6601 73.8692 46.5362 74.2474 44.5845 74.2474C42.6328 74.2474 37.2655 74.5035 35.6919 74.6865C44.0356 73.6862 48.3782 69.5754 40.0467 69.3802Z" fill="white"/>
<path d="M26.604 76.6139C26.604 76.6139 33.4107 74.7232 41.4982 74.8695C47.1338 74.9671 54.4406 73.4301 73.3481 75.5892C73.3481 75.5892 65.1508 72.7348 48.0365 73.6985C39.8636 74.162 36.3261 73.3203 26.604 76.6139Z" fill="white"/>
<path d="M29.5806 54.2422C29.5806 54.2422 31.2883 51.0341 37.3875 50.7901C43.4745 50.5461 51.8792 54.5594 52.0255 69.7463L50.5251 67.9288C51.257 58.1945 41.1202 45.74 29.5806 54.2301V54.2422Z" fill="#CFCFCF"/>
<path d="M22.1758 64.5744C22.1758 64.5744 22.9199 62.3299 24.7009 62.1835C26.4818 62.0371 27.2625 64.9648 27.4333 68.2583C27.4333 68.2583 26.8721 64.184 25.5547 63.2814C24.2373 62.3787 22.9443 63.318 22.1758 64.5744Z" fill="#CFCFCF"/>
<path d="M53.001 69.9047C53.001 69.9047 59.4417 69.5022 66.5168 70.5147C66.5168 70.5147 58.6122 67.4651 53.001 69.9047Z" fill="white"/>
<path d="M19.7727 77.6141C20.7973 76.3576 23.2492 74.2961 26.6403 72.8567C26.6403 72.8567 21.4682 75.5159 23.9689 77.3701C21.0169 78.9315 17.7111 80.1513 19.7727 77.6141Z" fill="white"/>
<path d="M33.6671 70.8931C33.6671 70.8931 33.7159 73.0156 32.7522 73.4791C31.7885 73.9549 27.7997 73.7719 26.9214 73.7841C31.7153 73.4791 32.9962 72.8814 33.6671 70.8809V70.8931Z" fill="white"/>
<path d="M28.4336 71.9419C28.4336 71.9419 29.4217 62.2076 26.1891 60.9756C24.4569 60.3169 22.9443 61.9637 22.9443 61.9637C22.9443 61.9637 24.5911 60.4755 26.5307 62.0857C28.458 63.6959 28.4336 71.9541 28.4336 71.9541V71.9419Z" fill="white"/>
<path d="M23.4795 34.3054C23.4795 34.3054 25.7384 7.58277 55.0242 12.6775C83.1343 17.5725 77.2032 44.0205 77.2032 44.0205C77.2032 44.0205 56.0149 29.9848 23.4795 34.3054Z" fill="#0A4A81"/>
<path d="M77.4673 45.5438C77.4673 45.5438 69.0528 40.2368 53.5843 40.6364C48.8949 40.7612 34.0604 39.6374 17.3766 41.2982C16.2405 41.4106 15.7518 40.3242 16.1217 39.8747C18.9089 36.4781 20.8904 35.5915 23.5455 33.681C27.3103 31.5831 38.4592 31.3958 48.5778 31.8703C69.2641 32.8443 78.7619 42.4345 78.7619 42.4345C78.7619 42.4345 79.3695 45.9684 77.4541 45.5313L77.4673 45.5438Z" fill="white"/>
<path d="M78.7353 44.5948C78.7353 44.5948 70.0566 38.1639 54.588 38.4886C51.8404 38.551 40.1366 37.8018 30.454 38.4386C22.4093 38.9631 15.9498 40.087 16.1215 39.8747C18.9087 36.4781 21.0619 34.9297 23.5453 33.681C27.3101 31.5831 38.459 31.3958 48.5776 31.8703C69.2639 32.8443 77.8767 41.5105 77.8767 41.5105C77.8767 41.5105 79.6731 42.4096 78.722 44.5824L78.7353 44.5948Z" fill="#0A4A81"/>
<path d="M44.1396 31.5957C46.0154 31.5957 42.8847 35.4043 40.8769 35.4043H38.1425C38.1425 35.4043 36.3592 37.3398 32.0528 37.3398C26.1745 37.3398 25.5008 33.7061 29.8335 33.4064C34.1663 33.1067 44.1264 31.5957 44.1264 31.5957H44.1396Z" fill="white"/>
<path d="M43.3467 31.708C43.3467 31.708 43.8486 9.78042 65.1426 16.3237L67.3221 17.2727C67.3221 17.2727 66.1597 15.3871 61.3778 13.0146C57.4677 11.0791 31.6825 4.4733 27.0459 33.7433L41.5105 32.9941L43.3467 31.708Z" fill="#0A4A81"/>
<path d="M62.8179 34.1929C62.8179 34.1929 61.9857 19.7327 70.4399 21.4185C78.8941 23.1042 77.5995 41.5104 77.5995 41.5104C77.5995 41.5104 73.4517 36.9651 63.9407 35.5915L62.8179 34.1929Z" fill="#0A4A81"/>
<path d="M74.4029 26.4634C76.358 28.1117 77.5864 35.4666 76.8599 40.6987C76.8599 40.6987 73.3329 38.1514 70.5853 36.7528C68.1019 35.4916 69.1983 22.0679 74.4029 26.4634Z" fill="#0A4A81"/>
<path d="M44.4038 21.2312C46.5041 17.2853 50.2161 13.6265 56.7284 13.1021C56.7284 13.1021 45.7776 11.8284 44.4038 21.2312Z" fill="white"/>
<path d="M65.3673 23.7788C65.3673 23.7788 65.2088 27.8122 70.1756 25.502C70.1756 25.502 69.3038 26.6758 68.815 29.6977C68.3262 32.7196 62.5404 30.8216 63.3066 28.3492C63.7161 27.013 63.4123 27.1504 65.3541 23.7788H65.3673Z" fill="#0A4A81"/>
<path d="M62.8178 33.0691C62.8178 33.0691 62.2234 19.5829 70.3473 21.4061C70.3473 21.4061 63.7293 20.3946 62.8178 33.0691Z" fill="white"/>
<path d="M55.724 33.1065C51.4837 32.7319 49.4493 32.4946 46.1865 32.5071C46.1865 32.5071 53.2273 36.4156 36.002 38.0514C40.6518 37.8016 48.5379 38.2012 50.7043 38.2012C52.8707 38.2012 58.815 38.4634 60.5454 38.6632C51.2987 37.6268 46.5036 33.3063 55.7372 33.1065H55.724Z" fill="#0A4A81"/>
<path d="M70.6114 40.6862C70.6114 40.6862 63.0819 38.7133 54.1125 38.8631C47.8775 38.9755 39.7801 37.3647 18.8428 39.6249C18.8428 39.6249 27.9178 36.6404 46.8736 37.6519C55.9223 38.1389 59.8324 37.2523 70.6114 40.6987V40.6862Z" fill="white"/>
<path d="M67.322 17.2603C67.322 17.2603 65.433 13.9137 58.6829 13.6515C51.9328 13.4017 42.6331 17.5975 42.4746 33.4937L44.139 31.5956C43.3333 21.406 54.5482 8.3819 67.322 17.2603Z" fill="white"/>
<path d="M75.5124 28.0743C75.5124 28.0743 74.6802 25.7267 72.712 25.5644C70.7438 25.4145 69.8852 28.4739 69.687 31.9204C69.687 31.9204 70.3079 27.6623 71.7609 26.7132C73.214 25.7642 74.6538 26.7507 75.4992 28.0743H75.5124Z" fill="white"/>
<path d="M78.1673 41.7226C77.0313 40.3989 74.3233 38.2512 70.5718 36.7527C70.5718 36.7527 76.2915 39.5373 73.5307 41.4728C76.7935 43.1086 80.4526 44.3824 78.1673 41.7351V41.7226Z" fill="#0A4A81"/>
<path d="M62.7914 34.6924C62.7914 34.6924 62.7386 36.9027 63.8086 37.4022C64.8786 37.8892 69.2906 37.7143 70.2682 37.7268C64.9711 37.4021 63.5444 36.7777 62.8047 34.6924H62.7914Z" fill="#0A4A81"/>
<path d="M68.5903 35.779C68.5903 35.779 67.4939 25.5895 71.0738 24.3033C72.9892 23.6165 74.6667 25.3398 74.6667 25.3398C74.6667 25.3398 72.8306 23.7914 70.7038 25.4647C68.5639 27.138 68.6036 35.7915 68.6036 35.7915L68.5903 35.779Z" fill="#0A4A81"/>
<path d="M40.4802 19.7954H34.0736C32.6145 19.7954 31.4316 20.9136 31.4316 22.2929V32.0704C31.4316 33.4497 32.6145 34.5678 34.0736 34.5678H40.4802C41.9393 34.5678 43.1222 33.4497 43.1222 32.0704V22.2929C43.1222 20.9136 41.9393 19.7954 40.4802 19.7954Z" fill="#4F4F4F"/>
<path d="M31.5504 34.8424C36.0809 34.8424 39.7535 31.1191 39.7535 26.526C39.7535 21.9329 36.0809 18.2095 31.5504 18.2095C27.0199 18.2095 23.3472 21.9329 23.3472 26.526C23.3472 31.1191 27.0199 34.8424 31.5504 34.8424Z" fill="#FDD281"/>
<path d="M31.5504 36.7153C25.9363 36.7153 21.3657 32.145 21.3657 26.5258C21.3657 20.9065 25.9363 16.3362 31.5504 16.3362C37.1645 16.3362 41.735 20.9065 41.735 26.5258C41.735 32.145 37.1645 36.7153 31.5504 36.7153ZM31.5504 20.0948C28.1159 20.0948 25.3286 22.9794 25.3286 26.5383C25.3286 30.0971 28.1159 32.9816 31.5504 32.9816C34.9849 32.9816 37.7721 30.0971 37.7721 26.5383C37.7721 22.9794 34.9849 20.0948 31.5504 20.0948Z" fill="#292929"/>
<path d="M36.3062 26.8006C36.3062 28.7486 34.7475 30.322 32.8321 30.322C30.9167 30.322 29.3579 28.7486 29.3579 26.8006C29.3579 24.8526 30.9167 23.2793 32.8321 23.2793C34.7475 23.2793 36.3062 24.8526 36.3062 26.8006Z" fill="white"/>
<path d="M23.1359 27.5871C22.4094 27.5871 21.8149 27.0252 21.8149 26.3384C21.8149 21.0688 26.0816 16.7732 31.3391 16.7732C32.0656 16.7732 32.66 17.3351 32.66 18.0219C32.66 18.7087 32.0656 19.2706 31.3391 19.2706C27.5479 19.2706 24.4569 22.4424 24.4569 26.3384C24.4569 27.0252 23.8624 27.5871 23.1359 27.5871Z" fill="#8C8C8C"/>
<path d="M24.2324 27.1629C23.8889 27.1629 23.5983 26.9132 23.5719 26.5885C23.4002 24.5031 24.1532 22.4802 25.6987 20.9068C27.1518 19.4084 29.1464 18.5217 31.0354 18.5217C31.4052 18.5217 31.6958 18.7964 31.6958 19.1461C31.6958 19.4957 31.4052 19.7704 31.0354 19.7704C29.5163 19.7704 27.8783 20.5072 26.6762 21.7559C25.3816 23.0796 24.7608 24.7653 24.9061 26.4886C24.9325 26.8382 24.6683 27.138 24.2984 27.1629C24.2852 27.1629 24.2588 27.1629 24.2456 27.1629H24.2324Z" fill="#0A4A81"/>
<path d="M33.4924 35.6164C32.9112 35.6164 32.3828 35.2543 32.2242 34.7049C32.0261 34.0431 32.4356 33.3563 33.1357 33.1565C35.3285 32.5696 37.0854 30.8713 37.8384 28.6236C38.0629 27.9618 38.8027 27.5996 39.5028 27.8119C40.2029 28.0242 40.586 28.7235 40.3614 29.3853C39.3311 32.4322 36.9005 34.7423 33.8623 35.554C33.7434 35.5915 33.6245 35.604 33.5056 35.604L33.4924 35.6164Z" fill="#8C8C8C"/>
<path d="M51.3915 12.2279C48.0362 11.0916 41.9466 12.2154 38.2875 15.2623C35.1172 17.9221 41.6824 18.6838 44.3904 15.8992C47.9966 12.1905 51.3783 12.2279 51.3783 12.2279H51.3915Z" fill="#0A4A81"/>
</svg>
