<svg width="95" height="97" viewBox="0 0 95 97" fill="none" xmlns="http://www.w3.org/2000/svg">
<circle cx="47.5" cy="49.5" r="47.5" fill="#FF9819"/>
<path d="M78.3656 40.275C77.4333 40.05 75.8422 39.725 74.0625 39.375C74.0094 32.825 68.3516 27.5 61.3656 27.5C60.1172 27.5 58.9484 27.7 57.8062 28.025C56.1859 19.225 48.0047 12.5 38.2031 12.5C27.2063 12.5 18.2812 20.9 18.2812 31.25C18.2812 32.675 18.4672 34.075 18.7859 35.4C12.4109 36.875 7.65625 42.3 7.65625 48.75C7.65625 56.325 14.2172 62.5 22.2656 62.5H75.3375C81.9516 62.5 87.3438 57.425 87.3438 51.2C87.3438 46.05 83.6516 41.55 78.3656 40.275ZM75.3375 60H22.2656C15.6781 60 10.3125 54.95 10.3125 48.75C10.3125 42.55 15.6781 37.5 22.2656 37.5C21.4156 35.575 20.9375 33.475 20.9375 31.25C20.9375 22.275 28.6672 15 38.2031 15C47.7391 15 55.4688 22.275 55.4688 31.25L55.4422 31.85C57.0891 30.7 59.1344 30 61.3656 30C66.9172 30 71.4062 34.225 71.4062 39.45C71.4062 40.125 71.3266 40.775 71.1938 41.375C73.8234 41.875 76.4266 42.375 77.7016 42.7C81.7125 43.675 84.6875 47.125 84.6875 51.2C84.6875 56.05 80.4906 60 75.3375 60Z" fill="#2D2220"/>
<path d="M84.6875 51.2C84.6875 56.05 80.4906 60 75.3375 60H22.2656C21.5484 60 20.8578 59.95 20.1937 59.825C18.9719 58.075 18.2812 56 18.2812 53.75C18.2812 47.55 23.6469 42.5 30.2344 42.5C29.3844 40.575 28.9062 38.475 28.9062 36.25C28.9062 27.275 36.6359 20 46.1719 20C47.9781 20 49.7312 20.25 51.3781 20.75C53.9281 23.575 55.4688 27.25 55.4688 31.25L55.4422 31.85C57.0891 30.7 59.1344 30 61.3656 30C61.6339 30 61.8703 30 62.1359 30.025C65.6688 30.275 68.6703 32.25 70.2375 35.05C70.9812 36.35 71.4062 37.875 71.4062 39.45C71.4062 40.125 71.3266 40.775 71.1938 41.375C73.8234 41.875 76.4266 42.375 77.7016 42.7C78.2594 42.85 78.7906 43.025 79.2953 43.25C81.2105 44.075 82.7484 45.5 83.6781 47.275C84.3422 48.45 84.6875 49.775 84.6875 51.2Z" fill="#31CFFF"/>
<path d="M76.7188 66.25C76.7188 65.56 77.3138 65 78.0469 65H86.0156C86.7487 65 87.3438 65.56 87.3438 66.25C87.3438 66.94 86.7487 67.5 86.0156 67.5H78.0469C77.3138 67.5 76.7188 66.94 76.7188 66.25Z" fill="#31CFFF"/>
<path d="M7.65625 66.25C7.65625 65.56 8.25125 65 8.98438 65H70.0781C70.8112 65 71.4062 65.56 71.4062 66.25C71.4062 66.94 70.8112 67.5 70.0781 67.5H8.98438C8.25125 67.5 7.65625 66.94 7.65625 66.25Z" fill="#31CFFF"/>
<path d="M36.875 71.25C36.875 70.56 37.47 70 38.2031 70H86.0156C86.7487 70 87.3438 70.56 87.3438 71.25C87.3438 71.94 86.7487 72.5 86.0156 72.5H38.2031C37.47 72.5 36.875 71.94 36.875 71.25Z" fill="#31CFFF"/>
<path d="M18.2812 71.25C18.2812 70.56 18.8763 70 19.6094 70H30.2344C30.9675 70 31.5625 70.56 31.5625 71.25C31.5625 71.94 30.9675 72.5 30.2344 72.5H19.6094C18.8763 72.5 18.2812 71.94 18.2812 71.25Z" fill="#31CFFF"/>
<path d="M24.9219 32.5C24.1888 32.5 23.5938 31.94 23.5938 31.25C23.5938 17.6575 35.4273 17.5 35.5469 17.5C36.28 17.5 36.875 18.06 36.875 18.75C36.875 19.44 36.2827 20 35.5495 20C35.1378 20.0025 26.25 20.2225 26.25 31.25C26.25 31.94 25.655 32.5 24.9219 32.5Z" fill="#2D2220"/>
<path d="M40.8594 20C41.5929 20 42.1875 19.4404 42.1875 18.75C42.1875 18.0596 41.5929 17.5 40.8594 17.5C40.1259 17.5 39.5312 18.0596 39.5312 18.75C39.5312 19.4404 40.1259 20 40.8594 20Z" fill="#2D2220"/>
<path d="M76.7188 56.25C76.7188 55.56 76.1237 55 75.3906 55H56.7969C56.0638 55 55.4688 55.56 55.4688 56.25C55.4688 56.94 56.0638 57.5 56.7969 57.5H75.3906C76.1237 57.5 76.7188 56.94 76.7188 56.25Z" fill="#2D2220"/>
<path d="M47.5 56.25C47.5 55.56 48.095 55 48.8281 55H51.4844C52.2175 55 52.8125 55.56 52.8125 56.25C52.8125 56.94 52.2175 57.5 51.4844 57.5H48.8281C48.095 57.5 47.5 56.94 47.5 56.25Z" fill="#2D2220"/>
</svg>
