<svg width="95" height="95" viewBox="0 0 95 95" fill="none" xmlns="http://www.w3.org/2000/svg">
<circle cx="47.5" cy="47.5" r="47.5" fill="#FF9819"/>
<path d="M19.0781 72.9219H73.9219V26.2031H19.0781V72.9219ZM35.3281 69.875C35.3281 70.1444 35.2211 70.4027 35.0307 70.5932C34.8402 70.7836 34.5819 70.8906 34.3125 70.8906H30.25C29.9806 70.8906 29.7223 70.7836 29.5318 70.5932C29.3414 70.4027 29.2344 70.1444 29.2344 69.875V59.7188C29.2344 59.4494 29.3414 59.1911 29.5318 59.0006C29.7223 58.8101 29.9806 58.7031 30.25 58.7031H34.3125C34.5819 58.7031 34.8402 58.8101 35.0307 59.0006C35.2211 59.1911 35.3281 59.4494 35.3281 59.7188V69.875ZM43.4531 69.875C43.4531 70.1444 43.3461 70.4027 43.1557 70.5932C42.9652 70.7836 42.7069 70.8906 42.4375 70.8906H38.375C38.1056 70.8906 37.8473 70.7836 37.6568 70.5932C37.4664 70.4027 37.3594 70.1444 37.3594 69.875V57.6875C37.3594 57.4181 37.4664 57.1598 37.6568 56.9693C37.8473 56.7789 38.1056 56.6719 38.375 56.6719H42.4375C42.7069 56.6719 42.9652 56.7789 43.1557 56.9693C43.3461 57.1598 43.4531 57.4181 43.4531 57.6875V69.875ZM50.5625 28.2344H70.875C71.1444 28.2344 71.4027 28.3414 71.5932 28.5318C71.7836 28.7223 71.8906 28.9806 71.8906 29.25C71.8906 29.5194 71.7836 29.7777 71.5932 29.9682C71.4027 30.1586 71.1444 30.2656 70.875 30.2656H50.5625C50.2931 30.2656 50.0348 30.1586 49.8443 29.9682C49.6539 29.7777 49.5469 29.5194 49.5469 29.25C49.5469 28.9806 49.6539 28.7223 49.8443 28.5318C50.0348 28.3414 50.2931 28.2344 50.5625 28.2344ZM50.5625 32.2969H70.875C71.1444 32.2969 71.4027 32.4039 71.5932 32.5943C71.7836 32.7848 71.8906 33.0431 71.8906 33.3125C71.8906 33.5819 71.7836 33.8402 71.5932 34.0307C71.4027 34.2211 71.1444 34.3281 70.875 34.3281H50.5625C50.2931 34.3281 50.0348 34.2211 49.8443 34.0307C49.6539 33.8402 49.5469 33.5819 49.5469 33.3125C49.5469 33.0431 49.6539 32.7848 49.8443 32.5943C50.0348 32.4039 50.2931 32.2969 50.5625 32.2969ZM50.5625 36.3594H70.875C71.1444 36.3594 71.4027 36.4664 71.5932 36.6568C71.7836 36.8473 71.8906 37.1056 71.8906 37.375C71.8906 37.6444 71.7836 37.9027 71.5932 38.0932C71.4027 38.2836 71.1444 38.3906 70.875 38.3906H50.5625C50.2931 38.3906 50.0348 38.2836 49.8443 38.0932C49.6539 37.9027 49.5469 37.6444 49.5469 37.375C49.5469 37.1056 49.6539 36.8473 49.8443 36.6568C50.0348 36.4664 50.2931 36.3594 50.5625 36.3594ZM50.5625 40.4219H70.875C71.1444 40.4219 71.4027 40.5289 71.5932 40.7193C71.7836 40.9098 71.8906 41.1681 71.8906 41.4375C71.8906 41.7069 71.7836 41.9652 71.5932 42.1557C71.4027 42.3461 71.1444 42.4531 70.875 42.4531H50.5625C50.2931 42.4531 50.0348 42.3461 49.8443 42.1557C49.6539 41.9652 49.5469 41.7069 49.5469 41.4375C49.5469 41.1681 49.6539 40.9098 49.8443 40.7193C50.0348 40.5289 50.2931 40.4219 50.5625 40.4219ZM49.6698 57.5199C49.6979 57.3275 49.7808 57.1472 49.9084 57.0005C50.0361 56.8537 50.2032 56.7467 50.3898 56.6922L51.5609 56.3509C51.7626 55.6736 52.0349 55.0193 52.3734 54.3989L51.7813 53.3295C51.6877 53.1588 51.6452 52.9649 51.6587 52.7709C51.6722 52.5768 51.7412 52.3906 51.8574 52.2346C52.5343 51.3257 53.34 50.5203 54.2492 49.8438C54.4052 49.7276 54.5914 49.6586 54.7855 49.6451C54.9796 49.6316 55.1734 49.6742 55.3441 49.7677L56.4135 50.3537C57.0335 50.0151 57.6875 49.7428 58.3645 49.5412L58.7068 48.3702C58.7613 48.1835 58.8683 48.0164 59.0151 47.8887C59.1618 47.7611 59.3421 47.6783 59.5345 47.6501C60.6559 47.4866 61.7951 47.4866 62.9166 47.6501C63.109 47.6783 63.2893 47.7611 63.436 47.8887C63.5828 48.0164 63.6898 48.1835 63.7443 48.3702L64.0855 49.5412C64.7626 49.7426 65.4166 50.015 66.0366 50.3537L67.106 49.7677C67.2766 49.6742 67.4705 49.6316 67.6646 49.6451C67.8587 49.6586 68.0448 49.7276 68.2009 49.8438C69.11 50.5203 69.9158 51.3257 70.5927 52.2346C70.7089 52.3906 70.7779 52.5768 70.7914 52.7709C70.8049 52.9649 70.7623 53.1588 70.6688 53.3295L70.0828 54.3989C70.4213 55.019 70.6936 55.6729 70.8953 56.3499L72.0663 56.6922C72.253 56.7467 72.4201 56.8537 72.5477 57.0005C72.6754 57.1472 72.7582 57.3275 72.7864 57.5199C72.9505 58.6413 72.9505 59.7806 72.7864 60.902C72.7582 61.0944 72.6754 61.2747 72.5477 61.4214C72.4201 61.5681 72.253 61.6751 72.0663 61.7297L70.8953 62.0709C70.6937 62.7483 70.4213 63.4026 70.0828 64.023L70.6688 65.0924C70.7623 65.263 70.8049 65.4569 70.7914 65.651C70.7779 65.8451 70.7089 66.0312 70.5927 66.1873C69.9158 67.0962 69.1101 67.9016 68.2009 68.578C68.0448 68.6943 67.8587 68.7632 67.6646 68.7768C67.4705 68.7903 67.2766 68.7477 67.106 68.6542L66.0366 68.0682C65.4166 68.4068 64.7626 68.6791 64.0855 68.8807L63.7453 70.0477C63.6908 70.2343 63.5838 70.4014 63.437 70.5291C63.2903 70.6567 63.11 70.7396 62.9176 70.7677C61.7962 70.9312 60.657 70.9312 59.5355 70.7677C59.3431 70.7396 59.1628 70.6567 59.0161 70.5291C58.8694 70.4014 58.7624 70.2343 58.7078 70.0477L58.3666 68.8766C57.6895 68.6752 57.0355 68.4028 56.4155 68.0641L55.3461 68.6502C55.1755 68.7437 54.9816 68.7862 54.7875 68.7727C54.5934 68.7592 54.4073 68.6902 54.2512 68.574C53.3421 67.8975 52.5363 67.0921 51.8595 66.1832C51.7432 66.0272 51.6743 65.841 51.6607 65.647C51.6472 65.4529 51.6898 65.259 51.7833 65.0884L52.3693 64.0189C52.0309 63.3988 51.7585 62.7449 51.5568 62.0679L50.3898 61.7297C50.2032 61.6751 50.0361 61.5681 49.9084 61.4214C49.7808 61.2747 49.6979 61.0944 49.6698 60.902C49.5057 59.7806 49.5057 58.6413 49.6698 57.5199ZM34.3491 28.2344C36.9531 28.2346 39.4986 29.007 41.6637 30.4538C43.8288 31.9007 45.5163 33.9571 46.5127 36.363C47.509 38.7689 47.7696 41.4162 47.2615 43.9702C46.7533 46.5242 45.4993 48.8702 43.6579 50.7115C41.8164 52.5527 39.4704 53.8066 36.9163 54.3146C34.3623 54.8225 31.715 54.5617 29.3092 53.5652C26.9034 52.5686 24.8471 50.881 23.4004 48.7158C21.9537 46.5506 21.1815 44.005 21.1815 41.4009C21.1831 37.9093 22.5709 34.5611 25.04 32.0922C27.5091 29.6233 30.8574 28.2357 34.3491 28.2344ZM21.1094 61.75C21.1094 61.4806 21.2164 61.2223 21.4068 61.0318C21.5973 60.8414 21.8556 60.7344 22.125 60.7344H26.1875C26.4569 60.7344 26.7152 60.8414 26.9057 61.0318C27.0961 61.2223 27.2031 61.4806 27.2031 61.75V69.875C27.2031 70.1444 27.0961 70.4027 26.9057 70.5932C26.7152 70.7836 26.4569 70.8906 26.1875 70.8906H22.125C21.8556 70.8906 21.5973 70.7836 21.4068 70.5932C21.2164 70.4027 21.1094 70.1444 21.1094 69.875V61.75Z" fill="#D8D8FC"/>
<path d="M61.2266 63.3253C63.4989 63.3253 65.3409 61.4832 65.3409 59.211C65.3409 56.9387 63.4989 55.0967 61.2266 55.0967C58.9543 55.0967 57.1123 56.9387 57.1123 59.211C57.1123 61.4832 58.9543 63.3253 61.2266 63.3253Z" fill="#D8D8FC"/>
<path d="M52.681 60.2825C52.854 60.333 53.0106 60.4287 53.1344 60.5597C53.2583 60.6907 53.3451 60.8523 53.3858 61.028C53.5878 61.8908 53.931 62.7144 54.4014 63.4655C54.4958 63.6194 54.5474 63.7956 54.5509 63.9761C54.5545 64.1566 54.5099 64.3347 54.4217 64.4923L53.8845 65.4733C54.2133 65.8584 54.5719 66.217 54.957 66.5458L55.9452 66.0157C56.1033 65.9289 56.2816 65.8858 56.4619 65.8908C56.6422 65.8958 56.8179 65.9487 56.971 66.0441C57.7218 66.515 58.5454 66.8582 59.4085 67.0598C59.5841 67.1005 59.7457 67.1873 59.8767 67.3111C60.0077 67.435 60.1034 67.5915 60.1539 67.7646L60.4678 68.8381C60.9724 68.8777 61.4794 68.8777 61.9841 68.8381L62.2979 67.7646C62.3484 67.5915 62.4441 67.435 62.5751 67.3111C62.7061 67.1873 62.8677 67.1005 63.0434 67.0598C63.9064 66.8582 64.7301 66.515 65.4809 66.0441C65.6341 65.9485 65.8099 65.8955 65.9904 65.8905C66.1709 65.8855 66.3495 65.9287 66.5077 66.0157L67.4878 66.553C67.8727 66.224 68.2313 65.8654 68.5603 65.4805L68.0311 64.4923C67.9445 64.3343 67.9016 64.1561 67.9066 63.976C67.9115 63.7959 67.9644 63.6204 68.0596 63.4675C68.53 62.7164 68.8731 61.8929 69.0752 61.03C69.1159 60.8543 69.2027 60.6927 69.3266 60.5617C69.4504 60.4307 69.6069 60.335 69.78 60.2845L70.8535 59.9717C70.8933 59.4667 70.8933 58.9594 70.8535 58.4544L69.78 58.1415C69.6069 58.091 69.4504 57.9954 69.3266 57.8644C69.2027 57.7333 69.1159 57.5717 69.0752 57.3961C68.8736 56.5315 68.5305 55.7061 68.0596 54.9535C67.9645 54.8007 67.9118 54.6254 67.9069 54.4455C67.9019 54.2656 67.9447 54.0876 68.0311 53.9298L68.5684 52.9487C68.2395 52.5636 67.8809 52.205 67.4959 51.8762L66.5077 52.4063C66.3496 52.4931 66.1712 52.5362 65.9909 52.5312C65.8107 52.5262 65.635 52.4733 65.4819 52.3779C64.7311 51.907 63.9074 51.5638 63.0444 51.3623C62.8688 51.3215 62.7071 51.2347 62.5761 51.1109C62.4451 50.987 62.3494 50.8305 62.2989 50.6574L61.9851 49.5839C61.4804 49.5443 60.9734 49.5443 60.4688 49.5839L60.156 50.6574C60.1055 50.8305 60.0098 50.987 59.8788 51.1109C59.7478 51.2347 59.5861 51.3215 59.4105 51.3623C58.5475 51.5638 57.7238 51.907 56.973 52.3779C56.8199 52.4733 56.6442 52.5262 56.464 52.5312C56.2837 52.5362 56.1053 52.4931 55.9472 52.4063L54.9661 51.869C54.5812 52.198 54.2226 52.5566 53.8936 52.9415L54.4309 53.9226C54.5175 54.0806 54.5604 54.2588 54.5554 54.4389C54.5504 54.619 54.4976 54.7945 54.4024 54.9474C53.9315 55.7 53.5883 56.5254 53.3868 57.39C53.3461 57.5656 53.2593 57.7273 53.1354 57.8583C53.0116 57.9893 52.8551 58.0849 52.682 58.1355L51.6085 58.4483C51.5687 58.9533 51.5687 59.4606 51.6085 59.9656L52.681 60.2825ZM61.2264 53.0655C62.4419 53.0653 63.6302 53.4255 64.641 54.1007C65.6518 54.7758 66.4396 55.7356 66.9049 56.8585C67.3702 57.9814 67.492 59.2171 67.255 60.4093C67.018 61.6015 66.4328 62.6966 65.5734 63.5562C64.7139 64.4158 63.6189 65.0012 62.4268 65.2384C61.2346 65.4756 59.9989 65.354 58.8759 64.8888C57.7529 64.4237 56.793 63.636 56.1177 62.6254C55.4424 61.6147 55.0819 60.4265 55.0819 59.211C55.0827 57.5815 55.7303 56.019 56.8824 54.8667C58.0345 53.7144 59.597 53.0665 61.2264 53.0655Z" fill="#FDBF00"/>
<path d="M50.3897 61.7297L51.5607 62.0719C51.7625 62.7489 52.0348 63.4029 52.3732 64.023L51.7811 65.0924C51.6876 65.263 51.6451 65.4569 51.6586 65.651C51.6721 65.8451 51.7411 66.0312 51.8573 66.1873C52.5342 67.0962 53.3399 67.9015 54.2491 68.578C54.4051 68.6943 54.5913 68.7632 54.7853 68.7767C54.9794 68.7902 55.1733 68.7477 55.3439 68.6542L56.4134 68.0682C57.0334 68.4069 57.6873 68.6792 58.3644 68.8807L58.7057 70.0517C58.7602 70.2384 58.8672 70.4055 59.0139 70.5331C59.1607 70.6608 59.341 70.7436 59.5334 70.7718C60.6548 70.9353 61.794 70.9353 62.9154 70.7718C63.1079 70.7436 63.2882 70.6608 63.4349 70.5331C63.5816 70.4055 63.6886 70.2384 63.7432 70.0517L64.0854 68.8807C64.7625 68.6791 65.4164 68.4068 66.0364 68.0682L67.1059 68.6542C67.2765 68.7477 67.4704 68.7902 67.6645 68.7767C67.8586 68.7632 68.0447 68.6943 68.2007 68.578C69.1099 67.9016 69.9157 67.0962 70.5925 66.1873C70.7088 66.0312 70.7777 65.8451 70.7912 65.651C70.8047 65.4569 70.7622 65.263 70.6687 65.0924L70.0827 64.023C70.4212 63.4026 70.6935 62.7483 70.8952 62.0709L72.0662 61.7297C72.2529 61.6751 72.42 61.5681 72.5476 61.4214C72.6753 61.2747 72.7581 61.0944 72.7863 60.9019C72.9504 59.7806 72.9504 58.6413 72.7863 57.5199C72.7581 57.3275 72.6753 57.1472 72.5476 57.0004C72.42 56.8537 72.2529 56.7467 72.0662 56.6922L70.8952 56.3499C70.6935 55.6729 70.4211 55.019 70.0827 54.3989L70.6687 53.3294C70.7622 53.1588 70.8047 52.9649 70.7912 52.7708C70.7777 52.5768 70.7088 52.3906 70.5925 52.2346C69.9157 51.3257 69.1099 50.5203 68.2007 49.8438C68.0447 49.7276 67.8586 49.6586 67.6645 49.6451C67.4704 49.6316 67.2765 49.6741 67.1059 49.7676L66.0364 50.3537C65.4165 50.015 64.7625 49.7426 64.0854 49.5412L63.7452 48.3742C63.6906 48.1875 63.5837 48.0204 63.4369 47.8928C63.2902 47.7651 63.1099 47.6823 62.9175 47.6541C61.796 47.4906 60.6568 47.4906 59.5354 47.6541C59.343 47.6823 59.1627 47.7651 59.016 47.8928C58.8692 48.0204 58.7622 48.1875 58.7077 48.3742L58.3654 49.5452C57.6884 49.7468 57.0344 50.0191 56.4144 50.3577L55.345 49.7656C55.1743 49.6721 54.9805 49.6296 54.7864 49.6431C54.5923 49.6566 54.4061 49.7256 54.2501 49.8418C53.3409 50.5183 52.5352 51.3237 51.8583 52.2326C51.7421 52.3886 51.6731 52.5747 51.6596 52.7688C51.6461 52.9629 51.6886 53.1568 51.7821 53.3274L52.3682 54.3969C52.0297 55.0173 51.7574 55.6715 51.5557 56.3489L50.3846 56.6901C50.198 56.7447 50.0309 56.8517 49.9032 56.9984C49.7756 57.1451 49.6927 57.3254 49.6646 57.5179C49.5005 58.6393 49.5005 59.7785 49.6646 60.8999C49.6928 61.0933 49.7762 61.2745 49.9048 61.4217C50.0334 61.5689 50.2018 61.6758 50.3897 61.7297ZM51.6085 58.4523L52.682 58.1394C52.8551 58.0889 53.0116 57.9933 53.1355 57.8622C53.2593 57.7312 53.3461 57.5696 53.3868 57.394C53.5884 56.5293 53.9315 55.704 54.4025 54.9514C54.4957 54.798 54.5466 54.6226 54.55 54.4431C54.5534 54.2637 54.5091 54.0865 54.4218 53.9297L53.8845 52.9486C54.2135 52.5637 54.5721 52.2051 54.957 51.8761L55.9381 52.4133C56.0962 52.5001 56.2745 52.5432 56.4548 52.5382C56.6351 52.5332 56.8108 52.4803 56.9639 52.3849C57.7147 51.9141 58.5383 51.5709 59.4014 51.3693C59.577 51.3285 59.7386 51.2418 59.8696 51.1179C60.0006 50.994 60.0963 50.8375 60.1468 50.6644L60.4596 49.5909C60.9643 49.5513 61.4713 49.5513 61.976 49.5909L62.2898 50.6644C62.3403 50.8375 62.436 50.994 62.567 51.1179C62.698 51.2418 62.8596 51.3285 63.0353 51.3693C63.8983 51.5709 64.7219 51.9141 65.4728 52.3849C65.6258 52.4803 65.8015 52.5332 65.9818 52.5382C66.1621 52.5432 66.3404 52.5001 66.4986 52.4133L67.4786 51.8761C67.8637 52.2049 68.2223 52.5635 68.5511 52.9486L68.0311 53.9297C67.9446 54.0877 67.9016 54.2658 67.9066 54.4459C67.9116 54.626 67.9644 54.8015 68.0596 54.9544C68.5305 55.7071 68.8736 56.5324 69.0752 57.397C69.1159 57.5727 69.2027 57.7343 69.3266 57.8653C69.4504 57.9963 69.607 58.092 69.78 58.1425L70.8536 58.4553C70.8933 58.9603 70.8933 59.4676 70.8536 59.9726L69.78 60.2855C69.607 60.336 69.4504 60.4316 69.3266 60.5626C69.2027 60.6937 69.1159 60.8553 69.0752 61.0309C68.8731 61.8938 68.53 62.7174 68.0596 63.4684C67.9646 63.6213 67.9119 63.7966 67.9069 63.9765C67.9019 64.1563 67.9447 64.3343 68.0311 64.4922L68.5684 65.4733C68.2394 65.8582 67.8808 66.2168 67.4959 66.5458L66.5077 66.0156C66.3496 65.9288 66.1712 65.8857 65.9909 65.8907C65.8107 65.8957 65.635 65.9487 65.4819 66.044C64.7311 66.5149 63.9074 66.8581 63.0444 67.0597C62.8688 67.1004 62.7071 67.1872 62.5761 67.3111C62.4451 67.4349 62.3494 67.5914 62.2989 67.7645L61.9851 68.838C61.4804 68.8776 60.9735 68.8776 60.4688 68.838L60.155 67.7645C60.1044 67.5914 60.0088 67.4349 59.8778 67.3111C59.7468 67.1872 59.5851 67.1004 59.4095 67.0597C58.5465 66.8581 57.7228 66.5149 56.972 66.044C56.8188 65.9485 56.6429 65.8955 56.4624 65.8905C56.282 65.8855 56.1034 65.9287 55.9452 66.0156L54.9651 66.5529C54.5801 66.224 54.2215 65.8654 53.8926 65.4804L54.4218 64.4922C54.5083 64.3342 54.5513 64.156 54.5463 63.9759C54.5413 63.7959 54.4885 63.6204 54.3933 63.4674C53.9229 62.7164 53.5797 61.8928 53.3777 61.0299C53.3369 60.8543 53.2502 60.6926 53.1263 60.5616C53.0024 60.4306 52.8459 60.3349 52.6728 60.2844L51.5993 59.9716C51.5621 59.4657 51.5659 58.9577 51.6085 58.4523Z" fill="black"/>
<path d="M61.2266 65.3565C62.4421 65.3567 63.6304 64.9965 64.6411 64.3213C65.6519 63.6461 66.4397 62.6864 66.905 61.5635C67.3703 60.4405 67.4922 59.2049 67.2552 58.0127C67.0181 56.8205 66.4329 55.7254 65.5735 54.8658C64.7141 54.0062 63.619 53.4208 62.4269 53.1836C61.2347 52.9464 59.999 53.068 58.876 53.5331C57.753 53.9982 56.7931 54.7859 56.1178 55.7966C55.4425 56.8072 55.082 57.9955 55.082 59.211C55.0828 60.8405 55.7304 62.403 56.8826 63.5553C58.0347 64.7076 59.5971 65.3554 61.2266 65.3565ZM61.2266 55.0987C62.0404 55.0985 62.8361 55.3397 63.5128 55.7917C64.1896 56.2438 64.7171 56.8864 65.0286 57.6383C65.3401 58.3902 65.4216 59.2176 65.2628 60.0158C65.104 60.814 64.712 61.5472 64.1365 62.1226C63.5609 62.698 62.8276 63.0898 62.0294 63.2484C61.2311 63.407 60.4037 63.3253 59.6519 63.0136C58.9001 62.702 58.2576 62.1743 57.8057 61.4974C57.3539 60.8205 57.1129 60.0248 57.1133 59.211C57.1138 58.1201 57.5473 57.0741 58.3186 56.3027C59.0898 55.5312 60.1357 55.0975 61.2266 55.0967V55.0987Z" fill="black"/>
<path d="M19.0781 24.1719H73.9219V18.0781H19.0781V24.1719ZM38.375 20.1094H42.4375C42.7069 20.1094 42.9652 20.2164 43.1557 20.4068C43.3461 20.5973 43.4531 20.8556 43.4531 21.125C43.4531 21.3944 43.3461 21.6527 43.1557 21.8432C42.9652 22.0336 42.7069 22.1406 42.4375 22.1406H38.375C38.1056 22.1406 37.8473 22.0336 37.6568 21.8432C37.4664 21.6527 37.3594 21.3944 37.3594 21.125C37.3594 20.8556 37.4664 20.5973 37.6568 20.4068C37.8473 20.2164 38.1056 20.1094 38.375 20.1094ZM30.25 20.1094H34.3125C34.5819 20.1094 34.8402 20.2164 35.0307 20.4068C35.2211 20.5973 35.3281 20.8556 35.3281 21.125C35.3281 21.3944 35.2211 21.6527 35.0307 21.8432C34.8402 22.0336 34.5819 22.1406 34.3125 22.1406H30.25C29.9806 22.1406 29.7223 22.0336 29.5318 21.8432C29.3414 21.6527 29.2344 21.3944 29.2344 21.125C29.2344 20.8556 29.3414 20.5973 29.5318 20.4068C29.7223 20.2164 29.9806 20.1094 30.25 20.1094ZM22.125 20.1094H26.1875C26.4569 20.1094 26.7152 20.2164 26.9057 20.4068C27.0961 20.5973 27.2031 20.8556 27.2031 21.125C27.2031 21.3944 27.0961 21.6527 26.9057 21.8432C26.7152 22.0336 26.4569 22.1406 26.1875 22.1406H22.125C21.8556 22.1406 21.5973 22.0336 21.4068 21.8432C21.2164 21.6527 21.1094 21.3944 21.1094 21.125C21.1094 20.8556 21.2164 20.5973 21.4068 20.4068C21.5973 20.2164 21.8556 20.1094 22.125 20.1094Z" fill="#2C3B73"/>
<path d="M74.9375 16.0469H18.0625C17.7931 16.0469 17.5348 16.1539 17.3443 16.3443C17.1539 16.5348 17.0469 16.7931 17.0469 17.0625V73.9375C17.0469 74.2069 17.1539 74.4652 17.3443 74.6557C17.5348 74.8461 17.7931 74.9531 18.0625 74.9531H74.9375C75.2069 74.9531 75.4652 74.8461 75.6557 74.6557C75.8461 74.4652 75.9531 74.2069 75.9531 73.9375V17.0625C75.9531 16.7931 75.8461 16.5348 75.6557 16.3443C75.4652 16.1539 75.2069 16.0469 74.9375 16.0469ZM73.9219 72.9219H19.0781V26.2031H73.9219V72.9219ZM73.9219 24.1719H19.0781V18.0781H73.9219V24.1719Z" fill="black"/>
<path d="M34.3492 52.5372C36.5515 52.537 38.7043 51.8838 40.5353 50.6602C42.3663 49.4365 43.7934 47.6974 44.6361 45.6627C45.4788 43.6281 45.6992 41.3892 45.2695 39.2293C44.8398 37.0693 43.7793 35.0853 42.2221 33.5281C40.6648 31.9708 38.6808 30.9103 36.5208 30.4806C34.3609 30.0509 32.122 30.2714 30.0874 31.114C28.0527 31.9567 26.3136 33.3838 25.09 35.2148C23.8663 37.0459 23.2131 39.1986 23.2129 41.4009C23.2142 44.354 24.388 47.1858 26.4761 49.274C28.5643 51.3622 31.3961 52.5359 34.3492 52.5372ZM26.1877 40.4218H33.297V33.3125C33.297 33.0431 33.404 32.7848 33.5945 32.5943C33.785 32.4038 34.0433 32.2968 34.3127 32.2968C34.582 32.2968 34.8403 32.4038 35.0308 32.5943C35.2213 32.7848 35.3283 33.0431 35.3283 33.3125V41.4375C35.3283 41.7068 35.2213 41.9652 35.0308 42.1556C34.8403 42.3461 34.582 42.4531 34.3127 42.4531H26.1877C25.9183 42.4531 25.66 42.3461 25.4695 42.1556C25.279 41.9652 25.172 41.7068 25.172 41.4375C25.172 41.1681 25.279 40.9098 25.4695 40.7193C25.66 40.5288 25.9183 40.4218 26.1877 40.4218Z" fill="#4BB9EC"/>
<path d="M34.3492 54.5685C36.9532 54.5683 39.4987 53.7959 41.6638 52.3491C43.8289 50.9023 45.5163 48.8459 46.5127 46.4401C47.5091 44.0342 47.7698 41.387 47.2617 38.833C46.7537 36.279 45.4997 33.9331 43.6584 32.0918C41.8171 30.2504 39.4711 28.9965 36.9171 28.4884C34.3632 27.9803 31.7159 28.241 29.31 29.2374C26.9042 30.2338 24.8479 31.9213 23.401 34.0863C21.9542 36.2514 21.1818 38.7969 21.1816 41.4009C21.1833 44.8927 22.5711 48.241 25.0401 50.71C27.5092 53.1791 30.8575 54.5669 34.3492 54.5685ZM34.3492 30.2656C36.5515 30.2658 38.7043 30.919 40.5354 32.1427C42.3664 33.3664 43.7935 35.1056 44.6362 37.1403C45.4788 39.175 45.6992 41.4139 45.2694 43.5739C44.8397 45.7339 43.779 47.7179 42.2217 49.2751C40.6644 50.8323 38.6802 51.8928 36.5202 52.3223C34.3602 52.7519 32.1213 52.5313 30.0867 51.6885C28.052 50.8457 26.313 49.4184 25.0895 47.5872C23.8659 45.7561 23.2129 43.6032 23.2129 41.4009C23.2142 38.4479 24.388 35.6162 26.4762 33.5282C28.5644 31.4402 31.3962 30.2667 34.3492 30.2656Z" fill="black"/>
<path d="M25.1719 62.7656H23.1406V68.8594H25.1719V62.7656Z" fill="#4BB9EC"/>
<path d="M22.125 70.8906H26.1875C26.4569 70.8906 26.7152 70.7836 26.9057 70.5932C27.0961 70.4027 27.2031 70.1444 27.2031 69.875V61.75C27.2031 61.4806 27.0961 61.2223 26.9057 61.0318C26.7152 60.8414 26.4569 60.7344 26.1875 60.7344H22.125C21.8556 60.7344 21.5973 60.8414 21.4068 61.0318C21.2164 61.2223 21.1094 61.4806 21.1094 61.75V69.875C21.1094 70.1444 21.2164 70.4027 21.4068 70.5932C21.5973 70.7836 21.8556 70.8906 22.125 70.8906ZM23.1406 62.7656H25.1719V68.8594H23.1406V62.7656Z" fill="black"/>
<path d="M33.2969 60.7344H31.2656V68.8594H33.2969V60.7344Z" fill="#FDBF00"/>
<path d="M34.3125 58.7031H30.25C29.9806 58.7031 29.7223 58.8101 29.5318 59.0006C29.3414 59.1911 29.2344 59.4494 29.2344 59.7188V69.875C29.2344 70.1444 29.3414 70.4027 29.5318 70.5932C29.7223 70.7836 29.9806 70.8906 30.25 70.8906H34.3125C34.5819 70.8906 34.8402 70.7836 35.0307 70.5932C35.2211 70.4027 35.3281 70.1444 35.3281 69.875V59.7188C35.3281 59.4494 35.2211 59.1911 35.0307 59.0006C34.8402 58.8101 34.5819 58.7031 34.3125 58.7031ZM33.2969 68.8594H31.2656V60.7344H33.2969V68.8594Z" fill="black"/>
<path d="M41.4219 58.7031H39.3906V68.8594H41.4219V58.7031Z" fill="#F03800"/>
<path d="M42.4375 56.6719H38.375C38.1056 56.6719 37.8473 56.7789 37.6568 56.9693C37.4664 57.1598 37.3594 57.4181 37.3594 57.6875V69.875C37.3594 70.1444 37.4664 70.4027 37.6568 70.5932C37.8473 70.7836 38.1056 70.8906 38.375 70.8906H42.4375C42.7069 70.8906 42.9652 70.7836 43.1557 70.5932C43.3461 70.4027 43.4531 70.1444 43.4531 69.875V57.6875C43.4531 57.4181 43.3461 57.1598 43.1557 56.9693C42.9652 56.7789 42.7069 56.6719 42.4375 56.6719ZM41.4219 68.8594H39.3906V58.7031H41.4219V68.8594Z" fill="black"/>
<path d="M50.5625 30.2656H70.875C71.1444 30.2656 71.4027 30.1586 71.5932 29.9682C71.7836 29.7777 71.8906 29.5194 71.8906 29.25C71.8906 28.9806 71.7836 28.7223 71.5932 28.5318C71.4027 28.3414 71.1444 28.2344 70.875 28.2344H50.5625C50.2931 28.2344 50.0348 28.3414 49.8443 28.5318C49.6539 28.7223 49.5469 28.9806 49.5469 29.25C49.5469 29.5194 49.6539 29.7777 49.8443 29.9682C50.0348 30.1586 50.2931 30.2656 50.5625 30.2656Z" fill="black"/>
<path d="M50.5625 34.3281H70.875C71.1444 34.3281 71.4027 34.2211 71.5932 34.0307C71.7836 33.8402 71.8906 33.5819 71.8906 33.3125C71.8906 33.0431 71.7836 32.7848 71.5932 32.5943C71.4027 32.4039 71.1444 32.2969 70.875 32.2969H50.5625C50.2931 32.2969 50.0348 32.4039 49.8443 32.5943C49.6539 32.7848 49.5469 33.0431 49.5469 33.3125C49.5469 33.5819 49.6539 33.8402 49.8443 34.0307C50.0348 34.2211 50.2931 34.3281 50.5625 34.3281Z" fill="black"/>
<path d="M50.5625 38.3906H70.875C71.1444 38.3906 71.4027 38.2836 71.5932 38.0932C71.7836 37.9027 71.8906 37.6444 71.8906 37.375C71.8906 37.1056 71.7836 36.8473 71.5932 36.6568C71.4027 36.4664 71.1444 36.3594 70.875 36.3594H50.5625C50.2931 36.3594 50.0348 36.4664 49.8443 36.6568C49.6539 36.8473 49.5469 37.1056 49.5469 37.375C49.5469 37.6444 49.6539 37.9027 49.8443 38.0932C50.0348 38.2836 50.2931 38.3906 50.5625 38.3906Z" fill="black"/>
<path d="M50.5625 42.4531H70.875C71.1444 42.4531 71.4027 42.3461 71.5932 42.1557C71.7836 41.9652 71.8906 41.7069 71.8906 41.4375C71.8906 41.1681 71.7836 40.9098 71.5932 40.7193C71.4027 40.5289 71.1444 40.4219 70.875 40.4219H50.5625C50.2931 40.4219 50.0348 40.5289 49.8443 40.7193C49.6539 40.9098 49.5469 41.1681 49.5469 41.4375C49.5469 41.7069 49.6539 41.9652 49.8443 42.1557C50.0348 42.3461 50.2931 42.4531 50.5625 42.4531Z" fill="black"/>
<path d="M22.125 22.1406H26.1875C26.4569 22.1406 26.7152 22.0336 26.9057 21.8432C27.0961 21.6527 27.2031 21.3944 27.2031 21.125C27.2031 20.8556 27.0961 20.5973 26.9057 20.4068C26.7152 20.2164 26.4569 20.1094 26.1875 20.1094H22.125C21.8556 20.1094 21.5973 20.2164 21.4068 20.4068C21.2164 20.5973 21.1094 20.8556 21.1094 21.125C21.1094 21.3944 21.2164 21.6527 21.4068 21.8432C21.5973 22.0336 21.8556 22.1406 22.125 22.1406Z" fill="#F2F2FC"/>
<path d="M30.25 22.1406H34.3125C34.5819 22.1406 34.8402 22.0336 35.0307 21.8432C35.2211 21.6527 35.3281 21.3944 35.3281 21.125C35.3281 20.8556 35.2211 20.5973 35.0307 20.4068C34.8402 20.2164 34.5819 20.1094 34.3125 20.1094H30.25C29.9806 20.1094 29.7223 20.2164 29.5318 20.4068C29.3414 20.5973 29.2344 20.8556 29.2344 21.125C29.2344 21.3944 29.3414 21.6527 29.5318 21.8432C29.7223 22.0336 29.9806 22.1406 30.25 22.1406Z" fill="#F2F2FC"/>
<path d="M38.375 22.1406H42.4375C42.7069 22.1406 42.9652 22.0336 43.1557 21.8432C43.3461 21.6527 43.4531 21.3944 43.4531 21.125C43.4531 20.8556 43.3461 20.5973 43.1557 20.4068C42.9652 20.2164 42.7069 20.1094 42.4375 20.1094H38.375C38.1056 20.1094 37.8473 20.2164 37.6568 20.4068C37.4664 20.5973 37.3594 20.8556 37.3594 21.125C37.3594 21.3944 37.4664 21.6527 37.6568 21.8432C37.8473 22.0336 38.1056 22.1406 38.375 22.1406Z" fill="#F2F2FC"/>
<path d="M26.1875 42.4531H34.3125C34.5819 42.4531 34.8402 42.3461 35.0307 42.1557C35.2211 41.9652 35.3281 41.7069 35.3281 41.4375V33.3125C35.3281 33.0431 35.2211 32.7848 35.0307 32.5943C34.8402 32.4039 34.5819 32.2969 34.3125 32.2969C34.0431 32.2969 33.7848 32.4039 33.5943 32.5943C33.4039 32.7848 33.2969 33.0431 33.2969 33.3125V40.4219H26.1875C25.9181 40.4219 25.6598 40.5289 25.4693 40.7193C25.2789 40.9098 25.1719 41.1681 25.1719 41.4375C25.1719 41.7069 25.2789 41.9652 25.4693 42.1557C25.6598 42.3461 25.9181 42.4531 26.1875 42.4531Z" fill="black"/>
</svg>
