<svg width="95" height="95" viewBox="0 0 95 95" fill="none" xmlns="http://www.w3.org/2000/svg">
<circle cx="47.5" cy="47.5" r="47.5" fill="#FF9819"/>
<path d="M44.5833 53.1633C24.6218 53.1633 7 54.9995 7 61.9593C7 63.7659 8.06623 66.0464 8.98434 67.9123C11.9756 73.8059 26.7246 78.3373 44.5833 78.3373C62.442 78.3373 77.191 73.8059 80.1823 67.9123C81.13 66.076 82.1665 63.7955 82.1665 61.9593C82.1665 54.9995 64.5447 53.1633 44.5833 53.1633Z" fill="#D4A35F"/>
<path d="M78.9092 62.3445C78.9092 68.4455 63.5383 73.3914 44.5837 73.3914C25.6292 73.3914 10.2583 68.4455 10.2583 62.3445C10.2583 56.2435 25.6292 51.2976 44.5837 51.2976C63.5383 51.2976 78.9092 56.2435 78.9092 62.3445Z" fill="#E3B16B"/>
<path d="M64.8105 58.02C57.1991 58.02 50.4761 58.7604 50.4761 61.4851C50.4761 62.1959 50.8907 63.1139 51.2461 63.8247C52.3716 66.1644 58.0283 67.9415 64.8105 67.9415C71.5927 67.9415 77.2494 66.1644 78.3748 63.8247C78.7302 63.0843 79.1449 62.1959 79.1449 61.4851C79.1449 58.7308 72.4219 58.02 64.8105 58.02Z" fill="#D4A35F"/>
<path d="M64.8105 57.3687C57.1991 57.3687 50.4761 58.0795 50.4761 60.7153C50.4761 61.3965 50.8907 62.2851 51.2461 62.9958C52.3716 65.2467 58.0283 66.9643 64.8105 66.9643C71.5927 66.9643 77.2494 65.2467 78.3748 62.9958C78.7302 62.2851 79.1449 61.4261 79.1449 60.7153C79.1449 58.0795 72.4219 57.3687 64.8105 57.3687Z" fill="#D4D4D4"/>
<path d="M79.1449 60.7153C79.1449 63.4696 72.7181 65.7205 64.8105 65.7205C56.9029 65.7205 50.4761 63.4992 50.4761 60.7153C50.4761 57.9313 56.8733 55.7397 64.8105 55.7397C72.7477 55.7397 79.1449 57.961 79.1449 60.7153Z" fill="#F5F5F5"/>
<path d="M74.6728 59.886C74.0805 59.886 73.5474 59.5306 73.3105 58.9679C73.0143 58.1979 73.3697 57.3391 74.1397 57.0429C81.2181 54.1997 82.5212 51.86 82.4916 51.4157C82.2547 51.2084 80.5072 51.0307 78.0787 52.3635C77.3679 52.7485 76.4498 52.5115 76.0648 51.7711C75.6798 51.0603 75.9167 50.1422 76.6572 49.7572C79.5003 48.1875 82.4323 47.8914 84.1205 48.9872C85.0682 49.6091 85.5421 50.5866 85.4236 51.712C85.157 54.3479 81.5438 57.2206 75.2355 59.7676C75.0578 59.8268 74.8801 59.886 74.6728 59.886Z" fill="#E8E8E8"/>
<path d="M64.811 45.1963C57.1403 45.1963 50.3877 45.9071 50.3877 48.5726C50.3877 49.2538 53.912 60.0636 54.1786 60.6263C55.0671 62.3737 59.48 63.7362 64.811 63.7362C70.1419 63.7362 74.5548 62.3737 75.4433 60.6263C75.7098 60.0636 79.2342 49.2538 79.2342 48.5726C79.2342 45.9071 72.452 45.1963 64.811 45.1963Z" fill="#D4D4D4"/>
<path d="M79.2342 48.5727C79.2342 51.3566 72.7778 53.6073 64.811 53.6073C56.8442 53.6073 50.3877 51.3566 50.3877 48.5727C50.3877 45.7887 56.8442 43.5378 64.811 43.5378C72.7778 43.5378 79.2342 45.7887 79.2342 48.5727Z" fill="#F5F5F5"/>
<path d="M76.3611 48.5728C76.3611 50.5867 71.2079 52.1859 64.8107 52.1859C58.4136 52.1859 53.2603 50.5571 53.2603 48.5728C53.2603 46.5885 58.4432 44.9595 64.8107 44.9595C71.1783 44.9595 76.3611 46.5885 76.3611 48.5728Z" fill="#E8E8E8"/>
<path d="M64.8114 47.6841C59.9839 47.6841 55.8672 48.6022 54.1494 49.935C55.8672 51.2677 59.9839 52.1858 64.8114 52.1858C69.6388 52.1858 73.7554 51.2677 75.4732 49.935C73.7554 48.6318 69.6388 47.6841 64.8114 47.6841Z" fill="#784430"/>
<path d="M66.6473 48.0096C66.6473 48.6908 65.5515 49.2535 64.2484 49.2535C62.9453 49.2535 61.8198 48.6908 61.8198 48.0096C61.8198 47.3285 62.9157 46.7656 64.2484 46.7656C65.5811 46.7656 66.6473 47.3285 66.6473 48.0096Z" fill="#FFDABA"/>
<path d="M65.966 48.2171C65.966 48.5132 65.5218 48.7503 64.9591 48.7503C64.3964 48.7503 63.9521 48.5132 63.9521 48.2171C63.9521 47.9209 64.3964 47.7136 64.9591 47.7136C65.5218 47.7136 65.966 47.9505 65.966 48.2171Z" fill="#784430"/>
<path d="M71.0899 48.2468C71.0899 48.7206 70.3494 49.1057 69.4609 49.1057C68.5724 49.1057 67.832 48.7206 67.832 48.2468C67.832 47.7729 68.5724 47.3879 69.4609 47.3879C70.3494 47.3879 71.0899 47.7729 71.0899 48.2468Z" fill="#FFDABA"/>
<path d="M70.6456 48.3954C70.6456 48.6027 70.3494 48.7507 69.9644 48.7507C69.5794 48.7507 69.2832 48.6027 69.2832 48.3954C69.2832 48.188 69.5794 48.0398 69.9644 48.0398C70.3494 48.0398 70.6456 48.188 70.6456 48.3954Z" fill="#784430"/>
<path d="M75.1176 49.2834C75.1176 49.698 74.5253 50.0238 73.7849 50.0238C73.0445 50.0238 72.4521 49.698 72.4521 49.2834C72.4521 48.8687 73.0445 48.543 73.7849 48.543C74.5253 48.543 75.1176 48.8687 75.1176 49.2834Z" fill="#FFDABA"/>
<path d="M74.7318 49.4018C74.7318 49.5795 74.4949 49.6979 74.1691 49.6979C73.8433 49.6979 73.6064 49.5795 73.6064 49.4018C73.6064 49.2241 73.8433 49.1057 74.1691 49.1057C74.4949 49.1057 74.7318 49.2537 74.7318 49.4018Z" fill="#784430"/>
<path d="M62.9162 48.3057C62.9162 49.0757 61.702 49.6976 60.1915 49.6976C58.6811 49.6976 57.4668 49.0757 57.4668 48.3057C57.4668 47.5357 58.6811 46.9138 60.1915 46.9138C61.702 46.9138 62.9162 47.5357 62.9162 48.3057Z" fill="#FFDABA"/>
<path d="M62.1458 48.5433C62.1458 48.8691 61.6424 49.1357 61.0205 49.1357C60.3985 49.1357 59.895 48.8691 59.895 48.5433C59.895 48.2175 60.3985 47.9509 61.0205 47.9509C61.6424 47.9509 62.1458 48.2175 62.1458 48.5433Z" fill="#784430"/>
<path d="M58.6512 49.1055C58.6512 49.5498 57.97 49.905 57.1407 49.905C56.3115 49.905 55.6304 49.5498 55.6304 49.1055C55.6304 48.6613 56.3115 48.3354 57.1407 48.3354C57.97 48.3354 58.6512 48.6909 58.6512 49.1055Z" fill="#FFDABA"/>
<path d="M58.2361 49.2239C58.2361 49.4016 57.9399 49.5497 57.6141 49.5497C57.2883 49.5497 56.9922 49.4016 56.9922 49.2239C56.9922 49.0462 57.2883 48.8982 57.6141 48.8982C57.9399 48.8982 58.2361 49.0462 58.2361 49.2239Z" fill="#784430"/>
<path d="M84.1799 52.0377C84.1799 52.0377 84.1504 52.0377 84.1207 52.0377C83.7061 52.0377 83.4099 51.6526 83.4395 51.238C83.4395 51.0603 83.3507 50.8826 83.1138 50.7049C82.5511 50.3199 81.396 50.2014 80.4187 50.7049C80.0633 50.8826 79.619 50.7346 79.4117 50.3792C79.234 50.0238 79.3821 49.5794 79.7375 49.3721C81.0998 48.6909 82.8176 48.7206 83.943 49.4611C84.6242 49.9053 84.9796 50.5865 84.9203 51.3269C84.9203 51.7119 84.5649 52.008 84.1799 52.008V52.0377Z" fill="#F5F5F5"/>
<path opacity="0.2" d="M64.3373 4C51.3653 19.4302 74.9992 22.8954 63.7746 40.221C97.0931 20.8815 59.0063 17.2682 64.3373 4Z" fill="#0B0602"/>
<path d="M29.834 56.6877C19.6164 56.6877 10.5537 57.665 10.5537 61.367C10.5537 62.3444 11.0868 63.5586 11.5607 64.536C13.0711 67.6753 20.6529 70.0743 29.8044 70.0743C38.9559 70.0743 46.5377 67.6753 48.0481 64.536C48.522 63.5586 49.0551 62.3444 49.0551 61.367C49.0551 57.665 40.022 56.6877 29.7747 56.6877H29.834Z" fill="#D4A35F"/>
<path d="M29.834 55.8289C19.6164 55.8289 10.5537 56.7766 10.5537 60.3306C10.5537 61.2487 11.0868 62.4335 11.5607 63.3812C13.0711 66.4021 20.6529 68.7418 29.8044 68.7418C38.9559 68.7418 46.5377 66.4317 48.0481 63.3812C48.522 62.4335 49.0551 61.2783 49.0551 60.3306C49.0551 56.7766 40.022 55.8289 29.7747 55.8289H29.834Z" fill="#D4D4D4"/>
<path d="M49.1143 60.3304C49.1143 64.0325 40.496 67.0238 29.834 67.0238C19.1721 67.0238 10.5537 64.0325 10.5537 60.3304C10.5537 56.6284 19.1721 53.6074 29.834 53.6074C40.496 53.6074 49.1143 56.5987 49.1143 60.3304Z" fill="#F5F5F5"/>
<path d="M46.3896 60.3305C46.3896 63.1441 38.9855 65.4246 29.834 65.4246C20.6825 65.4246 13.2783 63.1441 13.2783 60.3305C13.2783 57.517 20.6825 55.2366 29.834 55.2366C38.9855 55.2366 46.3896 57.517 46.3896 60.3305Z" fill="#E8E8E8"/>
<path d="M43.8724 53.9335C41.4142 51.7122 33.9805 47.2698 25.6583 47.2698C17.336 47.2698 12.627 51.4455 12.627 56.7469C12.627 63.7068 25.0362 67.4977 39.3706 66.0465C43.0134 65.6615 42.8654 63.766 39.6964 63.4402C36.6755 63.1145 31.8776 61.4561 31.8776 58.761C31.8776 56.0659 38.3044 55.7399 43.3985 56.3915C45.4716 56.6581 45.679 55.5622 43.902 53.9629L43.8724 53.9335Z" fill="#D47844"/>
<path d="M20.741 47.8324C22.2515 46.7366 26.072 46.3811 28.7967 47.4769C31.551 48.5727 33.4761 50.8533 33.7722 53.9334C33.8907 55.3846 32.1433 56.0657 30.9883 54.4072C26.6939 48.247 19.2601 48.8986 20.7706 47.8324H20.741Z" fill="#FFC566"/>
<path d="M31.2856 47.9212C34.0104 49.6982 34.81 52.1267 35.2246 53.8148C35.4911 54.9403 37.0905 55.118 37.5051 53.6668C37.742 52.8375 38.0382 51.2679 37.0312 49.8167C36.0243 48.3655 31.9076 46.7661 31.3153 47.9212H31.2856Z" fill="#FFC566"/>
<path d="M30.7526 55.7695C26.8137 51.0013 21.305 48.6022 16.7737 49.5203C13.4566 50.2015 10.4654 55.7694 12.7754 58.2276C13.7528 56.2136 23.4966 54.1702 29.9529 58.3461C31.3745 59.2643 32.2335 57.6058 30.7526 55.7992V55.7695Z" fill="#FFC566"/>
<path d="M30.9001 59.6788C26.8722 57.1317 20.564 56.8948 18.0762 60.0045C15.5884 63.1142 24.266 64.5357 26.3096 62.9068C28.3531 61.2779 29.7746 60.8634 31.2258 60.9522C32.6474 61.0411 32.0255 60.3599 30.9001 59.6491V59.6788Z" fill="#FFC566"/>
<path opacity="0.5" d="M41.2358 64.7731C38.8072 64.9804 33.6836 63.5884 30.2481 63.4699C28.8265 63.4107 27.79 64.6545 26.398 64.5361C24.1175 64.3288 20.5043 63.855 18.4312 63.1738C25.9537 66.8463 39.0738 66.165 41.2358 64.7731Z" fill="#EB5600"/>
<path opacity="0.5" d="M31.9369 57.1914C32.0257 56.066 32.1738 56.2734 33.0327 55.7995C33.9212 55.3256 34.5135 54.1705 34.5135 54.1705C34.5135 54.1705 35.402 55.1775 36.5867 55.1478C37.8009 55.0886 38.5709 53.7263 38.5709 53.7263C38.5709 53.7263 43.4873 55.8883 44.3462 55.5625C42.5692 56.5991 39.7852 55.5033 37.1789 55.7106C33.5657 55.9771 31.9072 57.1914 31.9072 57.1914H31.9369Z" fill="#EB5600"/>
</svg>
