<svg width="95" height="95" viewBox="0 0 95 95" fill="none" xmlns="http://www.w3.org/2000/svg">
<circle cx="47.5" cy="47.5" r="47.5" fill="#FF9819"/>
<g clip-path="url(#clip0_167_1480)">
<path d="M47.5 7C25.1325 7 7 25.1325 7 47.5C7 69.8675 25.1325 88 47.5 88C69.8675 88 88 69.8675 88 47.5C88 25.1325 69.8675 7 47.5 7ZM47.5 60.2895C40.4365 60.2895 34.7105 54.5635 34.7105 47.5C34.7105 40.4365 40.4365 34.7105 47.5 34.7105C54.5635 34.7105 60.2895 40.4365 60.2895 47.5C60.2895 54.5635 54.5635 60.2895 47.5 60.2895Z" fill="#D8D8DA"/>
<path d="M51.763 36.8423H86.5797C83.7427 26.4158 76.8477 17.6621 67.693 12.386L43.2368 36.8423H51.763Z" fill="#D4B6E6"/>
<path d="M43.237 36.8422L67.693 12.3859C61.7492 8.96014 54.8537 7 47.5001 7C43.811 7 40.2387 7.49597 36.8423 8.42035V43.2369L43.237 36.8422Z" fill="#EBAFD1"/>
<path d="M36.8424 43.237V8.42041C26.4158 11.2573 17.6621 18.1523 12.3862 27.307L36.8422 51.7633V43.237H36.8424Z" fill="#E07188"/>
<path d="M36.8423 43.237L43.237 36.8424H51.7632V36.8423H43.237L36.8423 43.237Z" fill="#D8D8DA"/>
<path d="M43.237 58.1578L36.8423 51.7632L43.237 58.1579H51.7632L58.1579 51.7632L51.7632 58.1578H43.237Z" fill="#D8D8DA"/>
<path d="M86.5801 36.8423H51.7632L51.9147 36.8424L58.1579 43.237L82.6141 67.6932C86.0401 61.7492 88.0001 54.8537 88.0001 47.5001C88.0001 43.811 87.5041 40.2384 86.5801 36.8423Z" fill="#B4D8F1"/>
<path d="M58.1577 51.763V86.5796C68.5841 83.7427 77.3379 76.8474 82.6137 67.693L58.1577 43.2368V51.763Z" fill="#ACFFF4"/>
<path d="M51.7631 58.1579L27.3071 82.6142C33.251 86.0399 40.1464 88.0001 47.5 88.0001C51.1892 88.0001 54.7614 87.5041 58.1578 86.5799V51.7632L51.7631 58.1579Z" fill="#95D5A7"/>
<path d="M43.2368 58.1577H8.41992C11.2571 68.5842 18.1521 77.3379 27.3068 82.614L51.7631 58.1577H43.2368Z" fill="#F8E99B"/>
<path d="M36.8422 51.763L12.386 27.3069C8.95998 33.2509 7 40.1463 7 47.4999C7 51.1891 7.49597 54.7616 8.42003 58.1578H43.2367L36.8422 51.763Z" fill="#EFC27B"/>
<path d="M51.9147 36.8423H51.7632L58.1579 43.2369L51.9147 36.8423Z" fill="#D8D8DA"/>
<path d="M86.58 36.8423C83.7428 26.4158 76.8478 17.6621 67.693 12.386L47.5 32.579V36.8421H51.7631H86.58V36.8423Z" fill="#B681D5"/>
<path d="M67.6929 12.3859C61.749 8.96014 54.8536 7 47.5 7V32.5789L67.6929 12.3859Z" fill="#E592BF"/>
<path d="M47.5 62.4212V88.0001C51.1891 88.0001 54.7614 87.5041 58.1578 86.5799V51.7632L51.7631 58.1579L47.5 62.4212Z" fill="#80CB93"/>
<path d="M51.7631 58.1577H47.5V62.421L51.7631 58.1577Z" fill="#F6E27D"/>
<path d="M51.2196 58.736C49.4676 58.736 47.8596 58.484 46.3956 57.98C44.9316 57.5 43.4916 56.924 42.0756 56.252C40.6836 55.58 39.2196 54.968 37.6836 54.416C36.9636 54.704 36.1476 55.004 35.2356 55.316C34.3476 55.604 33.5196 55.748 32.7516 55.748C32.2716 55.748 31.8276 55.64 31.4196 55.424C31.0116 55.208 30.8076 54.812 30.8076 54.236C30.8076 53.756 30.9516 53.384 31.2396 53.12C31.5276 52.856 31.8756 52.664 32.2836 52.544C32.6916 52.424 33.0756 52.364 33.4356 52.364C34.1316 52.364 34.8156 52.448 35.4876 52.616C36.1836 52.784 36.8676 52.976 37.5396 53.192C39.0756 52.4 40.6356 51.536 42.2196 50.6C43.8036 49.64 45.3156 48.632 46.7556 47.576C48.1956 46.52 49.4796 45.44 50.6076 44.336C51.7356 43.232 52.6236 42.128 53.2716 41.024C53.9436 39.92 54.2796 38.84 54.2796 37.784C54.2796 36.008 53.1036 35.12 50.7516 35.12C49.8156 35.12 48.7956 35.276 47.6916 35.588C46.5876 35.9 45.5436 36.344 44.5596 36.92C43.5756 37.496 42.7596 38.18 42.1116 38.972C41.4876 39.74 41.1756 40.604 41.1756 41.564C41.1756 41.78 41.1996 41.996 41.2476 42.212C41.3196 42.404 41.3556 42.608 41.3556 42.824C41.3556 42.848 41.3556 42.896 41.3556 42.968C41.3556 43.016 41.3316 43.04 41.2836 43.04C41.1156 43.04 40.9596 42.896 40.8156 42.608C40.6956 42.32 40.5996 42.008 40.5276 41.672C40.4796 41.312 40.4556 41.06 40.4556 40.916C40.4556 39.74 40.7916 38.744 41.4636 37.928C42.1356 37.088 42.9996 36.404 44.0556 35.876C45.1116 35.348 46.2396 34.964 47.4396 34.724C48.6636 34.484 49.8156 34.364 50.8956 34.364C51.7836 34.364 52.6476 34.508 53.4876 34.796C54.3516 35.06 55.0596 35.492 55.6116 36.092C56.1876 36.692 56.4756 37.508 56.4756 38.54C56.4756 39.596 56.1636 40.652 55.5396 41.708C54.9156 42.764 54.0876 43.796 53.0556 44.804C52.0236 45.812 50.8716 46.772 49.5996 47.684C48.3276 48.596 47.0316 49.448 45.7116 50.24C44.3916 51.032 43.1436 51.74 41.9676 52.364C40.7916 52.964 39.7836 53.456 38.9436 53.84C40.2876 54.152 41.6316 54.488 42.9756 54.848C44.3436 55.184 45.6876 55.52 47.0076 55.856C47.9436 56.072 48.8916 56.276 49.8516 56.468C50.8116 56.684 51.7476 56.792 52.6596 56.792C52.9956 56.792 53.4036 56.756 53.8836 56.684C54.3876 56.636 54.8676 56.528 55.3236 56.36C55.8036 56.192 56.1996 55.964 56.5116 55.676C56.8236 55.364 56.9796 54.98 56.9796 54.524C56.9796 53.852 56.7156 53.24 56.1876 52.688C55.6596 52.112 55.0356 51.632 54.3156 51.248C53.6196 50.84 52.9956 50.564 52.4436 50.42C52.2996 50.42 52.2276 50.384 52.2276 50.312C52.2276 50.24 52.2636 50.192 52.3356 50.168C52.4316 50.144 52.5036 50.132 52.5516 50.132C52.5996 50.132 52.6596 50.144 52.7316 50.168C53.4756 50.312 54.2196 50.576 54.9636 50.96C55.7076 51.344 56.3196 51.848 56.7996 52.472C57.3036 53.096 57.5556 53.852 57.5556 54.74C57.5556 55.532 57.3396 56.192 56.9076 56.72C56.4996 57.248 55.9596 57.656 55.2876 57.944C54.6396 58.232 53.9556 58.436 53.2356 58.556C52.5156 58.676 51.8436 58.736 51.2196 58.736ZM32.7516 55.208C33.3756 55.208 33.9276 55.052 34.4076 54.74C34.9116 54.428 35.4276 54.152 35.9556 53.912C35.5476 53.84 35.1276 53.756 34.6956 53.66C34.2876 53.54 33.8676 53.48 33.4356 53.48C33.1716 53.48 32.8116 53.552 32.3556 53.696C31.8996 53.816 31.6716 54.08 31.6716 54.488C31.6716 54.776 31.7916 54.968 32.0316 55.064C32.2956 55.16 32.5356 55.208 32.7516 55.208Z" fill="#0A4A81"/>
</g>
<defs>
<clipPath id="clip0_167_1480">
<rect width="81" height="81" fill="white" transform="translate(7 7)"/>
</clipPath>
</defs>
</svg>
