<svg width="95" height="95" viewBox="0 0 95 95" fill="none" xmlns="http://www.w3.org/2000/svg">
<circle cx="47.5" cy="47.5" r="47.5" fill="#FF9819"/>
<path d="M75.2804 43.7309C74.4855 40.9587 66.857 24.5771 61.9619 24.5771C57.0669 24.5771 53.6548 28.5514 53.6548 34.5708C53.6548 40.5903 63.5419 42.6453 63.5419 42.6453V45.1752C63.5419 45.1752 57.0766 45.6599 53.209 41.5596C49.3414 37.4594 50.2525 26.1474 50.2525 26.1474L47.5384 26.2638L44.8243 26.1474C44.8243 26.1474 45.7355 37.4691 41.8679 41.5596C38.0003 45.6502 31.535 45.1752 31.535 45.1752V42.6453C31.535 42.6453 41.422 40.6 41.422 34.5708C41.422 28.5417 38.01 24.5771 33.115 24.5771C28.2199 24.5771 20.5913 40.9587 19.7965 43.7309C19.0016 46.5032 7.80599 70.6877 25.1084 70.6877C42.4107 70.6877 41.9552 48.8877 41.9552 48.8877C41.9552 48.8877 36.1392 53.1042 35.4704 52.2609C34.8016 51.4176 35.926 49.8473 39.3477 46.8424C42.7694 43.8375 47.5287 44.7972 47.5287 44.7972C47.5287 44.7972 52.2978 43.8279 55.7098 46.8424C59.1218 49.857 60.2656 51.4176 59.5871 52.2609C58.9086 53.1042 53.1023 48.8877 53.1023 48.8877C53.1023 48.8877 52.6274 70.6877 69.9297 70.6877C87.2321 70.6877 76.0752 46.5032 75.2804 43.7309Z" fill="#DAAAAB"/>
<path d="M72.9252 71.3758C67.4 71.3758 62.8636 69.6019 59.4419 66.1124C52.4822 58.9975 52.6567 47.3269 52.6567 46.8326C52.6547 46.6197 52.7111 46.4103 52.8199 46.2273C52.9287 46.0443 53.0856 45.8947 53.2736 45.7947C53.4615 45.6947 53.6733 45.6482 53.8859 45.6603C54.0984 45.6724 54.3036 45.7426 54.479 45.8633C56.1527 47.0295 57.9048 48.0789 59.723 49.0039C58.6042 47.7337 57.3712 46.5689 56.0396 45.524C52.6567 42.7033 47.7713 43.5854 47.7228 43.5854C47.5787 43.6129 47.4307 43.6129 47.2866 43.5854C47.2866 43.5854 42.3625 42.7033 38.9699 45.524C37.638 46.5686 36.405 47.7335 35.2865 49.0039C37.1046 48.0788 38.8568 47.0295 40.5305 45.8633C40.7059 45.7426 40.911 45.6724 41.1236 45.6603C41.3362 45.6482 41.548 45.6947 41.7359 45.7947C41.9239 45.8947 42.0808 46.0443 42.1896 46.2273C42.2983 46.4103 42.3548 46.6197 42.3528 46.8326C42.3528 47.3269 42.537 58.9879 35.5676 66.1124C32.1459 69.6116 27.6094 71.3758 22.0843 71.3758C17.3153 71.3758 13.8936 69.9024 11.9258 67.0041C7.29248 60.2189 12.2069 47.8213 14.3104 42.5482C14.6012 41.8212 14.8338 41.2396 14.9113 40.9779C15.6674 38.5061 24.5173 19.6528 31.1184 19.6528C37.3511 19.6528 41.7034 24.4994 41.7034 31.527C41.7034 37.721 33.3672 40.3672 30.498 41.0942V41.734C32.5821 41.6758 37.2348 41.1911 40.1912 38.1959C43.4772 34.9099 43.4869 25.8177 43.2058 22.5996C43.192 22.4355 43.2131 22.2705 43.2678 22.1152C43.3225 21.96 43.4096 21.8181 43.5232 21.699C43.6368 21.5799 43.7744 21.4863 43.9269 21.4243C44.0794 21.3623 44.2433 21.3334 44.4078 21.3394L47.4417 21.4655L50.4757 21.3394C50.6402 21.3334 50.8041 21.3623 50.9566 21.4243C51.1091 21.4863 51.2467 21.5799 51.3603 21.699C51.4739 21.8181 51.5609 21.96 51.6156 22.1152C51.6704 22.2705 51.6915 22.4355 51.6777 22.5996C51.4063 25.8274 51.4159 34.9196 54.6923 38.1959C57.7068 41.2105 62.3402 41.6855 64.3855 41.7436V41.1039C61.4775 40.3769 53.1801 37.7307 53.1801 31.5367C53.1801 24.5479 57.5324 19.6625 63.7651 19.6625C70.3662 19.6625 79.2258 38.5352 79.9721 40.9876C80.0594 41.259 80.2823 41.8309 80.5731 42.5579C82.6668 47.831 87.5813 60.1898 82.9576 67.0138C81.1159 69.9024 77.6942 71.3758 72.9252 71.3758ZM55.08 49.0814C55.3708 52.6679 56.534 59.8021 61.1092 64.4645C64.0753 67.4888 68.0495 69.03 72.9252 69.03C76.88 69.03 79.6523 67.9056 81.1644 65.6762C85.1095 59.8602 80.3405 47.8891 78.5472 43.3818C78.2274 42.5773 77.9947 41.986 77.8881 41.6273C76.341 37.7605 74.4395 34.0451 72.2079 30.5286C68.8443 25.1392 65.7425 21.9307 63.9008 21.9307C58.9573 21.9307 55.6422 25.808 55.6422 31.4785C55.6422 35.9762 63.0575 38.4189 65.9073 38.9811C66.1778 39.0268 66.4234 39.1667 66.6008 39.376C66.7782 39.5853 66.8759 39.8505 66.8766 40.1249V42.839C66.8774 43.1329 66.7669 43.4163 66.5673 43.6321C66.3677 43.8479 66.0938 43.9801 65.8007 44.0022C65.4808 44.0022 57.8813 44.4965 53.1995 39.7953C49.3222 35.918 49.3222 27.0391 49.4288 23.6658L47.6259 23.7434H47.529L45.726 23.6658C45.8617 27.0391 45.823 35.9277 41.9554 39.7953C37.2445 44.5062 29.6547 44.0312 29.3542 44.0022C29.0611 43.9801 28.7872 43.8479 28.5876 43.6321C28.3879 43.4163 28.2774 43.1329 28.2783 42.839V40.1249C28.279 39.8505 28.3767 39.5853 28.5541 39.376C28.7314 39.1667 28.9771 39.0268 29.2476 38.9811C32.1071 38.4189 39.5127 35.9762 39.5127 31.4785C39.5127 25.7692 36.1976 21.9307 31.2541 21.9307C29.4124 21.9307 26.3106 25.1489 22.947 30.5286C20.7147 34.0447 18.8132 37.7602 17.2668 41.6273C17.1602 41.986 16.9275 42.5966 16.598 43.3818C14.8047 47.8891 10.0357 59.8602 13.9808 65.6762C15.4929 67.9056 18.2652 69.03 22.22 69.03C27.0666 69.03 31.0699 67.4985 34.036 64.4645C38.6112 59.7924 39.7744 52.6388 40.0652 49.062C34.3753 52.7067 33.5805 51.7761 33.0861 51.2042C32.9069 50.9963 32.7716 50.7543 32.6883 50.4928C32.605 50.2313 32.5755 49.9556 32.6014 49.6824C32.7178 48.3059 34.0748 46.6969 37.6128 43.7501C41.4901 40.5514 46.5112 41.1039 47.6356 41.2687C48.76 41.1039 53.8199 40.5514 57.6584 43.7501C61.1964 46.6581 62.5534 48.3059 62.6698 49.6824C62.6963 49.9556 62.667 50.2315 62.5837 50.4931C62.5004 50.7547 62.3648 50.9966 62.1851 51.2042C60.9153 52.571 57.7359 50.8262 55.0897 49.1008L55.08 49.0814Z" fill="#892127"/>
</svg>
