<svg width="277" height="141" viewBox="0 0 277 141" fill="none" xmlns="http://www.w3.org/2000/svg">
<path d="M276.303 0H0.503662V140.568H276.303V0Z" fill="#252F6C"/>
<mask id="mask0_140_2973" style="mask-type:luminance" maskUnits="userSpaceOnUse" x="0" y="0" width="277" height="141">
<path d="M276.303 0H0.503662V140.568H276.303V0Z" fill="white"/>
</mask>
<g mask="url(#mask0_140_2973)">
<path d="M296.694 166.678L-32.2212 -0.967485L-19.8863 -26.1099L309.019 141.527L296.694 166.678Z" fill="white"/>
<path d="M-30.167 -5.15635L134.286 78.6664L138.404 70.2797L-26.0585 -13.5342L-30.167 -5.15635Z" fill="#C62127"/>
<path d="M142.512 61.9019L138.404 70.2797L302.856 154.102L306.965 145.716L142.512 61.9019Z" fill="#C62127"/>
<path d="M309.019 -0.967485L-19.8863 166.678L-32.2212 141.527L296.694 -26.1099L309.019 -0.967485Z" fill="white"/>
<path d="M-21.9409 162.48L142.512 78.6662L138.403 70.2795L-26.0588 154.102L-21.9409 162.48Z" fill="#C62127"/>
<path d="M134.285 61.9018L138.403 70.2796L302.856 -13.5342L298.747 -21.9209L134.285 61.9018Z" fill="#C62127"/>
<path d="M299.28 46.85H161.38V-23.4297H115.417V46.85H-22.4829V93.7091H115.417V163.998H161.38V93.7091H299.28V46.85Z" fill="white"/>
<path d="M299.28 56.2219H152.193V-23.4297H124.613V56.2219H-22.4829V84.3373H124.613V163.998H152.193V84.3373H299.28V56.2219Z" fill="#C62127"/>
</g>
</svg>
