<svg width="426" height="330" viewBox="0 0 426 330" fill="none" xmlns="http://www.w3.org/2000/svg">
<path d="M-2 0H426V89C426 207.189 330.189 303 212 303C93.8111 303 -2 207.189 -2 89V0Z" fill="url(#paint0_linear_123_1814)"/>
<path d="M426 0H-2V107H426V0Z" fill="#252F6C"/>
<mask id="mask0_123_1814" style="mask-type:luminance" maskUnits="userSpaceOnUse" x="-2" y="0" width="428" height="107">
<path d="M426 0H-2V107H426V0Z" fill="white"/>
</mask>
<g mask="url(#mask0_123_1814)">
<path d="M457.643 126.875L-52.7843 -0.73638L-33.6424 -19.8746L476.77 107.73L457.643 126.875Z" fill="white"/>
<path d="M-49.5964 -3.92496L205.61 59.8805L212 53.4966L-43.2207 -10.3021L-49.5964 -3.92496Z" fill="#C62127"/>
<path d="M218.376 47.1195L212 53.4966L467.206 117.302L473.582 110.918L218.376 47.1195Z" fill="#C62127"/>
<path d="M476.77 -0.73638L-33.6424 126.875L-52.7843 107.73L457.643 -19.8746L476.77 -0.73638Z" fill="white"/>
<path d="M-36.8303 123.679L218.376 59.8805L212 53.4966L-43.2208 117.302L-36.8303 123.679Z" fill="#C62127"/>
<path d="M205.61 47.1194L212 53.4966L467.206 -10.3021L460.83 -16.6861L205.61 47.1194Z" fill="#C62127"/>
<path d="M461.657 35.6622H247.657V-17.8345H176.328V35.6622H-37.6716V71.3311H176.328V124.834H247.657V71.3311H461.657V35.6622Z" fill="white"/>
<path d="M461.657 42.7959H233.4V-17.8345H190.6V42.7959H-37.6716V64.1973H190.6V124.834H233.4V64.1973H461.657V42.7959Z" fill="#C62127"/>
</g>
<path d="M44.0803 135.232H65.5003V141.172H52.0363V144.592H63.5563V150.28H52.0363V154.06H65.7523V160H44.0803V135.232ZM82.6608 140.56C84.8688 140.56 86.5248 141.172 87.6288 142.396C88.7328 143.62 89.2848 145.384 89.2848 147.688V160H82.1208V148.552C82.1208 147.736 81.9048 147.088 81.4728 146.608C81.0648 146.104 80.4768 145.852 79.7088 145.852C78.8208 145.852 78.1008 146.14 77.5488 146.716C76.9968 147.292 76.7208 148 76.7208 148.84V160H69.5568V140.992H75.4248L75.8928 143.872C76.6368 142.864 77.6088 142.06 78.8088 141.46C80.0328 140.86 81.3168 140.56 82.6608 140.56ZM114.952 137.428C114.952 138.892 114.58 140.02 113.836 140.812C113.116 141.604 112.024 142.192 110.56 142.576C111.256 143.104 111.796 143.728 112.18 144.448C112.588 145.144 112.792 145.888 112.792 146.68C112.792 148.696 112.024 150.22 110.488 151.252C108.976 152.284 107.08 152.8 104.8 152.8H102.064C100.552 152.8 99.7965 153.148 99.7965 153.844C99.7965 154.18 99.9645 154.456 100.3 154.672C100.636 154.864 101.224 154.96 102.064 154.96H108.544C110.656 154.96 112.252 155.512 113.332 156.616C114.412 157.72 114.952 159.196 114.952 161.044C114.952 162.412 114.592 163.588 113.872 164.572C113.152 165.556 112.18 166.3 110.956 166.804C109.732 167.308 108.4 167.56 106.96 167.56H96.3765C95.5125 167.56 94.7085 167.356 93.9645 166.948C93.2445 166.54 92.6685 165.976 92.2365 165.256C91.8045 164.56 91.5885 163.78 91.5885 162.916C91.5885 161.98 91.8765 161.128 92.4525 160.36C93.0285 159.616 93.7485 159.052 94.6125 158.668C94.0365 158.26 93.5805 157.768 93.2445 157.192C92.9085 156.616 92.7405 155.992 92.7405 155.32C92.7405 154.384 93.0885 153.544 93.7845 152.8C94.4805 152.032 95.3445 151.516 96.3765 151.252C95.4405 150.652 94.6965 149.968 94.1445 149.2C93.5925 148.408 93.3165 147.58 93.3165 146.716C93.3165 144.508 94.2045 142.936 95.9805 142C97.7805 141.04 100.156 140.56 103.108 140.56C104.404 140.56 105.448 140.632 106.24 140.776C107.416 140.032 108.172 139.36 108.508 138.76C108.868 138.136 109.048 137.692 109.048 137.428H114.952ZM103.036 144.304C102.244 144.304 101.596 144.508 101.092 144.916C100.588 145.324 100.336 145.912 100.336 146.68C100.336 147.472 100.564 148.072 101.02 148.48C101.5 148.864 102.172 149.056 103.036 149.056C103.9 149.056 104.572 148.864 105.052 148.48C105.556 148.072 105.808 147.472 105.808 146.68C105.808 145.888 105.556 145.3 105.052 144.916C104.572 144.508 103.9 144.304 103.036 144.304ZM100.264 160C99.7125 160 99.2565 160.144 98.8965 160.432C98.5605 160.744 98.3925 161.176 98.3925 161.728C98.3925 162.28 98.5725 162.724 98.9325 163.06C99.2925 163.396 99.7365 163.564 100.264 163.564H105.88C106.408 163.564 106.852 163.396 107.212 163.06C107.596 162.748 107.788 162.316 107.788 161.764C107.788 161.212 107.608 160.78 107.248 160.468C106.888 160.156 106.432 160 105.88 160H100.264ZM118.184 160V133.9H125.348V160H118.184ZM130.172 138.76V133.9H137.336V138.76H130.172ZM130.172 160V140.992H137.336V160H130.172ZM150.944 140.56C153.488 140.56 155.636 141.064 157.388 142.072C159.164 143.056 160.052 144.592 160.052 146.68H153.392C153.392 145.984 153.08 145.492 152.456 145.204C152.024 144.964 151.484 144.844 150.836 144.844C149.108 144.844 148.244 145.252 148.244 146.068C148.244 146.524 148.544 146.848 149.144 147.04C149.744 147.232 150.728 147.436 152.096 147.652C153.776 147.892 155.18 148.18 156.308 148.516C157.436 148.828 158.42 149.404 159.26 150.244C160.1 151.06 160.52 152.212 160.52 153.7C160.52 156.124 159.608 157.852 157.784 158.884C155.984 159.916 153.62 160.432 150.692 160.432C149.012 160.432 147.428 160.204 145.94 159.748C144.452 159.268 143.24 158.536 142.304 157.552C141.368 156.568 140.9 155.32 140.9 153.808H147.56V153.952C147.584 154.768 147.92 155.344 148.568 155.68C149.24 155.992 149.948 156.148 150.692 156.148C152.684 156.148 153.68 155.68 153.68 154.744C153.68 154.264 153.368 153.916 152.744 153.7C152.12 153.484 151.1 153.256 149.684 153.016C147.98 152.728 146.576 152.416 145.472 152.08C144.392 151.744 143.444 151.18 142.628 150.388C141.812 149.572 141.404 148.444 141.404 147.004C141.404 144.676 142.28 143.02 144.032 142.036C145.808 141.052 148.112 140.56 150.944 140.56ZM171.08 142.972C171.848 142.204 172.748 141.616 173.78 141.208C174.812 140.776 175.892 140.56 177.02 140.56C179.228 140.56 180.884 141.172 181.988 142.396C183.092 143.62 183.644 145.384 183.644 147.688V160H176.48V148.552C176.48 147.736 176.264 147.088 175.832 146.608C175.424 146.104 174.836 145.852 174.068 145.852C173.18 145.852 172.46 146.14 171.908 146.716C171.356 147.292 171.08 148 171.08 148.84V160H163.916V133.9H171.08V142.972ZM207.656 133.468C208.184 133.468 208.844 133.54 209.636 133.684C210.428 133.804 211.064 133.948 211.544 134.116V138.328H209.888C209.12 138.328 208.592 138.472 208.304 138.76C208.016 139.048 207.872 139.54 207.872 140.236V140.992H211.544V145.852H207.872V160H200.708V145.852H198.044V140.992H200.708V140.2C200.708 137.752 201.308 136.024 202.508 135.016C203.708 133.984 205.424 133.468 207.656 133.468ZM223.139 140.56C226.475 140.56 229.091 141.412 230.987 143.116C232.907 144.796 233.867 147.256 233.867 150.496C233.867 153.736 232.907 156.208 230.987 157.912C229.091 159.592 226.475 160.432 223.139 160.432C219.803 160.432 217.187 159.592 215.291 157.912C213.395 156.232 212.447 153.76 212.447 150.496C212.447 147.232 213.395 144.76 215.291 143.08C217.187 141.4 219.803 140.56 223.139 140.56ZM223.139 145.42C220.787 145.42 219.611 146.776 219.611 149.488V151.54C219.611 154.228 220.787 155.572 223.139 155.572C225.515 155.572 226.703 154.228 226.703 151.54V149.488C226.703 146.776 225.515 145.42 223.139 145.42ZM248.878 140.524C249.43 140.524 249.922 140.596 250.354 140.74C250.786 140.86 251.002 140.932 251.002 140.956V146.968H248.698C247.21 146.968 246.13 147.352 245.458 148.12C244.81 148.888 244.486 150.028 244.486 151.54V160H237.322V140.992H243.19L243.658 143.872C244.09 142.768 244.774 141.94 245.71 141.388C246.646 140.812 247.702 140.524 248.878 140.524ZM280.067 141.568V160H272.111V141.568H263.975V135.232H288.167V141.568H280.067ZM301.296 140.524C301.848 140.524 302.34 140.596 302.772 140.74C303.204 140.86 303.42 140.932 303.42 140.956V146.968H301.116C299.628 146.968 298.548 147.352 297.876 148.12C297.228 148.888 296.904 150.028 296.904 151.54V160H289.74V140.992H295.608L296.076 143.872C296.508 142.768 297.192 141.94 298.128 141.388C299.064 140.812 300.12 140.524 301.296 140.524ZM315.73 140.56C318.634 140.56 320.998 141.052 322.822 142.036C324.646 142.996 325.558 144.568 325.558 146.752V154.168C325.558 154.576 325.654 154.912 325.846 155.176C326.038 155.44 326.326 155.572 326.71 155.572H328.006V159.712C327.934 159.76 327.742 159.844 327.43 159.964C327.142 160.06 326.722 160.156 326.17 160.252C325.618 160.372 324.982 160.432 324.262 160.432C322.87 160.432 321.718 160.228 320.806 159.82C319.918 159.388 319.306 158.8 318.97 158.056C318.058 158.776 317.038 159.352 315.91 159.784C314.782 160.216 313.462 160.432 311.95 160.432C307.486 160.432 305.254 158.656 305.254 155.104C305.254 153.256 305.746 151.852 306.73 150.892C307.738 149.908 309.178 149.236 311.05 148.876C312.922 148.516 315.37 148.336 318.394 148.336V147.4C318.394 146.656 318.13 146.092 317.602 145.708C317.098 145.324 316.438 145.132 315.622 145.132C314.878 145.132 314.23 145.264 313.678 145.528C313.15 145.792 312.886 146.212 312.886 146.788V146.932H305.83C305.806 146.812 305.794 146.644 305.794 146.428C305.794 144.628 306.646 143.2 308.35 142.144C310.078 141.088 312.538 140.56 315.73 140.56ZM318.394 151.72C316.354 151.72 314.842 151.948 313.858 152.404C312.898 152.836 312.418 153.424 312.418 154.168C312.418 155.368 313.234 155.968 314.866 155.968C315.802 155.968 316.618 155.716 317.314 155.212C318.034 154.708 318.394 154.084 318.394 153.34V151.72ZM334.788 160L327.588 140.992H335.292L338.784 152.836H339.036L342.528 140.992H349.584L342.312 160H334.788ZM360.635 140.56C364.115 140.56 366.767 141.376 368.591 143.008C370.439 144.64 371.363 147.136 371.363 150.496V151.72H357.107C357.107 153.088 357.407 154.12 358.007 154.816C358.631 155.512 359.603 155.86 360.923 155.86C362.123 155.86 362.999 155.608 363.551 155.104C364.127 154.6 364.415 153.928 364.415 153.088H371.363C371.363 155.392 370.487 157.192 368.735 158.488C366.983 159.784 364.427 160.432 361.067 160.432C357.539 160.432 354.803 159.616 352.859 157.984C350.915 156.328 349.943 153.832 349.943 150.496C349.943 147.232 350.891 144.76 352.787 143.08C354.683 141.4 357.299 140.56 360.635 140.56ZM360.923 145.132C358.667 145.132 357.407 146.2 357.143 148.336H364.127C364.127 147.352 363.839 146.572 363.263 145.996C362.711 145.42 361.931 145.132 360.923 145.132ZM375.071 160V133.9H382.235V160H375.071Z" fill="#D1D5DB"/>
<defs>
<linearGradient id="paint0_linear_123_1814" x1="212" y1="0" x2="212" y2="303" gradientUnits="userSpaceOnUse">
<stop stop-color="#252F6C"/>
<stop offset="1" stop-color="#252F6C"/>
</linearGradient>
</defs>
</svg>
