<svg width="20" height="32" viewBox="0 0 20 32" fill="none" xmlns="http://www.w3.org/2000/svg">
<path d="M19 12C18.45 12 18 12.45 18 13V16C18 20.5938 14.1094 24.2875 9.45 23.9875C5.20625 23.6937 2 19.975 2 15.7188V13C2 12.45 1.55 12 1 12C0.45 12 0 12.45 0 13V15.6488C0 20.86 3.85187 25.405 9 25.9237V30H5C4.45 30 4 30.45 4 31C4 31.55 4.45 32 5 32H15C15.5501 32 16 31.5499 16 31C16 30.4499 15.5501 30 15 30H11V25.9375C16.05 25.4312 20 21.175 20 16V13C20 12.45 19.55 12 19 12ZM10 22C13.3125 22 16 19.3125 16 16V6C16 2.74375 13.3125 0 10 0C6.6875 0 4 2.6875 4 6V16C4 19.3125 6.6875 22 10 22ZM6 6C6 3.79688 7.79688 2 10 2C12.2031 2 14 3.79688 14 6V16C14 18.2031 12.2031 20 10 20C7.79688 20 6 18.2062 6 16V6Z" fill="white"/>
</svg>
