<svg width="43" height="44" viewBox="0 0 43 44" fill="none" xmlns="http://www.w3.org/2000/svg">
<path d="M24.876 6.5083V8.34163C31.1839 9.2583 36.1093 15.0333 36.1093 22C36.1093 28.9666 31.1839 34.7416 24.876 35.6583V37.4916C32.1345 36.575 37.8376 29.975 37.8376 22C37.8376 14.025 32.1345 7.42497 24.876 6.5083Z" fill="#FF9819"/>
<path d="M12.7784 29.3334H6.72968C5.77916 29.3334 5.00146 28.5084 5.00146 27.5001V16.5001C5.00146 15.4917 5.77916 14.6667 6.72968 14.6667H12.7784V29.3334Z" fill="#FF9819"/>
<path d="M23.1481 38.5L12.7788 29.3333V14.6667L23.1481 5.5V38.5Z" fill="#FF9819"/>
<path d="M24.876 15.8584V17.7834C26.4314 18.5167 27.4683 20.0751 27.4683 22.0001C27.4683 23.9251 26.4314 25.4834 24.876 26.2167V28.1417C27.3819 27.3167 29.1965 24.9334 29.1965 22.0001C29.1965 19.0667 27.3819 16.6834 24.876 15.8584Z" fill="#FF9819"/>
<path d="M24.876 11.1833V13.0167C28.8509 13.8417 31.7888 17.6 31.7888 22C31.7888 26.4 28.8509 30.1583 24.876 30.9834V32.8167C29.8014 31.9 33.517 27.4084 33.517 22C33.517 16.5917 29.8014 12.0083 24.876 11.1833Z" fill="#FF9819"/>
</svg>
