<svg width="95" height="95" viewBox="0 0 95 95" fill="none" xmlns="http://www.w3.org/2000/svg">
<circle cx="47.5" cy="47.5" r="47.5" fill="#0A4A81"/>
<path d="M71.2872 42.8822C72.0142 42.2489 72.5829 41.258 72.4461 40.2224C72.295 39.0824 70.4739 37.935 69.603 37.4433C69.6893 36.0798 70.2867 34.2321 69.9988 33.5914C69.6029 32.7271 68.6816 32.9506 68.2642 33.9341C67.7099 35.2156 67.7675 36.9888 67.7891 38.3746C67.2348 36.9441 65.3706 37.0261 65.9752 38.1809C66.1911 38.5832 66.3495 38.6875 66.3567 39.1644C66.3567 39.5518 66.2343 39.8796 66.2199 40.2745C66.1192 42.7183 67.897 45.8251 71.2872 42.8896V42.8822Z" fill="#FFB97F"/>
<path opacity="0.2" d="M68.0554 39.5963C68.2641 40.0657 68.2857 40.5127 68.4369 40.9896C68.732 41.9432 71.2368 42.204 71.6039 41.5335C71.8127 41.146 71.6472 40.7064 71.3664 40.5649C72.2158 40.4382 71.7335 41.7123 71.6039 42.0773C71.3592 42.7628 70.8194 42.8 70.2364 42.651C69.5742 42.4871 68.9695 42.6734 68.3289 42.5914C67.6523 42.5095 67.7747 42.0773 67.1269 41.5707C68.2065 41.7868 67.9618 40.2967 68.0554 39.5889V39.5963Z" fill="#B54319"/>
<path opacity="0.5" d="M69.8407 37.9274C69.2505 37.8901 68.1276 38.1211 67.9836 38.9406C68.797 39.3877 69.7399 39.9763 70.6829 40.0433C71.1435 40.0806 71.6402 39.8794 72.1008 39.8496C71.7697 39.0971 70.251 37.9497 69.8335 37.9274H69.8407Z" fill="#FFDEBA"/>
<path opacity="0.5" d="M66.7742 37.5027C67.2061 37.6517 67.6164 38.0317 67.5084 38.4117C67.4076 38.7619 66.7022 38.3595 66.5223 38.2925C66.3136 38.2105 65.9537 37.9647 66.0041 37.689C66.0544 37.3612 66.5655 37.4357 66.7742 37.5102V37.5027Z" fill="#FFDEBA"/>
<path opacity="0.5" d="M69.7904 33.4867C70.0783 33.889 69.8623 34.7682 69.7256 34.9843C69.3945 34.4404 68.7899 34.4031 68.2212 34.6416C68.2644 33.9412 68.7826 33.3675 69.0777 33.2558C69.3801 33.1365 69.6248 33.2557 69.7975 33.4942L69.7904 33.4867Z" fill="#FFDEBA"/>
<path d="M62.4628 53.4171C63.4417 53.4171 64.4206 53.2457 65.3923 52.8434C68.293 51.6364 70.3013 48.6041 71.3594 43.8283L65.9609 42.5393C65.3491 45.296 64.4062 47.0692 63.3193 47.5237C62.4627 47.8813 60.6705 47.7919 57.0139 45.3184L53.9836 50.124C56.2294 51.6364 59.3101 53.4171 62.4628 53.4171Z" fill="#292929"/>
<path opacity="0.2" d="M64.3701 82.8692C64.3701 84.0464 57.1794 85.0001 48.3044 85.0001C39.4294 85.0001 32.2386 84.0464 32.2386 82.8692C32.2386 81.6921 39.4294 80.7458 48.3044 80.7458C57.1794 80.7458 64.3701 81.6995 64.3701 82.8692Z" fill="url(#paint0_radial_140_3843)"/>
<path d="M52.8322 77.5047C49.3412 76.9385 49.3915 81.8633 51.8604 83.8973C54.3725 85.9685 57.5972 84.7765 56.2008 81.4386C55.481 79.7175 54.6532 77.7953 52.8322 77.5047Z" fill="#0D0F12"/>
<path d="M55.7041 81.4682C55.6033 81.2522 55.4449 81.0436 55.2434 80.8796C54.8331 81.3565 53.5159 81.3416 52.9257 81.4012C52.2707 81.4682 51.3781 81.5725 52.1771 82.2952C52.8321 82.8764 53.8758 83.3085 54.7684 83.2266C55.7617 83.1372 56.0496 82.2133 55.7041 81.4682Z" fill="#252728"/>
<path d="M55.042 69.3686C54.9556 68.6385 54.9196 67.6773 54.9268 67.0813C54.9988 59.7574 41.1069 59.7574 41.1788 67.0813C41.1788 67.6699 41.15 68.6385 41.0637 69.3686C40.7182 72.319 47.5346 72.6319 47.6138 69.987C47.6138 69.987 47.657 69.4506 47.6857 69.2494C47.7433 68.8098 48.3624 68.8098 48.4199 69.2494C48.4487 69.4506 48.4919 69.987 48.4919 69.987C48.5711 72.6245 55.3875 72.319 55.042 69.3686Z" fill="#1A1A1A"/>
<path d="M48.4985 69.9871C48.4841 71.0302 48.8368 77.5569 48.6929 79.8591C50.4132 80.8872 54.7535 80.7308 56.5674 79.2034C55.8692 76.9236 55.4085 72.6693 55.027 69.175C54.9262 68.2139 48.5129 68.8472 48.4985 69.9871Z" fill="#292929"/>
<path d="M43.2804 77.5047C46.7642 76.9385 46.7209 81.8633 44.2449 83.8973C41.7328 85.9685 38.5154 84.7765 39.9046 81.4386C40.6243 79.7175 41.4521 77.7953 43.2732 77.5047H43.2804Z" fill="#0D0F12"/>
<path d="M40.4156 81.4682C40.5164 81.2522 40.6747 81.0436 40.8834 80.8796C41.2937 81.3565 42.6109 81.3416 43.2012 81.4012C43.8562 81.4682 44.7487 81.5725 43.9497 82.2952C43.2947 82.8764 42.2438 83.3085 41.3585 83.2266C40.3652 83.1372 40.0772 82.2133 40.4227 81.4682H40.4156Z" fill="#252728"/>
<path d="M47.6207 69.9871C47.6351 71.0302 47.2824 77.5569 47.4263 79.8591C45.706 80.8872 41.3657 80.7308 39.5518 79.2034C40.25 76.9236 40.7107 72.6693 41.0922 69.175C41.2002 68.2139 47.6063 68.8472 47.6207 69.9871Z" fill="#292929"/>
<path d="M41.8984 44.3722C39.4727 46.4807 38.8033 49.0064 42.4454 52.7019C46.0804 56.3973 48.6501 56.8369 48.6501 56.8369C48.6501 56.8369 56.6469 48.9245 55.2217 45.3407C53.5014 40.9971 44.3241 42.2711 41.8984 44.3796V44.3722Z" fill="#E8E8E8"/>
<path d="M47.952 47.479C49.737 47.1289 50.3489 48.5817 50.3489 48.5817L49.5571 50.3102L51.3638 55.3393L49.1108 60.443L46.0229 55.5703L47.4481 50.5934L46.1309 49.215C46.1309 49.215 46.3612 47.792 47.9592 47.4865L47.952 47.479Z" fill="#E62628"/>
<path d="M57.3741 56.4195C57.8275 53.3648 59.4111 47.1287 58.9936 46.6667C58.389 45.9887 55.5386 44.2379 54.4661 43.7014C54.5812 43.9771 54.9628 44.5657 54.9412 44.8488C54.4445 50.3622 48.7798 55.9873 48.7798 55.9873C48.7798 55.9873 40.4374 48.5294 41.8338 44.8041C41.9489 44.4912 42.0929 44.2081 42.2728 43.9473C40.3438 44.7966 36.8024 46.555 36.4857 47.2032C36.205 47.7918 38.2924 52.1503 38.9762 56.3301C39.4873 59.4295 39.0338 64.9056 38.6019 66.8204C39.8831 67.4165 45.9726 68.3776 47.2898 67.6325C48.3695 67.0216 48.9381 65.7178 49.0101 65.3899C49.0461 68.9215 57.41 67.3867 57.3524 67.0961C56.9494 65.1217 56.8774 59.7573 57.3741 56.4269V56.4195Z" fill="#292929"/>
<path d="M48.7651 59.4741C48.7651 59.8243 48.4916 60.1074 48.1533 60.1074C47.815 60.1074 47.5415 59.8243 47.5415 59.4741C47.5415 59.1239 47.815 58.8408 48.1533 58.8408C48.4916 58.8408 48.7651 59.1239 48.7651 59.4741Z" fill="#4F4F4F"/>
<path d="M54.0845 43.3289C54.0845 43.3289 56.6685 44.9456 58.0073 47.5608L48.7364 56.8069C48.7364 56.8069 48.5421 56.3449 48.7652 55.8681C48.9883 55.3913 54.797 50.1685 54.0773 43.3289H54.0845Z" fill="#4F4F4F"/>
<path d="M42.4093 43.843C42.4093 43.843 39.5661 45.2288 38.4792 48.0824L48.7434 56.7995C48.7434 56.7995 49.0314 56.345 48.7722 55.8607C48.5059 55.3839 42.4093 51.2265 42.4093 43.843Z" fill="#4F4F4F"/>
<path d="M48.4914 57.2914C48.7793 57.2914 49.0168 57.0455 49.0168 56.7475C49.0168 55.9578 48.2611 54.9445 46.9295 53.2234C45.7562 51.711 44.4318 49.9973 44.0215 48.619C43.5392 46.9873 43.4961 45.6462 44.7773 43.9624C44.9573 43.724 44.9141 43.3887 44.6909 43.2024C44.4678 43.0162 44.1367 43.0609 43.9567 43.2919C42.3084 45.46 42.5388 47.2853 43.021 48.9319C43.4889 50.5114 44.8853 52.307 46.1161 53.9014C46.9439 54.9668 47.9732 56.293 47.9732 56.7475C47.9732 57.0455 48.2107 57.2914 48.4986 57.2914H48.4914Z" fill="#4986C2"/>
<path d="M48.4915 57.2912C48.7794 57.2912 49.0169 57.0453 49.0169 56.7473C49.0169 56.2332 49.9886 54.8549 50.8452 53.6404C51.8385 52.2323 52.9614 50.6379 53.494 49.2446C53.9475 48.0525 54.4513 45.7131 52.7382 43.4555C52.5583 43.2171 52.2272 43.1799 52.004 43.3661C51.7737 43.5524 51.7377 43.8951 51.9177 44.1261C53.2349 45.8621 52.9757 47.6502 52.5223 48.8497C52.04 50.1163 50.9603 51.6511 50.003 53.0071C48.7434 54.7878 47.9732 55.9277 47.9732 56.7547C47.9732 57.0528 48.2107 57.2986 48.4987 57.2986L48.4915 57.2912Z" fill="#4986C2"/>
<path d="M47.7355 56.2034H49.2471V56.8516H47.7355V56.2034Z" fill="#F2F2F2"/>
<path d="M46.138 57.1943H50.8455V63.2814H46.138V57.1943Z" fill="#4986C2"/>
<path d="M50.0393 58.3567H46.9514C46.7282 58.3567 46.5483 58.543 46.5483 58.7739V62.4247C46.5483 62.6556 46.7282 62.8419 46.9514 62.8419H50.0393C50.2624 62.8419 50.4424 62.6556 50.4424 62.4247V58.7739C50.4424 58.543 50.2624 58.3567 50.0393 58.3567Z" fill="white"/>
<path opacity="0.5" d="M46.9369 58.856H50.0464V59.601H46.9369V58.856Z" fill="#63605C"/>
<path d="M46.9369 60.0181H50.0464V60.5098H46.9369V60.0181Z" fill="#E0E0E0"/>
<path d="M46.9369 60.8528H50.0464V61.3445H46.9369V60.8528Z" fill="#E0E0E0"/>
<path d="M46.9369 61.6946H49.0891V62.1863H46.9369V61.6946Z" fill="#E0E0E0"/>
<path d="M48.1245 58.1034H48.8659C49.0387 58.1034 49.1826 57.9544 49.1826 57.7756C49.1826 57.5968 49.0387 57.4478 48.8659 57.4478H48.1245C47.9518 57.4478 47.8078 57.5968 47.8078 57.7756C47.8078 57.9544 47.9518 58.1034 48.1245 58.1034Z" fill="#F2F2F2"/>
<path opacity="0.2" d="M54.4155 45.9441C54.4155 45.9441 53.6885 48.291 51.0901 50.6752L48.3693 48.291L45.8141 50.8093C45.8141 50.8093 43.5683 49.4011 42.7046 46.5699L54.4155 45.9441Z" fill="url(#paint1_radial_140_3843)"/>
<path d="M48.3693 48.2912L50.9317 49.9601C50.9317 49.9601 56.0063 47.2333 54.0844 43.3292C52.3569 39.8125 43.7482 40.0956 42.2726 43.9848C41.0058 47.3376 45.6125 50.0645 45.6125 50.0645L48.3621 48.2912H48.3693Z" fill="#F5F5F5"/>
<path d="M44.3242 45.6833C44.8281 46.1974 45.6414 46.7041 46.4908 46.9797C47.0954 47.1735 48.1535 47.9036 48.3406 47.9111C48.4126 47.9111 48.7653 47.5981 49.3339 47.2927C50.1689 46.8456 51.3493 46.2645 51.81 45.3332C52.4794 43.9697 53.084 41.2801 51.81 40.2221C50.4928 39.1269 47.9303 38.9481 46.3612 39.3057C44.7273 39.6782 43.6332 41.2875 43.5252 42.949C43.4388 44.2379 43.6332 44.983 44.3314 45.6908L44.3242 45.6833Z" fill="#ED9D6C"/>
<path d="M36.3341 61.1732C36.8236 61.4116 36.3342 62.6111 37.2483 63.4083C38.1624 64.2055 36.4421 63.3413 36.1686 64.2577C35.8951 65.1741 39.5948 66.8207 40.365 63.8628C41.1352 60.905 39.1629 59.5862 36.0606 59.5043C32.9655 59.4223 36.3341 61.1732 36.3341 61.1732Z" fill="#FFB97D"/>
<path d="M37.5076 46.3761C34.686 47.829 29.9714 50.8465 30.0002 55.3093C30.0434 60.9419 36.1832 63.2069 36.1832 63.2069L37.9179 59.6157C37.9179 59.6157 34.3909 58.7813 34.65 55.1901C34.758 53.7149 36.3991 52.6048 37.8603 51.897C38.0258 51.815 38.2562 46.0036 37.5148 46.3836L37.5076 46.3761Z" fill="#292929"/>
<path d="M58.1657 24.9114C57.9857 20.7018 57.3811 19.2117 57.4099 17.4981C57.5179 10.2115 51.3924 5.57723 41.6464 7.45476C24.609 10.733 29.993 35.0963 34.7797 33.4944C38.321 32.3098 41.7688 30.8569 45.2598 29.5382C48.5133 28.3163 52.285 28.5696 55.7256 28.4355C58.4176 28.3312 58.2592 27.1614 58.1584 24.9039L58.1657 24.9114Z" fill="#4F2C1E"/>
<path d="M35.1467 33.1666C36.6871 39.6709 42.3446 46.3838 49.6937 45.0278C57.1939 43.6495 59.9723 33.5316 58.1656 25.5223C56.2078 16.8126 51.4212 9.89855 42.7621 12.6403C36.5791 14.5998 33.0881 24.4793 35.1467 33.1666Z" fill="#FFB97F"/>
<path d="M33.9158 36.1693C34.7579 36.3779 35.6217 36.3258 36.4495 36.1767C36.4639 36.1469 36.4782 36.1246 36.4926 36.0948C36.8022 35.4466 35.8232 32.3993 35.5641 31.7809C34.9235 30.2163 34.0238 29.1509 32.577 29.7395C29.5683 30.9614 31.2885 35.5062 33.9158 36.1767V36.1693Z" fill="#FFB97F"/>
<path opacity="0.3" d="M57.1363 21.827C56.2726 19.3162 53.9477 20.3518 50.9965 20.9925C46.2891 22.0132 40.8331 22.7657 37.0182 21.4843C37.3421 24.0025 35.5426 25.1276 34.9668 27.6235C34.6501 29.0019 34.0167 22.8626 33.9735 22.058C33.8511 19.942 33.6784 17.0661 35.1395 15.3525C36.9606 13.2216 40.7395 12.9608 43.266 12.7373C47.0449 12.3946 55.3297 14.1231 57.1436 21.8344L57.1363 21.827Z" fill="#B54319"/>
<path opacity="0.35" d="M34.9952 34.8801C36.0461 34.0233 34.7289 31.654 33.8364 31.3411C33.1022 31.0878 31.4251 31.8701 32.3896 33.1963C32.6847 31.8403 33.5413 32.6152 33.5197 33.5539C33.5053 34.1872 32.8574 34.2617 33.5844 34.9919C33.9731 35.3868 34.6641 35.1483 34.9952 34.8801Z" fill="#B54319"/>
<path d="M55.2579 18.6455C45.6199 21.9014 37.5654 21.2532 36.3562 20.3442C36.7448 22.408 36.1186 23.5778 35.7659 25.1796C35.1469 28.0555 35.9027 30.9612 37.1479 31.9224C36.5649 32.1533 35.8091 32.2353 35.4492 32.0937C34.9454 31.5498 33.9664 29.8809 33.7649 28.4653C33.5273 26.8113 27.3803 13.594 39.5304 8.27436C48.4126 4.37773 55.7473 11.0236 59.4326 7.21638C59.6414 9.45154 59.7853 12.5212 58.5113 14.2422C59.4902 13.9964 60.0732 13.8027 60.8938 13.6834C60.066 15.3822 58.3962 17.595 55.2579 18.6604V18.6455Z" fill="#4F2C1E"/>
<path d="M59.0079 8.09557C59.0079 8.09557 57.5827 16.3657 46.6347 17.7589C34.6358 19.2863 31.2456 16.3284 34.3695 12.1189C37.4934 7.90186 44.389 7.25366 49.0244 8.05087C53.6671 8.84807 55.9056 10.0774 59.0151 8.09557H59.0079Z" fill="#693A27"/>
<path d="M35.557 26.7444C35.6578 27.6235 36.1904 30.7751 37.1477 31.9151C36.6151 32.1609 35.9169 32.2801 35.5714 32.1758C34.7292 31.7064 34.3477 29.5309 33.2609 29.583C32.2532 29.6277 35.1107 28.1302 35.5642 26.7444H35.557Z" fill="#9E8F88"/>
<path opacity="0.5" d="M41.5384 29.7916C42.3158 28.9423 39.7101 29.1509 39.3214 29.3073C39.415 29.8289 40.5523 29.4414 40.905 29.4861C40.6387 29.8512 39.7317 29.9481 39.379 30.2163C39.0047 30.4994 39.0695 30.6559 39.5374 30.5888C39.8181 30.5516 41.3513 29.9853 41.5384 29.7842V29.7916Z" fill="#B54319"/>
<path opacity="0.5" d="M55.4159 27.6828C54.6889 27.0048 56.8698 26.7143 57.2081 26.7962C57.1793 27.3252 56.2004 27.1613 55.9125 27.2731C56.1716 27.5785 56.9275 27.504 57.2442 27.6977C57.5753 27.8989 57.5465 28.0628 57.1506 28.0926C56.9131 28.1075 55.5886 27.8467 55.4159 27.6828Z" fill="#B54319"/>
<path d="M42.611 30.0523C42.1071 29.866 41.4881 29.8735 40.9843 30.0821C39.775 29.2327 40.4948 26.1258 42.1935 26.6772C43.4603 27.087 43.6403 29.3445 42.611 30.0523Z" fill="#121B21"/>
<g style="mix-blend-mode:multiply" opacity="0.35">
<path d="M51.0543 30.5735C51.4142 30.864 50.8887 32.1083 49.4564 32.3467C48.024 32.5926 47.0954 31.4526 47.6065 31.0727C48.1247 30.6927 48.5062 30.9833 49.3196 30.864C50.2193 30.7299 50.6368 30.2456 51.0543 30.5735Z" fill="#B5460D"/>
</g>
<path d="M51.0827 30.6856C51.277 30.4546 50.6508 29.5531 50.1326 28.6367C49.6719 27.8246 49.1032 26.0066 48.3043 26.1482C47.5989 26.2749 47.678 28.2716 47.5341 29.2402C47.3901 30.2236 47.3182 31.1177 47.7284 31.3487C48.729 31.9224 50.586 31.2742 51.0827 30.693V30.6856Z" fill="#FFCB9E"/>
<path d="M55.2647 25.1201C56.2076 25.5149 56.3804 27.0199 55.8477 27.8544C55.3727 27.8544 54.8544 28.0779 54.4801 28.4355C52.5943 28.1897 53.5084 24.3825 55.2647 25.1201Z" fill="#121B21"/>
<path d="M41.7686 27.1612C42.3372 26.8929 42.7906 27.787 42.366 28.1893C41.7685 28.7407 41.1351 27.4666 41.7686 27.1612Z" fill="#7D8BA8"/>
<path d="M54.8978 25.6344C55.4448 25.4258 55.8047 26.2975 55.3728 26.6328C54.7826 27.1021 54.2788 25.8654 54.8978 25.6344Z" fill="#7D8BA8"/>
<path d="M56.6973 24.3229C57.1148 24.4644 57.2084 23.8311 57.05 23.6598C56.431 23.0041 55.6608 22.2367 53.9045 22.2293C52.6881 22.2218 51.7739 22.1026 51.7739 22.1548C51.7739 22.87 52.069 24.3378 52.9904 24.2335C53.5446 24.1739 54.106 24.0099 54.6531 24.0025C55.6248 23.9801 56.359 24.2186 56.6973 24.3303V24.3229Z" fill="#4F2C1E"/>
<path d="M39.4509 26.5875C39.0694 26.8632 38.7454 26.297 38.8534 26.0809C39.2565 25.2464 39.782 24.263 41.5887 23.6446C42.8411 23.2199 43.7408 22.7952 43.7696 22.8399C44.0215 23.5179 44.2446 25.0006 43.2585 25.2241C42.6683 25.3582 42.0277 25.3954 41.4591 25.5743C40.4441 25.8946 39.7748 26.364 39.4653 26.5875H39.4509Z" fill="#4F2C1E"/>
<path d="M57.5608 29.4787C57.6831 29.5904 57.7911 29.732 57.8847 29.8959C58.7484 31.535 54.7608 31.9448 54.1274 31.2966C52.9254 30.0896 54.1274 29.4042 55.0991 29.1657C55.8405 28.9869 56.913 28.8752 57.568 29.4712L57.5608 29.4787Z" fill="#FFCB9E"/>
<path d="M42.9562 31.1774C43.0857 31.2891 43.2081 31.4307 43.3089 31.6095C44.2662 33.3008 40.1058 33.867 39.4076 33.2114C38.112 31.982 39.3428 31.2295 40.3505 30.9464C41.1279 30.7303 42.2436 30.5739 42.949 31.1774H42.9562Z" fill="#FFCB9E"/>
<path opacity="0.4" d="M46.1595 34.4259C49.0962 33.3083 52.4001 33.2636 55.5671 33.4051L54.0556 34.0533C55.9486 35.0145 55.927 36.4152 54.509 37.7339C52.3281 39.7753 46.1883 40.7067 43.6402 38.5684C41.6176 36.8696 44.2808 35.1337 46.1523 34.4259H46.1595Z" fill="#A82807"/>
<path d="M44.0145 37.8306C45.015 39.8497 51.8242 39.0078 53.5661 37.6592C55.0489 36.5119 55.272 35.1708 53.0047 34.4257C53.2494 34.3065 53.5877 34.083 53.926 33.9042C48.2109 33.7626 42.8773 35.5358 44.0145 37.8306Z" fill="#8F2724"/>
<path d="M44.7915 35.722C44.4028 36.0126 44.5108 36.2733 45.0867 36.4447C46.3967 36.8321 48.4625 36.0349 49.7293 35.8487C52.8532 35.3867 53.1843 35.8561 53.3643 35.4389C53.5442 35.0067 53.7889 33.8743 53.0907 33.8743C50.2907 33.8743 46.699 34.3064 44.7915 35.7294V35.722Z" fill="#FFF9F0"/>
<path d="M45.0868 36.4372C45.0868 36.4372 48.7145 33.539 53.5731 34.6565C53.5731 34.6565 53.6955 33.8966 53.1844 33.8668C51.9896 33.7476 46.3392 34.0754 44.6045 35.9008C44.6045 35.9008 44.2446 36.2659 45.0868 36.4372Z" fill="#E8DAC5"/>
<defs>
<radialGradient id="paint0_radial_140_3843" cx="0" cy="0" r="1" gradientUnits="userSpaceOnUse" gradientTransform="translate(48.3623 -48.7295) scale(15.5784 1.82285)">
<stop/>
<stop offset="0.92"/>
</radialGradient>
<radialGradient id="paint1_radial_140_3843" cx="0" cy="0" r="1" gradientUnits="userSpaceOnUse" gradientTransform="translate(48.5636 48.3804) rotate(180) scale(4.46269 4.61933)">
<stop/>
<stop offset="0.92"/>
</radialGradient>
</defs>
</svg>
