<svg width="95" height="95" viewBox="0 0 95 95" fill="none" xmlns="http://www.w3.org/2000/svg">
<circle cx="47.5" cy="47.5" r="47.5" fill="#0A4A81"/>
<path d="M32.448 38.7909C29.5734 38.9266 28.4405 37.2385 29.1929 35.7463C27.3836 35.264 27.4681 33.1388 28.153 31.9707C26.2929 31.0663 26.8594 28.8356 28.6011 27.7504C26.8002 26.5371 27.3836 25.4519 28.9308 24.0652C29.9876 23.1232 29.5565 22.6409 29.8946 21.3823C30.1229 20.5458 30.8162 18.8803 31.0022 18.0664C31.4757 16.009 28.6941 14.6751 29.2775 12.7232C29.6917 11.3366 31.3319 10.7111 32.8961 10.7337C32.2282 7.77197 35.534 7.40269 37.766 8.60848C37.0389 5.10415 41.985 3.0166 44.7666 6.64904C45.9588 3.17486 52.4013 2.96385 53.0523 6.93542C54.9377 5.35282 60.6701 6.09138 59.943 9.15861C62.7246 7.95282 66.4447 9.6334 64.6438 12.6102C67.0027 11.6908 70.2493 14.4114 67.0196 16.4838C68.2794 16.8531 69.9534 17.3429 69.666 18.8351C69.4208 20.1012 67.8651 20.8472 66.5292 20.591C67.0281 21.4351 67.0196 21.0959 66.9604 22.0154C66.8928 22.9951 64.7791 24.6907 65.0581 25.6629C65.2948 26.4768 67.603 28.9487 66.5377 29.74C68.4738 28.9713 72.3545 31.2322 69.463 33.8623C72.177 33.6437 73.5298 37.8941 70.3254 38.8211C73.5636 40.1625 70.9595 44.3074 67.8566 43.3127C68.812 47.0958 64.7452 48.2564 62.9613 46.9451C62.3525 49.4848 58.6663 49.7109 57.7616 47.5781C55.259 50.6454 34.1051 38.708 32.448 38.7909Z" fill="#261B18"/>
<path d="M68.068 34.4425C70.858 34.9926 70.6298 37.0576 68.2963 38.3161C69.8519 38.4668 70.486 40.0419 69.6575 40.7428C68.4146 41.7903 66.0895 40.4112 67.2478 39.0546C65.8866 39.4842 64.9397 37.457 64.889 36.5677C64.8213 35.49 65.8359 33.5985 66.6729 32.777C68.3892 31.0814 69.9196 32.5962 68.0849 34.435L68.068 34.4425Z" fill="#45362E"/>
<path d="M56.6287 64.0823C55.7917 65.0545 57.4827 63.8939 57.9477 64.7982C58.4127 65.7101 54.7264 67.9861 53.3568 65.0319C51.9786 62.0701 53.8641 60.4046 57.1868 59.847C60.5095 59.2893 57.4658 63.1177 56.6287 64.0823Z" fill="#9C552C"/>
<path d="M58.4127 63.3587L55.445 60.2161C56.9246 59.1008 57.6432 57.5634 57.3642 56.0939C57.0091 54.2098 55.0815 52.5669 51.9363 51.4817L53.5934 47.6533C59.9683 49.8539 61.5409 53.4562 61.9044 55.4156C62.454 58.3321 61.1436 61.3013 58.4127 63.3587Z" fill="#C3DEDE"/>
<path d="M35.4835 64.0823C36.3206 65.0545 34.6296 63.8939 34.1646 64.7982C33.6996 65.7101 37.3859 67.9861 38.7556 65.0319C40.1337 62.0701 38.2483 60.4046 34.9255 59.847C31.6028 59.2893 34.6465 63.1177 35.4835 64.0823Z" fill="#9C552C"/>
<path d="M33.7079 63.3587C30.9686 61.3013 29.6665 58.3321 30.2076 55.4156C30.5712 53.4562 32.1438 49.8539 38.5187 47.6533L40.1758 51.4817C37.0307 52.5669 35.1029 54.2023 34.7478 56.0939C34.4688 57.5634 35.1875 59.1083 36.6671 60.2161L33.6994 63.3587H33.7079Z" fill="#C3DEDE"/>
<path opacity="0.2" d="M65.3541 84.8446C65.3541 86.0353 56.9077 87 46.4914 87C36.0751 87 27.6204 86.0353 27.6204 84.8446C27.6204 83.6539 36.0667 82.6968 46.4914 82.6968C56.9162 82.6968 65.3541 83.6614 65.3541 84.8446Z" fill="url(#paint0_radial_140_3326)"/>
<path d="M39.8711 66.2525C39.6259 69.2143 39.8711 73.1557 39.0848 80.5035C38.8735 82.5081 37.842 84.4525 39.9303 84.7238C41.7312 84.9574 44.2338 83.1713 44.3183 81.5586C44.479 78.5365 45.0708 68.9279 45.0624 66.2224L39.8627 66.2525H39.8711Z" fill="#9C552C"/>
<path d="M52.5452 66.2525C52.7904 69.2143 52.5452 73.1557 53.3315 80.5035C53.5428 82.5081 54.5743 84.4525 52.486 84.7238C50.6851 84.9574 48.1825 83.1713 48.0895 81.5586C47.9288 78.5365 47.3455 68.9279 47.3455 66.2224L52.5452 66.2525Z" fill="#9C552C"/>
<path d="M39.5502 60.3897C36.9293 64.1427 38.9415 68.3705 38.3835 70.9554C41.2074 72.3798 52.3508 72.2893 54.2362 70.9554C53.0948 67.8279 54.9126 63.3589 52.4691 60.45C49.9242 57.428 41.5033 57.5862 39.5502 60.3897Z" fill="#C3DEDE"/>
<path d="M36.5569 48.3995C37.1826 49.4395 37.6899 50.894 37.6899 52.7403C37.6899 56.5687 37.58 59.4475 38.0535 61.3391C38.51 63.1478 54.0161 63.3212 54.3796 61.3768C54.8277 59.0255 54.6248 56.6139 54.6502 52.778C54.6587 51.2858 55.0983 49.5525 55.521 48.5427C55.6309 48.2714 52.4519 45.9427 46.2208 45.905C39.8036 45.8673 36.3963 48.1357 36.5569 48.3995Z" fill="#74C4B9"/>
<path d="M46.1785 51.4439C49.2645 51.3233 52.156 49.2659 51.133 46.5981C50.1015 43.9077 41.5538 44.1112 40.9619 47.0579C40.3278 50.2155 42.636 51.5796 46.1785 51.4514V51.4439Z" fill="#C3DEDE"/>
<path d="M46.1616 50.2759C48.7149 50.1628 51.0992 48.1657 50.2537 45.5884C49.3998 42.9808 42.3401 43.1843 41.8497 46.0254C41.3255 49.0851 43.2362 50.404 46.1616 50.2759Z" fill="#854422"/>
<path d="M45.5782 59.7188C45.1978 59.7188 44.8934 59.4475 44.8934 59.1084C44.8934 58.5507 43.9465 57.3072 43.0334 56.109C41.8666 54.5716 40.5392 52.8307 39.9474 51.1125C39.2034 48.942 39.2034 47.5931 41.1733 45.3548C41.4101 45.0911 41.8413 45.0458 42.1372 45.2493C42.4331 45.4603 42.4838 45.8447 42.2555 46.1085C40.5646 48.0226 40.6407 48.9496 41.2663 50.7432C41.7905 52.2881 43.0587 53.9461 44.1748 55.4081C45.35 56.9455 46.2715 58.1664 46.2715 59.1008C46.2715 59.44 45.9672 59.7113 45.5867 59.7113L45.5782 59.7188Z" fill="#219488"/>
<path d="M45.5781 59.7187C45.1977 59.7187 44.8933 59.4474 44.8933 59.1083C44.8933 58.1211 45.9755 56.8173 47.3452 55.1594C48.512 53.7501 49.8309 52.1448 50.465 50.7054C51.1583 49.1379 51.2598 47.804 49.6703 45.9953C49.4335 45.7315 49.4843 45.3397 49.7887 45.1362C50.0846 44.9252 50.5242 44.9704 50.7525 45.2417C52.8662 47.6307 52.4773 49.4996 51.7502 51.1576C51.0484 52.7477 49.6703 54.4132 48.4528 55.8903C47.4298 57.1263 46.2714 58.5356 46.2714 59.1159C46.2714 59.455 45.9671 59.7263 45.5866 59.7263L45.5781 59.7187Z" fill="#219488"/>
<path d="M46.5675 58.4829H44.5806V59.2214H46.5675V58.4829Z" fill="#F2F2F2"/>
<path d="M47.9371 59.5154H43.2278C42.7609 59.5154 42.3823 59.8528 42.3823 60.269V65.8307C42.3823 66.2469 42.7609 66.5843 43.2278 66.5843H47.9371C48.4041 66.5843 48.7826 66.2469 48.7826 65.8307V60.269C48.7826 59.8528 48.4041 59.5154 47.9371 59.5154Z" fill="#F06799"/>
<path d="M43.549 60.917H47.6073C47.9032 60.917 48.14 61.128 48.14 61.3918V65.5291C48.14 65.7929 47.9032 66.0039 47.6073 66.0039H43.549C43.2531 66.0039 43.0164 65.7929 43.0164 65.5291V61.3918C43.0164 61.128 43.2531 60.917 43.549 60.917Z" fill="white"/>
<path d="M47.6244 61.4822H43.5322V62.3262H47.6244V61.4822Z" fill="#74C4B9"/>
<path d="M47.6244 62.801H43.5322V63.3512H47.6244V62.801Z" fill="#E0E0E0"/>
<path d="M47.6244 63.7507H43.5322V64.3084H47.6244V63.7507Z" fill="#E0E0E0"/>
<path d="M47.6244 64.7002H44.792V65.2503H47.6244V64.7002Z" fill="#E0E0E0"/>
<path d="M46.0685 60.6306H45.0962C44.8679 60.6306 44.6819 60.4648 44.6819 60.2614C44.6819 60.0579 44.8679 59.8921 45.0962 59.8921H46.0685C46.2968 59.8921 46.4828 60.0579 46.4828 60.2614C46.4828 60.4648 46.2968 60.6306 46.0685 60.6306Z" fill="#F2F2F2"/>
<path d="M38.8568 81.182C38.4509 81.4986 36.2865 82.7872 35.9568 83.5861C35.6862 84.2267 35.906 85.0255 36.2442 85.2516C37.8168 86.3142 43.304 86.0655 44.5468 84.4076C44.8005 84.0684 45.0879 81.898 44.0903 81.9206C42.8221 81.9432 41.4355 80.4661 40.5223 80.436C39.6938 80.4058 39.364 80.7977 38.8652 81.182H38.8568Z" fill="#F06799"/>
<path d="M44.648 83.5711C43.1093 85.425 37.639 85.9676 35.9988 84.7467C35.7198 84.5432 35.9058 85.6737 36.2525 85.945C37.749 87.1056 42.974 86.6986 44.6396 84.8749C44.9862 84.498 44.8594 83.3299 44.6565 83.5711H44.648Z" fill="#C3DEDE"/>
<path d="M41.4693 82.727C41.9258 82.9757 40.3025 83.7293 38.4087 83.6012C36.7853 83.4957 37.1827 82.6893 37.6816 82.4708C38.248 82.2296 40.3025 82.0864 41.4693 82.727Z" fill="#FF87B3"/>
<path d="M53.5765 81.182C53.9824 81.4986 56.1468 82.7872 56.4765 83.5861C56.7471 84.2267 56.5273 85.0255 56.1891 85.2516C54.6165 86.3142 49.1293 86.0655 47.8865 84.4076C47.6328 84.0684 47.3454 81.898 48.343 81.9206C49.6112 81.9432 50.9894 80.4661 51.911 80.436C52.7395 80.4058 53.0692 80.7977 53.5596 81.182H53.5765Z" fill="#F06799"/>
<path d="M47.7851 83.5711C49.3239 85.425 54.7941 85.9676 56.4343 84.7467C56.7133 84.5432 56.5274 85.6737 56.1892 85.945C54.6927 87.1056 49.4676 86.6986 47.802 84.8749C47.4553 84.498 47.5822 83.3299 47.7851 83.5711Z" fill="#C3DEDE"/>
<path d="M50.9642 82.727C50.5077 82.9757 52.131 83.7293 54.0248 83.6012C55.6482 83.4957 55.2508 82.6893 54.7519 82.4708C54.1855 82.2296 52.131 82.0864 50.9642 82.727Z" fill="#FF87B3"/>
<path d="M32.2872 35.4751C32.2364 36.0705 31.6193 36.5076 30.926 36.4624C30.2242 36.4172 29.7 35.8972 29.7592 35.3094C29.8099 34.714 30.4271 34.2694 31.1204 34.3221C31.8222 34.3673 32.3464 34.8873 32.2872 35.4751Z" fill="#FFF7EB"/>
<path d="M30.8841 30.5765C31.5605 21.3974 37.9945 16.9661 45.9589 17.3881C53.9233 17.8102 61.4396 22.8669 61.1015 32.1817C60.7633 41.4964 53.5429 48.4524 44.6484 48.4524C36.5572 48.4524 30.1992 39.8761 30.8841 30.5765Z" fill="#9C552C"/>
<path d="M63.3248 34.578C62.454 34.8568 61.5155 34.8795 60.6024 34.8116C60.5855 34.7815 60.5601 34.7589 60.5432 34.7363C60.112 34.1484 60.6785 31.1942 60.856 30.5838C61.2957 29.0464 62.0989 27.9688 63.7391 28.3908C67.1718 29.2725 66.0388 33.7113 63.3164 34.578H63.3248Z" fill="#9C552C"/>
<path opacity="0.4" d="M58.4043 28.5718C58.6073 28.5793 58.6664 31.0135 60.4166 29.8906C61.1268 29.4385 61.4988 28.0669 61.4988 27.366C61.4988 22.6634 57.0178 16.446 45.5531 16.446C35.0522 16.446 31.8225 21.9023 31.8225 25.9869C31.8225 27.1475 33.6149 27.8483 34.8409 26.8837C36.0753 28.1121 37.3435 27.3961 37.6647 26.6199C38.0621 27.5544 39.8799 27.6298 40.4633 26.8309C41.0128 29.2651 45.3924 29.2576 46.6944 27.2681C47.4216 27.7353 49.4423 27.9086 50.2032 26.326C51.353 27.5243 54.532 28.406 56.0116 27.2228C56.5781 27.9463 57.3475 28.5266 58.4043 28.5643V28.5718Z" fill="#66241B"/>
<path opacity="0.7" d="M61.5495 33.6664C59.96 33.1464 60.9576 30.5841 61.9976 30.0565C62.8515 29.627 65.2188 29.9134 64.3734 31.4055C63.604 30.2224 62.7331 31.1719 63.0375 32.0385C63.2404 32.6264 64.0859 32.5284 63.3757 33.4026C62.9952 33.8774 62.0483 33.8397 61.5495 33.6739V33.6664Z" fill="#66241B"/>
<path d="M37.5884 25.3612C36.9543 26.9589 35.0013 26.7855 34.3502 25.9264C33.9529 26.7026 33.1243 26.778 32.3549 26.3635C29.9368 25.0824 30.833 20.9676 31.484 19.1062C32.8875 15.1195 37.1826 13.4088 41.9088 12.7984C43.5659 12.5874 45.1047 12.0975 46.8126 12.0372C49.6534 11.9392 52.4604 12.5798 55.0475 13.5369C58.8944 14.9613 61.5746 18.5334 62.9105 21.7589C63.6883 23.643 64.0096 27.5693 62.4032 29.6719C60.7714 31.8047 57.7446 30.1693 59.5455 28.3305C57.9222 28.1119 57.3303 27.2227 56.9414 25.9943C54.2528 28.0366 52.1053 26.469 50.5665 24.3137C50.1184 25.6551 47.5228 26.9815 46.0347 25.934C45.3668 29.1595 40.7674 28.1044 41.1225 25.3537C40.1671 26.4539 38.4 26.7403 37.5968 25.3537L37.5884 25.3612Z" fill="#261B18"/>
<path d="M33.8687 21.7139C34.6296 20.4478 37.0223 19.7695 38.4596 19.3776C41.8669 18.4431 45.5194 18.5939 48.9605 19.2721C51.573 19.7921 54.1094 20.6814 56.164 22.2414C56.629 22.5956 58.3706 23.8994 57.1532 24.2385C56.3161 24.4721 54.9211 23.7938 54.1856 23.4698C54.3462 23.9295 55.0649 24.7057 54.7013 25.2106C54.38 25.6703 53.6191 25.4443 53.2048 25.2182C52.3509 24.7509 52.038 23.8164 51.2517 23.2814C49.231 24.6756 47.4555 25.0448 45.3249 23.5225C45.494 23.6431 44.9952 25.075 44.9022 25.2182C44.5217 25.8211 43.7354 26.3034 42.9576 25.9869C42.2728 25.708 41.7486 24.3967 41.5795 23.7637C40.6663 25.3312 38.4681 25.3538 37.8086 23.6657C36.6418 25.6101 32.5667 23.8918 33.8687 21.7139Z" fill="#45362E"/>
<path d="M63.4856 36.3115C63.4349 36.9069 62.8177 37.3515 62.1244 37.3063C61.4226 37.2611 60.8985 36.7411 60.9492 36.1532C60.9999 35.5654 61.6171 35.1208 62.3189 35.166C63.0206 35.2112 63.5448 35.7312 63.4856 36.3191V36.3115Z" fill="#FFF7EB"/>
<path opacity="0.7" d="M54.3035 33.6812C53.272 32.905 56.4003 32.8146 56.8738 32.9276C56.8315 33.4778 55.4365 33.214 55.0137 33.3044C55.3773 33.6436 56.468 33.6436 56.9161 33.8696C57.3895 34.1108 57.3388 34.2766 56.7724 34.269C56.4342 34.2615 54.5402 33.8696 54.2951 33.6812H54.3035Z" fill="#66241B"/>
<path opacity="0.7" d="M35.0776 33.2066C36.1091 32.4304 32.9808 32.34 32.5073 32.453C32.5496 33.0032 33.9447 32.7394 34.3674 32.8298C34.0039 33.169 32.9132 33.169 32.4651 33.395C31.9916 33.6437 32.0423 33.802 32.6088 33.7944C32.947 33.7869 34.8409 33.395 35.086 33.2066H35.0776Z" fill="#66241B"/>
<path d="M33.0651 35.5581C32.9637 35.7314 32.896 35.9349 32.8707 36.1685C32.5747 38.4219 37.6223 37.7135 38.1042 36.7337C39.0004 34.9025 37.2249 34.4352 35.9313 34.4427C34.9421 34.4427 33.5808 34.6312 33.0651 35.5581Z" fill="#D17642"/>
<path d="M51.5899 35.475C51.4461 35.6408 51.3277 35.8443 51.2347 36.093C50.4061 38.4217 56.0286 38.4744 56.7726 37.5173C58.1592 35.7237 56.3414 34.94 54.9464 34.744C53.8726 34.5933 52.3592 34.5707 51.5899 35.4675V35.475Z" fill="#D17642"/>
<path d="M52.7394 33.8848C53.3651 33.6587 54.126 33.6587 54.7601 33.8848C56.2397 32.9051 55.259 29.4686 53.1622 30.1243C51.6065 30.6066 51.4374 33.1312 52.7394 33.8924V33.8848Z" fill="#261B18"/>
<path opacity="0.7" d="M53.5172 31.3678C52.7563 31.2472 52.4858 32.355 53.1283 32.6489C54.0161 33.0634 54.3711 31.5034 53.5172 31.3678Z" fill="#F0DED1"/>
<path d="M34.5783 29.9586C33.4623 30.5992 33.5468 32.5586 34.35 33.4931C34.9503 33.4027 35.6182 33.4102 36.1847 33.7493C38.5013 33.1238 36.6666 28.7754 34.5783 29.9586Z" fill="#261B18"/>
<path opacity="0.7" d="M35.4154 31.0136C34.6798 30.9985 34.5868 32.1516 35.2294 32.3626C36.1171 32.6565 36.2355 31.0286 35.4154 31.0136Z" fill="#F0DED1"/>
<path d="M29.9707 30.5463C29.9707 30.5463 31.873 32.3323 34.8322 30.8628C36.1342 30.2147 37.0643 31.2321 37.0643 31.2321C37.0643 31.2321 36.4386 29.2124 34.5278 29.868C33.5048 30.2222 32.3211 31.2471 29.9792 30.5463H29.9707Z" fill="#121B21"/>
<path d="M59.4272 31.1118C59.4272 31.1118 57.136 32.7999 54.329 31.1721C53.103 30.4561 52.0039 31.2851 52.0039 31.2851C52.0039 31.2851 52.5788 29.2955 54.5488 30.2451C55.3013 30.6068 57.0514 31.6845 59.4272 31.1193V31.1118Z" fill="#121B21"/>
<path opacity="0.7" d="M52.0546 38.1577C50.9724 39.9815 53.5427 40.8481 54.5995 39.0545C53.6948 39.4464 52.4858 39.0621 52.0546 38.1577Z" fill="#66241B"/>
<path opacity="0.7" d="M37.5715 37.8489C38.138 39.7405 35.3479 40.3961 34.7983 38.5422C35.5846 38.9944 36.8867 38.7155 37.5715 37.8489Z" fill="#66241B"/>
<path d="M45.0457 44.2545C48.8588 44.1415 51.9279 42.3177 53.2215 39.8986C53.3568 39.6499 53.213 39.3786 52.9002 39.2806C52.5874 39.1902 52.2323 39.3183 52.097 39.5745C50.9725 41.6846 48.2247 43.2748 44.792 43.2974C41.2241 43.32 38.155 41.647 37.132 39.0922C37.0306 38.8435 36.6924 38.723 36.3711 38.8134C36.0498 38.9038 35.8638 39.1826 35.9653 39.4313C37.1405 42.3704 40.6239 44.2846 44.7244 44.2545C44.8259 44.2545 44.9358 44.2545 45.0457 44.2545Z" fill="#611F16"/>
<path opacity="0.7" d="M41.799 35.5956C42.2809 35.1509 43.2447 35.6558 44.1578 35.6784C44.9864 35.7011 45.722 35.3167 46.4829 35.6784C47.2523 36.0402 46.3223 37.1706 44.1325 37.0877C41.9512 37.0124 41.3762 35.9724 41.799 35.588V35.5956Z" fill="#66241B"/>
<path d="M44.2847 32.3172C45.8404 32.2193 46.9818 34.7288 46.2885 35.5428C45.8066 36.108 42.3909 36.0552 41.8751 35.377C41.6891 35.1283 42.7967 32.4077 44.2847 32.3248V32.3172Z" fill="#D17642"/>
<path d="M58.1167 29.2274C58.2097 28.7225 56.7386 28.0668 54.8024 27.8181C52.6887 27.5468 50.4059 27.9387 50.4566 28.6019C50.5412 29.6946 52.4012 28.8355 54.5234 28.9034C57.1866 28.9863 58.0575 29.5439 58.1167 29.2199V29.2274Z" fill="#261B18"/>
<path d="M31.0021 29.2802C30.9091 28.7828 32.1689 28.0668 34.0966 27.8181C36.2103 27.5468 38.4931 27.9387 38.4423 28.6019C38.3578 29.6946 36.4977 28.8355 34.3756 28.9034C31.7123 28.9863 31.0613 29.6042 31.0021 29.2802Z" fill="#261B18"/>
<path d="M50.5325 18.7523C44.0646 17.1546 39.5582 17.4109 34.4853 19.9129C32.8113 20.7344 30.9343 21.3674 29.8944 21.39C29.9282 21.1413 28.7784 19.9657 27.8568 18.6544C27.1043 17.5918 27.5524 16.499 29.2687 15.7378C34.0795 13.6126 36.3538 9.53556 39.9387 7.56861C45.5865 4.45617 55.7068 6.63414 59.5876 13.1906C60.7628 15.1727 63.9925 17.2074 66.9432 18.7825C68.7695 19.7546 69.226 21.3297 67.5689 23.0856C66.3768 24.3442 65.1339 25.5048 65.0663 25.663C62.0057 24.4723 57.7106 20.5233 50.5494 18.7523H50.5325Z" fill="#C3DEDE"/>
<path d="M33.4116 14.0042C36.8274 11.7584 37.825 7.43269 44.927 6.96545C53.999 6.37009 59.3678 13.6199 60.4923 17.2071C58.1672 16.6193 55.8337 18.526 57.7022 20.5231C53.1958 17.6593 45.2568 15.7526 35.6775 17.7271C37.9772 15.2326 35.0096 13.4089 33.4116 14.0042Z" fill="#EAF2F2"/>
<path d="M49.0107 10.6809H41.7734C41.3579 10.6809 41.021 10.9812 41.021 11.3516V13.0247C41.021 13.3951 41.3579 13.6954 41.7734 13.6954H49.0107C49.4263 13.6954 49.7632 13.3951 49.7632 13.0247V11.3516C49.7632 10.9812 49.4263 10.6809 49.0107 10.6809Z" fill="#74C4B9"/>
<path d="M46.3221 8.29956H44.4451C44.0295 8.29956 43.6926 8.59986 43.6926 8.97029V15.4213C43.6926 15.7917 44.0295 16.092 44.4451 16.092H46.3221C46.7376 16.092 47.0745 15.7917 47.0745 15.4213V8.97029C47.0745 8.59986 46.7376 8.29956 46.3221 8.29956Z" fill="#74C4B9"/>
<defs>
<radialGradient id="paint0_radial_140_3326" cx="0" cy="0" r="1" gradientUnits="userSpaceOnUse" gradientTransform="translate(46.8034 -59.8293) scale(18.289 1.84283)">
<stop/>
<stop offset="0.92"/>
</radialGradient>
</defs>
</svg>
