<svg width="95" height="95" viewBox="0 0 95 95" fill="none" xmlns="http://www.w3.org/2000/svg">
<circle cx="47.5" cy="47.5" r="47.5" fill="#0A4A81"/>
<path d="M34.1402 62.1032C33.7301 62.1032 33.32 61.9588 33.0103 61.6701C30.6164 59.4435 30.4322 57.3006 30.7001 55.8947C31.1856 53.3414 33.5543 50.9553 37.187 49.3518C37.9738 49.0023 38.9196 49.2986 39.3047 50.013C39.6897 50.7273 39.3632 51.586 38.5764 51.9355C35.9063 53.1134 34.1319 54.7776 33.8222 56.3887C33.6129 57.4753 34.1068 58.5772 35.2702 59.6639C35.8812 60.2338 35.8729 61.1381 35.2451 61.6929C34.9354 61.9664 34.542 62.1032 34.1402 62.1032Z" fill="#FFC38F"/>
<path d="M40.1501 47.8547C36.9192 48.6298 34.609 49.2833 31.2693 52.8473C32.19 53.9796 34.316 55.8034 35.9985 56.0997C37.5135 54.2987 39.9408 53.8428 40.8532 51.9506C41.5897 50.4232 40.7276 47.7103 40.1501 47.8547Z" fill="#24578A"/>
<path opacity="0.2" d="M28.1641 85.7215C28.1641 86.9221 36.5259 87.8948 46.8463 87.8948C57.1668 87.8948 65.5286 86.9221 65.5286 85.7215C65.5286 84.5208 57.1668 83.5481 46.8463 83.5481C36.5259 83.5481 28.1641 84.5208 28.1641 85.7215Z" fill="url(#paint0_radial_144_260)"/>
<path d="M37.2371 85.0222C36.9944 85.2349 37.212 86.6256 37.3543 86.8687C37.9737 87.9098 42.2425 88.1454 43.5315 86.8687C45.2892 85.1209 44.5276 82.9248 44.3602 82.7652C44.1844 82.6132 37.4213 84.855 37.2455 85.0146L37.2371 85.0222Z" fill="#999999"/>
<path d="M38.1832 82.8107C41.2383 77.8485 43.7075 80.3714 44.2097 81.4809C44.7956 82.7728 44.4943 84.5129 43.4731 85.4932C42.2678 86.6635 37.999 86.7091 37.2876 85.1893C36.9276 84.4218 37.7395 83.5251 38.1832 82.8107Z" fill="#292929"/>
<path d="M38.6099 84.194C40.1835 83.0237 43.3809 84.8627 40.4513 85.1363C39.698 85.2047 37.5636 84.9691 38.6099 84.194Z" fill="#4F4F4F"/>
<path d="M42.5691 83.3731C42.6779 83.3731 42.7783 83.3199 42.8453 83.2287C42.9457 83.0843 42.9039 82.8867 42.7365 82.7956C41.414 82.0356 40.0161 81.8533 38.7941 82.2712C38.61 82.332 38.5263 82.5144 38.5932 82.674C38.6602 82.8335 38.8611 82.9171 39.0368 82.8563C40.4095 82.3928 41.7153 82.9475 42.3682 83.3275C42.4351 83.3655 42.5021 83.3807 42.5691 83.3731Z" fill="#4F4F4F"/>
<path d="M43.2805 85.8811C43.2805 85.8811 43.3307 85.8811 43.3558 85.8735C43.54 85.8279 43.6488 85.6531 43.5986 85.4859C43.5065 85.1896 43.3893 84.84 43.1801 84.5057C42.6527 83.6469 41.6985 83.077 40.5686 82.9326C39.3381 82.773 38.091 83.1378 37.2289 83.9053C37.0949 84.0269 37.0949 84.2245 37.2289 84.3461C37.3628 84.4676 37.5804 84.4752 37.7227 84.3461C38.4258 83.7153 39.4553 83.419 40.4765 83.5482C41.3888 83.6621 42.1589 84.1257 42.5858 84.8096C42.7532 85.0832 42.8536 85.3872 42.9373 85.6455C42.9792 85.7899 43.1298 85.8811 43.2889 85.8735L43.2805 85.8811Z" fill="#4F4F4F"/>
<path d="M56.196 85.0222C56.4387 85.2349 56.2211 86.6256 56.0788 86.8687C55.4594 87.9098 51.1906 88.1454 49.9016 86.8687C48.1439 85.1209 48.9056 82.9248 49.073 82.7652C49.2487 82.6132 56.0119 84.855 56.1876 85.0146L56.196 85.0222Z" fill="#999999"/>
<path d="M55.2501 82.8107C52.1949 77.8485 49.7257 80.3714 49.2235 81.4809C48.6376 82.7728 48.9389 84.5129 49.9601 85.4932C51.1654 86.6635 55.4342 86.7091 56.1457 85.1893C56.5056 84.4218 55.6937 83.5251 55.2501 82.8107Z" fill="#292929"/>
<path d="M54.8231 84.194C53.2495 83.0237 50.0521 84.8627 52.9816 85.1363C53.7349 85.2047 55.8693 84.9691 54.8231 84.194Z" fill="#4F4F4F"/>
<path d="M50.8638 83.3731C50.755 83.3731 50.6546 83.3199 50.5876 83.2287C50.4872 83.0843 50.529 82.8867 50.6964 82.7956C52.0189 82.0356 53.4167 81.8533 54.6388 82.2712C54.8229 82.332 54.9067 82.5144 54.8397 82.674C54.7727 82.8335 54.5718 82.9171 54.3961 82.8563C53.0234 82.3928 51.7176 82.9475 51.0647 83.3275C50.9978 83.3655 50.9308 83.3807 50.8638 83.3731Z" fill="#4F4F4F"/>
<path d="M50.1526 85.8811C50.1526 85.8811 50.1024 85.8811 50.0773 85.8735C49.8931 85.8279 49.7843 85.6531 49.8345 85.4859C49.9266 85.1896 50.0438 84.84 50.253 84.5057C50.7803 83.6469 51.7346 83.077 52.8645 82.9326C54.095 82.773 55.3421 83.1378 56.2042 83.9053C56.3382 84.0269 56.3382 84.2245 56.2042 84.3461C56.0703 84.4676 55.8527 84.4752 55.7104 84.3461C55.0073 83.7153 53.9778 83.419 52.9566 83.5482C52.0443 83.6621 51.2742 84.1257 50.8473 84.8096C50.6799 85.0832 50.5795 85.3872 50.4958 85.6455C50.4539 85.7899 50.3033 85.8811 50.1442 85.8735L50.1526 85.8811Z" fill="#4F4F4F"/>
<path d="M60.774 56.6699C58.6313 56.6699 56.5052 55.5604 54.9986 53.6378C54.488 52.9919 54.6554 52.0952 55.3669 51.6317C56.0784 51.1681 57.066 51.3201 57.5766 51.966C58.5476 53.2047 59.8282 53.881 61 53.7822C62.2974 53.6758 63.5278 52.5891 64.482 50.7349C64.8503 50.013 65.7962 49.7015 66.583 50.0358C67.3781 50.3702 67.7213 51.2213 67.353 51.9432C65.5032 55.5604 63.034 56.4951 61.293 56.6395C61.1256 56.6547 60.9498 56.6623 60.7824 56.6623L60.774 56.6699Z" fill="#FFC38F"/>
<path d="M54.0112 47.8545C56.5473 48.5537 57.9368 50.4534 60.4144 53.0448C59.6108 54.2834 57.2421 56.8975 54.9403 57.0267C50.479 53.0524 52.7222 47.4974 54.0112 47.8545Z" fill="#24578A"/>
<path d="M70.6176 45.8715C70.2242 45.6359 69.8057 46.0842 69.6383 46.5022C69.7387 46.0614 69.8224 44.7848 69.203 44.5188C68.6087 44.2604 68.5167 44.8532 68.2739 45.5979C68.2907 44.5416 67.236 44.0477 66.851 45.1419C66.6334 45.7651 66.3237 46.5174 65.6289 47.3153C64.884 46.4794 63.754 46.1906 63.4527 46.8062C63.2685 47.1937 63.7959 47.3153 64.0805 48.3716C64.3734 49.4659 63.7373 51.3581 66.2065 52.0344C67.6964 52.4447 69.1109 50.6209 69.8224 49.6786C70.3748 48.9491 71.622 46.4718 70.626 45.8791L70.6176 45.8715Z" fill="#FFC38F"/>
<path d="M38.8107 68.3802C38.7855 67.643 38.7186 66.7995 38.7186 66.1992C38.6349 58.8128 55.0154 58.8128 54.94 66.1992C54.94 66.7995 54.8898 67.8786 54.8479 68.5094C54.6471 71.4046 47.5157 72.8105 47.2729 70.1584C47.2729 70.1584 47.206 69.6188 47.1557 69.4137C47.0469 68.9577 46.4192 68.9577 46.3355 69.3909C46.2936 69.596 46.2266 70.0976 46.2266 70.0976C46.0006 72.7497 38.9195 71.2147 38.819 68.3726L38.8107 68.3802Z" fill="#193D61"/>
<path d="M47.2648 70.0974C47.3151 71.1461 48.8803 79.2164 48.7213 81.5418C49.9098 82.1649 53.4839 82.0433 54.9403 81.101C54.1368 78.7985 54.8315 71.6704 54.8482 68.5092C54.865 66.7994 47.1811 68.2128 47.2648 70.0974Z" fill="#24578A"/>
<path d="M46.2101 70.0974C46.1599 71.1461 44.5947 79.2164 44.7537 81.5418C43.5652 82.1649 39.9911 82.0433 38.5347 81.101C39.3382 78.7985 38.8193 71.5413 38.8025 68.3724C38.7941 66.655 46.2938 68.19 46.2101 70.0974Z" fill="#24578A"/>
<path d="M54.0112 47.8549C52.3539 47.2317 49.7758 46.8138 47.0806 46.8214C44.3854 46.8214 41.8158 47.2317 40.1501 47.8549C37.5721 48.82 39.832 57.9997 40.3259 61.9513C40.3845 62.4453 43.8665 62.6428 47.0806 62.5972C50.2948 62.6428 53.7684 62.4453 53.8354 61.9513C54.3376 57.9997 56.5892 48.82 54.0112 47.8549Z" fill="#24578A"/>
<path opacity="0.3" d="M41.2466 47.7863C40.8449 47.8927 37.614 48.5083 36.7267 49.6253C36.3333 50.1269 36.4422 50.5068 36.5593 50.636C36.6765 50.7652 37.5554 50.8792 38.2334 50.5068C39.3968 49.8533 40.9286 49.4429 41.2634 49.367C41.5982 49.291 41.7489 47.6571 41.2466 47.7863Z" fill="url(#paint1_radial_144_260)"/>
<path d="M41.8411 47.2088C41.4226 47.3076 37.6058 48.0827 36.6767 49.2378C36.2582 49.7545 36.2247 50.446 36.3335 50.5828C36.4507 50.7196 37.4551 50.56 38.1749 50.2029C39.4221 49.5873 40.5353 49.2454 41.4812 49.0402C41.8243 48.9642 42.3517 47.0872 41.8411 47.2088Z" fill="#3C73AB"/>
<path opacity="0.3" d="M52.8059 47.7863C53.2077 47.8927 56.4386 48.5083 57.3258 49.6253C57.7192 50.1269 57.8364 50.4612 57.7192 50.5904C57.6021 50.7196 56.4972 50.8868 55.8192 50.5068C54.6557 49.8533 53.124 49.4429 52.7892 49.367C52.4544 49.291 52.3037 47.6571 52.8059 47.7863Z" fill="url(#paint2_radial_144_260)"/>
<path d="M52.2116 47.2088C52.6301 47.3076 56.4469 48.0827 57.376 49.2378C57.7945 49.7545 57.828 50.446 57.7192 50.5828C57.602 50.7196 56.5975 50.56 55.8777 50.2029C54.6305 49.5873 53.5173 49.2454 52.5715 49.0402C52.2283 48.9642 51.701 47.0872 52.2116 47.2088Z" fill="#3C73AB"/>
<path opacity="0.3" d="M47.0304 50.6512L43.0378 52.8093C43.0378 52.8093 39.0871 50.5752 41.799 47.3911C43.7577 45.0886 51.8098 45.1418 52.6803 47.9611C53.668 51.1451 50.9728 52.9005 50.9728 52.9005L47.0304 50.6512Z" fill="url(#paint3_radial_144_260)"/>
<path d="M47.0219 50.3244L43.1967 52.0038C43.1967 52.0038 39.4134 49.9976 42.0082 46.996C43.8831 44.8302 51.7008 44.7466 52.5379 47.3987C53.4837 50.4004 50.7969 52.0798 50.7969 52.0798L47.0219 50.3168V50.3244Z" fill="#3C73AB"/>
<path d="M47.8591 53.2273C47.8591 53.5693 47.5578 53.8429 47.1812 53.8429C46.8045 53.8429 46.5032 53.5693 46.5032 53.2273C46.5032 52.8854 46.8045 52.6118 47.1812 52.6118C47.5578 52.6118 47.8591 52.8854 47.8591 53.2273Z" fill="#E0A859"/>
<path d="M40.8115 48.5008C40.8115 48.8427 40.5102 49.1163 40.1336 49.1163C39.7569 49.1163 39.4556 48.8427 39.4556 48.5008C39.4556 48.1588 39.7569 47.8853 40.1336 47.8853C40.5102 47.8853 40.8115 48.1588 40.8115 48.5008Z" fill="#E0A859"/>
<path d="M53.2327 48.5008C53.2327 48.8427 53.534 49.1163 53.9107 49.1163C54.2873 49.1163 54.5886 48.8427 54.5886 48.5008C54.5886 48.1588 54.2873 47.8853 53.9107 47.8853C53.534 47.8853 53.2327 48.1588 53.2327 48.5008Z" fill="#E0A859"/>
<path d="M47.8591 56.4571C47.8591 56.799 47.5578 57.0726 47.1812 57.0726C46.8045 57.0726 46.5032 56.799 46.5032 56.4571C46.5032 56.1151 46.8045 55.8416 47.1812 55.8416C47.5578 55.8416 47.8591 56.1151 47.8591 56.4571Z" fill="#E0A859"/>
<path d="M47.8591 59.6866C47.8591 60.0285 47.5578 60.3021 47.1812 60.3021C46.8045 60.3021 46.5032 60.0285 46.5032 59.6866C46.5032 59.3446 46.8045 59.071 47.1812 59.071C47.5578 59.071 47.8591 59.3446 47.8591 59.6866Z" fill="#E0A859"/>
<path d="M49.96 47.2542C49.4494 46.4639 49.9265 45.2024 50.027 43.8498C50.2614 40.7949 44.126 40.7341 44.0925 44.0701C44.0758 45.5444 44.193 46.6691 43.833 47.1554C41.3387 50.4838 52.2116 50.7726 49.9517 47.2542H49.96Z" fill="#E8A779"/>
<path d="M55.9112 67.0424C55.3002 67.0424 54.7645 66.6397 54.6724 66.0773C54.5636 65.4542 55.0323 64.869 55.7187 64.7779L61.6783 63.9344C62.3646 63.8432 63.0091 64.2611 63.1096 64.8842C63.2184 65.5074 62.7497 66.0925 62.0633 66.1837L56.1037 67.0272C56.0368 67.0348 55.9698 67.0424 55.9112 67.0424Z" fill="#292929"/>
<path d="M59.8116 65.5915C59.5521 65.5915 59.3261 65.4243 59.2843 65.1811C59.2424 64.9151 59.4349 64.672 59.7279 64.634L61.9376 64.3224C62.2222 64.2768 62.4984 64.4592 62.5403 64.7252C62.5821 64.9911 62.3896 65.2343 62.0967 65.2723L59.8869 65.5839C59.8869 65.5839 59.8283 65.5839 59.8032 65.5839L59.8116 65.5915Z" fill="#4F4F4F"/>
<path d="M57.9198 78.8061C57.3088 78.8061 56.7731 78.4033 56.681 77.841L53.8184 61.0925C53.7096 60.4693 54.1783 59.8842 54.8647 59.793C55.5511 59.7018 56.1956 60.1198 56.296 60.7429L59.1586 77.4914C59.2674 78.1146 58.7987 78.6997 58.1123 78.7909C58.0454 78.7985 57.9784 78.8061 57.9198 78.8061Z" fill="#292929"/>
<path d="M58.3051 78.0917C58.0456 78.0917 57.8196 77.9245 57.7777 77.6813L56.3883 69.5502C56.3464 69.2842 56.5389 69.0411 56.8319 69.0031C57.1165 68.9575 57.3927 69.1399 57.4345 69.4058L58.824 77.5369C58.8659 77.8029 58.6733 78.0461 58.3804 78.0841C58.3553 78.0841 58.3218 78.0841 58.2967 78.0841L58.3051 78.0917Z" fill="#4F4F4F"/>
<path d="M39.1708 61.67C44.3017 62.4755 51.2573 62.4679 55.5094 61.67C56.1958 61.5408 56.179 66.2903 55.3253 66.4271C52.6217 66.845 46.185 67.567 39.221 66.3359C38.5263 66.2143 38.2668 61.5256 39.1708 61.67Z" fill="#292929"/>
<path d="M50.7552 62.5668C47.6499 62.7948 44.5948 62.696 41.6903 62.4073C40.711 62.3085 40.7361 65.9409 41.7991 66.1232C44.126 66.526 46.9468 66.7464 50.7971 66.4272C51.4835 66.374 51.4416 62.5212 50.7552 62.5668Z" fill="#4F4F4F"/>
<path d="M40.87 61.8828V70.3331C40.87 72.0201 38.8947 71.5337 37.8651 71.131C36.6515 70.6522 36.777 68.4561 36.7435 67.757C36.7017 66.7691 34.3078 66.6551 35.0862 62.8859C35.4043 61.3509 36.2246 60.629 36.9026 60.4466C38.359 60.0438 40.87 60.4846 40.87 61.8904V61.8828Z" fill="#292929"/>
<path d="M51.6926 66.351C52.2283 68.8587 54.0195 69.0563 54.8733 69.0563C57.9619 69.0563 58.4808 66.465 58.4808 63.3873C58.4808 61.9967 57.4262 61.0696 56.0786 61.0696C52.1278 61.0696 50.8556 62.3994 51.6926 66.351Z" fill="#292929"/>
<path d="M53.7265 64.5197C53.3582 64.5197 53.0569 64.2461 53.0569 63.9118C53.0569 62.0576 54.1869 60.4237 55.6265 60.1882C56.2125 60.0894 56.8067 60.2414 57.2838 60.6061C57.9953 61.1533 58.4222 62.1412 58.4222 63.2582C58.4222 63.5926 58.1209 63.8662 57.7526 63.8662C57.3843 63.8662 57.0829 63.5926 57.0829 63.2582C57.0829 62.5059 56.8318 61.8448 56.4217 61.5332C56.2459 61.3964 56.0618 61.3508 55.8525 61.3812C55.1578 61.4952 54.3877 62.5591 54.3877 63.9042C54.3877 64.2385 54.0864 64.5121 53.7181 64.5121L53.7265 64.5197Z" fill="#999999"/>
<path d="M53.8858 63.0986C53.8858 63.0986 53.8272 63.0986 53.8021 63.091C53.6263 63.0454 53.5175 62.8858 53.5677 62.7186C53.9193 61.518 54.7479 60.6365 55.6854 60.4845C56.3215 60.3857 56.9409 60.6213 57.3845 61.1304C57.5017 61.2596 57.4766 61.4496 57.3259 61.556C57.1836 61.6624 56.9744 61.6396 56.8572 61.5028C56.6479 61.2672 56.2964 61.0012 55.7942 61.0772C55.1246 61.1836 54.4801 61.9055 54.2038 62.863C54.162 62.9998 54.0281 63.091 53.8774 63.091L53.8858 63.0986Z" fill="#D4D4D4"/>
<path d="M48.4285 64.4739C48.4285 64.7779 48.7047 65.0287 49.0395 65.0287C49.3743 65.0287 49.6505 64.7779 49.6505 64.4739C49.6505 64.17 49.3743 63.9192 49.0395 63.9192C48.7047 63.9192 48.4285 64.17 48.4285 64.4739Z" fill="#292929"/>
<path d="M41.707 64.2308C41.707 64.5347 41.9832 64.7855 42.3181 64.7855C42.6529 64.7855 42.9291 64.5347 42.9291 64.2308C42.9291 63.9268 42.6529 63.676 42.3181 63.676C41.9832 63.676 41.707 63.9268 41.707 64.2308Z" fill="#292929"/>
<path d="M47.3486 62.2551C47.4156 61.8068 44.4609 61.8296 44.3437 62.2019C43.9001 63.6762 43.9754 66.3283 44.1763 66.921C44.3772 67.5137 47.4658 67.6277 47.3486 67.0046C47.2315 66.3815 47.2315 63.1138 47.3486 62.2551Z" fill="#292929"/>
<path d="M46.8045 62.3918C47.064 62.597 46.8463 63.8737 46.7877 64.4512C46.7292 64.9907 44.4776 64.9375 44.4608 64.398C44.4441 63.8584 44.5278 62.445 44.7119 62.3006C44.8961 62.1562 46.5115 62.1562 46.8129 62.3918H46.8045Z" fill="#4F4F4F"/>
<path d="M36.7936 60.7733C36.0905 61.0089 35.3456 62.3235 35.2535 64.1701C35.1614 66.0167 38.2416 67.2858 38.3002 65.4924C38.3505 63.7066 38.5513 62.1639 39.3465 61.6548C39.9659 61.2596 40.669 61.48 40.3175 61.2141C39.9659 60.9481 38.3756 60.2414 36.7852 60.7733H36.7936Z" fill="#4F4F4F"/>
<path opacity="0.5" d="M40.2255 61.5866C39.5391 61.7765 39.1122 61.9817 38.8946 62.9088C38.677 63.8359 38.6519 65.6217 38.6519 65.6217C38.6519 65.6217 39.0453 64.0943 39.2461 63.3952C39.6144 62.1489 40.6105 62.3085 40.6105 62.3085C40.6105 62.3085 40.8867 61.4042 40.2255 61.5866Z" fill="url(#paint4_radial_144_260)"/>
<path opacity="0.5" d="M40.5938 63C40.5938 63 40.485 65.4013 40.87 66.5944C39.7233 65.7889 40.0246 63.6991 40.5938 63Z" fill="url(#paint5_radial_144_260)"/>
<path d="M39.4219 68.7145C39.3717 69.4212 39.4972 70.3179 39.5642 70.6827C39.6395 71.0474 37.8148 70.941 37.6056 70.5231C37.388 70.1051 37.2206 69.6568 37.2457 69.1552C37.2708 68.6537 39.4721 68.0686 39.4219 68.7145Z" fill="#4F4F4F"/>
<path d="M52.3958 63.8205C54.9236 63.6229 57.1249 62.901 58.28 62.4147C59.5272 61.8903 59.7699 67.4073 56.4804 68.7448C53.8773 69.801 51.1486 63.9193 52.3958 63.8205Z" fill="#292929"/>
<path d="M53.2747 64.2462C54.9069 63.9955 56.8237 63.5319 57.9536 62.962C58.255 62.81 58.4977 62.8176 58.5395 62.9392C58.64 63.2127 58.6735 65.0745 58.0541 65.6673C57.4431 66.2676 56.5893 65.5229 53.9527 66.6172C52.6972 67.1415 52.1866 64.4058 53.2747 64.2386V64.2462Z" fill="#4F4F4F"/>
<path d="M53.2747 64.2459C54.3042 63.9572 57.4681 63.0529 57.9536 62.9617C57.058 63.828 54.706 64.2155 53.2747 64.2459Z" fill="#999999"/>
<path opacity="0.5" d="M52.061 62.5288C51.4835 63.1367 51.157 65.2949 51.7681 66.6856C51.9438 64.2842 51.8936 63.1291 52.061 62.5288Z" fill="url(#paint6_radial_144_260)"/>
<path d="M43.674 63.3266C43.1383 63.319 42.2427 63.2354 41.707 63.1442C41.5396 63.1138 41.4224 62.9694 41.4559 62.8099C41.4894 62.6579 41.6484 62.5591 41.8242 62.5819C42.3348 62.6655 43.1886 62.7415 43.6908 62.7491C43.8665 62.7491 44.0005 62.8782 44.0005 63.0378C44.0005 63.1974 43.8582 63.319 43.6824 63.319L43.674 63.3266Z" fill="#999999"/>
<path d="M48.0851 63.4712C48.0265 63.4712 47.9679 63.4712 47.9093 63.4712C47.7335 63.4712 47.5996 63.342 47.5996 63.1825C47.5996 63.0229 47.7419 62.9013 47.9177 62.9013C47.9595 62.9013 48.0265 62.9013 48.0851 62.9013C48.8886 62.9013 49.9684 62.8405 50.4287 62.7645C50.5961 62.7417 50.7636 62.8405 50.797 62.9925C50.8305 63.1445 50.7133 63.2964 50.5459 63.3268C50.0437 63.4104 48.9389 63.4712 48.0935 63.4712H48.0851Z" fill="#999999"/>
<path d="M46.3442 62.9923C46.3442 62.9923 46.2939 62.9923 46.2772 62.9923C46.0261 62.9391 45.5155 62.9239 45.1389 62.9239C44.9463 62.9011 44.8208 62.8023 44.8208 62.6428C44.8208 62.4832 44.9547 62.354 45.1305 62.354C45.5239 62.354 46.1014 62.3692 46.4195 62.43C46.5869 62.468 46.6957 62.62 46.6539 62.7719C46.6204 62.9011 46.4948 62.9923 46.3442 62.9923Z" fill="#999999"/>
<path opacity="0.5" d="M47.3065 62.6882C47.4488 63.3722 47.6329 65.2947 47.3065 66.5714C47.0135 65.8647 47.0303 63.4557 47.3065 62.6882Z" fill="url(#paint7_radial_144_260)"/>
<path opacity="0.5" d="M44.2432 62.6045C44.3855 63.2884 44.126 65.3326 44.0842 66.4269C43.7912 65.7201 43.9586 63.3796 44.2432 62.6045Z" fill="url(#paint8_radial_144_260)"/>
<path d="M49.0308 4C46.344 4 34.224 9.12184 32.3156 10.4289C29.9552 12.0399 25 19.7759 25 21.782C25 25.7944 26.9168 33.2644 45.5321 33.2644C63.0509 33.2644 66.4576 24.4341 66.4576 21.782C66.4576 20.5206 63.6368 11.5384 62.6994 10.4289C61.695 9.24343 52.0357 4 49.0308 4Z" fill="#24578A"/>
<path d="M49.0308 5.30713C46.344 5.30713 34.224 10.2846 32.3156 11.5536C29.9552 13.1191 25 20.6346 25 22.58C25 26.4708 26.9168 33.7356 45.5321 33.7356C63.0509 33.7356 66.4576 25.1561 66.4576 22.58C66.4576 21.349 63.6368 12.6327 62.6994 11.5536C61.695 10.4062 52.0357 5.30713 49.0308 5.30713Z" fill="#193D61"/>
<path d="M60.59 29.4494C60.59 36.2431 63.1848 39.1004 67.3783 38.3557C68.1399 40.8558 65.9553 42.5048 62.8667 42.102C63.0676 44.093 61.6279 45.9776 59.9623 47.1479C59.8534 46.4032 59.5103 45.4305 58.3133 44.9517C56.2124 48.6905 52.6969 45.2937 47.1475 45.2937C42.05 45.2937 37.8817 47.9306 35.0107 45.6357C34.249 46.16 33.6798 47.0947 33.4538 47.961C32.0058 46.4792 31.3864 45.1265 31.8635 43.1127C27.126 45.2253 24.3722 41.137 26.4145 38.3025C29.0176 40.7266 30.7335 38.2265 30.7335 30.7413C30.7335 29.5634 33.3785 15.1782 47.273 15.1782C61.1676 15.1782 60.5817 26.1058 60.5817 29.4342L60.59 29.4494Z" fill="#261B18"/>
<path d="M33.0941 34.9969C34.1738 41.555 39.8572 48.6906 48.2525 48.0446C56.8236 47.3835 60.9417 37.6794 59.7113 29.6167C58.3805 20.8548 53.6931 13.59 43.6908 15.4822C36.551 16.8349 31.646 26.2426 33.0941 34.9893V34.9969Z" fill="#FFC38F"/>
<path opacity="0.2" d="M58.891 25.3233C59.1756 26.7292 57.1416 27.7094 55.6015 27.8386C53.3081 28.0362 50.8974 28.0742 48.5956 28.1274C48.5705 27.8766 48.671 27.5955 48.7714 27.3599C48.5454 27.4283 48.3027 27.5803 48.0599 27.6107C48.1018 27.4283 48.1939 27.2459 48.3111 27.0863C47.4657 27.3903 46.6538 27.6867 45.7247 27.869C44.5194 28.097 43.3224 28.059 42.1422 28.211C42.1422 27.9906 42.159 27.7399 42.2427 27.5499C41.7404 27.8994 41.0039 28.0742 40.3845 28.1958C39.4889 28.363 37.2624 28.477 36.5174 27.8994C37.2875 27.4587 38.091 27.1015 38.5263 26.3644C38.6602 26.144 39.447 24.0239 39.4637 24.0163C37.9655 24.2594 35.1782 27.0331 34.9941 30.126C32.6839 23.5375 38.9113 15.5964 44.2431 15.6192C52.5882 15.6496 57.9033 20.4446 58.8994 25.3233H58.891Z" fill="#B54319"/>
<path d="M31.4032 37.8394C32.3239 38.1281 33.3116 38.1585 34.2491 38.0901C34.2658 38.0597 34.2825 38.0369 34.2993 38.0065C34.7094 37.3986 34.0733 34.0094 33.8473 33.371C33.2865 31.7676 32.2151 30.9317 30.5411 31.3801C27.0339 32.2996 28.5155 36.9427 31.4032 37.8394Z" fill="#FFC38F"/>
<path opacity="0.4" d="M32.7507 36.6764C34.023 35.9241 32.7758 33.4695 31.8049 33.0744C31.0097 32.7552 29.0511 33.3784 29.9969 34.769C30.4656 33.4619 31.3529 34.3055 31.2357 35.2325C31.152 35.8557 30.4238 35.8709 31.1604 36.6612C31.5621 37.0867 32.3573 36.9196 32.7591 36.684L32.7507 36.6764Z" fill="#D14F2E"/>
<path d="M48.495 14.8669C34.9939 14.8669 31.6877 24.0391 31.922 26.4861C32.1983 29.2977 31.7379 32.6566 34.6675 34.5108C34.8516 33.8344 34.8014 33.0897 34.9186 32.3982C35.0609 31.4863 35.3371 30.5668 35.2701 29.6321C35.2032 28.6974 35.0944 27.9603 35.3203 27.0028C35.6886 25.445 36.9525 24.1303 38.2918 23.1576C39.4385 22.3293 40.1416 22.7321 39.7817 23.9859C39.472 25.065 38.3253 26.0985 37.4045 26.7748C37.5133 26.6988 40.4262 26.9572 41.0372 26.7672C42.2592 26.3949 43.4478 25.7185 44.1007 24.6623C43.5148 25.597 43.7157 26.1897 42.7782 27.0332C45.5822 27.7703 47.1474 26.9268 49.4744 25.3538C49.2986 25.7945 49.0558 26.2809 48.7629 26.6304C49.1228 26.4557 49.7171 26.1365 50.0268 25.9997C49.8594 26.4405 49.6585 26.8432 49.4744 27.2612C51.3242 26.9724 53.1991 27.6335 55.0322 27.2156C56.3379 26.9192 58.0622 25.9541 59.3847 24.7762C60.3807 23.8795 56.1454 14.8821 48.495 14.8821V14.8669Z" fill="#261B18"/>
<path opacity="0.3" d="M33.5795 26.8279C34.7597 27.717 39.7567 25.3916 49.2736 25.3916C58.7905 25.3916 60.406 27.679 61.2179 26.8051C62.0298 25.9236 59.8201 22.3899 59.8201 22.3899C59.8201 22.3899 55.7103 20.9917 48.0348 20.9917C40.3593 20.9917 30.4992 24.5025 33.5795 26.8279Z" fill="url(#paint9_radial_144_260)"/>
<path d="M36.3499 24.5101C32.893 26.2351 32.1565 29.3431 31.3613 29.9663C30.8423 30.369 30.4406 30.3462 29.9551 29.6395C28.256 27.2002 29.4027 12.207 49.4912 12.207C60.0292 12.207 63.235 19.4414 61.2931 22.7395C60.2887 23.6894 42.0752 21.6528 36.3583 24.5025L36.3499 24.5101Z" fill="#102840"/>
<path d="M36.3498 25.0574C32.8929 26.7824 32.1564 29.8905 31.3612 30.5136C30.8422 30.9164 30.3903 30.9164 29.955 30.1869C29.3272 29.1382 29.8211 24.1455 31.629 21.1591C34.1234 17.0555 38.9028 12.7544 49.4911 12.7544C60.0794 12.7544 62.3811 20.0572 61.134 22.5725C62.2891 24.1835 61.6864 29.3282 60.8243 29.8525C60.5983 29.9893 60.456 29.5637 60.4058 28.9862C60.1714 26.4329 59.2172 23.9784 58.5225 23.0589C57.585 21.8278 42.0751 22.1925 36.3582 25.0498L36.3498 25.0574Z" fill="#24578A"/>
<path d="M33.5459 25.5361C34.7261 26.4252 39.765 24.8674 49.2819 24.8674C58.7988 24.8674 61.4438 26.4708 62.2557 25.5893C62.557 25.2625 62.6491 24.5558 62.2389 23.9327C61.5693 22.8916 60.0878 21.9037 60.0878 21.9037C60.0878 21.9037 55.7102 20.4294 48.0347 20.4294C40.3592 20.4294 34.4331 22.4888 33.5459 25.5437V25.5361Z" fill="#292929"/>
<path d="M33.5459 24.5632C34.7261 25.4067 39.765 23.9248 49.2819 23.9248C58.7988 23.9248 61.4438 25.4447 62.2557 24.6088C63.0676 23.7729 59.82 21.022 59.82 21.022C59.82 21.022 56.5723 19.6997 48.8968 19.6997C42.728 19.6997 35.6468 21.3259 33.5459 24.5556V24.5632Z" fill="#4F4F4F"/>
<path d="M32.3405 24.5709C32.0978 24.5709 31.8634 24.4949 31.6626 24.3505C31.2189 24.0085 31.1687 23.4158 31.537 23.0131C35.1111 19.1679 40.7359 17.3821 49.2316 17.3821C55.8273 17.3821 60.1714 18.446 62.038 19.4415C62.5402 19.7074 62.7076 20.2926 62.4147 20.7409C62.1217 21.1969 61.4772 21.3412 60.9834 21.0829C59.4265 20.2546 55.4172 19.2895 49.2316 19.2895C38.9363 19.2895 35.1111 22.1164 33.1357 24.2441C32.9265 24.4645 32.6335 24.5785 32.3322 24.5785L32.3405 24.5709Z" fill="#292929"/>
<path d="M33.5876 23.6212C33.5876 24.5027 33.0268 25.2247 32.3404 25.2247C31.6541 25.2247 31.0933 24.5103 31.0933 23.6212C31.0933 22.7321 31.6541 22.0178 32.3404 22.0178C33.0268 22.0178 33.5876 22.7321 33.5876 23.6212Z" fill="#E0A859"/>
<path d="M33.0019 23.3475C33.0019 23.887 32.6587 24.3278 32.2402 24.3278C31.8217 24.3278 31.4785 23.887 31.4785 23.3475C31.4785 22.8079 31.8217 22.3672 32.2402 22.3672C32.6587 22.3672 33.0019 22.8079 33.0019 23.3475Z" fill="#FCE6BE"/>
<path d="M36.7852 20.6419C36.6262 20.6419 36.4839 20.5659 36.4086 20.4291C36.3081 20.2391 36.3918 20.0111 36.6011 19.92C42.7197 17.2451 53.9944 17.1843 59.9874 18.9245C60.205 18.9853 60.3306 19.2056 60.2553 19.4032C60.1883 19.6008 59.9539 19.7148 59.7279 19.6464C54.0027 17.9822 42.8118 18.043 36.961 20.6039C36.9024 20.6267 36.8438 20.6419 36.7769 20.6419H36.7852Z" fill="#999999"/>
<path d="M49.7839 19.9887C46.4023 19.9355 41.9159 20.5814 40.0493 21.1969C40.6938 22.1772 40.6353 23.1879 40.3088 23.4539C39.9907 23.7199 38.8859 24.3354 36.1321 24.7685C39.0951 24.7229 40.7189 24.381 45.716 24.2442C50.713 24.1074 58.6981 24.5634 58.6981 24.5634C58.6981 24.5634 54.0192 23.7123 50.6293 23.2335C48.7292 22.9675 49.3403 20.5206 49.7755 19.9887H49.7839Z" fill="#999999"/>
<path d="M54.0193 14.9278C55.7101 13.9247 56.0784 9.79078 54.8563 9.34243C54.3206 9.14485 53.718 9.27403 53.2576 9.51721C53.3162 9.16764 53.3581 8.81049 53.3581 8.44573C53.3581 7.20707 48.8967 7.07788 48.8967 7.07788C48.8967 7.07788 44.4438 7.20707 44.4438 8.44573C44.4438 8.81049 44.4856 9.16764 44.5442 9.51721C44.0839 9.26643 43.4812 9.14485 42.9455 9.33483C41.69 9.79078 42.1169 14.1071 43.9081 14.9734C43.498 15.171 43.2217 15.5433 43.2217 15.9765C43.2217 16.6072 43.8077 17.124 44.5191 17.124H53.5255C54.2453 17.124 54.8228 16.6072 54.8228 15.9765C54.8228 15.4977 54.488 15.0798 54.0109 14.9126L54.0193 14.9278ZM52.6717 11.3486C52.8475 12.0021 53.0902 12.6785 52.7052 13.1648C52.0439 14.0159 52.0858 14.5479 52.3871 14.8442H48.9051C49.8091 14.8366 51.6589 13.446 52.6633 11.3486H52.6717ZM48.8967 14.8442H45.4147C45.7161 14.5479 45.7579 14.0159 45.0967 13.1648C44.7116 12.6785 44.9544 12.0021 45.1301 11.3486C46.1346 13.446 47.9844 14.8366 48.8884 14.8442H48.8967Z" fill="#102840"/>
<path d="M48.9051 6.80396C48.9051 6.80396 44.6028 6.93314 44.6028 8.1642C44.6028 11.7662 47.683 14.5095 48.9051 14.5095C50.1271 14.5095 53.2074 11.7662 53.2074 8.1642C53.2074 6.93314 48.9051 6.80396 48.9051 6.80396Z" fill="#E0A859"/>
<path d="M54.647 9.04582C53.7597 8.71146 52.6465 9.31179 52.4623 9.88933C52.1778 10.7708 53.1738 12.0475 52.5795 12.8378C51.4914 14.2741 52.3619 14.806 53.0985 14.806C55.3501 14.806 56.0029 9.55497 54.6553 9.04582H54.647Z" fill="#E0A859"/>
<path d="M43.1632 9.04582C44.0504 8.71146 45.1636 9.31179 45.3478 9.88933C45.6324 10.7708 44.6363 12.0475 45.2306 12.8378C46.3187 14.2741 45.4482 14.806 44.7117 14.806C42.4601 14.806 41.8072 9.55497 43.1548 9.04582H43.1632Z" fill="#E0A859"/>
<path d="M48.9219 7.30546C47.3064 7.30546 45.4817 7.62462 45.1385 8.09577C44.7954 8.56691 46.0676 11.143 46.3941 11.5306C46.5447 11.713 47.4822 12.5641 48.9386 12.3893C50.5457 12.1917 51.6589 11.1278 51.8096 10.9227C52.0942 10.5351 53.107 8.46812 52.7387 8.05777C52.3704 7.65501 50.2444 7.29785 48.9135 7.29785L48.9219 7.30546Z" fill="#FCE6BE"/>
<path d="M54.0278 9.41064C53.4837 9.41064 52.9396 9.8666 52.9982 10.6189C53.0568 11.3712 53.2577 11.9944 53.3582 12.2071C53.6427 12.7923 54.9317 12.1311 54.9485 11.3104C54.9652 10.4897 55.0657 9.41064 54.0194 9.41064H54.0278Z" fill="#FCE6BE"/>
<path d="M43.5065 9.44849C42.7197 9.44849 42.5189 10.9455 42.9876 12.3362C43.2303 13.0505 44.5612 12.7237 44.5947 12.1006C44.6365 11.4775 45.0383 10.6036 44.8793 10.1628C44.7202 9.72206 44.4189 9.44849 43.5065 9.44849Z" fill="#FCE6BE"/>
<path d="M53.375 16.7815H44.6867C43.992 16.7815 43.4312 16.2723 43.4312 15.6416C43.4312 15.0109 43.992 14.5017 44.6867 14.5017H53.375C54.0697 14.5017 54.6305 15.0109 54.6305 15.6416C54.6305 16.2723 54.0697 16.7815 53.375 16.7815Z" fill="#E0A859"/>
<path d="M52.1945 16.0674H45.0715C44.7032 16.0674 44.4019 15.7939 44.4019 15.4595C44.4019 15.1251 44.7032 14.8516 45.0715 14.8516H52.1945C52.5628 14.8516 52.8641 15.1251 52.8641 15.4595C52.8641 15.7939 52.5628 16.0674 52.1945 16.0674Z" fill="#FCE6BE"/>
<path d="M47.3732 12.6631C47.2309 12.6631 47.0886 12.6099 46.9882 12.5035C46.804 12.3135 46.8208 12.0171 47.0384 11.85L51.0896 8.62031C51.2988 8.45313 51.6253 8.46832 51.8094 8.6659C51.9935 8.85588 51.9768 9.15225 51.7592 9.31943L47.708 12.5491C47.6076 12.6251 47.4904 12.6631 47.3732 12.6631Z" fill="#E0A859"/>
<path d="M50.4284 12.6629C50.3112 12.6629 50.1856 12.6249 50.0936 12.5489L46.0424 9.3193C45.8331 9.15212 45.808 8.85575 45.9922 8.66577C46.1763 8.47579 46.5028 8.45299 46.712 8.62018L50.7632 11.8498C50.9724 12.017 50.9976 12.3134 50.8134 12.5033C50.713 12.6097 50.5707 12.6629 50.4284 12.6629Z" fill="#E0A859"/>
<path d="M49.5664 8.60497C49.5664 8.93933 49.2734 9.20531 48.9051 9.20531C48.5368 9.20531 48.2439 8.93933 48.2439 8.60497C48.2439 8.2706 48.5368 8.00464 48.9051 8.00464C49.2734 8.00464 49.5664 8.2706 49.5664 8.60497Z" fill="#E0A859"/>
<path opacity="0.5" d="M58.757 35.3088C58.8323 35.4304 58.8909 35.5672 58.916 35.7268C59.2006 37.277 55.5763 36.6539 55.1996 35.9776C54.4965 34.7009 55.7521 34.4273 56.6728 34.4729C57.3759 34.5033 58.3552 34.6629 58.757 35.3088Z" fill="#FF7752"/>
<path opacity="0.5" d="M41.012 35.2931C41.1125 35.4223 41.2045 35.5666 41.2631 35.749C41.8658 37.4816 37.7728 37.5196 37.2287 36.8129C36.2159 35.483 37.5384 34.8979 38.5596 34.7611C39.338 34.6547 40.4429 34.6319 41.0037 35.3007L41.012 35.2931Z" fill="#FF7752"/>
<path d="M60.3892 28.986C59.3512 27.4358 54.982 27.1774 53.3833 28.5301C55.4507 28.8113 57.8028 28.9328 60.3892 28.986Z" fill="#261B18"/>
<path opacity="0.4" d="M50.4205 35.8407C50.6883 36.099 49.9182 36.8286 48.964 36.9197C48.1186 36.9957 47.064 36.1826 47.5327 35.9319C48.0015 35.6811 48.286 35.9319 48.964 35.9167C49.7257 35.8939 50.1191 35.5519 50.4205 35.8483V35.8407Z" fill="#D14F2E"/>
<path d="M35.5798 29.0775C37.0865 27.6109 41.665 27.0865 43.2051 28.5531C40.6103 28.8495 39.3381 28.8115 35.5798 29.0775Z" fill="#261B18"/>
<path d="M40.3593 33.956C39.7651 33.7357 39.0285 33.7357 38.4342 33.956C37.028 32.9985 37.9571 29.6701 39.9492 30.3008C41.4391 30.772 41.5898 33.2265 40.3593 33.956Z" fill="#1C5C57"/>
<path opacity="0.7" d="M39.6145 31.5092C40.3427 31.3952 40.5938 32.4667 39.9827 32.7554C39.1374 33.1582 38.7942 31.6384 39.6145 31.5092Z" fill="#6CD9D2"/>
<path d="M57.669 30.1488C58.7321 30.7643 58.6484 32.6793 57.8867 33.5684C57.3175 33.4848 56.673 33.4924 56.1457 33.8192C53.9359 33.2113 55.6853 28.9937 57.6774 30.1412L57.669 30.1488Z" fill="#1C5C57"/>
<path opacity="0.7" d="M56.8736 31.1669C57.5683 31.1517 57.6604 32.2688 57.0494 32.474C56.204 32.7627 56.0868 31.1821 56.8736 31.1669Z" fill="#6CD9D2"/>
<path d="M62.0633 30.7186C62.0633 30.7186 60.247 32.4512 57.4346 31.0225C56.1958 30.3918 55.3086 31.3873 55.3086 31.3873C55.3086 31.3873 55.9112 29.4267 57.7276 30.065C58.7069 30.407 59.8285 31.4025 62.0633 30.7262V30.7186Z" fill="#121B21"/>
<path d="M33.9896 31.2658C33.9896 31.2658 36.1658 32.9072 38.8443 31.3266C40.0161 30.6351 41.054 31.433 41.054 31.433C41.054 31.433 40.51 29.4952 38.6267 30.4223C37.9068 30.7719 36.2412 31.813 33.9812 31.2734L33.9896 31.2658Z" fill="#121B21"/>
<path d="M41.2381 37.2158C42.2761 38.9864 39.8152 39.8223 38.8108 38.0973C39.6729 38.4697 40.828 38.1049 41.2381 37.2158Z" fill="#E3694B"/>
<path d="M55.0407 36.9194C54.4966 38.7508 57.1584 39.3892 57.6857 37.5958C56.9324 38.0365 55.6936 37.7629 55.0407 36.9194Z" fill="#E3694B"/>
<path d="M47.9175 43.1359C44.2765 43.0295 41.3553 41.2589 40.1249 38.9108C39.991 38.6676 40.1332 38.4016 40.4262 38.3104C40.7192 38.2268 41.0623 38.3484 41.1963 38.5916C42.2676 40.6358 44.8875 42.186 48.1603 42.2088C51.5669 42.2316 54.4881 40.6054 55.4591 38.1281C55.5511 37.8849 55.8776 37.7633 56.1873 37.8545C56.4886 37.9457 56.6644 38.2117 56.5723 38.4548C55.4507 41.3121 52.1361 43.1663 48.2189 43.1359C48.1184 43.1359 48.018 43.1359 47.9175 43.1359Z" fill="#E3694B"/>
<path d="M52.8223 60.3328C52.2447 60.3328 51.7258 60.0669 51.3575 59.5805C51.0059 59.117 50.8218 58.4558 50.8218 57.6807C50.8218 57.392 51.0812 57.164 51.3909 57.164C51.7006 57.164 51.9601 57.3996 51.9601 57.6807C51.9601 58.4027 52.1443 58.7978 52.2949 59.003C52.3954 59.1398 52.5712 59.2994 52.8139 59.2994C53.3077 59.2994 54.0443 58.623 54.0443 57.1564C54.0443 56.8676 54.3038 56.6396 54.6135 56.6396C54.9232 56.6396 55.1826 56.8752 55.1826 57.1564C55.1826 59.2234 53.9606 60.3328 52.8139 60.3328H52.8223Z" fill="#999999"/>
<path d="M52.2616 57.8553H50.5625L50.2695 56.0847H52.5546L52.2616 57.8553Z" fill="#292929"/>
<path d="M49.6921 49.9827H53.1239C53.9525 49.9827 54.6222 50.5906 54.6222 51.3429V55.2413C54.6222 55.9936 53.9525 56.6015 53.1239 56.6015H49.6921C48.8635 56.6015 48.1938 55.9936 48.1938 55.2413V51.3429C48.1938 50.5906 48.8635 49.9827 49.6921 49.9827Z" fill="#292929"/>
<g opacity="0.5">
<path d="M53.3667 51.2894C53.3667 51.6086 53.0319 51.867 52.6134 51.867H50.2028C49.7926 51.867 49.4495 51.6086 49.4495 51.2894C49.4495 50.9703 49.7843 50.7119 50.2028 50.7119H52.6134C53.0235 50.7119 53.3667 50.9703 53.3667 51.2894Z" fill="#D4D4D4"/>
</g>
<path d="M53.2327 53.7365H49.5833C49.2736 53.7365 49.0225 53.5086 49.0225 53.2274C49.0225 52.9462 49.2736 52.7183 49.5833 52.7183H53.2327C53.5424 52.7183 53.7935 52.9462 53.7935 53.2274C53.7935 53.5086 53.5424 53.7365 53.2327 53.7365Z" fill="#4F4F4F"/>
<path d="M53.2327 55.165H49.5833C49.2736 55.165 49.0225 54.937 49.0225 54.6559C49.0225 54.3747 49.2736 54.1467 49.5833 54.1467H53.2327C53.5424 54.1467 53.7935 54.3747 53.7935 54.6559C53.7935 54.937 53.5424 55.165 53.2327 55.165Z" fill="#4F4F4F"/>
<path d="M45.917 53.987L45.1135 52.9155C45.1135 52.9155 43.791 53.7134 43.0879 52.9307C42.3848 53.7058 41.0623 52.9155 41.0623 52.9155L40.2588 53.987C40.2588 53.987 40.9619 54.6633 40.9619 55.2257C40.9619 55.788 40.2588 56.4795 40.2588 57.1027C40.2588 58.3945 43.0879 58.9797 43.0879 58.9797C43.0879 58.9797 45.917 58.4021 45.917 57.1027C45.917 56.4871 45.2139 55.788 45.2139 55.2257C45.2139 54.6633 45.917 53.987 45.917 53.987Z" fill="#999999"/>
<path d="M43.0879 59.3219C43.0879 59.3219 43.0293 59.3219 43.0042 59.3143C42.6862 59.2459 39.8821 58.6304 39.8821 57.1029C39.8821 56.7078 40.083 56.3278 40.2839 55.9706C40.4346 55.7047 40.5852 55.4235 40.5852 55.2335C40.5852 54.922 40.217 54.4584 39.9826 54.2304C39.857 54.1165 39.8487 53.9341 39.9491 53.8049L40.7526 52.7334C40.8698 52.5814 41.0958 52.5358 41.2716 52.6422C41.2716 52.6422 41.7822 52.9462 42.2677 52.9462C42.4936 52.9462 42.6611 52.8778 42.795 52.7334C42.9373 52.5738 43.2386 52.5738 43.3809 52.7334C43.5148 52.8778 43.6822 52.9462 43.9082 52.9462C44.3853 52.9462 44.8959 52.6498 44.9043 52.6422C45.08 52.5434 45.306 52.5814 45.4232 52.7334L46.2268 53.8049C46.3272 53.9341 46.3105 54.1165 46.1933 54.2304C45.9589 54.4508 45.5906 54.922 45.5906 55.2335C45.5906 55.4311 45.7413 55.7047 45.8919 55.9706C46.0928 56.3354 46.2937 56.7078 46.2937 57.1029C46.2937 58.6304 43.4897 59.2459 43.1716 59.3143C43.1465 59.3143 43.113 59.3219 43.0879 59.3219ZM40.7359 53.9721C40.9786 54.2532 41.3386 54.7472 41.3386 55.2335C41.3386 55.5907 41.146 55.9402 40.9619 56.2822C40.8029 56.571 40.6355 56.8749 40.6355 57.1105C40.6355 57.9084 42.3681 58.4708 43.0879 58.6304C43.8078 58.4632 45.5404 57.9084 45.5404 57.1105C45.5404 56.8749 45.373 56.571 45.214 56.2822C45.0298 55.9402 44.8373 55.5907 44.8373 55.2335C44.8373 54.7548 45.2056 54.2532 45.44 53.9721L44.988 53.3793C44.5192 53.5845 43.6236 53.7517 43.0796 53.4097C42.5355 53.7517 41.6399 53.5845 41.1712 53.3793L40.7192 53.9721H40.7359Z" fill="#D4D4D4"/>
<path d="M44.8542 60.7884H41.3304C40.937 60.7884 40.6189 60.4997 40.6189 60.1425C40.6189 59.7854 40.937 59.4966 41.3304 59.4966H44.8542C45.2476 59.4966 45.5657 59.7854 45.5657 60.1425C45.5657 60.4997 45.2476 60.7884 44.8542 60.7884Z" fill="#999999"/>
<path d="M44.7788 60.3858H41.255C41.0708 60.3858 40.9202 60.249 40.9202 60.0818C40.9202 59.9146 41.0708 59.7778 41.255 59.7778H44.7788C44.963 59.7778 45.1136 59.9146 45.1136 60.0818C45.1136 60.249 44.963 60.3858 44.7788 60.3858Z" fill="#D4D4D4"/>
<path d="M44.4272 57.726H41.7571C41.3972 57.726 41.1042 57.46 41.1042 57.1333C41.1042 56.8065 41.3972 56.5405 41.7571 56.5405H44.4272C44.7871 56.5405 45.0801 56.8065 45.0801 57.1333C45.0801 57.46 44.7871 57.726 44.4272 57.726Z" fill="#D4D4D4"/>
<path d="M43.0547 54.0027C42.4604 54.2686 41.5815 54.0331 41.5815 54.0331C41.5815 54.0331 41.9331 54.7322 41.908 55.1045C41.8745 55.4769 41.7573 55.9328 41.7573 55.9328C41.7573 55.9328 43.3811 55.7961 43.7662 55.4237C44.1512 55.0513 44.9799 53.9495 44.9799 53.9495C44.9799 53.9495 43.9754 54.4054 43.0631 54.0027H43.0547Z" fill="#D4D4D4"/>
<path d="M34.1404 62.1031C33.7303 62.1031 33.3201 61.9587 33.0105 61.67C31.4452 60.2185 30.6417 58.6379 30.6082 56.9737C30.5915 56.1834 31.2946 55.5298 32.1651 55.5146C33.069 55.5146 33.7554 56.1378 33.7721 56.9281C33.7889 57.8324 34.2911 58.7519 35.2704 59.6638C35.8814 60.2337 35.8731 61.138 35.2453 61.6928C34.9356 61.9663 34.5422 62.1031 34.1404 62.1031Z" fill="#FFC38F"/>
<path d="M33.2281 61.9284C34.6426 63.205 37.4048 65.1884 36.8524 63.2354C37.2541 63.7522 38.7357 64.3221 37.8986 62.7643C38.8445 63.2886 40.2507 62.3387 38.3506 61.3509C39.7233 61.7384 40.2674 60.9557 38.9784 60.3174C38.0075 59.8386 36.3502 59.4511 35.1197 59.3523C33.973 59.2611 32.4078 61.1761 33.2364 61.9284H33.2281Z" fill="#FFC38F"/>
<defs>
<radialGradient id="paint0_radial_144_260" cx="0" cy="0" r="1" gradientUnits="userSpaceOnUse" gradientTransform="translate(46.666 -48.5086) rotate(180) scale(18.106 1.85822)">
<stop/>
<stop offset="0.92"/>
</radialGradient>
<radialGradient id="paint1_radial_144_260" cx="0" cy="0" r="1" gradientUnits="userSpaceOnUse" gradientTransform="translate(39.0118 49.2682) scale(2.15114 1.95298)">
<stop/>
<stop offset="0.92"/>
</radialGradient>
<radialGradient id="paint2_radial_144_260" cx="0" cy="0" r="1" gradientUnits="userSpaceOnUse" gradientTransform="translate(55.1245 49.253) rotate(180) scale(2.19299 1.99098)">
<stop/>
<stop offset="0.92"/>
</radialGradient>
<radialGradient id="paint3_radial_144_260" cx="0" cy="0" r="1" gradientUnits="userSpaceOnUse" gradientTransform="translate(46.49 49.159) scale(5.20559 4.36253)">
<stop/>
<stop offset="0.92"/>
</radialGradient>
<radialGradient id="paint4_radial_144_260" cx="0" cy="0" r="1" gradientUnits="userSpaceOnUse" gradientTransform="translate(40.116 63.5927) scale(1.91242 1.55023)">
<stop/>
<stop offset="0.92"/>
</radialGradient>
<radialGradient id="paint5_radial_144_260" cx="0" cy="0" r="1" gradientUnits="userSpaceOnUse" gradientTransform="translate(40.4766 64.7934) scale(1.42294 1.29186)">
<stop/>
<stop offset="0.92"/>
</radialGradient>
<radialGradient id="paint6_radial_144_260" cx="0" cy="0" r="1" gradientUnits="userSpaceOnUse" gradientTransform="translate(51.7513 64.6034) scale(1.63218 1.48184)">
<stop/>
<stop offset="0.92"/>
</radialGradient>
<radialGradient id="paint7_radial_144_260" cx="0" cy="0" r="1" gradientUnits="userSpaceOnUse" gradientTransform="translate(47.2898 64.6336) scale(1.51501 1.37545)">
<stop/>
<stop offset="0.92"/>
</radialGradient>
<radialGradient id="paint8_radial_144_260" cx="0" cy="0" r="1" gradientUnits="userSpaceOnUse" gradientTransform="translate(44.1093 64.5119) scale(1.4899 1.35265)">
<stop/>
<stop offset="0.92"/>
</radialGradient>
<radialGradient id="paint9_radial_144_260" cx="0" cy="0" r="1" gradientUnits="userSpaceOnUse" gradientTransform="translate(47.1978 23.6305) scale(10.287 9.80635)">
<stop/>
<stop offset="0.92"/>
</radialGradient>
</defs>
</svg>
