<svg width="95" height="95" viewBox="0 0 95 95" fill="none" xmlns="http://www.w3.org/2000/svg">
<circle cx="47.5" cy="47.5" r="47.5" fill="#0A4A81"/>
<path d="M74.7344 42.2338C73.9117 42.0425 72.5078 41.7663 70.9375 41.4688C70.8906 35.9013 65.8984 31.375 59.7344 31.375C58.6328 31.375 57.6016 31.545 56.5937 31.8212C55.1641 24.3412 47.9453 18.625 39.2969 18.625C29.5938 18.625 21.7188 25.765 21.7188 34.5625C21.7188 35.7738 21.8828 36.9637 22.1641 38.09C16.5391 39.3438 12.3438 43.955 12.3438 49.4375C12.3438 55.8763 18.1328 61.125 25.2344 61.125H72.0625C77.8984 61.125 82.6562 56.8112 82.6562 51.52C82.6562 47.1425 79.3984 43.3175 74.7344 42.2338ZM72.0625 59H25.2344C19.4219 59 14.6875 54.7075 14.6875 49.4375C14.6875 44.1675 19.4219 39.875 25.2344 39.875C24.4844 38.2388 24.0625 36.4538 24.0625 34.5625C24.0625 26.9338 30.8828 20.75 39.2969 20.75C47.7109 20.75 54.5312 26.9338 54.5312 34.5625L54.5078 35.0725C55.9609 34.095 57.7656 33.5 59.7344 33.5C64.6328 33.5 68.5938 37.0912 68.5938 41.5325C68.5938 42.1062 68.5234 42.6587 68.4062 43.1687C70.7266 43.5937 73.0234 44.0187 74.1484 44.295C77.6875 45.1238 80.3125 48.0562 80.3125 51.52C80.3125 55.6425 76.6094 59 72.0625 59Z" fill="#D4D4D4"/>
<path d="M80.3125 51.52C80.3125 55.6425 76.6094 59 72.0625 59H25.2344C24.6016 59 23.9922 58.9575 23.4062 58.8512C22.3281 57.3638 21.7188 55.6 21.7188 53.6875C21.7188 48.4175 26.4531 44.125 32.2656 44.125C31.5156 42.4888 31.0938 40.7037 31.0938 38.8125C31.0938 31.1838 37.9141 25 46.3281 25C47.9219 25 49.4687 25.2125 50.9219 25.6375C53.1719 28.0388 54.5312 31.1625 54.5312 34.5625L54.5078 35.0725C55.9609 34.095 57.7656 33.5 59.7344 33.5C59.9711 33.5 60.1797 33.5 60.4141 33.5213C63.5312 33.7338 66.1797 35.4125 67.5625 37.7925C68.2188 38.8975 68.5938 40.1937 68.5938 41.5325C68.5938 42.1062 68.5234 42.6587 68.4062 43.1687C70.7266 43.5937 73.0234 44.0187 74.1484 44.295C74.6406 44.4225 75.1094 44.5712 75.5547 44.7625C77.2445 45.4637 78.6016 46.675 79.4219 48.1838C80.0078 49.1825 80.3125 50.3087 80.3125 51.52Z" fill="#31CFFF"/>
<path d="M73.2812 64.3125C73.2812 63.726 73.8063 63.25 74.4531 63.25H81.4844C82.1313 63.25 82.6562 63.726 82.6562 64.3125C82.6562 64.899 82.1313 65.375 81.4844 65.375H74.4531C73.8063 65.375 73.2812 64.899 73.2812 64.3125Z" fill="#31CFFF"/>
<path d="M12.3438 64.3125C12.3438 63.726 12.8688 63.25 13.5156 63.25H67.4219C68.0687 63.25 68.5938 63.726 68.5938 64.3125C68.5938 64.899 68.0687 65.375 67.4219 65.375H13.5156C12.8688 65.375 12.3438 64.899 12.3438 64.3125Z" fill="#31CFFF"/>
<path d="M38.125 68.5625C38.125 67.976 38.65 67.5 39.2969 67.5H81.4844C82.1312 67.5 82.6562 67.976 82.6562 68.5625C82.6562 69.149 82.1312 69.625 81.4844 69.625H39.2969C38.65 69.625 38.125 69.149 38.125 68.5625Z" fill="#31CFFF"/>
<path d="M21.7188 68.5625C21.7188 67.976 22.2438 67.5 22.8906 67.5H32.2656C32.9125 67.5 33.4375 67.976 33.4375 68.5625C33.4375 69.149 32.9125 69.625 32.2656 69.625H22.8906C22.2438 69.625 21.7188 69.149 21.7188 68.5625Z" fill="#31CFFF"/>
<path d="M27.5781 35.625C26.9313 35.625 26.4062 35.149 26.4062 34.5625C26.4062 23.0089 36.8477 22.875 36.9531 22.875C37.6 22.875 38.125 23.351 38.125 23.9375C38.125 24.524 37.6023 25 36.9555 25C36.5922 25.0021 28.75 25.1891 28.75 34.5625C28.75 35.149 28.225 35.625 27.5781 35.625Z" fill="#D4D4D4"/>
<path d="M41.6406 25C42.2878 25 42.8125 24.5243 42.8125 23.9375C42.8125 23.3507 42.2878 22.875 41.6406 22.875C40.9934 22.875 40.4688 23.3507 40.4688 23.9375C40.4688 24.5243 40.9934 25 41.6406 25Z" fill="#D4D4D4"/>
<path d="M73.2812 55.8125C73.2812 55.226 72.7563 54.75 72.1094 54.75H55.7031C55.0563 54.75 54.5312 55.226 54.5312 55.8125C54.5312 56.399 55.0563 56.875 55.7031 56.875H72.1094C72.7563 56.875 73.2812 56.399 73.2812 55.8125Z" fill="#D4D4D4"/>
<path d="M47.5 55.8125C47.5 55.226 48.025 54.75 48.6719 54.75H51.0156C51.6625 54.75 52.1875 55.226 52.1875 55.8125C52.1875 56.399 51.6625 56.875 51.0156 56.875H48.6719C48.025 56.875 47.5 56.399 47.5 55.8125Z" fill="#D4D4D4"/>
</svg>
