<svg width="95" height="95" viewBox="0 0 95 95" fill="none" xmlns="http://www.w3.org/2000/svg">
<circle cx="47.5" cy="47.5" r="47.5" fill="#0A4A81"/>
<g clip-path="url(#clip0_167_97)">
<path fill-rule="evenodd" clip-rule="evenodd" d="M38.4731 61.0573L48.0163 54.4838C48.8629 53.9013 50.0348 54.1146 50.6163 54.9579L56.531 63.5232C57.1125 64.3665 56.8958 65.5366 56.0492 66.1191L46.506 72.6925C45.6594 73.275 44.4875 73.0618 43.9059 72.2184L37.9913 63.6531C37.4098 62.8098 37.6265 61.6397 38.4731 61.0573ZM45.8394 62.8922L43.8308 63.8217C43.5849 63.151 43.5643 62.5193 43.7759 61.92C43.9861 61.3247 44.4784 60.7547 45.25 60.2179C46.1391 59.5986 46.8919 59.3167 47.5208 59.3697C48.1469 59.4239 48.6351 59.7001 48.9828 60.1993C49.1881 60.4905 49.2918 60.8134 49.298 61.1628C49.3043 61.5121 49.209 61.8865 49.0082 62.2912C49.3148 62.1718 49.5706 62.1066 49.77 62.0981C50.0947 62.0798 50.3963 62.139 50.6801 62.2798C50.9639 62.4206 51.2177 62.6455 51.4373 62.9597C51.7118 63.3542 51.8761 63.8045 51.9221 64.3144C51.9668 64.8216 51.8651 65.3087 51.6105 65.7756C51.3559 66.2425 50.913 66.6993 50.2766 67.1418C49.658 67.5726 49.1194 67.8422 48.661 67.9441C48.2011 68.05 47.7599 68.0407 47.3342 67.9242C46.9101 67.8037 46.4854 67.5771 46.0644 67.239L47.7807 65.6675C48.1212 65.9974 48.4216 66.1801 48.6805 66.2197C48.9395 66.2593 49.1885 66.194 49.4316 66.0251C49.6842 65.8483 49.8305 65.6092 49.8691 65.3049C49.909 65.0034 49.8198 64.6969 49.6028 64.388C49.3831 64.0738 49.1312 63.8879 48.8485 63.8264C48.5671 63.7676 48.2857 63.835 48.0071 64.0274C47.8596 64.1309 47.681 64.309 47.4752 64.5632L46.6309 63.1469C46.7438 63.0899 46.831 63.0417 46.8883 63.0011C47.1341 62.831 47.2814 62.608 47.3368 62.339C47.3909 62.0673 47.3434 61.8273 47.1944 61.6124C47.0492 61.4056 46.8714 61.2842 46.6675 61.2482C46.457 61.2122 46.2459 61.2661 46.0314 61.4181C45.8088 61.5739 45.6757 61.7636 45.6291 61.9951C45.5853 62.2254 45.6545 62.5248 45.8394 62.8922ZM29.5377 48.871L34.3693 55.7847L32.4545 57.1216L29.2949 52.5996C29.1496 53.051 28.9813 53.4469 28.7897 53.794C28.6008 54.1398 28.3315 54.5339 27.9887 54.9697L26.9128 53.431C27.4124 52.7711 27.7383 52.1738 27.8909 51.6326C28.0434 51.0913 28.0724 50.5357 27.9739 49.9644L29.5377 48.871ZM23.1799 67.0406L34.621 65.2109C35.6379 65.0492 36.5993 65.745 36.7587 66.7593L38.3845 77.0404C38.5438 78.0548 37.8442 79.016 36.8273 79.1776L25.3903 81.0088C24.3734 81.1704 23.412 80.4747 23.2526 79.4603L21.6268 69.1792C21.4647 68.1662 22.1644 67.205 23.1799 67.0406ZM34.1863 71.4505L32.7177 71.9102C32.6829 72.0332 32.6386 72.1573 32.5836 72.2799C32.3775 72.7436 31.9557 73.2868 31.317 73.9066C30.9353 74.2677 30.6851 74.5198 30.5584 74.6598C30.433 74.8027 30.2879 74.9814 30.1232 75.2027L33.4344 74.6769L33.703 76.3971L27.3451 77.4092C27.3193 76.7734 27.448 76.1471 27.7324 75.5397C28.0156 74.9296 28.6034 74.1678 29.5026 73.2545C29.6731 73.0803 29.8217 72.9231 29.9526 72.7778C30.2447 72.4526 30.4384 72.2009 30.5337 72.0159C30.6698 71.7483 30.7219 71.5075 30.6873 71.2946C30.6504 71.0629 30.5357 70.8782 30.3367 70.7403C30.1376 70.6023 29.9085 70.5552 29.6478 70.5962C29.3778 70.6383 29.1693 70.7608 29.0253 70.9557C28.8798 71.1545 28.8113 71.473 28.821 71.9137L26.6748 72.0778C26.6646 71.4678 26.746 70.9803 26.9138 70.6113C27.0843 70.2409 27.3558 69.9355 27.731 69.6938C28.1089 69.4508 28.6509 69.2725 29.368 69.1605C30.1121 69.0423 30.7058 69.0356 31.1478 69.1376C31.5872 69.2409 31.9557 69.4477 32.2454 69.7619C32.539 70.0775 32.7197 70.4502 32.7874 70.8866C32.8396 71.2274 32.8177 71.5668 32.7218 71.9117L34.1863 71.4505ZM21.7194 50.8575L31.2626 44.2841C32.1092 43.7016 33.2812 43.9149 33.8627 44.7582L39.7773 53.3235C40.3588 54.1668 40.1421 55.3369 39.2955 55.9194L29.7523 62.4928C28.9058 63.0753 27.7338 62.8621 27.1523 62.0187L21.2376 53.4534C20.6561 52.6101 20.8728 51.44 21.7194 50.8575Z" fill="#FF343F"/>
</g>
<g clip-path="url(#clip1_167_97)">
<path d="M59.5001 8C65.4369 8 70.8119 10.4066 74.7028 14.2973C78.5933 18.1879 81 23.5631 81 29.4999C81 35.4368 78.5933 40.812 74.7028 44.7026C70.8119 48.5934 65.4369 51 59.5001 51C53.5633 51 48.1881 48.5934 44.2973 44.7028C40.4066 40.8119 38 35.4368 38 29.4999C38 23.5631 40.4067 18.1879 44.2973 14.2973C48.1881 10.4066 53.5633 8 59.5001 8Z" fill="#FF343F"/>
<path fill-rule="evenodd" clip-rule="evenodd" d="M59.5 10.1787C70.1706 10.1787 78.8211 18.829 78.8211 29.4998C78.8211 40.1706 70.1706 48.8211 59.5 48.8211C48.8292 48.8211 40.1787 40.1706 40.1787 29.4998C40.1787 18.829 48.8292 10.1787 59.5 10.1787Z" fill="#D2DADA"/>
<path fill-rule="evenodd" clip-rule="evenodd" d="M59.5 11.7202C69.3195 11.7202 77.2798 19.6805 77.2798 29.5C77.2798 39.3196 69.3195 47.28 59.5 47.28C49.6804 47.28 41.72 39.3196 41.72 29.5C41.72 19.6805 49.6804 11.7202 59.5 11.7202Z" fill="#E9F2F2"/>
<path d="M60.3243 44.6323C60.3243 45.0876 59.9551 45.4568 59.4998 45.4568C59.0446 45.4568 58.6753 45.0876 58.6753 44.6323V43.155C58.6753 42.6997 59.0446 42.3305 59.4998 42.3305C59.9551 42.3305 60.3243 42.6997 60.3243 43.155V44.6323ZM67.7782 42.1957C68.004 42.5887 67.8684 43.0906 67.4756 43.3164C67.0826 43.5421 66.5806 43.4066 66.3549 43.0136L65.6162 41.734C65.3905 41.3412 65.526 40.8392 65.919 40.6134C66.3119 40.3877 66.8138 40.5232 67.0396 40.9161L67.7782 42.1957ZM51.2226 16.804C50.9968 16.4111 51.1324 15.9091 51.5252 15.6834C51.9182 15.4576 52.4201 15.5932 52.6459 15.986L53.3845 17.2657C53.6102 17.6587 53.4747 18.1606 53.0818 18.3864C52.6889 18.6121 52.1869 18.4766 51.9611 18.0837L51.2226 16.804ZM73.0174 36.3544C73.4103 36.582 73.5444 37.0854 73.3168 37.4783C73.0892 37.8713 72.5858 38.0054 72.193 37.7778L70.9135 37.0388C70.5206 36.8112 70.3865 36.3078 70.6141 35.9149C70.8417 35.522 71.3451 35.3879 71.738 35.6155L73.0174 36.3544ZM45.9831 22.6457C45.5902 22.4181 45.456 21.9147 45.6836 21.5218C45.9112 21.1289 46.4146 20.9948 46.8076 21.2224L48.0869 21.9611C48.4799 22.1888 48.614 22.6922 48.3864 23.0851C48.1588 23.478 47.6554 23.6122 47.2625 23.3846L45.9831 22.6457ZM74.6322 28.6786C75.0857 28.6786 75.4534 29.0464 75.4534 29.4998C75.4534 29.9534 75.0857 30.321 74.6322 30.321L73.1548 30.3209C72.7012 30.3209 72.3336 29.9532 72.3336 29.4997C72.3336 29.0462 72.7012 28.6785 73.1548 28.6785L74.6322 28.6786ZM44.3679 30.3246C43.9127 30.3246 43.5435 29.9554 43.5435 29.5001C43.5435 29.0449 43.9127 28.6757 44.3679 28.6757H45.8454C46.3006 28.6757 46.6699 29.0449 46.6699 29.5001C46.6699 29.9554 46.3006 30.3246 45.8454 30.3246H44.3679ZM72.1957 21.2222C72.5886 20.9965 73.0906 21.132 73.3163 21.525C73.5421 21.9178 73.4065 22.4198 73.0137 22.6456L71.7341 23.384C71.3412 23.6098 70.8392 23.4742 70.6135 23.0813C70.3877 22.6884 70.5232 22.1864 70.9161 21.9607L72.1957 21.2222ZM46.8042 37.7778C46.4112 38.0035 45.9092 37.868 45.6835 37.4751C45.4577 37.0822 45.5933 36.5802 45.9862 36.3544L47.2657 35.616C47.6587 35.3902 48.1607 35.5258 48.3864 35.9186C48.6122 36.3116 48.4766 36.8136 48.0837 37.0393L46.8042 37.7778ZM66.3541 15.9829C66.5817 15.59 67.0851 15.4558 67.4781 15.6835C67.871 15.9111 68.0051 16.4145 67.7775 16.8074L67.0385 18.0868C66.8109 18.4797 66.3076 18.6139 65.9146 18.3862C65.5217 18.1586 65.3875 17.6552 65.6152 17.2623L66.3541 15.9829ZM52.6454 43.0172C52.4178 43.4101 51.9144 43.5443 51.5215 43.3166C51.1286 43.0891 50.9945 42.5856 51.2221 42.1928L51.9609 40.9134C52.1885 40.5204 52.6919 40.3863 53.0848 40.6139C53.4777 40.8415 53.6118 41.3449 53.3842 41.7378L52.6454 43.0172ZM58.6784 14.3681C58.6784 13.9146 59.0461 13.5469 59.4996 13.5469C59.9531 13.5469 60.3208 13.9146 60.3208 14.3681L60.3206 15.8455C60.3206 16.299 59.9529 16.6667 59.4994 16.6667C59.0459 16.6667 58.6782 16.299 58.6782 15.8455L58.6784 14.3681Z" fill="#4D4D4D"/>
<path d="M58.3896 27.8498L58.4164 22.354C58.2893 22.4102 58.149 22.4302 58.0113 22.4118C57.8735 22.3933 57.7435 22.3372 57.6356 22.2495C57.312 21.9867 57.2624 21.5109 57.5252 21.1872L58.8514 19.5468C58.9196 19.4626 59.0052 19.3941 59.1023 19.3459C59.1993 19.2978 59.3057 19.2712 59.414 19.2679H59.4165L59.4322 19.2677C59.6695 19.2637 59.9048 19.3701 60.0556 19.576L61.3076 21.2741C61.4044 21.4063 61.4557 21.5665 61.4535 21.7305C61.4513 21.8944 61.3959 22.0532 61.2956 22.1829C61.1953 22.3126 61.0555 22.4061 60.8973 22.4494C60.7392 22.4926 60.5713 22.4833 60.4189 22.4227L60.3931 27.7225C60.7388 27.8967 61.0264 28.1677 61.2211 28.5024L65.0094 28.5027C64.9441 28.3488 64.9316 28.1777 64.9739 28.016C65.0162 27.8543 65.1109 27.7112 65.2432 27.609C65.3755 27.5069 65.538 27.4515 65.7051 27.4515C65.8722 27.4514 66.0347 27.5068 66.167 27.6089L67.8367 28.8978C68.2286 29.2009 68.2285 29.8002 67.8367 30.1032L66.167 31.3924C66.0347 31.4946 65.8723 31.55 65.7052 31.55C65.5381 31.55 65.3757 31.4947 65.2434 31.3926C65.1111 31.2906 65.0163 31.1475 64.9739 30.9859C64.9315 30.8243 64.9439 30.6531 65.0091 30.4993L61.2205 30.4991C60.8758 31.0913 60.2344 31.4895 59.5 31.4895C58.4014 31.4895 57.5108 30.5988 57.5108 29.5003C57.5108 28.8129 57.8596 28.2072 58.3896 27.8498Z" fill="black"/>
<path fill-rule="evenodd" clip-rule="evenodd" d="M59.244 29.1582L59.8464 29.5003L54.9478 38.1553L54.3455 37.8131L59.244 29.1582Z" fill="#F64A32"/>
<path fill-rule="evenodd" clip-rule="evenodd" d="M59.4999 28.5566C60.0209 28.5566 60.4434 28.979 60.4434 29.5001C60.4434 30.0211 60.0209 30.4436 59.4999 30.4436C58.9788 30.4436 58.5564 30.0211 58.5564 29.5001C58.5564 28.979 58.9788 28.5566 59.4999 28.5566Z" fill="#E6E6E6"/>
</g>
<defs>
<clipPath id="clip0_167_97">
<rect width="37" height="34" fill="white" transform="translate(11 53.9023) rotate(-25.4548)"/>
</clipPath>
<clipPath id="clip1_167_97">
<rect width="43" height="43" fill="white" transform="translate(38 8)"/>
</clipPath>
</defs>
</svg>
