<svg width="95" height="95" viewBox="0 0 95 95" fill="none" xmlns="http://www.w3.org/2000/svg">
<circle cx="47.5" cy="47.5" r="47.5" fill="#0A4A81"/>
<g clip-path="url(#clip0_167_96)">
<path fill-rule="evenodd" clip-rule="evenodd" d="M41.2781 22.8784H71.0396C73.7679 22.8784 76 24.7241 76 26.98V70.8985C76 73.1544 73.7679 75 71.0396 75H23.9604C21.2321 75 19 73.1544 19 70.8985V26.98C19 24.79 21.1036 22.9866 23.7226 22.8832C23.602 23.1765 23.5406 23.4841 23.5409 23.7939V68.5535C23.5409 70.118 25.0888 71.3978 26.9807 71.3978H38.0221C39.9142 71.3978 41.462 70.118 41.462 68.5535V23.7939C41.462 23.4739 41.397 23.166 41.2781 22.8784Z" fill="#9BB7E6"/>
<path fill-rule="evenodd" clip-rule="evenodd" d="M48.2634 26.167H68.7622C69.9126 26.167 70.8513 26.9432 70.8513 27.8921V35.6806C70.8513 36.6318 69.9126 37.408 68.7622 37.408H48.2634C47.1144 37.408 46.1758 36.6318 46.1758 35.6806V27.8921C46.1758 26.9432 47.1144 26.167 48.2634 26.167Z" fill="#B1E4F9"/>
<path fill-rule="evenodd" clip-rule="evenodd" d="M64.5927 37.4078H48.2634C47.1144 37.4078 46.1758 36.6316 46.1758 35.6804V27.8919C46.1758 27.8367 46.179 27.7821 46.1853 27.728C51.9528 29.6436 63.0132 33.1649 64.5927 37.4078Z" fill="#659CB3"/>
<path fill-rule="evenodd" clip-rule="evenodd" d="M61.0061 46.5376C62.3761 46.5376 63.4862 47.4567 63.4862 48.5894C63.4862 49.7222 62.3761 50.6412 61.0061 50.6412C59.6364 50.6412 58.5249 49.7222 58.5249 48.5894C58.5249 47.4567 59.6364 46.5376 61.0061 46.5376ZM53.4779 46.5376C54.8477 46.5376 55.9592 47.4567 55.9592 48.5894C55.9592 49.7222 54.8477 50.6412 53.4779 50.6412C52.108 50.6412 50.9978 49.7222 50.9978 48.5894C50.9978 47.4567 52.108 46.5376 53.4779 46.5376ZM61.0061 65.1045C62.3761 65.1045 63.4862 66.0234 63.4862 67.1563C63.4862 68.289 62.3761 69.208 61.0061 69.208C59.6364 69.208 58.5249 68.289 58.5249 67.1563C58.5249 66.0234 59.6364 65.1045 61.0061 65.1045ZM68.5332 58.9158C69.9032 58.9158 71.0146 59.8349 71.0146 60.9676C71.0146 62.1003 69.9032 63.0183 68.5332 63.0183C67.1634 63.0183 66.0519 62.1003 66.0519 60.9676C66.0519 59.8349 67.1634 58.9158 68.5332 58.9158ZM61.0061 58.9158C62.3761 58.9158 63.4862 59.8349 63.4862 60.9676C63.4862 62.1003 62.3761 63.0183 61.0061 63.0183C59.6364 63.0183 58.5249 62.1003 58.5249 60.9676C58.5249 59.8349 59.6364 58.9158 61.0061 58.9158ZM53.4779 58.9158C54.8477 58.9158 55.9592 59.8349 55.9592 60.9676C55.9592 62.1003 54.8477 63.0183 53.4779 63.0183C52.108 63.0183 50.9978 62.1003 50.9978 60.9676C50.9978 59.8349 52.108 58.9158 53.4779 58.9158ZM68.5332 52.7273C69.9032 52.7273 71.0146 53.6453 71.0146 54.778C71.0146 55.9106 69.9032 56.8297 68.5332 56.8297C67.1634 56.8297 66.0519 55.9106 66.0519 54.778C66.0519 53.6453 67.1634 52.7273 68.5332 52.7273ZM61.0061 52.7273C62.3761 52.7273 63.4862 53.6453 63.4862 54.778C63.4862 55.9106 62.3761 56.8297 61.0061 56.8297C59.6364 56.8297 58.5249 55.9106 58.5249 54.778C58.5249 53.6453 59.6364 52.7273 61.0061 52.7273ZM53.4779 52.7273C54.8477 52.7273 55.9592 53.6453 55.9592 54.778C55.9592 55.9106 54.8477 56.8297 53.4779 56.8297C52.108 56.8297 50.9978 55.9106 50.9978 54.778C50.9978 53.6453 52.108 52.7273 53.4779 52.7273ZM68.5332 46.5376C69.9032 46.5376 71.0146 47.4567 71.0146 48.5894C71.0146 49.7222 69.9032 50.6412 68.5332 50.6412C67.1634 50.6412 66.0519 49.7222 66.0519 48.5894C66.0519 47.4567 67.1634 46.5376 68.5332 46.5376Z" fill="#B1E4F9"/>
<path fill-rule="evenodd" clip-rule="evenodd" d="M61.2313 46.5459C62.4954 46.6402 63.4861 47.5193 63.4861 48.5891C63.4861 49.2749 63.0791 49.8822 62.4541 50.2548C61.1899 50.1606 60.1985 49.2813 60.1985 48.2116C60.1985 47.5258 60.6057 46.9185 61.2313 46.5459ZM54.9263 50.2548C53.6621 50.1606 52.6714 49.2815 52.6714 48.2116C52.6714 47.5258 53.0783 46.9185 53.7033 46.5459C54.9676 46.6402 55.9591 47.5194 55.9591 48.5891C55.9591 49.2749 55.5519 49.8822 54.9263 50.2548ZM62.4541 68.8216C61.1899 68.7273 60.1985 67.8482 60.1985 66.7784C60.1985 66.0927 60.6057 65.4854 61.2313 65.1128C62.4954 65.207 63.4861 66.086 63.4861 67.156C63.4861 67.8416 63.0791 68.449 62.4541 68.8216ZM69.9822 62.632C68.7176 62.5382 67.7255 61.6598 67.7255 60.5898C67.7255 59.9041 68.1327 59.2967 68.7583 58.9241C70.0226 59.0184 71.0145 59.8974 71.0145 60.9674C71.0145 61.6529 70.6074 62.2597 69.9822 62.632ZM62.4547 62.632C61.1902 62.5378 60.1985 61.6597 60.1985 60.5898C60.1985 59.9041 60.6057 59.2967 61.2313 58.9241C62.4954 59.0184 63.4861 59.8974 63.4861 60.9674C63.4861 61.6529 63.0793 62.2597 62.4547 62.632ZM54.9269 62.632C53.6624 62.5382 52.6714 61.6598 52.6714 60.5898C52.6714 59.9041 53.0783 59.2967 53.7033 58.9241C54.9676 59.0184 55.9591 59.8976 55.9591 60.9674C55.9591 61.6529 55.552 62.2597 54.9269 62.632ZM69.9817 56.4432C68.7172 56.349 67.7255 55.47 67.7255 54.4002C67.7255 53.7146 68.1326 53.1079 68.7577 52.7355C70.0224 52.8294 71.0145 53.7077 71.0145 54.7778C71.0145 55.4634 70.6072 56.0706 69.9817 56.4432ZM62.4541 56.4432C61.1899 56.349 60.1985 55.4699 60.1985 54.4002C60.1985 53.7146 60.6056 53.1079 61.2309 52.7355C62.4952 52.8295 63.4861 53.7077 63.4861 54.7778C63.4861 55.4634 63.0791 56.0706 62.4541 56.4432ZM54.9263 56.4432C53.6621 56.349 52.6714 55.47 52.6714 54.4002C52.6714 53.7146 53.0782 53.1079 53.7029 52.7355C54.9673 52.8296 55.9591 53.7078 55.9591 54.7778C55.9591 55.4634 55.5519 56.0706 54.9263 56.4432ZM69.9817 50.2548C68.7172 50.1606 67.7255 49.2815 67.7255 48.2116C67.7255 47.5258 68.1327 46.9185 68.7583 46.5459C70.0226 46.6402 71.0145 47.5193 71.0145 48.5891C71.0145 49.2749 70.6072 49.8822 69.9817 50.2548Z" fill="#0D4961"/>
<path fill-rule="evenodd" clip-rule="evenodd" d="M28.3285 19.1868H32.4166V15.6943C32.4166 15.3123 32.7943 15 33.2561 15H33.7663C34.2281 15 34.606 15.3123 34.606 15.6943V19.1868H36.5044C37.7929 19.1868 38.8468 20.0582 38.8468 21.1236V66.8936C38.8468 67.959 37.7929 68.8303 36.5044 68.8303H28.3285C27.04 68.8303 25.9861 67.959 25.9861 66.8936V21.1236C25.9861 20.0582 27.04 19.1868 28.3285 19.1868Z" fill="#B6CAF0"/>
</g>
<defs>
<clipPath id="clip0_167_96">
<rect width="57" height="60" fill="white" transform="translate(19 15)"/>
</clipPath>
</defs>
</svg>
