<svg width="95" height="95" viewBox="0 0 95 95" fill="none" xmlns="http://www.w3.org/2000/svg">
<circle cx="47.5" cy="47.5" r="47.5" fill="#0A4A81"/>
<path opacity="0.2" d="M65.8104 83.9462C65.8104 85.0807 58.9969 85.9998 50.5874 85.9998C42.178 85.9998 35.3645 85.0807 35.3645 83.9462C35.3645 82.8117 42.178 81.8926 50.5874 81.8926C58.9969 81.8926 65.8104 82.8117 65.8104 83.9462Z" fill="url(#paint0_radial_167_445)"/>
<path d="M45.6088 82.6254C45.4451 82.6254 45.2814 82.6038 45.1245 82.5464C44.2515 82.2664 43.7536 81.2898 44.0264 80.3635C44.2242 79.6742 44.4698 78.8915 44.729 78.0586C45.677 75.0213 46.8501 71.2371 47.0547 68.4439C47.1229 67.4818 47.9345 66.7637 48.8348 66.8355C49.7487 66.9073 50.4308 67.7474 50.3626 68.7096C50.1307 71.9265 48.8894 75.926 47.8868 79.15C47.6344 79.9614 47.3957 80.7225 47.2047 81.3903C46.9865 82.1443 46.3317 82.6254 45.6224 82.6254H45.6088Z" fill="#BF6136"/>
<path d="M55.4709 82.7758H55.4504C54.5365 82.7615 53.7999 81.9716 53.8135 81.0094C53.8545 77.3976 53.8544 72.3282 53.5953 68.7164C53.5271 67.7543 54.2091 66.9142 55.123 66.8424C56.0369 66.7705 56.8349 67.4886 56.9031 68.4508C57.1691 72.1918 57.1759 77.3689 57.1282 81.0525C57.1146 82.0075 56.378 82.7758 55.4709 82.7758Z" fill="#BF6136"/>
<path d="M44.4423 78.1949C44.3128 77.9866 44.4764 77.6779 44.5174 77.4768C44.5583 77.2758 44.681 77.0747 44.5924 76.9383C44.3946 76.6223 44.6674 76.4141 44.8856 76.2848C45.2949 76.055 44.947 75.7391 44.9061 75.3227C44.7151 73.6424 45.82 65.4854 47.1773 62.8717C47.7774 61.7156 48.0776 61.0407 48.2276 60.4806C48.6164 58.9942 56.0233 59.2599 56.3302 60.9114C56.4393 61.4787 56.9713 62.0459 57.1759 62.4696C58.8059 65.8157 57.817 74.4107 57.6328 75.0641C57.4692 75.6242 57.8511 75.6314 57.9466 76.091C58.0284 76.5003 57.36 76.8449 57.5987 77.1178C57.9466 77.5127 57.4555 77.9148 57.5306 78.2307C57.8034 79.3796 54.0044 79.5735 53.7452 78.8698C53.6157 78.5252 53.6634 78.2667 53.6839 77.9723C53.7043 77.6132 53.0632 77.6276 53.3156 76.6797C53.4315 76.2489 53.0905 76.1915 52.92 75.8971C52.7563 75.6171 52.7495 75.215 52.6949 74.8775C52.5653 74.0445 52.4494 69.4993 52.3266 68.5371C52.2857 68.1924 51.8015 68.1924 51.7605 68.5371C51.5355 70.3753 50.2123 73.0249 49.7213 74.8056C49.5303 75.5022 49.3939 76.1627 48.9165 76.7228C48.7323 76.9382 48.5891 77.0244 48.6505 77.3116C48.6982 77.5199 48.8278 77.6132 48.7391 77.8502C48.6505 78.0871 48.2822 78.1518 48.2549 78.5108C48.2344 78.7693 48.1662 78.9488 47.6342 79.0565C46.734 79.2432 44.8515 78.7908 44.4696 78.1805L44.4423 78.1949Z" fill="#4986C2"/>
<path d="M51.0924 65.6286C50.8537 65.6286 50.6491 65.4275 50.6422 65.1762C50.6081 64.4223 50.7036 63.6755 50.9219 62.9503C50.9969 62.6989 51.2492 62.5625 51.488 62.6343C51.7267 62.7133 51.8631 62.979 51.7881 63.2303C51.6039 63.8478 51.5221 64.4869 51.5494 65.1331C51.563 65.3988 51.3652 65.6214 51.1197 65.6286C51.1197 65.6286 51.106 65.6286 51.0992 65.6286H51.0924Z" fill="#24578A"/>
<path d="M52.6949 65.7294C52.6949 65.7294 52.6472 65.7294 52.6199 65.7294C52.3744 65.6863 52.2039 65.4422 52.2448 65.1837C52.3403 64.5447 52.3335 63.8984 52.2175 63.2665C52.1698 63.008 52.3335 62.7567 52.579 62.7065C52.8245 62.6562 53.0632 62.8285 53.111 63.087C53.2474 63.8338 53.2542 64.5877 53.1383 65.3345C53.1042 65.5715 52.9132 65.7366 52.6949 65.7366V65.7294Z" fill="#24578A"/>
<path d="M51.1056 66.1674C50.9419 66.1674 50.8055 66.0381 50.7851 65.8658C50.7851 65.8658 50.7578 65.6575 50.751 65.4708C50.7442 65.2841 50.8805 65.119 51.0647 65.1118C51.242 65.119 51.3989 65.2483 51.4057 65.4421C51.4057 65.5929 51.433 65.7724 51.433 65.7724C51.4535 65.9591 51.3307 66.1315 51.1534 66.1602C51.1397 66.1602 51.1261 66.1602 51.1124 66.1602L51.1056 66.1674Z" fill="#71ADE8"/>
<path d="M52.9065 65.9952L52.2722 65.8229C52.2722 65.8229 52.3131 65.6506 52.3404 65.4926C52.3677 65.3059 52.5382 65.1766 52.7155 65.2125C52.8928 65.2413 53.0156 65.4208 52.9815 65.6075C52.9542 65.787 52.9065 65.9952 52.9065 65.9952Z" fill="#71ADE8"/>
<path d="M56.8827 67.295C56.8282 67.295 56.7668 67.2878 56.7122 67.2591C55.9142 66.9216 54.6184 65.4712 54.3046 64.3079C54.2364 64.0566 54.3728 63.7909 54.6184 63.7191C54.8639 63.6473 55.1094 63.7909 55.1777 64.0494C55.4232 64.947 56.5213 66.1533 57.0532 66.3759C57.2851 66.4764 57.4011 66.7493 57.3056 66.9934C57.2374 67.1801 57.0669 67.295 56.8827 67.295Z" fill="#24578A"/>
<path d="M46.7611 66.6705C46.5633 66.6705 46.3792 66.5341 46.3246 66.3187C46.2564 66.0674 46.3997 65.8017 46.6452 65.7371C47.1976 65.5791 48.4253 64.5164 48.7595 63.6548C48.855 63.4106 49.1209 63.2957 49.3528 63.3962C49.5847 63.4967 49.6939 63.7768 49.5984 64.021C49.1619 65.1268 47.716 66.4192 46.8839 66.6562C46.843 66.6705 46.802 66.6705 46.7679 66.6705H46.7611Z" fill="#24578A"/>
<path d="M43.3512 80.6217C43.0034 80.8802 40.7663 81.8998 40.5276 82.6538C40.3639 83.1636 40.3298 83.9104 40.5753 84.1545C41.728 85.289 46.1271 85.5403 47.2729 84.1042C47.5048 83.8098 47.7162 81.4331 46.9524 81.67C46.0248 81.9644 45.5064 80.1909 44.7767 80.076C44.1219 79.9755 43.7809 80.3058 43.3512 80.6217Z" fill="#B0A499"/>
<path d="M47.4296 83.3361C46.0314 84.9302 41.6187 84.9445 40.4251 83.6592C40.2205 83.4438 40.2615 84.5209 40.5138 84.7938C41.5982 86.0073 45.7996 86.1006 47.3 84.5496C47.6138 84.2265 47.6206 83.1279 47.4364 83.3361H47.4296Z" fill="#D9D9D9"/>
<path d="M45.0768 82.1507C45.4246 82.4092 44.081 83.0195 42.5737 82.7754C41.2846 82.5671 41.6461 81.8419 42.0621 81.6695C42.5327 81.4828 44.1833 81.4757 45.0768 82.1507Z" fill="#C4BAB1"/>
<path d="M53.7523 81.7059C53.4794 81.7059 53.4863 83.3287 53.5954 83.9965C53.7659 85.0879 58.8539 85.2603 58.9834 83.9391C59.0653 83.0559 58.506 81.5911 58.1855 81.5911C57.824 81.5911 57.3602 80.1263 55.9689 80.2196C54.8367 80.2914 54.3797 81.7131 53.7591 81.7059H53.7523Z" fill="#B0A499"/>
<path d="M53.5612 83.8888C54.5024 85.21 58.8265 84.7864 58.9834 83.7739C59.0243 83.5154 59.2016 84.8223 58.997 85.0521C58.1581 86.0286 54.4956 86.1507 53.5953 85.0736C53.343 84.772 53.4316 83.7093 53.5612 83.8888Z" fill="#D9D9D9"/>
<path d="M54.7072 82.374C55.3074 81.6775 57.2852 81.6918 58.0082 82.2447C59.0926 83.0777 53.8342 83.3865 54.7072 82.374Z" fill="#C4BAB1"/>
<path d="M30.8903 48.8188C31.0881 48.5029 31.5451 48.747 31.8111 49.0414C31.5792 48.7111 31.0472 47.6771 31.3883 47.2678C31.7156 46.8801 31.9884 47.3324 32.4386 47.8782C32.043 47.0093 32.6023 46.2913 33.2707 47.074C33.6526 47.5191 34.1437 48.0505 34.928 48.5029C35.1463 47.5838 35.8351 47.0093 36.2716 47.4258C36.5444 47.6843 36.217 47.9428 36.408 48.9121C36.599 49.9031 38.1131 51.3822 36.6263 52.6891C35.726 53.4789 33.6935 52.287 32.8546 51.7197C32.1998 51.2889 30.4129 49.6087 30.8903 48.8188Z" fill="#BF6136"/>
<path d="M41.1142 55.0018H41.046C38.7339 54.9803 36.5309 53.9966 35.0032 52.2948C34.5598 51.7994 34.5803 51.0095 35.0509 50.5428C35.5215 50.0761 36.2718 50.0976 36.7151 50.5931C37.7859 51.785 39.4159 52.5103 41.0664 52.5246C42.4101 52.5533 44.5107 52.0794 46.5977 49.8319C47.0547 49.3437 47.7981 49.3293 48.2619 49.8104C48.7257 50.2915 48.7393 51.0741 48.2823 51.5624C45.6497 54.3987 42.9489 55.0018 41.1142 55.0018Z" fill="#BF6136"/>
<path d="M60.2246 61.1554C59.9109 61.1554 59.6381 60.9112 59.5972 60.5738C58.5469 52.4239 55.9688 47.9361 52.3403 47.9361C51.9925 47.9361 51.7061 47.6346 51.7061 47.2684C51.7061 46.9022 51.9925 46.6006 52.3403 46.6006C55.4163 46.6006 59.3926 48.9917 60.8589 60.3942C60.9067 60.7605 60.6611 61.098 60.3133 61.1482C60.286 61.1482 60.2587 61.1482 60.2246 61.1482V61.1554Z" fill="#292929"/>
<path d="M50.949 46.3209C50.7308 46.9384 50.6421 47.6996 49.7896 48.0945C49.3462 48.2955 48.6233 48.3673 48.1117 48.7694C46.775 49.8178 45.8952 51.7135 47.9276 53.6522C50.7376 56.3377 54.3455 56.0217 56.3985 53.8604C58.2468 51.9145 58.8879 50.0763 57.2237 49.1716C55.9756 48.4894 54.1273 48.6043 53.7795 46.2204C53.5817 44.8561 51.3855 45.0859 50.949 46.3209Z" fill="#BF6136"/>
<path d="M48.2073 48.4897C46.509 49.1719 43.9446 51.6348 43.9446 51.6348C43.9446 51.6348 46.4545 54.6936 48.7052 54.6936C50.9559 54.6936 48.2073 48.4897 48.2073 48.4897Z" fill="#FF9819"/>
<path d="M57.2783 52.8699C57.1078 54.4927 56.378 57.9609 55.921 60.4238C55.6141 62.0609 50.3489 61.788 48.8688 60.7541C48.2209 60.3017 48.2686 55.7062 47.8731 52.9991C47.7025 51.8431 57.4693 51.1251 57.2851 52.8699H57.2783Z" fill="#FF9819"/>
<path d="M48.2072 48.4894C48.2072 48.4894 51.5151 51.8643 55.9484 48.4248C55.9484 48.4248 58.4309 48.8197 58.4309 51.3473C58.4309 52.7618 57.1487 55.5191 52.2313 55.5191C47.6685 55.5191 47.1706 53.3434 47.1706 53.3434C47.1706 53.3434 46.659 49.9614 48.2072 48.4894Z" fill="#FF9819"/>
<path d="M36.8787 36.8429C36.3944 36.8429 35.9238 36.5844 35.6578 36.1176L31.9271 29.6983C31.6543 29.2316 31.6475 28.6499 31.8998 28.176C32.1522 27.7021 32.6296 27.4077 33.148 27.4077H46.9591C47.7503 27.4077 48.3914 28.0827 48.3914 28.9156V35.0406C48.3914 35.8735 47.7503 36.5485 46.9591 36.5485C46.168 36.5485 45.5268 35.8735 45.5268 35.0406V30.4235H35.7056L38.0995 34.5523C38.5155 35.2632 38.2973 36.1895 37.6221 36.6275C37.3902 36.7783 37.131 36.8501 36.8787 36.8501V36.8429Z" fill="#1C1C26"/>
<path d="M47.0408 33.4746H35.0848C32.9754 33.4746 31.2654 35.2749 31.2654 37.4957V45.229C31.2654 47.4498 32.9754 49.2501 35.0848 49.2501H47.0408C49.1502 49.2501 50.8602 47.4498 50.8602 45.229V37.4957C50.8602 35.2749 49.1502 33.4746 47.0408 33.4746Z" fill="#292929"/>
<path d="M50.0216 35.4851C50.0216 34.3793 49.1622 33.4746 48.1118 33.4746H37.7654C36.7151 33.4746 36.0603 34.3507 36.3127 35.4277L37.0083 38.4076C37.2607 39.4847 38.3247 40.3607 39.375 40.3607H48.1187C49.169 40.3607 50.0284 39.456 50.0284 38.3502V35.4851H50.0216Z" fill="#4F4F4F"/>
<path d="M33.8777 35.335H29.4718C28.1535 35.335 27.0847 36.4601 27.0847 37.8481V46.1559C27.0847 47.5439 28.1535 48.6691 29.4718 48.6691H33.8777C35.1961 48.6691 36.2649 47.5439 36.2649 46.1559V37.8481C36.2649 36.4601 35.1961 35.335 33.8777 35.335Z" fill="#4F4F4F"/>
<path d="M40.3977 28.355H36.2373C36 28.355 35.8076 28.5575 35.8076 28.8074V28.872C35.8076 29.1218 36 29.3244 36.2373 29.3244H40.3977C40.635 29.3244 40.8274 29.1218 40.8274 28.872V28.8074C40.8274 28.5575 40.635 28.355 40.3977 28.355Z" fill="#4F4F4F"/>
<path d="M34.355 28.5203C34.355 30.0641 33.0523 31.3279 31.47 31.3279H21.3281C19.739 31.3279 18.4431 30.0641 18.4431 28.5203C18.4431 26.9765 19.7458 25.7056 21.3281 25.7056H31.47C33.0591 25.7056 34.355 26.9694 34.355 28.5203Z" fill="#909099"/>
<path d="M47.6138 34.3579H46.6726C46.4353 34.3579 46.2429 34.5604 46.2429 34.8103V34.8749C46.2429 35.1248 46.4353 35.3273 46.6726 35.3273H47.6138C47.8511 35.3273 48.0435 35.1248 48.0435 34.8749V34.8103C48.0435 34.5604 47.8511 34.3579 47.6138 34.3579Z" fill="#292929"/>
<path d="M46.5296 41.3301H38.577C37.786 41.3301 37.1448 42.0052 37.1448 42.838V46.6652C37.1448 47.498 37.786 48.1731 38.577 48.1731H46.5296C47.3206 48.1731 47.9618 47.498 47.9618 46.6652V42.838C47.9618 42.0052 47.3206 41.3301 46.5296 41.3301Z" fill="#4F4F4F"/>
<path d="M40.3914 44.7552C40.3914 45.4374 39.8662 45.9831 39.2251 45.9831C38.584 45.9831 38.0588 45.4302 38.0588 44.7552C38.0588 44.0803 38.584 43.5273 39.2251 43.5273C39.8662 43.5273 40.3914 44.0803 40.3914 44.7552Z" fill="#CFCFCF"/>
<path d="M29.9083 35.2485C26.7028 35.2485 24.0974 37.9843 24.0974 41.3663C24.0974 44.7483 26.696 47.484 29.9083 47.484C33.1207 47.484 35.7192 44.7483 35.7192 41.3663C35.7192 37.9843 33.1207 35.2485 29.9083 35.2485Z" fill="#909099"/>
<path d="M29.9084 47.7066C26.5868 47.7066 23.886 44.8631 23.886 41.3662C23.886 37.8693 26.5868 35.0259 29.9084 35.0259C33.2299 35.0259 35.9307 37.8693 35.9307 41.3662C35.9307 44.8631 33.2299 47.7066 29.9084 47.7066ZM29.9084 35.4783C26.8256 35.4783 24.3157 38.1206 24.3157 41.3662C24.3157 44.6118 26.8256 47.2542 29.9084 47.2542C32.9911 47.2542 35.501 44.6118 35.501 41.3662C35.501 38.1206 32.9911 35.4783 29.9084 35.4783Z" fill="#1C1C26"/>
<path d="M32.4047 34.4873H22.7676C21.8221 34.4873 21.0557 35.2942 21.0557 36.2896V46.4356C21.0557 47.431 21.8221 48.2379 22.7676 48.2379H32.4047C33.3502 48.2379 34.1166 47.431 34.1166 46.4356V36.2896C34.1166 35.2942 33.3502 34.4873 32.4047 34.4873Z" fill="#292929"/>
<path d="M31.1019 33.7476H20.0598C19.1144 33.7476 18.3479 34.5545 18.3479 35.5499V47.1751C18.3479 48.1704 19.1144 48.9774 20.0598 48.9774H31.1019C32.0474 48.9774 32.8138 48.1704 32.8138 47.1751V35.5499C32.8138 34.5545 32.0474 33.7476 31.1019 33.7476Z" fill="#1C1C26"/>
<path d="M31.095 49.3436H20.0598C18.9276 49.3436 18 48.3742 18 47.1751V35.5499C18 34.3579 18.9208 33.3813 20.0598 33.3813H31.095C32.2272 33.3813 33.1548 34.3507 33.1548 35.5499V47.1751C33.1548 48.367 32.234 49.3436 31.095 49.3436ZM20.0598 34.1138C19.3027 34.1138 18.6889 34.76 18.6889 35.5571V47.1822C18.6889 47.9793 19.3027 48.6255 20.0598 48.6255H31.095C31.8521 48.6255 32.4659 47.9793 32.4659 47.1822V35.5571C32.4659 34.76 31.8521 34.1138 31.095 34.1138H20.0598Z" fill="#484857"/>
<path d="M31.156 41.4306C31.156 44.6547 28.6734 47.2684 25.6111 47.2684C22.5488 47.2684 20.073 44.6547 20.073 41.4306C20.073 38.2066 22.5556 35.6001 25.6111 35.6001C28.6666 35.6001 31.156 38.2138 31.156 41.4306Z" fill="#1C1C26"/>
<path d="M25.6182 47.5843C22.399 47.5843 19.78 44.827 19.78 41.4307C19.78 38.0343 22.399 35.2842 25.6182 35.2842C28.8374 35.2842 31.4633 38.0415 31.4633 41.4307C31.4633 44.8198 28.8443 47.5843 25.6182 47.5843ZM25.6182 35.9161C22.7264 35.9161 20.3734 38.3933 20.3734 41.4307C20.3734 44.468 22.7264 46.9524 25.6182 46.9524C28.5101 46.9524 30.8631 44.4752 30.8631 41.4307C30.8631 38.3861 28.5101 35.9161 25.6182 35.9161Z" fill="#CFCFCF"/>
<path d="M29.4033 41.4305C29.4033 43.6349 27.7051 45.4156 25.618 45.4156C23.531 45.4156 21.8328 43.6349 21.8328 41.4305C21.8328 39.2261 23.531 37.4453 25.618 37.4453C27.7051 37.4453 29.4033 39.2332 29.4033 41.4305Z" fill="#5374B0"/>
<path d="M27.1665 41.4306C27.1665 42.3354 26.4708 43.0678 25.6114 43.0678C24.752 43.0678 24.0564 42.3354 24.0564 41.4306C24.0564 40.5259 24.752 39.7935 25.6114 39.7935C26.4708 39.7935 27.1665 40.5259 27.1665 41.4306Z" fill="#305391"/>
<path d="M22.4742 38.4438C22.3991 38.4438 22.3241 38.4151 22.2627 38.3505C22.1468 38.2284 22.1468 38.0273 22.2627 37.9052C23.1562 36.9646 24.3498 36.4404 25.6183 36.4404C26.8869 36.4404 28.0737 36.9574 28.9671 37.9052C29.0831 38.0273 29.0831 38.2284 28.9671 38.3505C28.8512 38.4725 28.6602 38.4725 28.5443 38.3505C27.7599 37.5247 26.7232 37.0723 25.6183 37.0723C24.5134 37.0723 23.4699 37.5247 22.6924 38.3505C22.631 38.4151 22.556 38.4438 22.481 38.4438H22.4742Z" fill="#484857"/>
<path d="M25.6183 46.4641C24.4043 46.4641 23.1903 45.9758 22.2627 45.0065C22.1468 44.8844 22.1468 44.6833 22.2627 44.5613C22.3787 44.4392 22.5697 44.4392 22.6856 44.5613C24.302 46.263 26.9279 46.263 28.5443 44.5613C28.6602 44.4392 28.8512 44.4392 28.9671 44.5613C29.0831 44.6833 29.0831 44.8844 28.9671 45.0065C28.0464 45.9758 26.8324 46.4641 25.6183 46.4641Z" fill="#484857"/>
<path opacity="0.3" d="M28.8034 42.6945C28.1419 44.5471 26.1844 45.4877 24.418 44.7984L25.0727 43.2689C25.9594 43.6208 26.9483 43.1468 27.2825 42.2134L28.8034 42.7017V42.6945Z" fill="white"/>
<path opacity="0.7" d="M25.1615 39.9587C25.1615 40.5044 24.7386 40.9496 24.2203 40.9496C23.7019 40.9496 23.2722 40.5044 23.2722 39.9587C23.2722 39.413 23.6951 38.9678 24.2203 38.9678C24.7454 38.9678 25.1615 39.413 25.1615 39.9587Z" fill="white"/>
<path opacity="0.7" d="M27.2345 42.6729C27.2345 42.9314 27.0367 43.1325 26.798 43.1325C26.5593 43.1325 26.3547 42.9243 26.3547 42.6729C26.3547 42.4216 26.5525 42.2134 26.798 42.2134C27.0436 42.2134 27.2345 42.4216 27.2345 42.6729Z" fill="white"/>
<path opacity="0.3" d="M24.4178 38.0776C22.6582 38.7741 21.7647 40.8421 22.4195 42.6947L23.8722 42.0053C23.538 41.0719 23.9882 40.0307 24.8748 39.6861L24.411 38.0848L24.4178 38.0776Z" fill="white"/>
<path d="M39.9407 41.876H38.9995C38.7622 41.876 38.5698 42.0785 38.5698 42.3284V42.3929C38.5698 42.6428 38.7622 42.8453 38.9995 42.8453H39.9407C40.178 42.8453 40.3704 42.6428 40.3704 42.3929V42.3284C40.3704 42.0785 40.178 41.876 39.9407 41.876Z" fill="#BF3636"/>
<path d="M59.7335 61.8162C59.6857 60.7033 58.7991 59.9852 57.7624 60.2293L50.4851 61.9239C49.4484 62.168 48.9573 63.1949 49.3938 64.2145L51.9037 70.0953C52.3402 71.1149 53.5406 71.7468 54.5773 71.5099L58.2125 70.6626C59.2492 70.4184 60.054 69.3126 60.0062 68.1925L59.7266 61.8162H59.7335Z" fill="#4F4F4F"/>
<path d="M50.1511 63.6685C49.9192 63.6685 49.6873 63.5321 49.5781 63.2952C47.5866 59.0013 46.7136 52.2085 48.787 48.7188C49.6054 47.333 50.8331 46.6006 52.3335 46.6006C52.6814 46.6006 52.9679 46.9022 52.9679 47.2684C52.9679 47.6346 52.6814 47.9361 52.3335 47.9361C51.2627 47.9361 50.458 48.4244 49.8646 49.4225C48.2482 52.1439 48.6437 58.2258 50.724 62.7064C50.8808 63.0367 50.7512 63.4388 50.4307 63.6039C50.342 63.647 50.2466 63.6757 50.1511 63.6757V63.6685Z" fill="#292929"/>
<path d="M56.8513 59.2965L53.082 60.1741C52.6959 60.264 52.452 60.6665 52.5374 61.0731L52.6288 61.5078C52.7142 61.9143 53.0964 62.171 53.4826 62.0811L57.2519 61.2035C57.6381 61.1136 57.8819 60.7112 57.7965 60.3046L57.7052 59.8699C57.6198 59.4633 57.2375 59.2066 56.8513 59.2965Z" fill="#292929"/>
<path d="M61.1179 62.2472C61.1316 61.1342 60.2927 60.4162 59.256 60.6531L51.9787 62.3477C50.942 62.5919 50.4305 63.633 50.8329 64.6598L52.8994 69.9087C53.3087 70.9427 54.4886 71.589 55.5185 71.3448L59.1537 70.4975C60.1904 70.2534 61.0429 69.1476 61.0566 68.0275L61.1112 62.24L61.1179 62.2472Z" fill="#292929"/>
<path d="M58.9355 65.78C58.9355 65.3563 58.6013 65.0907 58.2126 65.1768L54.2499 66.1031C53.8612 66.1965 53.6702 66.5842 53.8339 66.972L54.6796 68.9609C54.8433 69.3487 55.3003 69.5857 55.6891 69.4923L58.2739 68.8891C58.6627 68.7958 58.9833 68.3793 58.9765 67.9557L58.9423 65.78H58.9355Z" fill="#4F4F4F"/>
<path d="M50.4911 61.4606L59.3608 59.3921C59.7403 59.3036 60.1226 59.5601 60.2067 59.9597L60.3055 60.4294C60.3896 60.829 60.146 61.2315 59.7664 61.32L50.8967 63.3885C50.5172 63.477 50.1349 63.2205 50.0508 62.8209L49.952 62.3512C49.8679 61.9516 50.1115 61.5491 50.4911 61.4606Z" fill="#4F4F4F"/>
<path d="M54.2071 61.0258L56.1982 60.5615C56.4046 60.5134 56.608 60.6498 56.6537 60.8671L56.7024 61.0985C56.7481 61.3158 56.6185 61.5299 56.4121 61.578L54.421 62.0424C54.2146 62.0905 54.0112 61.9541 53.9655 61.7367L53.9168 61.5054C53.8711 61.2881 54.0007 61.074 54.2071 61.0258Z" fill="#CFCFCF"/>
<path d="M59.3312 64.2643C59.5017 64.2858 59.6381 64.1565 59.6381 63.977V63.3523C59.6381 63.1728 59.5085 63.0077 59.338 62.9862L59.072 62.9502C58.9015 62.9287 58.731 63.0507 58.69 63.2231L58.5468 63.8334C58.5059 64.0058 58.6082 64.1709 58.7787 64.1925L59.3312 64.2643Z" fill="#CFCFCF"/>
<path d="M51.2219 64.4655C51.0787 64.4655 50.9491 64.3649 50.9218 64.2069C50.8877 64.0346 50.99 63.8551 51.1605 63.8192L60.1088 61.7369C60.2725 61.701 60.443 61.8087 60.4771 61.9882C60.5112 62.1605 60.4089 62.34 60.2384 62.3759L51.2901 64.4583C51.2901 64.4583 51.2424 64.4655 51.2219 64.4655Z" fill="#4F4F4F"/>
<path d="M54.2021 67.5828C54.0589 67.5828 53.9293 67.4823 53.902 67.3243C53.8679 67.152 53.9702 66.9725 54.1407 66.9366L58.649 65.8882C58.8127 65.8523 58.9832 65.96 59.0173 66.1395C59.0514 66.3119 58.9491 66.4914 58.7786 66.5273L54.2703 67.5756C54.2703 67.5756 54.2226 67.5828 54.2021 67.5828Z" fill="#CFCFCF"/>
<path d="M59.8088 62.3331C59.7747 62.6347 59.5156 62.8429 59.2291 62.807C58.9427 62.7711 58.7449 62.4911 58.779 62.1967C58.8131 61.8951 59.0723 61.6869 59.3587 61.7228C59.6452 61.7587 59.8429 62.0315 59.8088 62.3331Z" fill="#CFCFCF"/>
<path d="M37.786 29.784C37.711 29.8414 37.4586 31.7155 35.7603 31.4139C34.0621 31.1124 34.8055 13.9582 49.6329 13.2689C48.6167 12.4288 47.8937 10.5331 49.4078 9.87252C50.9219 9.21192 52.5179 11.2871 52.3065 12.8955C54.3662 5.37038 58.8676 11.7466 56.2282 13.355C63.0348 13.4915 67.4886 16.2201 69.637 24.054C70.3804 26.7754 70.0462 30.5666 69.6711 33.3455C69.446 35.0257 68.5116 36.7993 68.9344 38.5011C69.4119 38.458 70.0325 38.4293 70.4963 38.616C74.0292 39.9946 70.6054 44.6691 67.7204 43.6925C70.3531 47.3402 66.6019 50.6504 63.6623 47.3833C62.7552 49.322 60.0885 49.279 58.4448 48.8338C56.7192 48.3599 54.3867 47.5126 52.5929 47.5126C49.8989 47.5126 49.5783 48.0798 46.7206 48.6758C44.8791 49.0635 42.6625 47.2254 43.631 44.1808C41.3326 44.1234 41.7213 40.5116 40.9916 38.7093C40.5482 37.6107 37.0698 36.986 37.7792 29.784H37.786Z" fill="#261B18"/>
<path d="M40.398 39.3413C40.3912 39.9589 40.8618 40.4615 41.4416 40.4759C42.0281 40.4831 42.5124 39.9948 42.5192 39.3773C42.526 38.7598 42.0554 38.2499 41.4756 38.2428C40.8891 38.2356 40.4048 38.7238 40.398 39.3485V39.3413Z" fill="#4986C2"/>
<path d="M63.7236 35.844C62.8165 42.213 58.0559 49.1422 51.0242 48.5175C43.8492 47.8784 40.3912 38.4505 41.4211 30.6166C42.5396 22.1005 46.4682 15.0421 54.8436 16.8875C60.825 18.2016 64.9376 27.3423 63.7236 35.844Z" fill="#D47844"/>
<path opacity="0.5" d="M42.2873 26.266C42.8329 28.7648 48.9644 30.6891 50.9355 27.8169C52.2859 29.253 55.13 30.5527 56.5486 28.5422C58.131 29.5761 59.4677 29.0591 59.9656 27.185C61.4115 27.1419 62.0663 29.9926 62.1277 31.1056C64.3033 27.4507 60.7499 16.9816 54.3797 17.0103C48.2142 17.039 41.2506 21.5412 42.2805 26.2588L42.2873 26.266Z" fill="#A1392B"/>
<path d="M65.1355 38.6016C64.358 38.8817 63.5395 38.9104 62.7552 38.8386C62.7416 38.8099 62.7279 38.7883 62.7075 38.7596C62.3596 38.1636 62.8984 34.875 63.0826 34.2575C63.5532 32.6993 64.4466 31.8951 65.8584 32.3187C68.7912 33.2163 67.5499 37.7256 65.1355 38.5945V38.6016Z" fill="#D47844"/>
<path opacity="0.5" d="M64.0099 37.4679C62.9459 36.7427 63.9894 34.3516 64.801 33.971C65.4694 33.6551 67.1131 34.2583 66.3151 35.6082C65.9195 34.3372 65.183 35.1558 65.2785 36.0534C65.3467 36.6565 65.9605 36.6781 65.3398 37.4392C65.0056 37.8485 64.3373 37.6905 64.0031 37.4607L64.0099 37.4679Z" fill="#A1392B"/>
<path d="M40.5822 20.6291C40.9914 19.8967 41.5916 19.2648 42.2395 18.7981C43.5217 17.8862 44.2515 16.4501 45.7383 15.6961C47.0342 15.0427 48.5688 14.5042 49.9806 14.2385C51.9858 13.858 54.1342 13.8508 56.153 14.1308C59.5427 14.6047 63.6213 16.3639 64.6443 20.1624C65.2786 22.4961 64.8967 25.1888 64.6989 27.5655C64.5897 28.8364 65.0058 32.5631 64.1532 33.5899C62.9665 35.0117 62.1958 33.4391 62.0867 32.0389C61.9708 30.5095 62.2504 28.9513 61.5615 27.5367C60.8454 26.0576 59.3108 25.6914 59.3108 25.677C59.0994 28.3625 57.6194 29.1093 55.5392 26.8977C55.812 29.8991 50.7445 27.2065 49.7624 26.4023C49.2713 31.8666 40.5617 26.3304 40.0775 23.1064C39.9479 22.2232 40.1593 21.3759 40.5753 20.622L40.5822 20.6291Z" fill="#261B18"/>
<path d="M58.0286 23.9893C59.986 24.7648 65.5855 27.7232 66.0152 25.3608C68.1977 27.2349 69.1185 25.0305 67.1747 21.5336C64.7739 17.2109 57.9877 13.8074 54.1137 17.7638C50.6354 11.1003 40.248 17.2684 38.8362 19.9754C38.2974 21.0022 37.7927 23.2282 39.8047 23.3646C40.3844 23.4005 41.653 22.5891 41.9394 22.1439C39.0612 26.5528 49.4623 27.0051 47.914 24.2478C48.828 24.8869 55.9825 28.0032 53.6568 24.0898C54.4957 24.6786 58.7857 26.8112 57.5444 23.7883C57.5785 23.8026 57.7558 23.8744 58.0286 23.9821V23.9893Z" fill="#45362E"/>
<path d="M63.1641 40.3966C63.1573 41.0141 63.6211 41.5239 64.2145 41.5311C64.801 41.5383 65.2853 41.05 65.2921 40.4325C65.2989 39.8149 64.8283 39.3051 64.2418 39.2979C63.6552 39.2907 63.171 39.7862 63.1641 40.4037V40.3966Z" fill="#4986C2"/>
<path d="M42.2257 36.5264C42.1643 36.6485 42.1166 36.7777 42.0893 36.9357C41.8506 38.4364 44.8856 37.8404 45.1994 37.1798C45.7859 35.9448 44.7356 35.6791 43.9649 35.715C43.3715 35.7437 42.5531 35.9017 42.2189 36.5264H42.2257Z" fill="#D4502C"/>
<path d="M56.5347 36.3908C56.446 36.5128 56.371 36.6636 56.3232 36.836C55.8185 38.5162 59.2492 38.5593 59.6993 37.87C60.545 36.5775 59.4401 36.0174 58.5876 35.8738C57.9329 35.7661 57.0121 35.7517 56.5415 36.398L56.5347 36.3908Z" fill="#D4502C"/>
<path d="M40.8821 30.0066C41.8437 28.5634 45.5131 28.5706 46.768 29.9707C45.022 30.1287 43.0441 30.1072 40.8821 30.0066Z" fill="#261B18"/>
<path opacity="0.5" d="M49.203 37.0503C48.9848 37.2944 49.6259 38.0053 50.4239 38.0987C51.1332 38.1776 52.0198 37.3806 51.6243 37.1365C51.2287 36.8924 50.9968 37.1365 50.4239 37.1221C49.7896 37.1006 49.4554 36.7631 49.203 37.0503Z" fill="#A1392B"/>
<path d="M61.2681 30.3438C59.8222 29.1375 55.9551 29.2308 54.8774 30.8392C57.0668 30.789 58.1239 30.5879 61.2681 30.3438Z" fill="#261B18"/>
<path d="M43.133 31.5146C42.2395 32.1178 42.3146 33.9703 42.9489 34.8392C43.4263 34.7602 43.9651 34.7602 44.4084 35.0833C46.2567 34.4945 44.7971 30.3945 43.133 31.5146Z" fill="#261B18"/>
<path opacity="0.7" d="M43.3783 32.9289C42.7918 32.9145 42.7167 33.9988 43.2283 34.1998C43.9376 34.4798 44.0331 32.9432 43.3783 32.9289Z" fill="#F0DED1"/>
<path d="M39.4568 32.0671C39.4568 32.0671 40.9777 33.7473 43.3375 32.3614C44.381 31.7511 45.1177 32.7133 45.1177 32.7133C45.1177 32.7133 44.6129 30.8105 43.092 31.428C42.2736 31.7583 41.3324 32.7277 39.4568 32.0671Z" fill="#121B21"/>
<path d="M60.7228 31.4784C60.7228 31.4784 60.6205 32.6273 59.4065 33.1801C59.7952 33.2376 60.4022 33.3956 60.3408 33.6828C60.2453 34.128 59.802 33.7833 58.2129 33.7259C57.4013 33.6971 55.9417 33.8623 55.8803 33.4961C55.7371 32.6632 59.1814 33.1658 60.7228 31.4712V31.4784Z" fill="#121B21"/>
<g opacity="0.8">
<path d="M56.4803 38.8813C55.655 40.5185 57.6056 41.2868 58.4104 39.6927C57.7216 40.0374 56.8076 39.6999 56.4803 38.8813Z" fill="#942F22"/>
<path d="M45.4996 38.6016C45.9293 40.289 43.815 40.8778 43.3989 39.2263C43.9923 39.6284 44.9813 39.3771 45.4996 38.6016Z" fill="#942F22"/>
<path d="M51.1672 44.3388C54.059 44.2454 56.3848 42.6083 57.3601 40.4398C57.4624 40.2172 57.3532 39.9659 57.1145 39.8869C56.8826 39.8079 56.6098 39.9228 56.5075 40.1454C55.655 42.0339 53.5679 43.4628 50.9694 43.4771C48.2617 43.4987 45.936 41.998 45.1653 39.7146C45.0903 39.492 44.8311 39.3771 44.5856 39.4633C44.34 39.5494 44.2036 39.7935 44.2786 40.0161C45.1721 42.6514 47.8116 44.3603 50.9217 44.3388C51.0035 44.3388 51.0854 44.3388 51.1672 44.3388Z" fill="#942F22"/>
</g>
<path d="M41.5914 34.5377C41.987 36.2898 43.658 37.3741 45.3222 36.9576C46.9863 36.5411 48.0162 34.7819 47.6206 33.0299C47.225 31.2778 45.5541 30.1936 43.8899 30.61C42.2257 31.0265 41.1958 32.7857 41.5914 34.5377Z" fill="#4F4F4F"/>
<path d="M39.3117 33.9084L43.3537 32.2313C44.1469 31.9022 45.0403 32.311 45.3529 33.146L45.563 33.7072C45.8756 34.5423 45.4873 35.4829 44.6941 35.812L40.6522 37.4891C39.859 37.8182 38.9655 37.4094 38.6529 36.5744L38.4429 36.0132C38.1303 35.1781 38.5186 34.2375 39.3117 33.9084Z" fill="#292929"/>
<path d="M37.6152 49.6306C37.6902 49.2644 38.0994 49.3506 38.3518 49.5301C37.963 49.1208 37.3629 48.69 37.131 48.1586C36.7695 47.3185 37.4651 46.981 38.0994 47.4047C37.7039 47.0744 37.131 46.2055 37.7926 46.0045C38.195 45.8824 39.0952 46.7297 39.4226 46.9164C38.9793 46.5287 38.3177 45.7388 38.8224 45.3582C39.5522 44.8125 40.8617 47.5411 41.8984 47.6345C42.2598 47.6632 41.3391 45.6239 42.253 45.6024C42.8669 45.588 43.0851 47.0815 43.2761 48.1084C44.6129 55.1883 37.3697 50.8226 37.6152 49.6306Z" fill="#D47844"/>
<path opacity="0.5" d="M53.6226 50.9661C54.5638 50.643 57.0054 50.7435 56.985 53.2136C55.3481 54.147 53.7317 52.8689 53.6226 50.9661Z" fill="#EB5600"/>
<path d="M49.3121 55.8561C46.3384 55.8561 43.5421 54.4057 41.23 51.6627C40.8003 51.1529 40.8412 50.3703 41.3255 49.9107C41.8097 49.4583 42.56 49.5014 42.9896 50.0112C44.8652 52.2372 47.0682 53.4291 49.3871 53.3717C51.6651 53.343 53.8544 52.1654 55.5663 50.0471C55.9892 49.523 56.7326 49.4583 57.2237 49.9035C57.7216 50.3487 57.7761 51.1314 57.3601 51.6484C55.2049 54.3195 52.3812 55.8131 49.4144 55.8418C49.3803 55.8418 49.3462 55.8418 49.3121 55.8418V55.8561Z" fill="#D47844"/>
<path d="M55.8802 48.9199C56.419 48.6471 57.5103 49.2861 57.8854 50.3417C58.2605 51.3972 56.9646 52.9123 56.9646 52.9123C56.9646 52.9123 56.7123 50.5571 53.8887 50.952C53.8887 50.952 54.6184 49.5662 55.8802 48.9271V48.9199Z" fill="#FF9819"/>
<defs>
<radialGradient id="paint0_radial_167_445" cx="0" cy="0" r="1" gradientUnits="userSpaceOnUse" gradientTransform="translate(50.8327 -52.0623) scale(14.7612 1.75678)">
<stop/>
<stop offset="0.92"/>
</radialGradient>
</defs>
</svg>
