<svg width="95" height="95" viewBox="0 0 95 95" fill="none" xmlns="http://www.w3.org/2000/svg">
<circle cx="47.5" cy="47.5" r="47.5" fill="#0A4A81"/>
<path opacity="0.2" d="M25.5024 87.0417C25.5024 88.2199 32.952 89.1745 42.1465 89.1745C51.3409 89.1745 58.7905 88.2199 58.7905 87.0417C58.7905 85.8635 51.3409 84.9165 42.1465 84.9165C32.952 84.9165 25.5024 85.871 25.5024 87.0417Z" fill="url(#paint0_radial_167_339)"/>
<path d="M64.7115 60.2932C64.8457 60.1217 64.9278 57.0121 63.936 56.6915C62.8175 56.3335 62.467 56.5349 61.8928 56.8928C61.8928 55.379 61.4901 53.91 60.9085 53.9249C60.4238 53.9398 60.4089 57.0345 59.5662 58.0263C56.6207 61.5087 59.7601 63.1642 62.0867 62.3141C63.2798 61.8741 63.9733 61.2701 64.7115 60.2932Z" fill="#FFB67D"/>
<path d="M56.9561 64.4393C56.3074 64.4393 55.7555 64.3125 55.3006 64.1485C52.0568 62.9703 51.0128 58.9137 50.1702 55.6624C49.9689 54.8869 49.693 53.8205 49.5364 53.5297C49.5364 53.5297 49.6631 53.7609 49.9763 53.992L52.9218 49.9429C54.0777 50.7855 54.4505 52.2247 55.0173 54.4096C55.3454 55.6699 56.2104 59.0181 57.0232 59.4506C57.0232 59.4356 57.3438 59.3984 58.0001 58.9286L60.9083 63.0076C59.3796 64.0963 58.0448 64.4468 56.9636 64.4468L56.9561 64.4393Z" fill="#FF9819"/>
<path d="M59.6102 57.3158L57.092 58.9146L60.3614 64.0642L62.8796 62.4655L59.6102 57.3158Z" fill="#FFD899"/>
<path d="M63.4809 66.8629C63.3765 66.8629 63.272 66.8406 63.1676 66.7884C62.9066 66.6541 62.1162 66.2515 62.1162 61.4193C62.1162 61.2105 62.2803 61.0465 62.4891 61.0465C62.6979 61.0465 62.8619 61.2105 62.8619 61.4193C62.8619 65.7146 63.5032 66.1247 63.5032 66.1247C64.398 65.8115 66.6724 56.6096 64.6367 42.5158C64.6069 42.3219 64.7411 42.1355 64.935 42.0982C65.1289 42.0535 65.3227 42.1802 65.3675 42.3667C66.5457 46.8558 67.4331 46.8856 67.5449 46.8632C68.8723 46.6917 70.744 38.832 70.744 21.9121C70.744 21.7257 70.8857 21.5691 71.0721 21.5392C71.266 21.5169 71.43 21.6362 71.4822 21.8151C72.3696 25.2006 73.0407 25.223 73.1228 25.2155C74.3084 25.0664 75.8297 17.8629 75.8297 10.4134C75.8297 10.2046 75.9937 10.0405 76.2025 10.0405C76.4113 10.0405 76.5754 10.2046 76.5754 10.4134C76.5754 15.514 75.5612 25.6555 73.2197 25.9538C72.5784 26.0358 72.0117 25.4765 71.4822 24.2238C71.3554 35.275 70.2965 47.2585 67.6418 47.6015C66.9856 47.6835 66.3965 47.1615 65.8223 45.9759C67.0154 57.6983 65.3227 65.722 63.9283 66.7138C63.7866 66.8182 63.63 66.8629 63.4809 66.8629Z" fill="#D4D4D4"/>
<path d="M59.581 86.9745C59.581 86.9745 59.6034 85.744 59.6407 83.589C59.6556 82.5152 59.678 81.2027 59.7526 79.689C59.8197 78.1827 59.8495 76.475 59.9763 74.6257C60.0881 72.7763 60.1925 70.7629 60.3864 68.6451C60.4759 67.5862 60.5728 66.4975 60.6623 65.3864C60.7816 64.2753 60.9009 63.1419 61.0277 61.986C61.1396 60.8302 61.3036 59.6594 61.4602 58.4812C61.6243 57.2956 61.7585 56.095 61.9524 54.8944C62.1463 53.6938 62.3402 52.4783 62.534 51.2628C62.7354 50.0474 62.9815 48.8319 63.2052 47.6164C63.4214 46.4009 63.675 45.1854 63.9509 43.9848C64.2268 42.7842 64.4579 41.5762 64.7637 40.398C65.062 39.2198 65.3602 38.0416 65.6511 36.8857C65.9568 35.7299 66.2999 34.6039 66.613 33.4853C66.7771 32.9261 66.9337 32.3742 67.0903 31.8299C67.2692 31.2855 67.4407 30.7486 67.6123 30.2192C67.9627 29.1603 68.2834 28.1163 68.6339 27.1096C69.3721 25.1186 70.006 23.2021 70.7293 21.4944C71.0798 20.6369 71.4079 19.8092 71.7285 19.0262C72.0492 18.2432 72.3922 17.5199 72.6979 16.8264C73.3169 15.4468 73.8389 14.2462 74.331 13.2843C75.2855 11.3454 75.8299 10.2344 75.8299 10.2344C75.9343 10.0256 76.1804 9.94355 76.3892 10.0405C76.5905 10.1449 76.68 10.3835 76.5831 10.5923V10.6072C76.5831 10.6072 76.0536 11.7183 75.1364 13.6646C74.6592 14.6265 74.167 15.8346 73.5779 17.2141C73.2945 17.9076 72.959 18.6309 72.6607 19.4139C72.3624 20.1969 72.0417 21.0246 71.7136 21.8822C71.0276 23.5899 70.431 25.4989 69.7301 27.4824C69.402 28.4817 69.1037 29.5257 68.7756 30.5845C68.6115 31.114 68.4549 31.6509 68.2834 32.1878C68.1343 32.7322 67.9851 33.284 67.836 33.8358C67.5451 34.9469 67.2245 36.0729 66.9411 37.2213C66.6727 38.3771 66.3968 39.5404 66.1209 40.7186C65.8375 41.8894 65.6287 43.09 65.3752 44.2905C65.1216 45.4837 64.8905 46.6917 64.6966 47.8997C64.4953 49.1078 64.2715 50.3158 64.0926 51.5238C63.9211 52.7319 63.7495 53.9399 63.578 55.133C63.3991 56.3262 63.2947 57.5193 63.153 58.6975C63.0188 59.8757 62.8771 61.0315 62.7876 62.1799C62.6832 63.3283 62.5862 64.4543 62.4893 65.5505C62.4147 66.6541 62.3402 67.7354 62.2731 68.7868C62.1165 70.8897 62.0493 72.8807 61.9748 74.7226C61.8778 76.5645 61.8778 78.2423 61.8405 79.7412C61.7958 81.2326 61.7958 82.5375 61.8033 83.6188C61.8033 85.7739 61.8033 87.0043 61.8033 87.0043C61.8033 87.6232 61.3036 88.1228 60.6847 88.1228C60.0658 88.1228 59.5662 87.6232 59.5662 87.0043V86.9819L59.581 86.9745Z" fill="#C4864F"/>
<path d="M60.2371 69.3908C60.0209 69.4281 59.7898 71.7472 60.0806 71.8367C60.5877 71.9858 61.8032 72.0157 62.1313 71.9784C62.3848 71.9486 62.5116 69.5549 62.2282 69.4728C61.8628 69.3684 60.692 69.3162 60.2371 69.3983V69.3908Z" fill="#3A3A4A"/>
<g opacity="0.4">
<path d="M60.5502 71.5682C60.5502 71.5682 60.5278 71.5682 60.5129 71.5682C60.319 71.5533 60.1773 71.3743 60.1922 71.1804L60.3116 69.9127C60.3339 69.7188 60.5054 69.5697 60.6993 69.5921C60.8932 69.607 61.0349 69.7859 61.02 69.9798L60.9007 71.2475C60.8858 71.434 60.7292 71.5682 60.5502 71.5682Z" fill="#CAC7D9"/>
</g>
<path d="M70.0582 70.9943C70.0582 73.1867 68.2834 74.954 66.0985 74.954C63.9136 74.954 62.1313 73.1792 62.1313 70.9943C62.1313 68.8094 63.9061 67.0347 66.0985 67.0347C68.2908 67.0347 70.0582 68.8094 70.0582 70.9943Z" fill="#D4D4D4"/>
<path d="M67.105 70.994C67.105 71.5533 66.6501 72.0007 66.0983 72.0007C65.5465 72.0007 65.0916 71.5458 65.0916 70.994C65.0916 70.4422 65.5465 69.9873 66.0983 69.9873C66.6501 69.9873 67.105 70.4422 67.105 70.994Z" fill="#3A3A4A"/>
<path d="M65.308 73.4551C65.308 73.0151 65.666 72.6572 66.0985 72.6572C66.5384 72.6572 66.8889 73.0077 66.8889 73.4477C66.8964 73.8876 66.5384 74.2381 66.1059 74.2381C65.6659 74.2381 65.308 73.8876 65.308 73.4551ZM63.8092 73.2985C63.5034 72.9928 63.496 72.4932 63.8092 72.1874C64.1223 71.8742 64.622 71.8742 64.9277 72.1874C65.2409 72.4932 65.2409 72.9928 64.9277 73.306C64.7711 73.4626 64.5698 73.5371 64.3684 73.5371C64.1671 73.5371 63.9657 73.4626 63.8092 73.306V73.2985ZM67.2692 73.291C66.9634 72.9778 66.9634 72.4782 67.2692 72.1725C67.5824 71.8593 68.082 71.8593 68.3877 72.1725C68.7009 72.4857 68.7009 72.9853 68.3877 73.291C68.2311 73.4476 68.0298 73.5297 67.821 73.5297C67.6197 73.5297 67.4183 73.4476 67.2618 73.2985L67.2692 73.291ZM62.8472 71.0167C62.8472 70.5842 63.1976 70.2262 63.6376 70.2188C64.0701 70.2188 64.4281 70.5692 64.4281 71.0092C64.4281 71.4417 64.085 71.7996 63.6451 71.7996C63.2126 71.7996 62.8621 71.4492 62.8546 71.0167H62.8472ZM67.7539 70.9943V70.9794C67.7539 70.5394 68.0969 70.1815 68.5369 70.174C68.9768 70.174 69.3348 70.5245 69.3348 70.957V70.9868C69.3348 71.4268 68.9768 71.7773 68.5369 71.7773C68.1044 71.7773 67.7464 71.4268 67.7464 70.9868L67.7539 70.9943ZM63.7868 69.8385C63.481 69.5327 63.4736 69.0331 63.7793 68.7199C64.085 68.4067 64.5847 68.4067 64.8978 68.7124C65.211 69.0182 65.2185 69.5178 64.9128 69.831C64.7562 69.9876 64.5474 70.0696 64.346 70.0696C64.1447 70.0696 63.9434 69.9951 63.7868 69.8385ZM67.2543 69.8086C66.9411 69.5029 66.9411 69.0033 67.2543 68.6901C67.56 68.3769 68.0596 68.3694 68.3728 68.6752C68.6786 68.9809 68.686 69.488 68.3728 69.8012C68.2237 69.9578 68.0149 70.0323 67.8136 70.0323C67.6122 70.0323 67.4109 69.9578 67.2543 69.8086ZM65.2782 68.5484C65.2782 68.1159 65.6286 67.7579 66.0611 67.7505C66.5011 67.7505 66.859 68.101 66.859 68.5409C66.8665 68.9734 66.516 69.3314 66.0761 69.3314C65.6436 69.3314 65.2931 68.9884 65.2856 68.5484H65.2782Z" fill="#808092"/>
<path d="M70.5203 56.0425C70.3115 56.0425 70.1475 55.8784 70.1475 55.6696V46.7361C70.1475 46.5273 70.3115 46.3633 70.5203 46.3633C70.7291 46.3633 70.8932 46.5273 70.8932 46.7361V55.6696C70.8932 55.8784 70.7291 56.0425 70.5203 56.0425Z" fill="#D4D4D4"/>
<path d="M68 42.0537C68 43.9701 68.7383 46.0283 70.5279 48.1833C72.3773 45.9537 73.1006 43.821 73.0484 41.8449C72.9887 39.6898 68 39.8166 68 42.0537Z" fill="#D4D4D4"/>
<path d="M70.5204 36.0503C68.9991 37.7803 67.9924 39.8161 67.9924 42.0532C67.9924 43.9697 73.093 43.8131 73.0408 41.8444C72.9812 39.6893 71.9969 37.7281 70.5204 36.0503Z" fill="#E62628"/>
<path d="M70.4684 36.9229C69.4989 37.9445 68.5444 40.1368 68.5444 41.9191C68.5444 42.7542 71.1917 43.0451 71.1917 41.934C71.1917 40.8229 70.4684 36.9229 70.4684 36.9229Z" fill="#FF6B6B"/>
<path d="M70.4684 47.2584C69.8793 46.6394 69.1857 45.3419 68.8204 44.2084C68.5817 43.4776 71.1917 43.5 71.1917 44.6186C71.1917 45.7371 70.4684 47.2658 70.4684 47.2658V47.2584Z" fill="white"/>
<path d="M70.5204 53.7458C71.3111 53.7458 71.9521 53.1048 71.9521 52.3141C71.9521 51.5233 71.3111 50.8823 70.5204 50.8823C69.7297 50.8823 69.0886 51.5233 69.0886 52.3141C69.0886 53.1048 69.7297 53.7458 70.5204 53.7458Z" fill="#808092"/>
<path opacity="0.5" d="M71.0872 51.9937C71.0872 52.4187 70.7442 52.7617 70.3191 52.7617C69.8941 52.7617 69.551 52.4187 69.551 51.9937C69.551 51.5686 69.8941 51.2256 70.3191 51.2256C70.7442 51.2256 71.0872 51.5686 71.0872 51.9937Z" fill="#D4D4D4"/>
<path d="M70.5203 57.4372C69.9312 57.4372 69.4465 56.9599 69.4465 56.3634C69.4465 55.7668 69.9238 55.2896 70.5203 55.2896C71.1169 55.2896 71.5942 55.7668 71.5942 56.3634C71.5942 56.9599 71.1169 57.4372 70.5203 57.4372ZM70.5203 56.0427C70.3414 56.0427 70.1922 56.1918 70.1922 56.3708C70.1922 56.5498 70.3414 56.6989 70.5203 56.6989C70.6993 56.6989 70.8485 56.5498 70.8485 56.3708C70.8485 56.1918 70.6993 56.0427 70.5203 56.0427Z" fill="#4F4F4F"/>
<path d="M70.2147 60.0695C69.7598 60.0695 69.3274 59.801 69.0291 59.3312C68.9172 59.1597 68.9694 58.9286 69.1409 58.8167C69.3124 58.7049 69.5436 58.757 69.6555 58.9286C69.8195 59.1896 70.0283 59.3312 70.2371 59.3238C70.3639 59.3238 70.4683 59.2492 70.5205 59.1448C70.5951 58.9957 70.5578 58.7943 70.4161 58.5855C70.0656 58.0635 70.1476 57.1314 70.1551 57.027C70.1775 56.8257 70.3713 56.6765 70.5652 56.6915C70.774 56.7138 70.9232 56.8928 70.9008 57.1016C70.871 57.4148 70.9008 57.9517 71.0424 58.1754C71.3333 58.6154 71.3929 59.0926 71.1916 59.4878C71.0201 59.8309 70.6696 60.0546 70.2819 60.0769C70.2595 60.0769 70.2446 60.0769 70.2222 60.0769L70.2147 60.0695Z" fill="#4F4F4F"/>
<path d="M64.1671 57.4521C64.4803 57.2209 64.5847 56.9376 64.4132 56.6542C63.9583 55.8861 62.0568 55.9383 62.094 56.9674C62.1089 57.3328 62.452 57.6534 62.795 57.7131C62.109 58.0188 61.4826 59.376 62.6533 59.4357C61.7958 59.9129 61.9226 60.8525 62.9218 61.0389C63.8912 61.2179 65.7853 59.9204 64.7935 58.854C65.3752 58.332 64.6443 57.0942 64.1522 57.4596L64.1671 57.4521Z" fill="#FFB67D"/>
<path d="M49.1786 72.7391C49.4695 74.9165 49.8572 76.4154 48.9251 77.519C47.9929 78.6226 43.9438 78.1379 43.2726 77.519C42.6015 76.9075 42.9222 73.701 43.2428 72.314C43.5635 70.9345 48.9549 71.0016 49.186 72.7316L49.1786 72.7391Z" fill="#3A3A4A"/>
<path d="M48.7161 81.9931C49.0069 79.9872 49.3499 79.0103 49.5661 77.7873C48.7831 76.803 44.1896 76.9671 42.9592 77.4592C43.0413 78.0707 43.1158 78.6449 43.2351 79.2415C43.7646 81.8738 42.3254 86.3629 44.5699 88.3688C45.5617 89.2562 48.1269 89.2413 49.8197 88.8237C51.3707 88.4434 51.2067 87.0937 50.0732 86.4822C49.2977 86.0646 49.1858 85.8782 48.8652 85.4457C48.1046 84.4241 48.552 83.1713 48.7161 82.0006V81.9931Z" fill="#442F22"/>
<path d="M49.939 77.1832C49.9763 77.2727 49.9539 77.3994 49.939 77.5859C49.9092 77.9662 49.8197 78.943 49.7526 79.6142C49.7079 80.0989 49.432 80.1734 49.1188 80.1063C47.5826 79.7708 45.4275 79.8603 43.5186 80.1063C43.0115 80.1734 42.9593 79.8379 42.8474 79.4128C42.6833 78.7641 42.6237 78.0929 42.5715 77.4218C42.5342 76.9371 47.5454 76.5493 49.6482 77.0191C49.8197 77.0564 49.8943 77.1086 49.9316 77.1757L49.939 77.1832Z" fill="#7D6848"/>
<path d="M46.6432 87.5785C46.8967 87.5562 47.292 87.243 48.4702 87.1759C48.8356 87.1535 49.6111 87.3548 49.9019 87.0416C50.2748 86.639 49.104 86.2661 48.94 86.2288C47.8512 85.9977 46.0168 86.6837 46.6507 87.5785H46.6432Z" fill="#63432F"/>
<path d="M48.1346 80.9641C48.321 81.6576 47.1205 84.961 48.5597 85.8708C47.9482 85.841 46.3076 85.9901 45.7856 86.3108C45.1071 85.5576 45.5545 84.8566 45.3904 84.0438C45.3084 83.6337 44.9206 83.3951 44.8237 83.0222C44.6074 82.1945 45.3382 81.3593 44.4136 80.6658C44.8163 80.6211 45.3233 80.5539 45.6663 80.5241C46.2927 80.4794 47.8512 80.2929 48.1122 80.9119C48.1122 80.9268 48.1272 80.9417 48.1272 80.9566L48.1346 80.9641Z" fill="#63432F"/>
<path d="M49.5961 77.206C49.5961 77.206 49.6036 77.2359 49.611 77.2359C48.9921 77.6013 48.4104 77.124 47.9929 77.7877C47.6797 78.2798 48.0674 79.0181 48.0525 79.5401C47.1129 79.6519 46.1957 79.6072 45.2561 79.6519C45.8602 79.3089 45.5992 78.1904 45.3978 77.9816C44.6969 77.2731 43.0489 77.5043 42.7729 77.5341C43.5858 76.9301 47.8735 76.8555 49.6036 77.206H49.5961Z" fill="#8F7653"/>
<path d="M35.1518 72.7391C34.861 74.9165 34.4657 76.4154 35.4053 77.519C36.3449 78.6226 40.3866 78.1379 41.0578 77.519C41.7289 76.9075 41.4082 73.701 41.0876 72.314C40.7669 70.9345 35.3755 71.0016 35.1444 72.7316L35.1518 72.7391Z" fill="#3A3A4A"/>
<path d="M35.6141 81.9931C35.3233 79.9872 34.9803 79.0103 34.764 77.7873C35.547 76.803 40.1405 76.9671 41.3709 77.4592C41.2889 78.0707 41.2143 78.6449 41.095 79.2415C40.5655 81.8738 42.0048 86.3629 39.7602 88.3688C38.7684 89.2562 36.2032 89.2413 34.5104 88.8237C32.9594 88.4434 33.1235 87.0937 34.2569 86.4822C35.0325 86.0646 35.1443 85.8782 35.465 85.4457C36.2256 84.4241 35.7782 83.1713 35.6141 82.0006V81.9931Z" fill="#442F22"/>
<path d="M34.3913 77.1832C34.354 77.2727 34.3763 77.3994 34.3913 77.5859C34.4211 77.9662 34.5106 78.943 34.5777 79.6142C34.6224 80.0989 34.8983 80.1734 35.2115 80.1063C36.7477 79.7708 38.9027 79.8603 40.8117 80.1063C41.3188 80.1734 41.371 79.8379 41.4829 79.4128C41.6469 78.7641 41.7066 78.0929 41.7588 77.4218C41.7961 76.9371 36.785 76.5493 34.6821 77.0191C34.5106 77.0564 34.436 77.1086 34.3987 77.1757L34.3913 77.1832Z" fill="#7D6848"/>
<path d="M37.6873 87.5785C37.4338 87.5562 37.0385 87.243 35.8603 87.1759C35.4949 87.1535 34.7194 87.3548 34.4286 87.0416C34.0558 86.639 35.2265 86.2661 35.3905 86.2288C36.4793 85.9977 38.3137 86.6837 37.6798 87.5785H37.6873Z" fill="#63432F"/>
<path d="M36.1958 80.9641C36.0094 81.6576 37.21 84.961 35.7708 85.8708C36.3822 85.841 38.0228 85.9901 38.5448 86.3108C39.2234 85.5576 38.7759 84.8566 38.94 84.0438C39.022 83.6337 39.4098 83.3951 39.5067 83.0222C39.723 82.1945 38.9922 81.3593 39.9168 80.6658C39.5142 80.6211 39.0071 80.5539 38.6641 80.5241C38.0377 80.4794 36.4792 80.2929 36.2182 80.9119C36.2182 80.9268 36.2033 80.9417 36.2033 80.9566L36.1958 80.9641Z" fill="#63432F"/>
<path d="M34.7344 77.206C34.7344 77.206 34.7269 77.2359 34.7195 77.2359C35.3384 77.6013 35.92 77.124 36.3376 77.7877C36.6508 78.2798 36.2631 79.0181 36.278 79.5401C37.2176 79.6519 38.1348 79.6072 39.0744 79.6519C38.4703 79.3089 38.7313 78.1904 38.9327 77.9816C39.6336 77.2731 41.2816 77.5043 41.5575 77.5341C40.7447 76.9301 36.457 76.8555 34.7269 77.206H34.7344Z" fill="#8F7653"/>
<path d="M27.3817 52.881C27.7173 51.3673 29.5592 50.1741 28.5525 49.4284C28.0827 49.0854 27.2251 49.6969 26.5987 50.3084C25.8232 49.0556 19.8576 46.9676 19.5668 49.6671C19.3058 52.1502 22.7434 55.1554 25.0029 55.1554C26.3377 55.1554 27.0461 54.3948 27.3817 52.881Z" fill="#FFBC82"/>
<path d="M28.4106 63.5593C28.4106 63.5593 28.3435 63.5593 28.3062 63.5593C24.9505 63.4772 23.3995 59.361 22.3257 55.3491L27.1653 54.0516C27.6873 55.9904 28.1422 57.1537 28.4777 57.8323C28.9401 57.0195 29.5963 55.5131 30.4911 52.7391C30.603 52.3887 30.6999 52.1053 30.767 51.8965L35.4947 53.5519C35.4351 53.7309 35.3531 53.977 35.2561 54.2753C33.7349 58.9732 31.9601 63.5518 28.4106 63.5518V63.5593Z" fill="#FF9819"/>
<path d="M27.9035 52.9051L21.335 54.0444L21.8447 56.9834L28.4132 55.8441L27.9035 52.9051Z" fill="#FFD899"/>
<path d="M34.6521 49.4805C35.6066 47.3105 38.6342 46.9824 42.1613 46.9824C45.6885 46.9824 48.7161 47.3105 49.6706 49.4805C51.244 53.0673 42.1613 58.5184 42.1613 58.5184C42.1613 58.5184 33.0787 53.0673 34.6521 49.4805Z" fill="#4986C2"/>
<path d="M32.3554 60.4795C31.8856 57.4221 30.1183 50.9196 30.5732 50.4573C31.2369 49.7787 34.7044 48.2649 35.89 47.728C35.7633 48.0039 35.6365 48.8913 35.6589 49.1747C36.2032 54.6929 42.1614 58.5109 42.1614 58.5109C42.1614 58.5109 47.8734 52.5453 48.3507 49.1523C48.3954 48.8242 48.552 48.0561 48.3507 47.7951C50.4834 48.6452 53.6228 50.0173 53.9658 50.6661C54.279 51.2552 52.713 56.2961 52.0046 60.4795C51.4752 63.5816 51.5423 72.0901 51.9748 74.0065C50.7071 74.6031 42.1241 75.9379 42.0122 73.1117C40.6625 76.4152 32.0795 74.2974 32.1391 74.0065C32.5418 72.0304 32.8774 63.8128 32.3554 60.4795Z" fill="#FF9819"/>
<path d="M44.6595 65.3121C44.4507 65.3121 44.2866 65.1481 44.2866 64.9393V63.6492C44.2866 63.4404 44.4507 63.2764 44.6595 63.2764C44.8683 63.2764 45.0323 63.4404 45.0323 63.6492V64.9393C45.0323 65.1481 44.8683 65.3121 44.6595 65.3121Z" fill="#FFD899"/>
<path d="M39.805 62.7091C39.5962 62.7091 39.4321 62.545 39.4321 62.3362V61.0462C39.4321 60.8374 39.5962 60.6733 39.805 60.6733C40.0138 60.6733 40.1778 60.8374 40.1778 61.0462V62.3362C40.1778 62.545 40.0138 62.7091 39.805 62.7091Z" fill="#FFD899"/>
<path d="M44.6596 64.2456C44.3315 64.2456 44.063 63.9772 44.063 63.6491V58.2055C44.063 57.8774 44.3315 57.6089 44.6596 57.6089C44.9877 57.6089 45.2561 57.8774 45.2561 58.2055V63.6491C45.2561 63.9772 44.9877 64.2456 44.6596 64.2456Z" fill="#3A3A4A"/>
<path d="M39.805 61.6881C39.4769 61.6881 39.2085 61.4197 39.2085 61.0916V56.1625C39.2085 55.8344 39.4769 55.5659 39.805 55.5659C40.1332 55.5659 40.4016 55.8344 40.4016 56.1625V61.0916C40.4016 61.4197 40.1332 61.6881 39.805 61.6881Z" fill="#3A3A4A"/>
<path d="M47.0235 49.9729C44.667 53.3807 39.0445 53.1496 37.2324 49.9729C36.0244 47.8626 36.6284 44.2012 42.0944 44.2012C48.2091 44.2012 48.1942 48.2727 47.0235 49.9729Z" fill="#808092"/>
<path d="M45.9868 49.0404C44.1375 51.2552 39.708 51.106 38.2837 49.0404C37.3367 47.6683 37.8065 45.2896 42.1092 45.2896C46.9189 45.2896 46.9115 47.9368 45.9868 49.0404Z" fill="#F29F63"/>
<path d="M47.523 46.498C47.523 54.6411 42.4224 58.3622 42.1614 58.5486C41.9079 58.3622 36.7998 54.6411 36.7998 46.498C36.7998 46.498 29.6411 47.6464 29.6411 50.0998C29.6411 55.014 42.1614 59.4956 42.1614 59.4956C42.1614 59.4956 54.6818 55.0065 54.6818 50.0998C54.6818 47.6464 47.523 46.498 47.523 46.498Z" fill="#EB5600"/>
<path d="M47.635 46.0283C47.635 53.97 42.43 56.8634 42.169 57.0423C41.908 56.8634 36.703 53.9626 36.703 46.0283C36.703 46.0283 29.4026 47.1469 29.4026 49.5406C29.4026 54.328 42.169 58.7052 42.169 58.7052C42.169 58.7052 54.9354 54.328 54.9354 49.5406C54.9354 47.1469 47.635 46.0283 47.635 46.0283Z" fill="#FF9819"/>
<path opacity="0.15" d="M31.9901 50.5468C31.1027 52.8734 33.4443 54.8346 35.5695 53.6415C36.36 55.1552 40.3867 55.722 41.3412 53.634C42.6015 55.5803 46.2256 54.7302 46.7625 52.672C48.6416 54.4021 51.2441 53.0747 51.2441 49.7936C52.2881 50.1516 52.9816 49.1076 52.3329 47.8473C51.0055 45.2747 46.8296 44.5737 41.0057 44.5737C35.1817 44.5737 32.9074 48.1158 31.9827 50.5468H31.9901Z" fill="black"/>
<path d="M54.1225 50.9497C53.3843 53.075 49.1562 55.9683 44.5552 57.5715C49.7825 54.8945 51.6915 53.4329 54.1225 50.9497Z" fill="#FFD899"/>
<path d="M30.208 50.9497C30.9463 53.075 35.1743 55.9683 39.7753 57.5715C34.548 54.8945 32.639 53.4329 30.208 50.9497Z" fill="#FFD899"/>
<path d="M42.1687 72.4635C41.96 72.4635 41.7959 72.2994 41.7959 72.0906V60.3831C41.7959 60.1743 41.96 60.0103 42.1687 60.0103C42.3775 60.0103 42.5416 60.1743 42.5416 60.3831V72.0906C42.5416 72.2994 42.3775 72.4635 42.1687 72.4635Z" fill="#FFD899"/>
<path d="M46.6953 64.4019C46.6953 65.7442 47.3142 66.7062 48.1867 66.9821C48.9697 67.2356 50.998 67.3997 51.6095 67.3176C52.2284 67.2356 52.4968 64.9612 51.5647 64.5585C50.6326 64.1559 46.6953 63.6115 46.6953 64.3945V64.4019Z" fill="#FFD899"/>
<path d="M37.4708 64.4019C37.4708 65.7442 36.8519 66.7062 35.9794 66.9821C35.1965 67.2356 33.1681 67.3997 32.5566 67.3176C31.9377 67.2356 31.6693 64.9612 32.6014 64.5585C33.5335 64.1559 37.4708 63.6115 37.4708 64.3945V64.4019Z" fill="#FFD899"/>
<path d="M32.4152 60.8825C32.4152 60.8825 33.5188 58.1905 33.0938 57.7207C32.7806 57.3777 32.4972 58.2352 32.4972 58.2352C32.4972 58.2352 31.8709 55.4836 31.4682 55.6029C31.0655 55.7297 31.9901 59.9429 32.4152 60.875V60.8825Z" fill="#EB5600"/>
<path d="M51.9152 60.8825C51.9152 60.8825 50.8115 58.1905 51.2366 57.7207C51.5498 57.3777 51.8332 58.2352 51.8332 58.2352C51.8332 58.2352 52.4596 55.4836 52.8622 55.6029C53.2649 55.7297 52.3402 59.9429 51.9152 60.875V60.8825Z" fill="#EB5600"/>
<path d="M23.3476 28.1086C23.3476 29.242 31.5652 33.2837 42.1094 33.2837C52.6536 33.2837 61.4231 34.0145 63.2575 30.726C64.1598 29.1153 49.0891 20.6963 42.8178 20.6963C36.5465 20.6963 23.3401 25.0512 23.3401 28.1086H23.3476Z" fill="#EB5600"/>
<path d="M42.4746 15.5065C50.3418 15.5065 57.3588 22.5086 57.8435 25.0067C59.3051 32.5085 53.1233 32.9857 49.6781 33.9701C45.7856 35.0812 33.8245 33.7538 30.3122 30.3981C27.8738 28.0716 29.753 15.499 42.4746 15.499V15.5065Z" fill="#302F2D"/>
<path d="M54.6818 36.5649C53.7795 43.2091 48.6565 50.4946 40.9385 49.9428C33.0639 49.3835 29.149 39.6149 30.1632 31.4494C31.2668 22.5681 35.4726 15.1708 44.682 16.9605C51.259 18.2431 55.8899 27.6911 54.6818 36.5649Z" fill="#FFBC82"/>
<path d="M56.2701 39.4137C55.4275 39.7195 54.5252 39.7568 53.6602 39.6971C53.6453 39.6673 53.6229 39.6449 53.608 39.6151C53.2203 39.0036 53.7646 35.5659 53.9585 34.9246C54.4581 33.2915 55.42 32.4414 56.9711 32.8665C60.2 33.7539 58.9025 38.4667 56.2701 39.4137Z" fill="#FFBC82"/>
<path opacity="0.5" d="M55.0174 38.2503C53.8392 37.512 54.9578 35.0065 55.8377 34.6038C56.561 34.2682 58.3731 34.8722 57.523 36.2891C57.0756 34.9766 56.2702 35.8342 56.397 36.7738C56.479 37.4002 57.1501 37.4076 56.4865 38.213C56.1211 38.6455 55.3903 38.4889 55.0174 38.2503Z" fill="#D14F2E"/>
<path d="M53.5559 27.1614C53.0787 27.5045 52.7431 28.019 52.6983 28.6081C52.6387 29.5402 53.0115 30.5618 53.0563 31.5089C53.1159 32.6722 53.019 33.8728 52.855 35.0211C52.855 35.0211 54.7565 32.9406 56.2926 32.7617C56.7326 31.5685 57.1651 27.6387 55.8825 26.9303C55.1368 26.5201 54.2121 26.6767 53.5485 27.1614H53.5559Z" fill="#B8B1AD"/>
<path d="M34.3541 16.7293C39.3205 14.5443 46.949 15.1111 51.1249 17.7136C53.5857 19.2422 57.7095 23.6419 56.8221 26.841C56.5835 27.7134 55.1368 28.4144 54.5701 27.3555C54.488 28.31 53.4068 28.5561 52.6909 28.049C51.9601 27.527 50.6849 25.7597 47.978 25.6777C46.591 25.6404 45.8975 25.879 44.7268 26.4755C43.6082 27.0423 42.6687 27.1914 41.7887 26.1102C41.2966 28.2578 38.1348 27.3406 37.4562 25.8268C36.0767 27.87 30.4391 25.2526 29.9843 23.3287C29.5816 21.6136 30.387 19.5853 31.7964 18.3325C32.5122 17.6912 33.3847 17.1617 34.3541 16.7367V16.7293Z" fill="#302F2D"/>
<path d="M34.8014 25.3568C34.1676 25.2301 33.4592 24.7454 33.7948 24.0146C34.1005 23.3509 35.5993 23.4404 36.2034 23.3957C38.5225 23.2316 40.8416 23.515 43.1608 23.5299C43.7872 23.5299 45.0399 23.3435 45.3755 24.0892C45.7632 24.9393 44.7864 25.4612 44.1004 25.588C43.1533 25.767 42.1168 25.2972 41.2891 24.8871C41.0281 26.9377 38.7015 26.3188 38.2764 24.7528C37.1131 24.805 35.9647 25.588 34.8014 25.3568Z" fill="#595655"/>
<path opacity="0.5" d="M49.8496 33.9254C49.2306 32.8888 51.7809 33.0454 52.1389 33.2244C51.9524 33.8881 50.901 33.4481 50.5356 33.5227C50.7369 33.9701 51.6169 34.0596 51.9152 34.3802C52.2284 34.7233 52.1389 34.9172 51.6915 34.8575C51.4156 34.8202 49.9987 34.1715 49.8496 33.9254Z" fill="#D14F2E"/>
<path opacity="0.5" d="M32.199 33.7761C32.8179 32.7396 30.5137 32.8812 30.1558 33.0677C30.3422 33.7313 31.1475 33.2988 31.5129 33.3734C31.3116 33.8208 30.6405 33.7612 30.3422 34.0818C30.029 34.4249 30.2154 34.6709 30.6703 34.6113C30.9462 34.574 32.0573 34.0222 32.199 33.7761Z" fill="#D14F2E"/>
<path d="M31.3861 35.3196C31.2891 35.4613 31.2146 35.6254 31.1698 35.8118C30.7075 37.6239 34.8089 37.0049 35.2936 36.2145C36.1959 34.738 34.8238 34.3801 33.7947 34.395C33.0043 34.4099 31.9006 34.5665 31.3935 35.3196H31.3861Z" fill="#FA9769"/>
<path d="M46.7698 35.1185C46.6356 35.2378 46.5163 35.387 46.4194 35.5585C45.4723 37.2736 49.8048 37.7136 50.4983 37.035C51.8033 35.7673 50.4984 35.0439 49.4469 34.7979C48.6416 34.6114 47.4782 34.4847 46.7624 35.1111L46.7698 35.1185Z" fill="#FA9769"/>
<path d="M48.2688 34.1637C48.7684 33.9176 49.4097 33.858 49.9466 34.022C51.1025 33.0377 50.0361 30.0399 48.3434 30.7633C47.0832 31.3076 47.1353 33.5746 48.2688 34.1637Z" fill="#224245"/>
<path opacity="0.5" d="M37.9482 36.0954C38.4105 35.5808 39.0741 36.155 40.2822 36.1774C41.3784 36.1923 41.8109 35.7449 42.579 36.155C43.347 36.5726 42.2583 37.885 40.3195 37.8105C38.3881 37.7433 37.5455 36.5353 37.9482 36.0954Z" fill="#D14F2E"/>
<path d="M40.6177 31.1068C42.9219 30.9055 43.3917 35.2828 42.9368 36.021C42.1762 37.2439 38.127 37.0799 37.6945 35.6631C37.4112 34.7458 38.4178 31.3082 40.6177 31.1143V31.1068Z" fill="#FA9769"/>
<path d="M32.3108 30.6516C31.3861 31.2034 31.3935 33.1124 32.087 33.8805C32.527 33.6791 33.4293 33.5822 33.8842 33.8805C35.301 32.9409 34.0408 29.615 32.3182 30.6516H32.3108Z" fill="#224245"/>
<path opacity="0.7" d="M49.0219 32.0763C48.4104 31.8675 48.0301 32.8071 48.5148 33.1576C49.1859 33.6423 49.7079 32.3075 49.0219 32.0763Z" fill="#D4E6DD"/>
<path opacity="0.7" d="M33.0564 31.8C32.4524 31.6807 32.2138 32.6202 32.7134 32.8887C33.4069 33.269 33.735 31.9342 33.0564 31.8Z" fill="#D4E6DD"/>
<path d="M46.7623 27.0502C46.1359 27.1323 45.3231 27.7885 45.7034 28.8921C46.0017 29.7646 47.3738 29.3544 49.2306 29.4514C51.2514 29.5558 51.8778 29.8242 51.9971 29.2426C52.1164 28.6609 52.0419 27.7586 50.2373 27.259C49.0367 26.9309 47.9256 26.8936 46.7549 27.0502H46.7623Z" fill="#5E5A59"/>
<path d="M35.3158 27.1547C35.9422 27.274 36.7103 27.975 36.2704 29.0488C35.9199 29.8989 34.5776 29.4216 32.7134 29.4067C30.6925 29.3918 30.0437 29.623 29.9617 29.0413C29.8722 28.4597 29.999 27.5574 31.826 27.1622C33.0415 26.9012 34.1525 26.931 35.3084 27.1547H35.3158Z" fill="#5E5A59"/>
<path d="M35.2636 37.7656C34.5999 38.2279 32.8997 40.04 31.4978 38.7052C30.8267 38.0639 29.7529 35.4465 30.1033 32.0088C29.1787 33.1348 28.7984 35.8342 29.1712 37.6687C29.3204 38.4218 29.5068 39.9878 29.4471 40.7186C29.3576 41.8595 28.4553 43.0452 28.2689 44.2234C28.0526 45.6178 28.0676 47.5716 29.723 47.9743C29.5441 49.7341 30.0437 50.7333 31.9974 50.5469C31.3785 52.7616 34.145 54.0965 36.0018 52.6573C36.3672 54.432 40.394 54.1188 41.3187 53.0077C43.4588 54.8571 46.1807 53.5894 46.5535 51.9563C47.2172 52.702 48.8726 52.6945 49.6855 52.1726C50.722 51.5089 50.6548 50.2114 50.543 49.0928C52.5713 49.6595 52.7801 47.3777 52.3924 45.9832C55.3453 45.1033 54.7935 41.166 54.9128 40.0251C55.0023 39.1526 54.1597 39.1899 54.1597 38.6679C54.1597 36.0579 54.5847 33.2989 53.6302 32.9484C53.0709 32.7396 53.0635 33.6866 52.8547 35.0214C52.0717 40.122 47.8809 41.0989 46.382 39.1228C44.4432 36.5725 43.0412 37.3704 40.2001 37.3256C38.0674 37.0721 37.0458 36.5128 35.2636 37.7656Z" fill="#B8B1AD"/>
<path d="M35.137 41.7998C35.2936 41.0765 36.9639 40.7707 37.5008 40.2264C37.8737 41.1585 39.5142 40.5694 40.1332 40.1816C40.7521 40.8528 42.4821 41.0467 43.1309 40.3904C43.2502 40.9124 44.9429 41.3673 45.025 42.0608C43.5559 44.5291 35.9572 43.6193 35.1444 41.7998H35.137Z" fill="#FFBC82"/>
<path opacity="0.5" d="M43.459 41.5835C42.6238 40.9496 38.1198 40.3829 37.0833 41.2032C39.4173 42.4037 43.459 41.5835 43.459 41.5835Z" fill="#D14F2E"/>
<path opacity="0.4" d="M31.8856 46.9752C31.0131 49.5255 32.7655 50.4651 35.1219 49.1974C34.8311 49.7939 33.9959 50.8603 34.585 51.5165C35.5321 52.5754 36.9116 50.4278 37.7021 50.7857C38.1942 51.0094 37.7543 52.3442 38.5372 52.7096C39.6334 53.2167 40.6252 51.5016 41.4753 51.0989C42.5864 53.0154 44.6967 52.4486 45.3679 49.9953C46.464 51.2406 48.3208 51.7999 48.4923 49.5479C50.8711 52.7917 49.76 42.2474 44.734 43.8805C42.6684 44.5517 39.9168 44.917 37.7692 44.5367C35.2189 44.0819 33.1906 42.1207 31.207 44.5889C29.0594 47.2586 30.5135 47.87 31.8856 46.9752Z" fill="#F5F5F5"/>
<path opacity="0.4" d="M40.3195 37.8103C41.7811 37.7059 43.3023 37.2958 44.2642 37.9222C45.2187 38.5486 46.0763 40.0623 45.517 40.4576C44.9577 40.8528 43.0413 39.3688 43.0413 39.3688C43.0413 39.3688 42.6088 40.1295 41.8855 40.1295C41.1621 40.1295 40.1032 39.2794 40.1032 39.2794C40.1032 39.2794 39.186 40.2264 38.4925 40.0996C37.799 39.9654 37.799 38.7499 37.799 38.7499C37.799 38.7499 36.248 41.0243 34.8982 40.4352C33.5485 39.8461 35.9198 37.6314 37.0384 37.5344C38.157 37.4375 39.0966 37.8998 40.3195 37.8178V37.8103Z" fill="#F5F5F5"/>
<path d="M28.2019 21.4274C28.2019 18.027 37.1801 10.6968 42.4 10.6968C48.1718 10.6968 56.8667 19.4961 56.8667 22.6355L43.802 20.6295L28.2019 21.4349V21.4274Z" fill="#FFBD52"/>
<path d="M39.902 22.2252C56.6728 22.2252 62.7055 31.6807 63.2797 31.0841C66.7248 27.5048 57.3961 16.1328 40.066 16.1328C24.5554 16.1328 20.9089 26.6025 23.2579 28.5413C23.9589 29.1155 28.351 22.2252 39.902 22.2252Z" fill="#FF9819"/>
<path d="M26.7629 20.7484C31.4385 16.1996 46.4494 14.8797 57.5753 21.5985C45.9722 17.0572 34.5704 16.14 26.7629 20.7484Z" fill="#FFD899"/>
<path d="M42.2955 11.2637C45.0397 11.2637 48.3134 13.6499 49.499 14.94C51.4229 17.0205 43.0636 16.2524 41.7735 14.1048C41.2516 15.3576 36.2106 16.4687 35.0548 15.8274C33.8915 15.1861 38.4925 11.2637 42.2955 11.2637Z" fill="#FFD899"/>
<path d="M58.4626 21.576C59.2456 20.793 62.385 22.4559 62.6758 25.5953C62.9666 28.7347 60.6923 31.203 60.0659 31.1508C59.4395 31.0986 58.0599 28.4439 57.7467 26.5572C57.3814 24.3947 57.9779 22.0532 58.4626 21.5685V21.576Z" fill="#5CBDAF"/>
<path d="M61.0499 24.0442C61.0499 24.7154 60.5056 25.2672 59.827 25.2672C59.1484 25.2672 58.604 24.7228 58.604 24.0442C58.604 23.3657 59.1484 22.8213 59.827 22.8213C60.5056 22.8213 61.0499 23.3657 61.0499 24.0442Z" fill="#3A3A4A"/>
<path d="M59.5884 27.5272C59.5437 27.5272 59.4989 27.5272 59.4542 27.5272C59.1485 27.5198 58.9098 27.2588 58.9247 26.9605C58.9322 26.6548 59.1485 26.4087 59.4915 26.4311C60.0806 26.4534 60.7219 26.2894 61.3259 25.9538C61.5944 25.8047 61.9299 25.9016 62.0716 26.1701C62.2208 26.4385 62.1238 26.7741 61.8554 26.9158C61.1246 27.3184 60.3416 27.5272 59.5884 27.5272Z" fill="#FFBD52"/>
<path d="M59.9985 29.2795C59.8642 29.2795 59.73 29.272 59.5958 29.2496C59.2975 29.2049 59.0887 28.929 59.1335 28.6232C59.1782 28.325 59.4542 28.1087 59.7599 28.1609C60.0955 28.2131 60.4608 28.1609 60.8188 28.0043C61.0947 27.8925 61.4228 28.0192 61.5346 28.3026C61.6539 28.586 61.5197 28.9066 61.2364 29.0185C60.8262 29.19 60.4086 29.272 59.9985 29.272V29.2795Z" fill="#FFBD52"/>
<path d="M58.731 22.1358C58.6117 22.1358 58.4998 22.0761 58.4253 21.9717C58.3656 21.8822 57.8437 21.1142 57.8959 20.4878C57.9182 20.2342 57.8511 20.0404 57.7169 19.9434C57.6199 19.8763 57.5006 19.8688 57.3887 19.9285C57.2098 20.018 57.0905 20.2491 57.0756 20.5549C57.0606 20.7562 56.8966 20.9128 56.6804 20.9054C56.4716 20.8904 56.3224 20.7189 56.3299 20.5101C56.3671 19.9285 56.6356 19.4662 57.0606 19.2574C57.4111 19.0859 57.8213 19.1157 58.1419 19.3245C58.5073 19.5706 58.6863 20.018 58.649 20.54C58.6266 20.801 58.8727 21.2857 59.0517 21.5392C59.171 21.7107 59.1263 21.9419 58.9547 22.0612C58.8876 22.106 58.813 22.1283 58.7459 22.1283L58.731 22.1358Z" fill="#4F4F4F"/>
<path d="M60.3042 33.9624C60.3042 33.9624 60.2296 33.9624 60.1998 33.9624C59.812 33.9251 59.4765 33.6865 59.3199 33.3435C59.1409 32.9408 59.2155 32.471 59.5212 32.0385C59.6927 31.8074 59.7151 31.2182 59.7002 30.9721C59.6853 30.7634 59.8418 30.5918 60.0506 30.5769C60.252 30.5695 60.431 30.7186 60.4459 30.9274C60.4459 31.0318 60.4981 31.9565 60.1252 32.471C59.9761 32.6798 59.9313 32.8812 59.9984 33.0303C60.0432 33.1347 60.1476 33.2093 60.2744 33.2167C60.4832 33.2391 60.692 33.0974 60.8709 32.8439C60.9903 32.6724 61.2214 32.6351 61.3929 32.7544C61.5645 32.8737 61.6017 33.1049 61.4824 33.2764C61.1692 33.7238 60.7516 33.9699 60.3117 33.9699L60.3042 33.9624Z" fill="#4F4F4F"/>
<path d="M38.8208 41.4344C38.0304 40.4948 36.5464 40.4128 34.5703 41.77C32.7135 43.0451 28.1946 46.7215 28.1946 46.7215L29.5145 48.2725C29.5145 48.2725 34.5778 43.336 35.5546 42.5679C37.1057 41.3599 38.2466 41.6805 38.8134 41.4419L38.8208 41.4344Z" fill="#302F2D"/>
<path d="M28.8135 46.2143C29.1043 45.9832 30.4391 47.3702 30.2004 47.6013C29.9618 47.8325 28.5972 51.643 24.7866 51.5088C20.9836 51.3746 19 48.2426 19 45.4015C19 42.5604 26.8448 43.3508 26.8448 44.9243C26.8448 46.4977 27.9037 46.9451 28.8209 46.2143H28.8135Z" fill="#9C552C"/>
<path opacity="0.8" d="M20.5959 45.0585C21.8264 43.8281 24.5929 44.3278 25.786 45.0585C24.1306 46.632 21.8338 46.1622 20.5959 45.0585Z" fill="#611F16"/>
<path d="M21.4011 45.4092C22.2512 44.7157 24.1602 44.9991 24.973 45.4092C23.8321 46.2892 22.2438 46.0282 21.4011 45.4092Z" fill="#302F2D"/>
<path d="M19.6265 50.5916C19.4624 49.9056 19.3058 48.9734 19.6265 48.3098C20.1783 47.1912 21.3938 47.5641 21.0582 48.7348C21.7442 47.758 22.8031 48.3471 22.4005 49.5998C23.2133 48.8169 24.3318 49.3239 23.5041 50.9496C22.3632 53.2165 19.8576 51.5461 19.6265 50.5842V50.5916Z" fill="#FFBC82"/>
<path opacity="0.2" d="M27.3517 38.7727C26.9192 37.6914 25.1519 38.2059 24.4808 38.7727C24.4658 38.81 24.4658 38.81 24.4808 38.7727C25.8081 35.8794 20.3123 35.6034 21.1847 39.1753C19.917 38.0717 17.9857 39.3692 19.835 41.0247C20.618 41.7256 21.8484 41.9792 22.8551 41.9643C24.436 41.9494 28.2689 41.0545 27.3517 38.7578V38.7727Z" fill="#777777"/>
<path opacity="0.2" d="M22.9597 32.9484C22.4377 33.1796 21.9828 33.5748 21.8933 33.9998C21.7516 34.6784 22.5197 35.1333 23.1014 35.2452C25.249 35.6553 25.5323 31.815 22.9597 32.9484Z" fill="#777777"/>
<path d="M19.9172 46.0879C21.1104 48.2504 24.9358 48.0118 26.114 46.1475C24.6972 47.2735 21.0954 47.0797 19.9172 46.0879Z" fill="#C4804F"/>
<defs>
<radialGradient id="paint0_radial_167_339" cx="0" cy="0" r="1" gradientUnits="userSpaceOnUse" gradientTransform="translate(42.1886 -48.4812) rotate(180) scale(16.1392 1.82443)">
<stop/>
<stop offset="0.92"/>
</radialGradient>
</defs>
</svg>
