<svg width="95" height="95" viewBox="0 0 95 95" fill="none" xmlns="http://www.w3.org/2000/svg">
<circle cx="47.5" cy="47.5" r="47.5" fill="#0A4A81"/>
<path opacity="0.2" d="M60.6709 86.2088C60.6709 87.4169 54.3618 88.3955 46.575 88.3955C38.7881 88.3955 32.4791 87.4169 32.4791 86.2088C32.4791 85.0007 38.7881 84.022 46.575 84.022C54.3618 84.022 60.6709 85.0007 60.6709 86.2088Z" fill="url(#paint0_radial_140_3509)"/>
<path d="M44.1376 84.9622C43.3292 85.9639 40.7715 86.9425 39.6347 86.4073C38.2201 85.7421 39.3379 84.037 39.742 83.5477C40.3294 82.8366 41.1567 81.5291 41.4472 80.2369C41.6556 79.3117 44.4723 80.1528 44.4849 80.7416C44.5228 82.5996 44.7817 84.1594 44.1376 84.9622Z" fill="#FFDABA"/>
<path d="M38.5357 86.0021C38.6746 87.6766 41.2323 88.166 42.5144 87.3555C43.3985 86.7973 44.0553 85.8186 44.4974 85.0693C44.8826 84.427 44.9079 83.1195 44.5605 82.5996C44.4974 82.9896 44.3143 83.7695 43.569 84.4652C41.5923 86.3003 39.243 84.5264 40.3229 82.7372C39.2935 83.6471 38.4283 84.687 38.5357 86.0021Z" fill="#292929"/>
<path d="M38.8072 85.3754C38.7946 85.0696 38.9083 84.6873 39.0788 84.5726C39.4135 84.3432 39.6471 84.8631 39.8808 85.0849C40.5881 85.7501 41.5733 85.7653 42.5017 85.5589C42.1038 86.2929 40.7902 87.264 39.3819 86.3465C39.1672 86.2088 38.8325 85.8495 38.8072 85.3678V85.3754Z" fill="#4F4F4F"/>
<path d="M49.1518 85.4441C50.1244 86.7057 52.7073 88.319 53.1873 85.7117C53.4905 84.0449 52.341 82.4774 52.0569 80.7341C51.9053 79.809 49.0192 80.543 48.975 81.1317C48.8423 82.9974 48.5518 84.6642 49.1518 85.4441Z" fill="#FFDABA"/>
<path d="M52.7642 83.0354C53.4084 83.8153 55.2588 87.7683 52.0695 88.0588C48.6908 88.3723 48.154 84.2817 48.8234 82.9895C48.8234 82.9895 48.8234 83.41 49.1013 83.8841C49.9412 85.3368 52.72 85.5739 52.7705 83.0277L52.7642 83.0354Z" fill="#292929"/>
<path d="M52.8085 86.2621C52.1896 86.6444 50.9518 86.698 49.954 85.337C50.6108 85.4516 51.8739 85.4058 52.537 85.1076C53.3516 84.7406 53.7306 85.6963 52.8085 86.2621Z" fill="#4F4F4F"/>
<path d="M42.6343 84.4884C43.3479 84.4884 43.9921 83.8919 44.15 83.0126C44.731 79.8625 45.6215 74.1279 46.1772 69.9685C46.3162 68.9439 45.7352 67.9729 44.8889 67.8047C44.0426 67.6364 43.2406 68.3399 43.1016 69.3644C42.5648 73.3939 41.668 79.1438 41.106 82.1869C40.9165 83.2038 41.447 84.2131 42.287 84.4348C42.4006 84.4654 42.5143 84.4807 42.628 84.4807L42.6343 84.4884Z" fill="#FFDABA"/>
<path d="M50.7497 84.4881C50.8633 84.4881 50.977 84.4727 51.0907 84.4422C51.9306 84.2128 52.4611 83.2112 52.2717 82.1943C51.9938 80.6956 51.8359 78.3712 51.6654 75.9168C51.5138 73.6842 51.3496 71.3751 51.0844 69.3718C50.9454 68.3472 50.1434 67.6438 49.2971 67.812C48.4509 67.9802 47.8699 68.9436 48.0088 69.9758C48.2551 71.8338 48.413 74.0741 48.5582 76.2303C48.7351 78.8147 48.9056 81.2614 49.2277 83.0123C49.3919 83.8916 50.0297 84.4881 50.7433 84.4881H50.7497Z" fill="#FFDABA"/>
<path d="M28.4183 49.4156C30.1234 49.4997 31.7023 50.3561 31.7654 50.2873C32.9338 49.1251 34.6895 49.3239 33.6411 50.4784C33.1675 50.9984 32.4854 51.2966 32.2328 51.9771C31.7907 53.1699 30.5403 53.598 29.8392 52.4129C29.4919 51.8242 28.7719 51.5183 28.1972 51.1895C27.8057 50.9678 27.3826 50.7231 27.471 50.1955C27.5405 49.7444 27.9636 49.3927 28.412 49.4156H28.4183Z" fill="#F5AF87"/>
<path d="M34.7402 57.0545C38.0937 57.0545 41.9334 53.8049 44.3838 50.7541L42.4829 48.5215C39.6283 52.0769 36.1043 54.2866 34.1087 53.7743C33.5908 53.6443 32.8519 53.2774 32.353 51.6487L29.8711 52.7574C30.7489 55.6323 32.3593 56.5957 33.5593 56.9016C33.9445 57.001 34.336 57.0469 34.7339 57.0469L34.7402 57.0545Z" fill="#D4D4D4"/>
<path d="M43.4114 60.0898C41.6873 63.0795 36.4203 63.6911 40.4811 65.5797C37.8539 67.8812 40.2032 68.7528 41.8641 68.7681C43.6767 68.7834 44.264 64.5857 44.2387 62.8654C44.2261 62.0396 44.0493 61.2597 44.0808 60.4263L43.4177 60.0898H43.4114Z" fill="#E8E8E8"/>
<path opacity="0.2" d="M43.2344 61.2749C41.8829 65.182 40.4178 64.4022 41.6051 66.0231C39.2242 68.3093 40.9104 68.2711 42.205 68.2787C43.6197 68.294 44.0807 65.0138 44.0554 63.6681C44.0428 63.0259 43.9038 62.4142 43.9291 61.7643L43.2344 61.2749Z" fill="black"/>
<path d="M51.0591 60.0898C52.7832 63.0795 58.0502 63.6911 53.9894 65.5797C56.6166 67.8812 54.2673 68.7528 52.6127 68.7681C50.8001 68.7834 50.2128 64.5857 50.2381 62.8654C50.2507 62.0396 50.4276 61.2597 50.396 60.4263L51.0591 60.0898Z" fill="#E8E8E8"/>
<path opacity="0.2" d="M51.236 61.2749C52.5875 65.182 54.0526 64.4022 52.8653 66.0231C55.2462 68.3093 53.56 68.2711 52.2654 68.2787C50.8507 68.294 50.3897 65.0138 50.415 63.6681C50.4276 63.0259 50.5665 62.4142 50.5413 61.7643L51.236 61.2749Z" fill="black"/>
<path d="M43.79 47.5578C44.289 46.1279 45.4573 45.9904 47.1625 45.9674C49.5181 45.9292 50.2128 46.8849 50.5475 48.3453C51.1601 51.0444 42.2112 52.1148 43.79 47.5578Z" fill="#E8DAC5"/>
<path d="M41.9398 65.8015C43.3229 60.9921 44.2007 60.5715 42.2619 54.4929C41.6177 52.4667 41.5546 49.8518 42.2935 48.7584C42.7166 48.139 43.4365 47.902 43.6892 47.5044C43.8092 47.3133 43.6829 46.197 44.6112 46.0058C46.2658 45.6694 47.9899 45.9829 49.493 46.2199C50.0929 46.3116 50.2382 47.2292 50.4277 47.4892C50.7434 47.9326 51.1287 48.1543 51.6781 48.8043C52.657 49.9665 52.758 53.4607 51.8297 56.0451C50.4971 59.7687 51.0276 61.2826 52.0255 64.257C53.5854 68.9287 53.7117 71.1919 54.4253 72.3159C52.5623 73.0728 50.5098 72.8052 50.5098 72.8052L50.5856 73.5087C50.5856 73.5087 47.4594 73.9062 44.8259 73.5469C42.8555 73.2793 40.342 72.4229 39.7926 71.8418C40.3673 71.0849 41.3904 67.713 41.9398 65.7938V65.8015ZM44.6617 48.8196C46.9668 50.6623 47.8384 50.3946 47.8384 50.3946C47.8384 50.3946 48.432 49.7829 49.493 48.7125C50.1814 48.0167 50.2508 47.2139 49.6698 46.671C49.3035 46.3346 48.5331 46.4111 47.5858 46.3881C46.2027 46.3499 44.9649 46.3881 44.3144 46.8851C43.6513 47.3974 43.9039 48.2155 44.6681 48.8196H44.6617Z" fill="#D4D4D4"/>
<path d="M49.9602 73.5929L49.9286 69.2117L50.1876 69.0205C50.1876 69.0205 50.4528 72.3771 50.5854 73.524L49.9602 73.5929Z" fill="#E8E8E8"/>
<path d="M43.8532 61.3589C43.8532 61.3589 41.1439 66.4894 42.0849 68.8138C43.2785 71.7499 50.0865 71.6581 51.438 69.242C52.8084 66.8029 50.2191 61.6877 50.2191 61.6877L43.8532 61.3589Z" fill="#E62628"/>
<path d="M49.8087 46.3728C49.8087 46.3728 50.3266 46.7551 50.3581 47.3591C50.3834 47.9632 50.0866 48.7431 49.1898 49.7065C48.9498 49.9664 48.5519 50.5093 48.5519 50.5093L47.4341 50.0582C47.4341 50.0582 47.9772 49.2936 48.413 48.9036C49.695 47.7644 49.8024 46.3728 49.8024 46.3728H49.8087Z" fill="#E8E8E8"/>
<path d="M43.8533 46.7627C43.8533 46.7627 43.1649 47.8408 44.0301 48.7813C44.4975 49.2936 46.531 50.6698 49.5371 51.0903C50.3897 51.205 49.1203 57.6277 49.7077 61.9554C49.8845 56.4426 51.0149 50.5704 50.156 50.4022C47.6994 49.9205 45.9311 49.1712 44.9711 48.2384C44.0238 47.3285 43.8596 46.7627 43.8596 46.7627H43.8533Z" fill="#E8E8E8"/>
<path d="M48.2742 53.3839C48.2742 53.7433 48.5142 54.0262 48.8047 54.0262C49.0952 54.0262 49.3352 53.7357 49.3352 53.3839C49.3352 53.0322 49.0952 52.7417 48.8047 52.7417C48.5142 52.7417 48.2742 53.0322 48.2742 53.3839Z" fill="#4F4F4F"/>
<path d="M45.1859 53.254C45.1859 53.6439 45.4448 53.9574 45.7669 53.9574C46.089 53.9574 46.3479 53.6439 46.3479 53.254C46.3479 52.864 46.089 52.5505 45.7669 52.5505C45.4448 52.5505 45.1859 52.864 45.1859 53.254Z" fill="#4F4F4F"/>
<path d="M45.2618 56.2365C45.2618 56.5882 45.5018 56.8788 45.7923 56.8788C46.0828 56.8788 46.3228 56.5882 46.3228 56.2365C46.3228 55.8848 46.0828 55.5942 45.7923 55.5942C45.5018 55.5942 45.2618 55.8772 45.2618 56.2365Z" fill="#4F4F4F"/>
<path d="M48.116 56.2441C48.116 56.5958 48.356 56.8863 48.6465 56.8863C48.937 56.8863 49.177 56.5958 49.177 56.2441C49.177 55.8924 48.937 55.6018 48.6465 55.6018C48.356 55.6018 48.116 55.8924 48.116 56.2441Z" fill="#4F4F4F"/>
<path d="M47.9583 59.1339C47.9583 59.4933 48.1983 59.7762 48.4888 59.7762C48.7793 59.7762 49.0193 59.4857 49.0193 59.1339C49.0193 58.7822 48.7793 58.4917 48.4888 58.4917C48.1983 58.4917 47.9583 58.7822 47.9583 59.1339Z" fill="#4F4F4F"/>
<path d="M45.2869 59.1723C45.2869 59.524 45.5206 59.8146 45.8174 59.8146C46.1142 59.8146 46.3479 59.524 46.3479 59.1723C46.3479 58.8206 46.1079 58.53 45.8174 58.53C45.5269 58.53 45.2869 58.8206 45.2869 59.1723Z" fill="#4F4F4F"/>
<path d="M51.0403 60.1435C50.5604 60.3881 46.3227 61.1986 43.3798 60.0823L43.0703 61.2598C44.3145 62.3685 49.7836 62.6131 51.4319 61.3439L51.0403 60.1435Z" fill="#E8E8E8"/>
<path d="M43.645 61.9858C43.645 61.9858 42.3504 66.8029 43.3356 68.248C44.3208 69.6854 49.3352 69.8154 50.472 68.248C51.6087 66.6805 50.2067 62.1311 50.2067 62.1311C50.2067 62.1311 52.2718 66.2906 51.0403 68.6379C49.8088 70.9853 44.0745 70.8247 42.7925 68.7297C41.5104 66.6346 43.645 61.9858 43.645 61.9858Z" fill="#FF3B3B"/>
<path d="M53.5979 61.1374C53.3074 61.3668 53.7053 62.2691 53.1811 62.9725C52.6632 63.676 53.6863 62.8502 53.9263 63.546C54.1663 64.2418 51.9433 65.8551 51.2359 63.5995C50.5349 61.3439 51.6906 60.1358 53.6484 59.807C55.6062 59.4783 53.5979 61.1374 53.5979 61.1374Z" fill="#FFDABA"/>
<path d="M50.4275 47.4967C51.6022 47.9325 56.7303 50.5704 57.1471 55.4562C57.5702 60.342 54.3178 62.3835 54.3178 62.3835L52.5053 60.0209C52.5053 60.0209 55.1451 58.7058 55.1009 55.5632C55.0504 52.1072 50.2696 49.6299 50.2696 49.6299L50.4275 47.489V47.4967Z" fill="#D4D4D4"/>
<path d="M47.1055 47.497C45.0719 47.497 44.5793 45.9142 44.3456 45.7613C44.2825 45.7231 43.6194 46.5718 43.5625 46.6865C43.4615 46.8777 43.5057 46.9464 43.6004 47.1299C44.6361 49.0797 46.7139 50.3795 48.5012 49.5767C49.739 49.0185 50.5094 47.2982 50.6357 46.5488C50.3642 46.1818 50.08 45.8301 49.7074 45.6313C49.4737 46.5412 48.4191 47.497 47.0991 47.497H47.1055Z" fill="#E62628"/>
<path d="M44.3836 47.6037C45.6025 45.1416 48.7854 49.0411 46.4298 50.0122C45.2867 50.4862 43.6447 49.1023 44.3836 47.6037Z" fill="#E62628"/>
<path d="M48.5392 52.8721C48.7097 54.1796 48.274 55.2271 48.6655 56.4734C46.4173 56.3587 44.27 54.1719 45.211 50.6395C45.3942 49.959 45.6405 49.0491 46.0257 48.5215C46.493 49.2861 47.2572 49.5613 47.7245 50.3795C48.1287 51.0906 48.4255 51.9852 48.5455 52.8721H48.5392Z" fill="#E62628"/>
<path d="M39.2935 53.4607C41.5671 52.4132 42.4259 47.1833 45.7542 48.0703C45.211 54.0495 41.3271 54.4777 39.2935 53.4607Z" fill="#E62628"/>
<path d="M44.169 51.9087C43.6638 52.4669 42.9754 52.9639 42.2807 52.918C42.4007 52.2987 42.7607 51.5188 43.1965 51.1748C44.1311 50.4407 44.6364 50.479 45.0469 49.8826C44.8953 50.716 44.7627 51.2512 44.169 51.9087Z" fill="#C21115"/>
<path d="M45.4575 52.7115C45.6343 53.522 45.9375 54.3707 46.4048 54.7377C46.4995 54.0954 46.4806 53.1703 46.2911 52.6045C45.887 51.3888 45.5459 51.1364 45.4449 50.3489C45.3123 51.2052 45.2491 51.771 45.4512 52.7115H45.4575Z" fill="#C21115"/>
<path d="M45.5332 49.7449C45.1164 49.5767 44.7627 49.332 44.4785 48.8809C44.4975 49.3014 44.7248 49.7525 44.889 50.1195C45.0722 50.5248 45.2679 50.693 45.6658 50.54C45.9689 50.4177 46.651 49.8978 46.8215 49.6378C46.7647 49.6378 46.1268 49.9895 45.5332 49.7449Z" fill="#C21115"/>
<path d="M36.4515 23.6563C36.5778 21.1789 37.5567 21.653 37.9672 20.8502C39.3566 18.1435 39.4324 13.3953 40.5376 12.5389C43.809 10.0004 48.2865 10.2298 51.981 11.4838C56.1681 12.9059 56.446 21.6836 59.1174 22.5094C61.0626 23.1134 62.1362 25.6902 60.6015 27.3188C61.4036 27.9381 62.1677 27.1964 62.3004 26.2254C63.9739 27.7393 64.5992 30.6906 62.2877 32.0211C64.997 33.8485 64.3276 37.5721 61.4288 39.1855C62.7867 40.8294 62.092 43.6278 60.7278 44.7365C60.8352 43.5743 60.0016 40.9746 58.4606 42.305C57.5133 43.1231 58.0122 45.3023 59.3006 44.2089C59.6416 46.1816 57.0902 47.4126 56.3387 45.7687C56.9828 47.1832 52.941 47.5579 51.2927 46.9003C49.6444 46.2351 45.7857 43.4214 44.3521 43.9031C42.868 44.4001 42.3691 45.891 41.0428 46.5486C39.8619 47.1373 37.7209 45.891 38.384 44.1171C39.0724 45.4628 40.4997 43.6507 39.4387 42.565C38.6872 41.7928 37.5757 42.5115 36.8115 41.9227C35.9147 41.2346 36.2747 38.7649 36.2116 38.719C35.8579 38.4285 35.3716 38.2832 34.9927 38.4591C34.1212 37.1745 34.3612 35.2401 35.7884 34.9801C32.6244 34.3226 32.0055 28.6262 35.4537 27.8157C33.8433 27.2499 32.0118 22.6547 34.759 22.9146C34.0201 24.3674 35.7758 25.0326 36.3505 23.9392C36.401 23.8398 36.4389 23.748 36.4452 23.6639L36.4515 23.6563Z" fill="#FDD281"/>
<path opacity="0.6" d="M52.878 46.6098C53.44 46.4339 53.459 45.5011 53.8505 45.2564C54.5515 44.8206 54.4063 45.547 55.0694 45.5394C55.8967 45.5241 55.7515 45.157 55.9409 44.2089C56.2125 44.3771 56.604 44.4689 56.8945 44.5989C56.4967 43.429 56.9135 42.3203 57.7724 41.6781C58.4102 41.204 59.6543 41.4793 60.0333 40.707C60.2985 40.1795 60.0333 39.4454 59.7238 39.0326C61.2269 39.6748 61.6311 37.2587 60.5069 36.3564C60.93 34.9878 61.3342 33.8103 61.1322 32.2199C60.6332 28.221 56.5156 27.9228 54.1789 27.7011C50.3455 27.3341 45.129 26.3401 41.3019 27.0818C40.1651 27.3035 36.9758 26.3248 36.9885 29.4673C36.9885 30.706 36.9001 32.8469 35.6559 33.0762C35.5738 35.0719 38.6684 34.8578 36.1738 36.754C37.399 36.8763 36.1485 39.7895 37.5 40.4776C37.8032 40.6305 38.201 40.4241 38.441 40.2024C37.9989 40.6306 39.4767 42.1521 39.6662 42.4503C40.304 43.4443 40.5756 44.4765 39.9314 45.7229C40.8535 46.4186 41.3335 45.1952 42.1039 44.7824C44.5922 43.4443 51.5138 47.0227 52.8653 46.6021L52.878 46.6098Z" fill="#E6A75A"/>
<path d="M36.9693 38.2372C36.9693 38.8794 37.3924 39.4223 37.9229 39.4376C38.4534 39.4529 38.8955 38.9483 38.9018 38.2983C38.9081 37.6561 38.4787 37.1132 37.9482 37.0979C37.4114 37.075 36.9756 37.5872 36.9693 38.2372Z" fill="#E62628"/>
<path d="M37.7401 28.9091C38.58 19.7415 42.5082 14.8938 48.1857 15.5361C53.8632 16.1707 58.284 22.0811 57.9367 31.4323C57.5893 40.7834 52.0381 48.2383 46.0259 47.4202C41.043 46.7397 36.7991 39.1472 37.7401 28.9091Z" fill="#FFDABA"/>
<path d="M38.4662 34.8425C38.4094 34.9648 38.3715 35.1101 38.3525 35.2706C38.1694 36.8381 40.8976 36.1347 41.1692 35.4389C41.6807 34.1391 40.7208 33.8944 40.0261 33.9479C39.4893 33.9938 38.7567 34.1773 38.4662 34.8349V34.8425Z" fill="#FFC4B3"/>
<path d="M51.8169 34.7355C51.7411 34.8655 51.6779 35.0184 51.6337 35.2019C51.2106 36.9605 54.3114 36.9146 54.703 36.1883C55.4419 34.8196 54.4314 34.2691 53.6546 34.1468C53.061 34.055 52.2274 34.055 51.8169 34.7431V34.7355Z" fill="#FFC4B3"/>
<path d="M58.6566 37.0753C57.9935 37.32 57.2988 37.2664 56.6294 37.0982C56.6168 37.0676 56.6041 37.0371 56.5915 37.0065C56.3136 36.2725 56.9451 32.8317 57.1157 32.1283C57.5514 30.3544 58.2209 29.154 59.4018 29.8116C61.8711 31.1802 60.7217 36.326 58.6566 37.083V37.0753Z" fill="#FFDABA"/>
<path opacity="0.3" d="M57.4061 35.8288C56.2693 35.0642 57.1851 32.1281 57.9934 31.6005C58.6565 31.1723 60.3806 31.7381 59.6544 33.4203C59.1681 31.9446 58.4608 32.9845 58.625 34.0473C58.7323 34.7583 59.3639 34.7201 58.7765 35.6912C58.4608 36.2111 57.7661 36.0811 57.4061 35.8365V35.8288Z" fill="#D14F2E"/>
<path d="M37.3357 27.892C38.1693 26.6228 41.2639 26.5998 42.4006 28.0297C40.8849 28.2055 39.6155 27.655 37.3357 27.892Z" fill="#A16B43"/>
<path opacity="0.3" d="M44.674 35.393C44.4846 35.653 45.0782 36.3717 45.7981 36.4482C46.436 36.5093 47.2254 35.6606 46.8654 35.4236C46.5055 35.1789 46.2971 35.4465 45.7792 35.4389C45.2045 35.4312 44.895 35.0948 44.674 35.4007V35.393Z" fill="#D14F2E"/>
<path opacity="0.2" d="M50.6233 16.9967C47.6993 16.0715 44.5542 15.8192 41.5608 16.0791C40.4493 16.1785 39.3567 19.3134 38.9652 20.2845C38.1189 22.3565 37.3863 24.8109 36.9695 27.0665C36.3885 30.232 39.3125 30.2702 39.483 27.5559C40.4745 28.6722 41.7313 28.3281 42.0218 26.6842C42.5207 27.1277 43.9101 27.6706 44.0048 26.4931C43.9606 27.4794 44.6679 28.4963 45.4826 28.7792C46.752 29.2303 48.4319 28.5193 47.7182 27.0206C47.2951 26.1184 46.0321 26.8601 46.4489 25.0632C47.6551 25.4226 48.7477 25.4685 49.2908 23.901C50.1307 24.895 51.2107 24.0387 51.2801 22.7771C51.4254 23.2358 51.6906 23.9087 52.0317 24.2145C52.0948 24.2681 53.0926 24.7956 53.0105 24.5204C53.2758 25.4226 54.2483 26.4854 55.082 25.9502C55.1578 26.5619 55.6377 26.8218 56.1051 26.8754C55.1388 27.6247 55.442 28.8863 55.9219 29.8497C56.3072 30.6296 56.5282 30.4996 55.8082 31.2413C55.3788 31.6847 54.8862 31.7994 54.8736 32.6634C54.8609 33.3516 55.3472 33.818 55.6882 34.208C55.0251 34.9496 54.3052 34.3991 54.2799 35.8136C54.2673 36.3412 54.842 37.6487 54.4125 38.0386C54.0715 38.3521 53.6926 37.9316 53.5852 37.5416C52.4674 38.0998 52.3601 39.3996 53.2316 40.3095C54.141 41.2576 55.5872 40.7912 56.3956 39.5449C56.724 39.0402 56.9513 37.9545 56.9703 37.3428C57.6081 37.4881 58.1134 36.8076 58.3975 36.0353C58.6502 35.3625 58.5049 34.5673 58.2397 33.9633C58.5617 33.9021 58.7954 33.6804 58.9975 33.3822C59.7301 32.2888 59.4585 29.8726 58.2965 29.3374C59.4522 28.0988 58.246 26.9136 57.7534 25.7285C57.1597 24.3216 56.7998 22.7924 56.0293 21.5002C54.7031 19.2981 52.7958 17.6772 50.6107 16.989L50.6233 16.9967Z" fill="#D14F2E"/>
<path d="M58.4481 33.3056C58.265 33.4508 58.0376 33.5655 57.766 33.6496C59.5659 34.4524 58.1387 37.702 56.3577 36.6392C57.8987 38.8566 53.3137 41.4562 53.219 38.7878C53.1937 38.0767 53.5979 37.2815 54.1915 37.1362C53.8884 37.2127 53.7747 38.8489 54.5768 38.436C55.7641 37.832 53.6926 35.867 54.7789 35.0641C55.3094 34.6666 56.8693 35.1024 56.2882 33.9096C55.8777 33.0609 54.9873 32.625 56.0483 31.5928C56.364 31.287 56.9135 31.2487 56.9451 30.6524C56.9703 30.0942 56.4019 29.8419 56.1935 29.4825C55.4483 28.2133 56.604 26.7223 57.5513 26.2559C56.945 26.2176 55.2146 26.577 55.4167 25.1778C54.4631 26.1871 53.0611 24.7649 53.44 23.4116C53.2632 24.0232 52.3538 23.8244 52.0443 23.5721C51.4759 23.1057 51.5265 22.1958 51.236 21.523C51.1223 22.2646 50.9897 22.9986 50.4086 23.3809C49.8213 23.7632 49.1835 23.6333 48.874 22.8992C48.514 24.4132 47.2825 25.6442 46.19 24.1226C45.9437 24.7037 45.7984 25.5295 46.1458 26.0877C46.6699 26.9364 47.3646 26.0494 47.8067 26.447C48.3625 26.9517 47.3457 28.0145 46.9794 28.1597C46.2594 28.435 45.2237 27.9992 44.7816 27.2575C44.4217 26.6535 44.5164 25.9577 44.4848 25.2619C43.8785 26.4547 42.8618 27.2499 41.8513 26.0112C41.1187 27.1275 40.3988 27.6628 39.3504 26.5541C38.8452 27.5634 38.9336 28.9244 37.7274 29.1385C36.319 29.3831 36.4011 27.4181 36.6538 26.2788C36.9948 24.7496 36.938 25.1931 37.0516 23.618C37.1274 22.5246 38.2768 21.6147 38.5673 20.5595C38.9589 19.1144 39.4325 15.5743 40.5819 14.9474C45.8868 12.0495 51.3244 13.8693 56.3577 16.8436C57.4503 17.4858 57.1724 20.3684 57.7724 21.6529C58.5492 23.3045 59.5533 23.488 59.3575 25.2848C59.2249 26.4776 58.8523 28.802 57.9176 29.4443C59.1049 30.4306 59.6165 32.4186 58.4418 33.3361L58.4481 33.3056Z" fill="#FDD281"/>
<path d="M56.8059 38.6426C56.8059 39.239 57.1974 39.736 57.69 39.7513C58.1826 39.7666 58.5868 39.3002 58.5868 38.7038C58.5932 38.1074 58.2016 37.6104 57.709 37.5951C57.2164 37.5798 56.8122 38.0462 56.8059 38.6426Z" fill="#E62628"/>
<path d="M49.4993 21.3856C49.575 21.4468 49.6382 21.5309 49.6824 21.638C50.0613 22.5096 49.1014 22.7008 48.653 22.4026C48.293 23.9547 47.0426 24.4517 45.9247 23.6565C45.3564 24.7728 45.1795 25.7592 45.8616 26.7532C45.0911 26.8067 44.8006 25.3386 44.6806 24.6276C43.7081 25.3769 42.8428 26.4167 41.7755 25.1551C41.5103 25.6445 41.1124 26.2409 40.5946 26.3097C40.0514 26.3862 39.8304 25.8739 39.3504 26.0345C38.2768 26.3938 37.8095 29.934 35.997 28.2824C36.3506 28.2824 36.6411 28.0606 36.7864 27.6707C35.4286 27.5025 34.3676 26.5849 34.4876 24.8034C35.416 25.3463 37.3106 25.6215 37.3737 23.8094C37.3927 23.1595 36.9001 22.7543 37.399 22.1961C37.6453 21.9209 38.8326 21.8597 38.9399 22.3567C38.4537 20.0629 40.5946 21.5921 41.3082 22.2114C41.5419 20.277 43.2786 21.4621 44.1186 21.8903C43.847 19.7952 47.1689 21.4545 48.1162 21.3321C48.4762 21.2862 49.133 21.0492 49.5119 21.3703L49.4993 21.3856Z" fill="#FFE5B3"/>
<path d="M55.947 27.6398C54.6903 26.3094 51.1979 26.1947 50.1621 27.8157C52.1388 27.8768 53.0988 27.7239 55.947 27.6398Z" fill="#A16B43"/>
<path opacity="0.5" d="M46.1835 37.6028C48.2234 37.6487 51.2169 38.3522 52.8083 37.2129C50.1938 42.6492 48.5581 43.6662 46.4677 43.8573C43.8532 44.102 42.9311 41.8999 42.5143 40.256C42.3375 39.5526 40.9923 37.7787 40.4744 37.3734C42.1101 37.8245 43.7142 37.5417 46.1772 37.6028H46.1835Z" fill="#E65050"/>
<path d="M51.5833 38.1685C51.5833 38.1685 47.2572 39.8277 41.5545 38.1838C41.5545 38.1838 42.4512 38.6579 42.887 39.9883C43.2912 41.2117 44.6742 42.0375 46.7583 41.9534C50.0107 41.8157 51.5833 38.1609 51.5833 38.1609V38.1685Z" fill="#8F3935"/>
<path d="M50.3833 38.5128C50.3833 38.5128 50.2949 39.6138 49.1455 40.0573C47.6677 40.6231 46.0636 40.6842 44.409 40.3937C43.2911 40.1949 42.7228 38.4822 42.7228 38.4822C42.7228 38.4822 45.9183 39.3768 50.3833 38.5128Z" fill="#FFF9F0"/>
<path d="M49.8529 40.103C49.9666 39.8125 49.9098 39.3537 49.3856 39.7895C48.6467 40.4012 47.4089 40.5465 45.9184 40.5083C44.5354 40.47 43.8344 39.973 43.5691 40.2865C43.3039 40.6 44.5543 42.3739 46.9226 41.9993C49.3919 41.6093 49.8529 40.103 49.8529 40.103Z" fill="#FFF9F0"/>
<path d="M50.0928 39.2926C50.0928 39.2926 44.51 38.7956 43.1901 39.4378C43.1901 39.4378 42.7922 38.8415 42.7228 38.4897C42.7228 38.4897 46.6257 39.3155 50.3833 38.5203C50.3833 38.5203 50.3075 39.0326 50.0991 39.3002L50.0928 39.2926Z" fill="#E8DAC5"/>
<path d="M48.9434 40.0188C48.9434 40.0188 47.0803 41.0052 44.5542 40.3323C44.5542 40.3323 46.9603 41.5557 48.9434 40.0188Z" fill="#E8DAC5"/>
<path d="M52.3601 33.0995C52.8085 32.8701 53.358 32.8472 53.8127 33.0536C54.861 32.0596 54.0905 28.7183 52.5938 29.3988C51.476 29.9034 51.4065 32.3808 52.3601 33.0995Z" fill="#305D80"/>
<path d="M52.9536 30.2703C52.4042 30.1709 52.2274 31.2567 52.6947 31.5319C53.3389 31.9219 53.5725 30.385 52.9536 30.2703Z" fill="#86BAE3"/>
<path d="M39.401 29.4294C38.5927 30.0564 38.6558 31.9755 39.2305 32.8854C39.66 32.8089 40.1463 32.809 40.5504 33.1454C42.224 32.5337 40.9041 28.2749 39.3947 29.4294H39.401Z" fill="#305D80"/>
<path d="M40.1272 30.0639C39.603 30.0486 39.5336 31.1726 39.9946 31.3867C40.6388 31.6772 40.7209 30.0792 40.1272 30.0639Z" fill="#86BAE3"/>
<path d="M36.0791 30.0026C36.0791 30.0026 37.4559 31.7535 39.5841 30.316C40.5251 29.6814 41.1946 30.683 41.1946 30.683C41.1946 30.683 40.7399 28.7027 39.3631 29.345C38.6242 29.689 37.7716 30.6984 36.0791 30.0102V30.0026Z" fill="#121B21"/>
<path d="M57.1345 30.2472C57.1345 30.2472 55.5178 31.9523 53.459 30.4078C52.5622 29.7349 51.7854 30.5607 51.7854 30.5607C51.7854 30.5607 52.158 28.5957 53.5979 29.4826C54.1473 29.819 55.4294 30.836 57.1282 30.2396L57.1345 30.2472Z" fill="#121B21"/>
<path d="M52.24 22.1578C51.8106 22.8383 53.0863 23.4424 53.7747 23.0142C53.7557 24.2911 54.7914 25.3462 55.7451 24.5816C55.6124 25.8279 57.2229 25.8279 57.9239 25.8203C57.2986 26.4243 56.3513 28.6187 57.4123 29.2763C57.3997 28.5805 58.1323 27.0742 58.8396 27.273C59.3575 27.4183 59.4901 28.4658 60.1153 28.7411C60.6142 28.9628 61.1952 28.9475 61.5615 28.4276C61.0184 28.4505 60.229 27.9612 60.1406 27.2272C60.0521 26.4855 60.7658 26.042 60.6079 25.2009C60.4121 24.1687 59.6669 24.2911 59.1238 23.9623C58.6375 23.6641 58.5238 23.1595 58.0628 22.8307C57.5765 22.4866 56.7618 22.5707 56.4397 23.1595C56.364 22.0967 55.0567 21.9667 54.5136 22.586C54.5136 22.586 52.96 21.5767 52.5495 21.8749C52.4169 21.9667 52.3221 22.0661 52.259 22.1655L52.24 22.1578Z" fill="#FFE5B3"/>
<path d="M57.823 21.4237C57.823 21.4237 46.4364 19.1528 38.0496 20.4756C38.0496 20.4756 37.9675 19.1452 38.1506 18.006C38.3401 16.8361 37.0454 11.0251 36.5339 9.53411C36.2939 8.83832 39.8116 7.85962 39.8116 7.85962L39.5905 6.70506C39.5905 6.70506 43.4619 5.47406 44.5986 6.34571C44.6807 5.994 44.5544 5 44.5544 5L51.2677 5.2829C51.2677 5.2829 51.0466 6.22336 51.0845 6.56743C53.7054 6.32276 56.5663 7.46966 56.5663 7.46966L56.2631 8.41016C56.2631 8.41016 59.6229 9.68702 59.4713 10.3369C59.0672 12.0802 57.7662 16.989 57.962 18.2735C58.1451 19.4969 57.823 21.4314 57.823 21.4314V21.4237Z" fill="#D4D4D4"/>
<path d="M58.2143 21.6913C58.2143 21.6913 46.0951 19.8027 37.8851 20.9267C37.8851 20.9267 37.5756 16.362 38.0051 16.1097C41.0743 14.3358 54.6587 15.2839 58.2206 16.8284C58.7258 17.0501 58.208 21.6837 58.208 21.6837L58.2143 21.6913Z" fill="#D4D4D4"/>
<path d="M57.7471 17.2183C57.7029 17.1954 49.0698 13.1659 38.4031 16.5149C41.4408 16.8972 38.9652 20.4067 40.4619 20.3991C41.3587 20.3991 52.6695 20.4985 55.6251 20.8425C57.0714 21.026 54.6589 16.8284 57.7534 17.226L57.7471 17.2183Z" fill="#E8E8E8"/>
<path d="M50.7432 5.74939L44.9583 5.39771L45.4635 14.6035C45.4635 14.6035 45.9687 11.0481 47.6613 11.0481C49.3538 11.0481 50.1748 14.6035 50.1748 14.6035L50.7432 5.74174V5.74939Z" fill="#E8E8E8"/>
<path d="M44.4597 6.644L45.0281 14.5347C45.0281 14.5347 44.2765 8.18855 42.6409 8.11973C41.0052 8.05092 40.1905 7.00339 40.1905 7.00339C40.1905 7.00339 42.6093 6.22347 44.466 6.644H44.4597Z" fill="#E8E8E8"/>
<path d="M41.5042 14.8865L39.8053 8.32617C39.8053 8.32617 37.6518 8.7467 37.1655 9.37368C37.1655 9.37368 38.2328 9.74835 38.8959 10.49C39.7548 11.4534 41.4978 14.8788 41.4978 14.8788L41.5042 14.8865Z" fill="#E8E8E8"/>
<path d="M51.3053 7.2858L50.8064 14.6795C50.8064 14.6795 51.8737 8.96027 53.5093 8.89146C55.145 8.82264 55.9597 7.77516 55.9597 7.77516C55.9597 7.77516 53.162 6.86527 51.3116 7.2858H51.3053Z" fill="#E8E8E8"/>
<path d="M54.2609 15.3756L56.3323 9.09814C56.3323 9.09814 58.4859 9.51867 58.9722 10.1457C58.9722 10.1457 57.7091 10.245 57.0902 11.0402C56.0734 12.3324 54.2609 15.3832 54.2609 15.3832V15.3756Z" fill="#E8E8E8"/>
<path d="M19.9999 47.3133C19.9999 48.659 23.7323 50.387 29.5614 50.387C35.3905 50.387 39.1355 48.659 39.1355 47.3133C39.1355 45.9676 34.8537 44.8818 29.5677 44.8818C24.2817 44.8818 19.9999 45.9752 19.9999 47.3133Z" fill="#D4D4D4"/>
<path opacity="0.2" d="M22.2105 46.839C22.2105 48.0854 25.5071 49.0946 29.5679 49.0946C33.6287 49.0946 36.9253 48.0854 36.9253 46.839C36.9253 45.5927 33.635 44.5835 29.5679 44.5835C25.5008 44.5835 22.2105 45.5927 22.2105 46.839Z" fill="black"/>
<path d="M22.021 46.1584C22.021 40.8903 25.3935 36.6238 29.549 36.6238C33.7045 36.6238 37.0769 40.8903 37.0769 46.1584C37.0769 47.4736 33.5845 48.9492 29.429 48.9492C25.2735 48.9492 22.021 47.2059 22.021 46.1584Z" fill="#D4D4D4"/>
<path opacity="0.7" d="M29.5742 37.0598C25.0651 37.0598 19.4254 45.6769 29.4795 45.6769C39.5336 45.6769 34.3171 37.0598 29.5742 37.0598Z" fill="#F0F0F0"/>
<path opacity="0.7" d="M36.3442 47.0839C36.3442 47.0839 34.8412 48.789 29.4289 48.789C24.0166 48.789 22.3557 46.6558 22.3557 46.6558C22.3557 46.6558 24.0861 48.4908 29.4163 48.4908C34.7464 48.4908 36.3442 47.0839 36.3442 47.0839Z" fill="#F0F0F0"/>
<path d="M38.1755 48.07C38.1755 48.07 36.262 49.9127 29.3909 49.9127C22.5197 49.9127 20.4041 47.5959 20.4041 47.5959C20.4041 47.5959 22.6018 49.5916 29.3782 49.5916C36.1546 49.5916 38.1755 48.07 38.1755 48.07Z" fill="white"/>
<path d="M30.3069 37.0982C30.3069 37.0982 29.549 36.433 29.909 35.4849H28.8796C28.8796 35.4849 29.4543 36.4636 28.6207 37.1976C28.6207 37.1976 29.107 37.6105 30.3069 37.0982Z" fill="#D4D4D4"/>
<path d="M29.4038 35.8364C28.7167 35.8364 28.1597 35.3366 28.1597 34.7201C28.1597 34.1036 28.7167 33.6038 29.4038 33.6038C30.0909 33.6038 30.6479 34.1036 30.6479 34.7201C30.6479 35.3366 30.0909 35.8364 29.4038 35.8364Z" fill="#4F4F4F"/>
<path opacity="0.3" d="M28.5763 34.4142C28.5763 34.743 28.9489 35.0107 29.4036 35.0107C29.8584 35.0107 30.231 34.743 30.231 34.4142C30.231 34.0855 29.8647 33.8179 29.4036 33.8179C28.9426 33.8179 28.5763 34.0855 28.5763 34.4142Z" fill="white"/>
<defs>
<radialGradient id="paint0_radial_140_3509" cx="0" cy="0" r="1" gradientUnits="userSpaceOnUse" gradientTransform="translate(46.5983 -58.6166) scale(13.6611 1.8697)">
<stop/>
<stop offset="0.92"/>
</radialGradient>
</defs>
</svg>
