<svg width="95" height="95" viewBox="0 0 95 95" fill="none" xmlns="http://www.w3.org/2000/svg">
<circle cx="47.5" cy="47.5" r="47.5" fill="#0A4A81"/>
<path opacity="0.2" d="M47.1693 88.8849C55.9699 88.8849 63.1041 87.8655 63.1041 86.6081C63.1041 85.3507 55.9699 84.3313 47.1693 84.3313C38.3687 84.3313 31.2344 85.3507 31.2344 86.6081C31.2344 87.8655 38.3687 88.8849 47.1693 88.8849Z" fill="url(#paint0_radial_167_205)"/>
<path d="M26.6651 51.0869C27.1078 50.3545 28.1216 50.2749 28.9854 50.7685C29.9778 51.3337 31.2842 51.5725 31.8197 52.7666C32.2909 53.8016 32.1767 55.1708 31.1129 55.6723C29.7065 56.341 26.7222 54.0643 26.4724 52.4562C26.3796 51.8671 26.4652 51.4133 26.658 51.0869H26.6651Z" fill="#D47844"/>
<path d="M31.413 30.779C31.2702 30.1024 30.6134 29.6805 29.9494 29.8476L18.1981 32.8409C17.5342 33.0081 17.0987 33.7086 17.2415 34.3853L21.0039 52.7667C21.1396 53.4434 21.8035 53.8653 22.4675 53.6982L34.2187 50.7049C34.8826 50.5377 35.3182 49.8451 35.1754 49.1605L31.413 30.779Z" fill="#B8B8B8"/>
<path d="M31.1986 29.7761C31.063 29.0995 30.399 28.6775 29.7351 28.8447L17.9838 31.838C17.3198 32.0051 16.8844 32.7057 17.0271 33.3824L20.7895 51.7638C20.9323 52.4405 21.5891 52.8624 22.2531 52.6952L34.0043 49.7099C34.6683 49.5428 35.1038 48.8422 34.961 48.1655L31.1986 29.7841V29.7761Z" fill="#E8E8E8"/>
<path d="M31.1986 29.7761C31.063 29.0995 30.399 28.6775 29.7351 28.8447L17.9838 31.838C17.3198 32.0051 16.8844 32.7057 17.0271 33.3824L17.891 37.6016L32.0625 33.9953L31.1986 29.7761Z" fill="#4F4F4F"/>
<path d="M20.3686 40.1809C20.0544 40.2605 19.7403 40.0614 19.676 39.735L19.5047 38.9151C19.4404 38.5887 19.6403 38.2623 19.9545 38.1747L21.2467 37.8483C21.5608 37.7687 21.8749 37.9677 21.9392 38.2941L22.1105 39.1221C22.1748 39.4485 21.9749 39.7828 21.6608 39.8545L20.3686 40.1809Z" fill="#967CBF"/>
<path d="M23.4381 39.4007C23.1169 39.4803 22.8099 39.2813 22.7456 38.9549L22.5743 38.127C22.51 37.8006 22.7099 37.4663 23.024 37.3866L24.3162 37.0603C24.6375 36.9806 24.9445 37.1797 25.0088 37.5061L25.1801 38.334C25.2444 38.6604 25.0445 38.9868 24.7303 39.0664L23.4381 39.3928V39.4007Z" fill="#967CBF"/>
<path d="M20.9254 42.9033C20.6113 42.9829 20.2972 42.7839 20.2329 42.4575L20.0616 41.6375C19.9973 41.3111 20.1972 40.9767 20.5113 40.8971L21.8036 40.5708C22.1177 40.4911 22.4318 40.6902 22.496 41.0166L22.6674 41.8365C22.7316 42.1629 22.5317 42.4973 22.2176 42.5769L20.9254 42.9033Z" fill="#B8B8B8"/>
<path d="M23.9953 42.1152C23.6811 42.1948 23.367 41.9958 23.3027 41.6694L23.1314 40.8494C23.0671 40.523 23.267 40.1887 23.5812 40.1091L24.8734 39.7827C25.1875 39.7031 25.5016 39.9021 25.5659 40.2285L25.7372 41.0564C25.8015 41.3828 25.6016 41.7092 25.2875 41.7888L23.9953 42.1152Z" fill="#B8B8B8"/>
<path d="M27.0648 41.3351C26.7507 41.4148 26.4366 41.2157 26.3723 40.8893L26.201 40.0614C26.1367 39.735 26.3366 39.4086 26.6507 39.329L27.943 39.0026C28.2571 38.923 28.5712 39.122 28.6355 39.4484L28.8068 40.2764C28.8782 40.6028 28.6712 40.9371 28.357 41.0167L27.0648 41.3431V41.3351Z" fill="#B8B8B8"/>
<path d="M30.1275 40.5549C29.8134 40.6345 29.4993 40.4355 29.435 40.1091L29.2708 39.2891C29.2065 38.9627 29.4064 38.6284 29.7206 38.5488L31.0128 38.2224C31.3269 38.1428 31.6411 38.3418 31.7053 38.6682L31.8767 39.4881C31.9409 39.8145 31.741 40.1489 31.4269 40.2285L30.1347 40.5549H30.1275Z" fill="#B8B8B8"/>
<path d="M21.4748 45.6181C21.1606 45.6977 20.8465 45.4987 20.7823 45.1723L20.6109 44.3444C20.5466 44.018 20.7465 43.6836 21.0607 43.612L22.3529 43.2856C22.667 43.206 22.9811 43.405 23.0454 43.7314L23.2167 44.5593C23.281 44.8857 23.0811 45.2121 22.767 45.2997L21.4748 45.6261V45.6181Z" fill="#B8B8B8"/>
<path d="M24.5519 44.838C24.2378 44.9176 23.9237 44.7186 23.8594 44.3922L23.688 43.5643C23.6238 43.2379 23.8237 42.9115 24.1378 42.8239L25.43 42.4975C25.7441 42.4179 26.0583 42.6169 26.1226 42.9433L26.2939 43.7712C26.3581 44.0976 26.1582 44.432 25.8441 44.5036L24.5519 44.83V44.838Z" fill="#B8B8B8"/>
<path d="M26.5008 38.6206C26.1867 38.7003 25.8726 38.5012 25.8083 38.1828L25.637 37.3549C25.5728 37.0285 25.7727 36.7021 26.0868 36.6225L27.379 36.2961C27.6931 36.2165 28.0072 36.4155 28.0715 36.7419L28.2428 37.5698C28.3071 37.8962 28.1072 38.2226 27.793 38.3022L26.5008 38.6286V38.6206Z" fill="#B8B8B8"/>
<path d="M29.5709 37.8404C29.2568 37.92 28.9427 37.721 28.8784 37.3946L28.7071 36.5667C28.6428 36.2403 28.8427 35.9139 29.1569 35.8263L30.4491 35.4999C30.7632 35.4203 31.0773 35.6194 31.1416 35.9458L31.3129 36.7657C31.3772 37.0921 31.1773 37.4265 30.8632 37.4981L29.5709 37.8325V37.8404Z" fill="#B8B8B8"/>
<path d="M27.6146 44.0575C27.3005 44.1371 26.9864 43.938 26.9221 43.6117L26.7508 42.7837C26.6865 42.4573 26.8864 42.123 27.2006 42.0434L28.4928 41.717C28.8069 41.6374 29.121 41.8364 29.1853 42.1628L29.3566 42.9907C29.4208 43.3171 29.2209 43.6515 28.9068 43.7311L27.6146 44.0575Z" fill="#B8B8B8"/>
<path d="M30.6847 43.2775C30.3706 43.3571 30.0564 43.1581 29.9922 42.8317L29.8208 42.0038C29.7566 41.6774 29.9565 41.351 30.2706 41.2714L31.5628 40.945C31.877 40.8654 32.1911 41.0644 32.2553 41.3908L32.4267 42.2108C32.491 42.5372 32.291 42.8636 31.9769 42.9511L30.6847 43.2775Z" fill="#B8B8B8"/>
<path d="M22.0389 48.3407C21.7248 48.4203 21.4107 48.2213 21.3464 47.8949L21.1751 47.0669C21.1108 46.7405 21.3107 46.4062 21.6249 46.3266L22.9171 46.0002C23.2312 45.9206 23.5453 46.1196 23.6096 46.446L23.7809 47.2739C23.8452 47.6003 23.6453 47.9267 23.324 48.0063L22.0318 48.3407H22.0389Z" fill="#B8B8B8"/>
<path d="M25.1015 47.5603C24.7873 47.6399 24.4732 47.4409 24.4089 47.1145L24.2376 46.2946C24.1733 45.9682 24.3732 45.6338 24.6874 45.5622L25.9796 45.2358C26.2937 45.1562 26.6079 45.3552 26.6721 45.6816L26.8434 46.5095C26.9077 46.8359 26.7078 47.1703 26.3937 47.2499L25.1015 47.5763V47.5603Z" fill="#B8B8B8"/>
<path d="M28.1715 46.7802C27.8503 46.8598 27.5433 46.6608 27.479 46.3344L27.3077 45.5144C27.2434 45.1881 27.4433 44.8617 27.7574 44.7741L29.0496 44.4477C29.3638 44.3681 29.6779 44.5671 29.7422 44.8935L29.9135 45.7214C29.9778 46.0478 29.7779 46.3822 29.4637 46.4618L28.1715 46.7882V46.7802Z" fill="#B8B8B8"/>
<path d="M31.7985 48.7147C31.4844 48.7943 31.1702 48.5953 31.1059 48.2689L30.3777 44.7264C30.3135 44.4 30.5134 44.0736 30.8275 43.986L32.1197 43.6596C32.4338 43.58 32.748 43.779 32.8122 44.1054L33.5405 47.648C33.6047 47.9744 33.4048 48.3008 33.0907 48.3804L31.7985 48.7068V48.7147Z" fill="#66D4C4"/>
<path d="M22.5886 51.0553C22.2745 51.1349 21.9604 50.9359 21.8961 50.6095L21.7319 49.7815C21.6605 49.4551 21.8675 49.1288 22.1817 49.0412L23.4739 48.7148C23.788 48.6352 24.1022 48.8342 24.1664 49.1606L24.3377 49.9885C24.402 50.3149 24.2021 50.6413 23.888 50.7289L22.5958 51.0553H22.5886Z" fill="#B8B8B8"/>
<path d="M25.6583 50.2751C25.3442 50.3547 25.0301 50.1557 24.9658 49.8293L24.7945 49.0093C24.7302 48.6829 24.9301 48.3486 25.2443 48.269L26.5365 47.9426C26.8506 47.863 27.1647 48.062 27.229 48.3884L27.3931 49.2163C27.4574 49.5427 27.2575 49.877 26.9434 49.9487L25.6512 50.2751H25.6583Z" fill="#B8B8B8"/>
<path d="M28.7284 49.495C28.4142 49.5746 28.1001 49.3756 28.0359 49.0492L27.8645 48.2292C27.8003 47.9028 28.0002 47.5685 28.3143 47.4888L29.6065 47.1545C29.9207 47.0749 30.2348 47.2739 30.299 47.6003L30.4704 48.4282C30.5346 48.7546 30.3347 49.089 30.0206 49.1686L28.7284 49.495Z" fill="#B8B8B8"/>
<path d="M30.3776 31.1692C30.2563 30.5881 29.7137 30.2298 29.164 30.3731L19.0833 32.9365C18.5336 33.0718 18.1837 33.6609 18.298 34.2421L18.505 35.261C18.6264 35.8422 19.169 36.2004 19.7187 36.0571L29.7993 33.4938C30.3491 33.3584 30.6989 32.7693 30.5847 32.1882L30.3776 31.1612V31.1692Z" fill="white"/>
<path d="M21.4106 34.7517L22.2103 34.5527L22.303 35.0144L20.8466 35.3886L20.7753 35.0383C20.9894 34.6084 21.0394 34.5845 21.1108 34.4731C21.3535 34.0671 21.5534 33.669 21.5106 33.478C21.4749 33.3108 21.2678 33.1994 21.018 33.263C20.8395 33.3108 20.5611 33.4541 20.5611 33.4541L20.3826 33.0879C20.3826 33.0879 20.6539 32.9207 20.9038 32.857C21.375 32.7376 21.9104 32.9366 22.0103 33.4223C22.0817 33.7646 21.8176 34.1706 21.5606 34.5129C21.5249 34.5606 21.4678 34.6403 21.3964 34.7517H21.4106Z" fill="#4F4F4F"/>
<path d="M24.0235 33.3425C24.1949 34.1625 23.9593 34.6322 23.5238 34.7516C23.0883 34.863 22.6956 34.5446 22.5314 33.7326C22.36 32.9126 22.5956 32.435 23.024 32.3235C23.4595 32.2121 23.8522 32.5305 24.0235 33.3505V33.3425ZM23.5381 33.4699C23.4238 32.9285 23.2525 32.6977 23.1097 32.7295C22.9669 32.7693 22.9026 33.0559 23.0169 33.6052C23.1311 34.1465 23.3025 34.3774 23.4452 34.3376C23.588 34.2978 23.6523 34.0112 23.5452 33.4699H23.5381Z" fill="#4F4F4F"/>
<path d="M26.037 32.6101C26.2155 33.4779 25.6087 34.2023 24.8876 34.3933L24.8019 33.9794C25.4087 33.8202 25.5159 33.4221 25.5516 33.239C25.5016 33.3266 25.4159 33.4381 25.2303 33.4858C24.8233 33.5893 24.4021 33.239 24.3164 32.8171C24.2236 32.3793 24.5163 31.9335 25.0018 31.8061C25.6443 31.6389 25.9585 32.2201 26.037 32.6101ZM25.5087 32.5783C25.4659 32.3633 25.3088 32.1643 25.116 32.2121C24.8733 32.2758 24.7519 32.443 24.7876 32.642C24.8376 32.9047 25.1089 33.0878 25.2945 33.04C25.4087 33.0082 25.5658 32.8569 25.5087 32.5783Z" fill="#4F4F4F"/>
<path d="M27.9432 32.3315C28.1145 33.1515 27.8789 33.6212 27.4434 33.7406C27.0079 33.852 26.6153 33.5336 26.4511 32.7216C26.2797 31.9016 26.5153 31.424 26.9437 31.3125C27.3792 31.2011 27.7719 31.5195 27.9432 32.3395V32.3315ZM27.4577 32.4589C27.3435 31.9175 27.1722 31.6867 27.0294 31.7185C26.8866 31.7583 26.8224 32.0449 26.9366 32.5942C27.0508 33.1355 27.2221 33.3664 27.3649 33.3266C27.5077 33.2868 27.5791 33.0002 27.4649 32.4589H27.4577Z" fill="#4F4F4F"/>
<path d="M29.9134 31.83C30.0848 32.65 29.8492 33.1197 29.4137 33.2391C28.9782 33.3506 28.5855 33.0321 28.4213 32.2201C28.2499 31.4002 28.4855 30.9225 28.9139 30.8111C29.3494 30.6996 29.7421 31.018 29.9134 31.838V31.83ZM29.4279 31.9574C29.3137 31.4161 29.1423 31.1852 28.9996 31.2171C28.8568 31.2569 28.7925 31.5435 28.9067 32.0928C29.021 32.6341 29.1923 32.865 29.3351 32.8251C29.4779 32.7853 29.5493 32.4988 29.4351 31.9574H29.4279Z" fill="#4F4F4F"/>
<path d="M31.3269 49.7496C30.4702 50.3944 30.2703 52.305 30.6415 53.3797C30.8486 53.9609 31.2626 54.4942 31.7624 54.0723C32.3835 53.5469 31.9837 52.2493 32.2121 51.5567C32.3621 51.1268 32.9618 50.2511 32.8332 49.7655C32.6262 48.9933 31.7338 49.4471 31.3197 49.7576L31.3269 49.7496Z" fill="#D47844"/>
<path d="M35.5108 57.83C34.0901 57.83 32.4909 57.4001 30.7061 56.3095L32.2482 53.165C36.4675 55.7363 38.8091 53.1252 41.0652 50.6016C41.8076 49.7737 42.5001 48.9935 43.2355 48.4761L44.9632 51.5012C44.5277 51.8116 43.9494 52.4565 43.3426 53.1331C41.6506 55.0278 39.1375 57.83 35.5108 57.83Z" fill="#D4D4D4"/>
<path d="M50.5745 81.8556C49.2323 82.1661 49.3037 83.6229 49.4965 84.825C49.8534 87.0142 51.2027 88.877 52.7377 88.8293C53.623 88.8054 54.3655 86.9824 53.8229 84.0528C53.4445 82.0228 51.9738 81.5372 50.5745 81.8556Z" fill="#292929"/>
<path d="M44.3635 82.2855C45.5843 82.994 45.1488 84.3871 44.6633 85.4937C43.7781 87.5078 41.7148 88.9327 40.2513 88.4232C39.4088 88.1287 39.4517 86.0987 40.6939 83.4239C41.5578 81.569 43.0927 81.5451 44.3564 82.2855H44.3635Z" fill="#292929"/>
<path d="M48.1899 67.2952C48.1899 70.3601 49.5464 79.6901 49.525 83.0973C49.525 84.0049 49.832 84.578 50.2889 85.1671C51.3883 86.5921 53.0732 86.6797 53.4944 85C53.7157 84.1083 53.4088 83.1371 53.3159 82.0943C52.7805 76.3466 52.1951 67.1121 52.1951 67.1121L48.2042 67.2952H48.1899Z" fill="#D47844"/>
<path d="M47.0407 67.3828C46.8694 70.376 45.5344 79.2842 45.2131 82.6038C45.0417 84.3791 42.9785 86.2021 41.6006 85.8438C39.9943 85.4219 40.8296 83.3282 41.2151 81.139C42.8072 72.1831 42.6429 70.0576 42.7572 67.0962L47.0407 67.3748V67.3828Z" fill="#D47844"/>
<path d="M51.9099 62.8213C53.6233 66.1808 52.738 67.4147 53.145 70.2726C52.788 70.4955 50.3749 70.7105 47.0623 70.7105C43.7497 70.7105 42.1576 70.2487 41.6721 70.0179C42.4931 66.5629 41.3652 65.7429 43.1286 62.5268C44.9705 59.1832 50.3678 59.7962 51.9099 62.8134V62.8213Z" fill="#292929"/>
<path d="M62.6113 63.8082C62.5257 63.8082 62.4328 63.8082 62.34 63.8003C58.649 63.5774 55.5934 58.8248 53.1375 54.9956C52.395 53.8413 51.3812 52.2571 50.9957 51.9705C50.2032 51.5247 49.9034 50.458 50.3104 49.5743C50.7173 48.6907 51.6954 48.3484 52.4878 48.8021C53.4231 49.3275 54.2441 50.5774 55.7505 52.9099C57.4782 55.5927 60.3624 60.0905 62.5185 60.2179C62.8969 60.2418 63.4894 60.1542 64.2962 59.1512C64.8887 58.4108 65.9025 58.3471 66.5665 59.0079C67.2304 59.6686 67.2876 60.799 66.695 61.5394C65.4885 63.044 64.1177 63.8082 62.6185 63.8082H62.6113Z" fill="#D4D4D4"/>
<path d="M42.8499 48.6431C44.8061 46.43 49.9535 46.6051 52.1024 48.4839C54.5798 50.6492 51.6383 56.1501 51.6383 59.6768C51.6383 61.6192 52.4665 62.877 53.1519 65.7429C52.3023 66.2683 47.4618 67.0723 46.9764 63.8005C46.955 66.9211 41.6148 66.0056 41.679 65.7508C42.3287 63.1158 43.2354 61.8978 43.3497 59.7325C43.6281 54.4067 40.5011 51.302 42.857 48.6431H42.8499Z" fill="#D4D4D4"/>
<path d="M42.9356 61.2928C43.0427 60.7754 43.1998 59.9315 43.2283 59.4061C43.3354 57.4159 43.0784 56.0706 42.6929 54.6058C43.4068 52.8783 43.2497 49.9965 42.8714 48.6193C44.8347 46.446 50.2106 46.6291 52.4452 48.667C52.1382 49.901 51.924 52.3608 52.645 54.2635C52.2167 56.1502 51.7598 57.7344 51.7598 59.3026C51.7598 59.836 51.9311 60.6878 52.0382 61.2451C49.1825 62.3835 45.8342 62.0173 42.9356 61.3008V61.2928Z" fill="#765AA3"/>
<path d="M51.4812 55.1073C51.1171 56.4686 49.2466 56.8189 47.6189 56.7871C44.4062 56.7234 43.1996 55.3143 43.7422 53.6425C43.885 53.1967 44.5775 52.8863 45.3986 53.2286C46.9264 53.8654 48.7897 53.6027 50.3532 53.141C51.2528 52.8783 51.7596 54.0804 51.4883 55.1073H51.4812Z" fill="#967CBF"/>
<path opacity="0.5" d="M47.4691 51.8592C47.926 51.8592 51.3457 50.06 51.3457 50.06L50.6318 53.6424C50.6318 53.6424 47.826 52.0502 47.4833 52.0502C47.105 52.0502 44.285 53.507 44.285 53.507L43.8994 49.8132C43.8994 49.8132 46.8622 51.8592 47.4762 51.8592H47.4691Z" fill="#5E4684"/>
<path d="M50.3889 46.8918C49.061 46.1912 46.5337 46.1435 45.1059 46.8122C42.5786 47.9983 44.6704 52.6236 44.6704 52.6236L47.4476 51.9469L50.2248 52.727C50.2248 52.727 52.9734 48.2531 50.3889 46.8918Z" fill="#F5F5F5"/>
<path d="M47.5119 51.5329C45.5058 50.4263 42.8999 49.1685 45.0703 47.242C45.5201 46.844 45.413 45.6021 45.3416 44.1691C45.1702 40.9211 50.2034 40.8017 50.1963 44.3443C50.1963 45.9126 50.1463 46.8997 50.5247 47.3296C51.2529 48.1655 51.1886 49.6382 47.5119 51.5329Z" fill="#BF6136"/>
<path d="M51.0815 47.8549C51.0743 48.1176 50.8745 48.3246 50.6389 48.3166C50.4033 48.3086 50.2177 48.0857 50.2248 47.823C50.2319 47.5603 50.4318 47.3533 50.6674 47.3613C50.903 47.3693 51.0886 47.5922 51.0815 47.8549Z" fill="#FFF9F0"/>
<path d="M50.1035 48.6034C50.0963 48.8661 49.8964 49.0731 49.6608 49.0651C49.4252 49.0651 49.2396 48.8343 49.2468 48.5716C49.2539 48.3089 49.4538 48.1019 49.6894 48.1098C49.925 48.1178 50.1106 48.3407 50.1035 48.6034Z" fill="#FFF9F0"/>
<path d="M48.8324 49.0968C48.8324 49.3595 48.6254 49.5665 48.397 49.5585C48.1614 49.5506 47.9757 49.3277 47.9829 49.065C47.99 48.8023 48.1899 48.5953 48.4255 48.6032C48.6611 48.6112 48.8467 48.8341 48.8324 49.0968Z" fill="#FFF9F0"/>
<path d="M47.562 49.1764C47.5548 49.4391 47.3549 49.6461 47.1193 49.6381C46.8837 49.6302 46.6981 49.4073 46.7053 49.1446C46.7124 48.8819 46.9123 48.6749 47.1479 48.6828C47.3835 48.6908 47.5691 48.9137 47.562 49.1764Z" fill="#FFF9F0"/>
<path d="M45.2556 47.8073C45.2485 48.07 45.0486 48.277 44.813 48.269C44.5774 48.261 44.3917 48.0381 44.3989 47.7754C44.406 47.5127 44.6059 47.3057 44.8415 47.3137C45.0771 47.3137 45.2627 47.5446 45.2556 47.8073Z" fill="#FFF9F0"/>
<path d="M46.2766 48.651C46.2695 48.9137 46.0696 49.1207 45.834 49.1127C45.5984 49.1048 45.4127 48.8819 45.4199 48.6192C45.4199 48.3565 45.6269 48.1495 45.8625 48.1574C46.0981 48.1574 46.2837 48.3883 46.2766 48.651Z" fill="#FFF9F0"/>
<path d="M47.6476 63.0041C47.6476 63.2588 47.4691 63.4578 47.2407 63.4578C47.0122 63.4578 46.8337 63.2588 46.8337 63.0041C46.8337 62.7493 47.0194 62.5503 47.2407 62.5503C47.462 62.5503 47.6476 62.7493 47.6476 63.0041Z" fill="white"/>
<path d="M32.2552 25.7081C32.1767 25.7717 31.9126 27.8495 30.1349 27.5152C28.3572 27.1808 29.1354 8.16248 44.6562 7.39825C43.5924 6.46683 42.8357 4.36519 44.4206 3.63279C46.0055 2.9004 47.6761 5.20107 47.4548 6.98429C49.6109 -1.35862 54.3228 5.71056 51.5599 7.49378C58.6849 7.64503 63.3468 10.6701 65.5957 19.3554C66.3739 22.3725 66.024 26.5758 65.6314 29.6566C65.3958 31.5194 64.4177 33.4858 64.8604 35.3725C65.3601 35.3247 66.0098 35.2929 66.4952 35.4998C70.1934 37.0283 66.6095 42.2108 63.5895 41.1281C66.3453 45.1722 62.4187 48.8421 59.3417 45.22C58.3921 47.3694 56.4503 46.9634 54.7297 46.4618C52.9235 45.9364 51.1244 45.7931 49.2824 45.3633C46.0341 44.607 43.6638 45.9285 40.6725 46.5972C38.7449 47.0271 36.5317 46.223 37.217 43.58C37.3955 42.9034 37.9667 42.1949 38.3736 41.6694C35.9677 41.6058 36.3746 37.6015 35.6107 35.6033C35.1466 34.3853 31.5056 33.6927 32.2481 25.7081H32.2552Z" fill="#261B18"/>
<path d="M34.9893 36.3038C34.9822 36.9884 35.4748 37.5457 36.0817 37.5616C36.6956 37.5695 37.2025 37.0282 37.2096 36.3436C37.2168 35.659 36.7242 35.0937 36.1174 35.0858C35.5034 35.0778 34.9965 35.6192 34.9893 36.3117V36.3038Z" fill="#FF9819"/>
<path d="M59.406 32.4269C58.4565 39.4881 53.4733 47.1703 46.1127 46.4777C38.6022 45.7692 34.9825 35.3166 36.0606 26.6314C37.2314 17.1899 41.3436 9.36446 50.1107 11.4104C56.3718 12.8672 60.6768 23.0013 59.406 32.4269Z" fill="#D47844"/>
<path opacity="0.5" d="M36.9669 21.8074C37.5381 24.5778 43.9563 26.7113 46.0196 23.527C47.4331 25.1191 50.4102 26.56 51.8952 24.331C53.5515 25.4773 54.9508 24.9042 55.472 22.8264C56.9855 22.7786 57.6708 25.9391 57.7351 27.173C60.0125 23.1209 56.293 11.5141 49.6249 11.546C43.171 11.5778 35.8818 16.5692 36.9598 21.7995L36.9669 21.8074Z" fill="#A1392B"/>
<path d="M60.8838 35.4839C60.0699 35.7943 59.2132 35.8262 58.3922 35.7466C58.3779 35.7147 58.3636 35.6909 58.3422 35.659C57.9781 34.9983 58.5421 31.3522 58.7349 30.6676C59.2275 28.9401 60.1627 28.0485 61.6406 28.5182C64.7104 29.5133 63.4111 34.5127 60.8838 35.4759V35.4839Z" fill="#D47844"/>
<path opacity="0.5" d="M59.7058 34.2263C58.5921 33.4222 59.6844 30.7713 60.534 30.3494C61.2336 29.9991 62.9542 30.6678 62.1189 32.1644C61.7048 30.7554 60.9337 31.6629 61.0337 32.658C61.1051 33.3267 61.7476 33.3506 61.098 34.1944C60.7481 34.6482 60.0485 34.473 59.6987 34.2183L59.7058 34.2263Z" fill="#A1392B"/>
<path d="M35.1823 15.558C35.6106 14.746 36.2389 14.0455 36.9171 13.528C38.2593 12.517 39.0232 10.9248 40.5796 10.089C41.936 9.36452 43.5423 8.76746 45.0202 8.47291C47.1191 8.05099 49.368 8.04303 51.4813 8.3535C55.0295 8.87891 59.2987 10.8293 60.3696 15.0406C61.0336 17.6278 60.6338 20.6131 60.4268 23.2481C60.3125 24.6572 60.748 28.7888 59.8556 29.9272C58.6134 31.5035 57.8066 29.7601 57.6924 28.2077C57.571 26.5121 57.8638 24.7846 57.1427 23.2163C56.3931 21.5764 54.7867 21.1704 54.7867 21.1545C54.5654 24.1318 53.0162 24.9597 50.8387 22.5078C51.1243 25.8354 45.8198 22.8501 44.7917 21.9585C44.2777 28.0167 35.1608 21.8789 34.654 18.3045C34.5183 17.3253 34.7396 16.3859 35.1751 15.5501L35.1823 15.558Z" fill="#261B18"/>
<path d="M53.4518 19.2838C55.5008 20.1435 61.3621 23.4234 61.8048 20.8043C64.0893 22.882 65.0531 20.4381 63.0185 16.5612C60.5054 11.7688 53.4018 7.99538 49.3467 12.3818C45.7057 4.99416 34.8326 11.8325 33.3547 14.8337C32.7907 15.9721 32.2624 18.4399 34.3685 18.5912C34.9753 18.631 36.3033 17.7314 36.6031 17.2379C33.5903 22.1258 44.4777 22.6273 42.8571 19.5704C43.8138 20.2789 51.3029 23.7339 48.8684 19.3952C49.7465 20.048 54.2371 22.4124 52.9378 19.0609C52.9735 19.0768 53.1591 19.1564 53.4447 19.2758L53.4518 19.2838Z" fill="#45362E"/>
<path d="M58.8204 37.4742C58.8133 38.1588 59.2987 38.724 59.9198 38.732C60.5338 38.74 61.0407 38.1986 61.0478 37.514C61.055 36.8294 60.5624 36.2641 59.9484 36.2562C59.3344 36.2482 58.8275 36.7975 58.8204 37.4822V37.4742Z" fill="#FF9819"/>
<path d="M67.0165 58.3633C67.7875 58.5464 68.123 58.5146 68.223 57.9414C68.4086 56.8428 68.2944 55.4815 67.6947 55.378C66.9022 55.2347 65.7885 58.0767 67.0165 58.3713V58.3633Z" fill="#D47844"/>
<path d="M49.0332 59.5463L56.732 43.8984C57.1098 43.1306 57.9822 42.8471 58.6707 43.2683L68.748 49.4331C69.4365 49.8543 69.6908 50.827 69.313 51.5948L61.6142 67.2426C61.2365 68.0104 60.3641 68.2939 59.6756 67.8727L49.5983 61.7079C48.9098 61.2868 48.6555 60.314 49.0332 59.5463Z" fill="#4986C2"/>
<path d="M58.0859 45.3914L55.8325 49.9695L65.3143 55.7723L67.5677 51.1943L58.0859 45.3914Z" fill="#E8E8E8"/>
<path d="M58.679 46.8594L58.1328 47.969L63.5715 51.2975L64.1177 50.1879L58.679 46.8594Z" fill="#4F4F4F"/>
<path d="M57.9084 48.5685L57.3621 49.678L61.2107 52.0343L61.7571 50.9248L57.9084 48.5685Z" fill="#4F4F4F"/>
<path d="M63.9749 58.7215C62.7755 55.4018 68.0729 55.975 68.2228 57.9413C68.2728 58.6578 67.9943 59.4459 67.6516 60.035C67.309 60.6321 66.7949 61.0381 66.2523 61.4042C64.9244 62.2959 63.6965 61.7625 64.8531 60.0589C64.6317 59.8519 64.1462 59.1752 63.982 58.7215H63.9749Z" fill="#D47844"/>
<path d="M36.9026 33.1833C36.8384 33.3186 36.7884 33.4619 36.7598 33.637C36.51 35.3008 39.6869 34.6401 40.0153 33.9077C40.6293 32.5384 39.5299 32.2439 38.7231 32.2837C38.102 32.3155 37.2453 32.4907 36.8955 33.1833H36.9026Z" fill="#D4502C"/>
<path d="M51.9739 33.4619C51.8811 33.5972 51.8026 33.7564 51.7526 33.9555C51.2243 35.8183 54.8154 35.8661 55.2866 35.1018C56.1718 33.6689 55.0153 33.0479 54.1229 32.8887C53.4375 32.7693 52.4737 32.7534 51.9811 33.4699L51.9739 33.4619Z" fill="#D4502C"/>
<path d="M35.4963 25.9548C36.503 24.3547 40.3439 24.3626 41.6575 25.915C39.8299 26.0901 37.7595 26.0662 35.4963 25.9548Z" fill="#261B18"/>
<path opacity="0.5" d="M44.2063 33.7645C43.9778 34.0352 44.6489 34.8233 45.4842 34.9268C46.2267 35.0143 47.1548 34.1307 46.7407 33.86C46.3266 33.5894 46.0839 33.86 45.4842 33.8441C44.8202 33.8202 44.4704 33.4461 44.2063 33.7645Z" fill="#A1392B"/>
<path d="M56.9286 25.9709C55.5008 24.5141 51.4671 24.2912 50.2249 25.9868C52.5166 26.1142 53.6303 25.9789 56.9286 25.9709Z" fill="#261B18"/>
<path d="M52.6447 31.7346C53.1659 31.4958 53.8085 31.4958 54.3296 31.7346C55.5647 30.7076 54.7509 27.1173 52.9946 27.802C51.6952 28.3114 51.5525 30.9465 52.6376 31.7425L52.6447 31.7346Z" fill="#261B18"/>
<path opacity="0.7" d="M52.8519 29.5691C52.2165 29.4417 51.988 30.596 52.5235 30.9065C53.266 31.3364 53.5658 29.7044 52.8519 29.5691Z" fill="#F0DED1"/>
<path d="M37.8595 27.6347C36.9242 28.3034 37.0027 30.3573 37.6667 31.3205C38.1664 31.233 38.7304 31.233 39.1945 31.5912C41.1292 30.9384 39.6014 26.3928 37.8595 27.6347Z" fill="#261B18"/>
<path opacity="0.7" d="M38.1095 29.195C37.4956 29.1791 37.417 30.3811 37.9525 30.604C38.695 30.9145 38.7949 29.2109 38.1095 29.195Z" fill="#F0DED1"/>
<path d="M34.0042 28.2478C34.0042 28.2478 35.5962 30.1106 38.0664 28.5742C39.1587 27.8975 39.9297 28.9643 39.9297 28.9643C39.9297 28.9643 39.4015 26.8547 37.8094 27.5393C36.9527 27.9055 35.9675 28.9802 34.0042 28.2478Z" fill="#121B21"/>
<path d="M58.235 28.8367C58.235 28.8367 56.3217 30.604 53.9728 28.9004C52.9448 28.1521 52.0381 29.0198 52.0381 29.0198C52.0381 29.0198 52.5164 26.9341 54.1656 27.9292C54.7938 28.3113 56.2574 29.4338 58.2421 28.8447L58.235 28.8367Z" fill="#121B21"/>
<path opacity="0.8" d="M46.2196 36.5666C43.4353 36.3596 40.3869 36.4392 38.6306 35.6909C39.1232 36.1845 40.5511 38.2861 40.6653 38.9469C41.0294 41.1122 42.75 43.5164 46.1269 43.5164C49.6394 43.5164 51.6527 41.8924 53.6588 36.3676C51.7241 37.4184 48.5827 36.7417 46.2196 36.5666Z" fill="#E82525"/>
<path d="M52.9162 37.0683C52.9162 37.0683 47.1405 38.5252 39.2944 36.0732C39.2944 36.0732 40.5581 36.7738 40.9293 38.4535C41.2149 39.7034 41.8645 41.5025 46.398 41.8369C51.4312 42.203 52.9162 37.0683 52.9162 37.0683Z" fill="#8F2621"/>
<path d="M51.5739 37.3626C51.5739 37.3626 51.5525 38.509 50.0104 38.8195C48.0328 39.2095 45.8125 39.1697 43.5422 38.7239C42.0072 38.4214 41.2219 36.7417 41.2219 36.7417C41.2219 36.7417 45.7482 37.705 51.5739 37.3626Z" fill="#FFF9F0"/>
<path d="M49.8605 40.8575C49.989 40.6107 49.9889 40.3241 49.3036 40.4913C48.4897 40.6903 46.9833 40.7858 45.2413 40.6664C43.4993 40.547 43.0995 40.0057 42.7854 40.2524C42.4713 40.5072 43.6707 41.8924 46.4479 41.8844C49.6248 41.8844 49.8605 40.8575 49.8605 40.8575Z" fill="#FFF9F0"/>
<path d="M51.3383 38.0235C51.3383 38.0235 43.5279 37.2115 41.7359 37.522C41.7359 37.522 41.3147 36.9727 41.229 36.7339C41.229 36.7339 45.3484 37.6573 51.581 37.3548C51.581 37.3548 51.5881 37.7131 51.3454 38.0235H51.3383Z" fill="#E8DAC5"/>
<path d="M49.0255 40.7064C49.0255 40.7064 46.6409 41.1681 43.2498 40.4517C43.2498 40.4517 46.2697 41.5502 49.0255 40.7064Z" fill="#E8DAC5"/>
<defs>
<radialGradient id="paint0_radial_167_205" cx="0" cy="0" r="1" gradientUnits="userSpaceOnUse" gradientTransform="translate(47.1693 -51.9778) rotate(-180) scale(15.4433 1.94665)">
<stop/>
<stop offset="0.92"/>
</radialGradient>
</defs>
</svg>
