<svg width="95" height="95" viewBox="0 0 95 95" fill="none" xmlns="http://www.w3.org/2000/svg">
<circle cx="47.5" cy="47.5" r="47.5" fill="#0A4A81"/>
<path d="M31.4042 43.1049C33.8974 44.4796 35.5679 46.6305 37.3797 48.0213C40.5794 50.4877 43.455 46.5658 46.0314 46.5658C50.8101 46.5658 52.4889 51.4338 58.8468 49.1777C57.9243 49.1453 57.1098 48.7572 56.4283 48.1669C60.0103 48.2154 63.2765 47.0753 63.0022 43.0564C62.9025 41.5281 62.2958 40.9459 63.451 39.7167C64.5398 38.5604 66.8917 38.5038 67.0081 36.4984C67.1078 34.6871 64.8306 34.2909 64.4234 32.8111C63.9912 31.2585 65.3792 30.6035 66.2269 29.4957C68.396 26.6574 68.022 24.4337 65.4373 22.2423C64.2405 21.2235 63.4843 20.6008 63.3679 19.0563C63.2432 17.431 63.5674 15.6116 62.8028 14.0995C62.113 12.7329 60.5089 12.4417 59.1958 11.8353C57.7248 11.1479 57.0849 10.0967 56.2205 8.81102C54.5916 6.3528 51.1924 5.74633 48.4831 6.97545C48.2171 5.63313 46.4137 5.059 44.5105 5.0024C42.5325 4.94579 40.2719 5.89996 38.6845 7.03203C36.8062 8.37435 35.4599 10.2261 33.7395 11.7382C30.4152 14.6655 23.3426 17.9485 25.3538 23.5119C26.0935 25.5496 27.4066 26.1156 26.2015 28.3232C25.0879 30.369 24.5061 31.5092 26.2514 33.3771C26.9329 34.1049 27.6726 34.4526 27.6975 35.5281C27.7224 36.5065 26.8082 37.3556 26.8664 38.3744C26.9911 40.5496 29.2018 41.8839 31.3875 43.0887L31.4042 43.1049Z" fill="#231E1A"/>
<path d="M62.8609 50.7786C63.2266 50.8594 62.6449 51.8783 62.4038 52.226C63.8167 51.4174 63.6006 50.4066 63.8998 50.2611C64.307 50.067 64.6062 51.1505 64.6062 51.1586C64.6977 50.9403 64.6893 50.3419 65.0135 50.2934C65.321 50.2449 65.5121 50.819 65.562 51.0373C65.9194 52.7759 64.8639 54.2233 62.4786 55.5495C61.0824 56.3257 60.0768 54.3123 60.4009 52.7921C60.4508 52.5414 62.5036 50.6896 62.8693 50.7705L62.8609 50.7786Z" fill="#FFBC82"/>
<path d="M58.2401 57.0455C56.9602 57.0455 55.5889 56.6088 54.2841 55.7355C53.6608 55.315 53.5029 54.4821 53.9351 53.8757C54.3672 53.2692 55.2232 53.1155 55.8466 53.536C56.5031 53.9808 58.7637 55.2746 60.2513 53.3581C60.7084 52.7678 61.5645 52.6546 62.1712 53.0994C62.7779 53.5441 62.8942 54.377 62.4371 54.9673C61.3733 56.342 59.869 57.0455 58.2401 57.0455Z" fill="#FFBC82"/>
<path d="M54.7161 56.3339C53.2451 55.4606 52.3642 54.0132 51.5829 52.7436C51.0843 51.9269 50.5108 50.997 50.0537 50.7706L51.558 47.8838C52.8794 48.5388 53.6689 49.8326 54.4419 51.0859C55.0569 52.0886 55.6885 53.1156 56.4531 53.5765L54.7161 56.3339Z" fill="#E62628"/>
<path d="M33.6566 65.2451C33.3075 65.1076 34.0804 64.202 34.3796 63.9028C32.8421 64.4446 32.8587 65.4796 32.5429 65.5685C32.1108 65.6898 32.011 64.5658 32.0193 64.5578C31.8947 64.7518 31.7783 65.3502 31.4542 65.334C31.1384 65.3259 31.0636 64.7276 31.0553 64.5011C31.0303 62.7222 32.3435 61.4931 34.9365 60.6117C36.4574 60.0941 37.0641 62.2613 36.4574 63.6925C36.3576 63.927 33.9973 65.3826 33.6483 65.2451H33.6566Z" fill="#FFBC82"/>
<path d="M35.8256 63.1669C35.4267 63.1669 35.0277 62.9971 34.7618 62.6737C34.2881 62.0995 34.3712 61.2586 34.9612 60.7976C36.1331 59.8758 36.9642 58.6305 37.5875 56.892C37.8368 56.1965 38.618 55.8327 39.3328 56.0672C40.0475 56.3098 40.4298 57.0699 40.1805 57.7653C39.391 59.9648 38.2524 61.6305 36.6899 62.8677C36.4323 63.0699 36.1331 63.1669 35.8256 63.1669Z" fill="#FFBC82"/>
<path d="M40.455 57.8622L37.3135 56.8029C37.6875 55.7598 37.9368 54.6763 38.1778 53.625C38.7346 51.1911 39.2582 48.8865 41.3027 47.8838L42.807 50.7706C42.1587 51.086 41.7847 52.7355 41.4191 54.3366C41.1697 55.4202 40.8872 56.6493 40.455 57.8703V57.8622Z" fill="#E62628"/>
<path opacity="0.2" d="M46.0563 87.8949C56.3011 87.8949 64.6062 86.8594 64.6062 85.5822C64.6062 84.3049 56.3011 83.2695 46.0563 83.2695C35.8114 83.2695 27.5063 84.3049 27.5063 85.5822C27.5063 86.8594 35.8114 87.8949 46.0563 87.8949Z" fill="url(#paint0_radial_144_259)"/>
<path d="M42.1086 80.9731C43.6295 81.2804 43.5464 82.7197 43.3303 83.9084C42.9231 86.0674 41.4022 87.9111 39.6652 87.8626C38.6596 87.8383 37.8202 86.0351 38.4352 83.1402C38.859 81.1348 40.5212 80.6496 42.1086 80.9731Z" fill="#292929"/>
<path d="M49.1565 81.3936C47.7769 82.0971 48.2672 83.4718 48.8157 84.5634C49.813 86.5526 52.1484 87.9677 53.8106 87.4583C54.7663 87.1672 54.7165 85.1618 53.3119 82.5176C52.3312 80.6901 50.5942 80.6577 49.1648 81.3936H49.1565Z" fill="#292929"/>
<path d="M45.6409 66.5876C45.6409 69.6199 43.6712 78.6442 43.2972 82.1941C43.2058 83.0916 42.9481 83.6577 42.4329 84.2399C41.1862 85.6469 39.283 85.7359 38.8093 84.0782C38.56 83.1968 38.8342 82.2264 39.0171 81.2075C40.0061 75.6765 41.1197 66.4097 41.1197 66.4097L45.6409 66.5956V66.5876Z" fill="#FFBC82"/>
<path d="M46.9456 66.6683C47.145 69.6278 47.8182 78.4257 48.1839 81.7087C48.3834 83.4634 50.7104 85.2667 52.2729 84.9109C54.0929 84.4985 53.0208 82.4446 52.705 80.2613C51.716 73.5012 51.9155 69.3125 51.7908 66.3853L46.9373 66.6602L46.9456 66.6683Z" fill="#FFBC82"/>
<path d="M51.0678 60.1185C50.8766 58.4204 50.993 57.3692 51.9155 54.0214C52.9128 50.3907 53.0208 48.1993 50.7187 47.4554C48.4748 46.7357 44.3526 46.5012 41.8925 47.5201C39.9312 48.3368 39.3078 49.6548 40.6459 53.6818C41.5767 56.4877 41.8925 58.4365 41.6017 60.078C41.2942 61.8328 39.6901 63.1751 40.1306 68.5848C40.4298 72.3126 39.6486 74.9083 39.2912 77.3665C38.9255 79.8409 52.9211 79.7762 52.6551 77.504C52.3975 75.2479 51.8074 73.0242 52.223 68.1239C52.6053 63.6198 51.3254 62.3826 51.0678 60.1185Z" fill="#E62628"/>
<path d="M48.8736 47.2856C48.3916 46.4527 48.8237 45.1265 48.9069 43.7114C49.098 40.5012 43.405 40.388 43.405 43.8812C43.405 45.4338 43.5297 46.6144 43.1973 47.1157C41.4104 49.8327 50.2532 49.6872 48.8736 47.2775V47.2856Z" fill="#F19960"/>
<path d="M42.1586 52.3073C42.5492 53.496 44.5189 53.8114 46.2476 53.779C49.6467 53.7305 50.9183 52.5014 50.3365 51.0378C50.1869 50.6416 49.4556 50.3747 48.5829 50.6739C46.9706 51.2318 45.0009 50.9974 43.347 50.593C42.3913 50.3585 41.8594 51.4098 42.1503 52.3073H42.1586Z" fill="#FF3B3B"/>
<path d="M32.842 32.9891C33.7229 39.822 40.0392 47.1967 47.677 46.752C56.8605 46.2183 61.4897 36.2641 60.5423 28.1454C59.4701 18.919 54.8742 11.1724 44.4773 12.8543C37.0556 14.0592 31.6535 23.7708 32.842 32.981V32.9891Z" fill="#FFBC82"/>
<path opacity="0.3" d="M45.6324 26.6089C44.0201 26.2692 42.5408 25.9781 41.8094 24.3204C35.5263 28.2342 35.1939 32.6089 33.8475 33.838C28.8278 25.5577 37.4129 13.2261 45.9981 13.2261C61.7306 13.2261 60.218 25.2342 59.8773 28.9054C58.5974 26.3744 57.9824 24.466 55.2398 23.2288C53.1205 22.2665 50.6688 21.0132 49.3889 19.0158C48.8072 22.0078 44.8844 22.8245 45.6324 26.6089Z" fill="#D14F2E"/>
<path d="M40.4215 8.54429C35.676 9.25588 31.9361 13.2262 30.1326 17.2128C28.0798 21.7492 27.7806 26.1238 28.512 32.4958C28.886 35.8031 29.0023 41.8678 31.4042 43.1131C32.3516 43.5983 33.4071 44.698 32.7921 45.9433C31.9859 47.5848 30.7892 46.3476 30.6811 45.256C29.8583 45.9675 30.0246 47.6171 30.7393 48.3207C33.058 50.6091 36.5652 49.0727 37.6623 46.4365C39.125 42.9271 35.8671 41.1239 34.9363 37.9783C33.9224 34.5497 33.7146 31.4365 35.917 28.4122C37.9781 25.574 39.5239 23.2856 42.8982 21.733C41.9092 23.7707 43.8207 27.1427 46.4054 26.1319C44.2362 25.3637 44.8928 23.4958 45.9316 22.0564C46.2973 21.547 49.871 17.9405 49.2892 17.3826C50.6772 18.7411 52.2147 20.0753 53.8935 21.078C55.5307 22.0484 57.0849 22.4122 58.2318 24.0052C58.8219 24.8219 59.254 25.7357 59.5449 26.6899C59.761 27.4015 59.6031 28.6306 60.002 29.229C61.0741 30.8624 63.3347 29.3179 63.584 27.9028C63.9247 25.9783 62.6116 24.9837 61.7888 23.3988C61.0326 21.9432 61.8138 21.0538 61.5146 19.6387C61.1489 17.9001 58.5476 16.113 57.5254 14.5685C56.2455 12.6278 54.7079 10.8812 52.6053 9.75723C48.9651 7.81652 44.4357 7.9459 40.4132 8.54429H40.4215Z" fill="#231E1A"/>
<path d="M47.8763 8.98075C49.1645 7.54948 51.7492 7.04006 53.3449 8.3096C55.165 9.74896 55.647 12.1829 58.024 13.129C60.243 14.0104 62.1379 14.0832 61.9135 16.9457C61.8054 18.3527 61.5228 21.0859 59.6778 20.0751C58.9298 19.6708 58.4146 19.1856 57.5336 19.0239C56.5945 18.846 55.6221 19.0239 54.6747 18.8541C51.8905 18.3608 50.3114 15.9511 49.0316 13.7193C48.5495 14.5522 48.0675 15.1829 47.8431 16.1128C47.6353 16.9862 47.4857 17.8676 47.0619 18.6681C46.4302 19.8649 45.3914 20.8191 44.7514 21.9996C44.7514 22.032 44.7514 22.032 44.7514 21.9996C44.7764 21.1102 44.7847 19.0886 45.275 16.6465C42.1169 20.5522 37.496 23.2692 34.1301 24.1344C32.9416 24.4417 31.454 24.8298 30.3154 24.1668C29.3264 23.5926 28.6698 20.8918 28.7197 19.8649C28.8361 17.2045 31.7532 15.0616 33.914 13.8325C36.4405 12.3851 38.1692 11.1155 40.0641 8.94033C40.9783 7.8972 42.2 6.79748 43.5879 6.65192C44.9426 6.51446 47.1948 6.91875 47.8846 8.98075H47.8763Z" fill="#423631"/>
<path d="M29.8086 36.3045C30.0413 36.1266 30.3737 36.0214 30.8308 36.0134C32.5428 35.9891 32.6093 38.4231 32.6924 39.45C32.7423 40.1212 33.0914 40.8085 33.482 41.3503C28.0882 41.6333 28.7697 37.0888 29.8086 36.3045Z" fill="#423631"/>
<path d="M62.4038 22.8729C62.1212 22.9375 61.8137 23.1154 61.5228 23.4551C60.4174 24.7246 62.304 26.3257 63.0686 27.0373C63.5673 27.4982 63.8914 28.2017 64.0743 28.8405C67.7311 24.9672 63.6919 22.5898 62.4038 22.8729Z" fill="#423631"/>
<path d="M58.8218 46.299C59.6113 45.0618 58.7719 44.1319 58.9049 42.9755C59.0379 41.8273 61.1405 40.8812 61.6309 42.9189C62.0464 44.6413 60.2513 46.1211 58.8218 46.299Z" fill="#423631"/>
<path d="M30.4067 33.7652C30.0576 32.3582 31.1463 31.7193 31.3874 30.5792C31.6284 29.4471 29.933 27.9107 28.8193 29.7059C27.8718 31.218 29.1102 33.1668 30.415 33.7652H30.4067Z" fill="#423631"/>
<path d="M61.0906 38.0509C62.3206 37.2342 61.9549 36.0536 62.5616 35.0509C63.16 34.0563 65.4787 34.024 65.0715 36.0779C64.7224 37.8164 62.4702 38.4552 61.0906 38.0509Z" fill="#423631"/>
<path d="M58.7057 32.9567C58.7971 33.1103 58.8636 33.2802 58.8968 33.4823C59.2293 35.4149 54.999 34.6387 54.5668 33.7896C53.7441 32.1966 55.2068 31.857 56.2789 31.9055C57.1017 31.9459 58.2403 32.14 58.7057 32.9486V32.9567Z" fill="#FF7752"/>
<path d="M41.0117 32.9078C41.1281 33.0614 41.2278 33.2393 41.2943 33.4577C41.9675 35.5358 37.3882 35.5762 36.7898 34.7272C35.6595 33.1342 37.1389 32.4388 38.2775 32.269C39.1501 32.1315 40.3801 32.1153 41.0117 32.9078Z" fill="#FF7752"/>
<path d="M60.0102 26.2934C58.9796 24.6438 54.6413 24.3689 53.054 25.8082C55.1067 26.1074 57.4421 26.2368 60.0102 26.2934Z" fill="#423631"/>
<path opacity="0.4" d="M50.1204 33.5874C50.3863 33.8543 49.6217 34.6305 48.6743 34.7276C47.8349 34.8165 46.7877 33.9432 47.2531 33.6764C47.7185 33.4095 48.0011 33.6764 48.6743 33.6602C49.4305 33.6359 49.8212 33.2721 50.1204 33.5874Z" fill="#D14F2E"/>
<path d="M35.3767 26.3906C36.8727 24.83 41.4187 24.272 42.9479 25.8327C40.3716 26.1481 39.1083 26.1157 35.3767 26.3906Z" fill="#423631"/>
<path d="M40.1305 31.5819C39.5404 31.3474 38.809 31.3474 38.219 31.5819C36.8227 30.5712 37.7452 27.0213 39.7232 27.6925C41.2026 28.1938 41.3522 30.7976 40.1305 31.5819Z" fill="#425361"/>
<path d="M39.3909 28.9699C40.114 28.8486 40.3633 29.9888 39.7566 30.2961C38.9172 30.7247 38.5765 29.1074 39.3909 28.9699Z" fill="#C3D5E3"/>
<path d="M57.3177 27.5227C58.3732 28.1777 58.2901 30.2073 57.5338 31.1696C56.9687 31.0806 56.3287 31.0807 55.8051 31.4365C53.6111 30.7896 55.348 26.3017 57.326 27.5227H57.3177Z" fill="#425361"/>
<path d="M56.5278 28.6064C57.2176 28.5902 57.309 29.7789 56.7023 29.9972C55.8629 30.3045 55.7466 28.6225 56.5278 28.6064Z" fill="#C3D5E3"/>
<path d="M61.6725 28.1293C61.6725 28.1293 59.869 29.973 57.0766 28.4528C55.8465 27.7816 54.9656 28.8328 54.9656 28.8328C54.9656 28.8328 55.564 26.7465 57.3674 27.4258C58.3398 27.7897 59.4535 28.849 61.6725 28.1293Z" fill="#121B21"/>
<path d="M33.7976 28.7115C33.7976 28.7115 35.9585 30.4581 38.618 28.7762C39.7815 28.0403 40.812 28.8894 40.812 28.8894C40.812 28.8894 40.2718 26.8355 38.4019 27.8058C37.6871 28.1778 36.0333 29.2856 33.7893 28.7115H33.7976Z" fill="#121B21"/>
<path opacity="0.7" d="M47.9429 36.2398C45.4496 36.4177 42.1419 37.0807 40.1057 36.0457C42.2167 41.5039 44.3443 43.105 48.0426 43.105C51.5997 43.105 53.4198 40.7196 53.7938 38.5848C53.9101 37.9298 55.4144 35.8597 55.938 35.3665C54.0847 36.1104 50.8683 36.0214 47.9346 36.2317L47.9429 36.2398Z" fill="#FF3B3B"/>
<path d="M40.887 36.9108C40.887 36.9108 46.9705 38.2531 55.2399 35.9971C55.2399 35.9971 53.9101 36.644 53.5112 38.1804C53.212 39.3367 52.5305 40.9863 47.7518 41.2936C42.4411 41.6332 40.887 36.9108 40.887 36.9108Z" fill="#8F2621"/>
<path d="M42.2996 37.1779C42.2996 37.1779 42.3245 38.2372 43.9451 38.5121C46.0312 38.8679 48.3665 38.8356 50.7601 38.4232C52.3724 38.1482 53.2035 36.6038 53.2035 36.6038C53.2035 36.6038 48.433 37.4933 42.2913 37.1779H42.2996Z" fill="#FFF9F0"/>
<path d="M44.1032 40.388C43.9703 40.1616 43.9702 39.8947 44.685 40.0484C45.5493 40.2344 47.1284 40.3152 48.9651 40.2101C50.8018 40.105 51.2257 39.6036 51.5498 39.8301C51.8822 40.0646 50.619 41.3341 47.6852 41.3341C44.3359 41.3341 44.0866 40.388 44.0866 40.388H44.1032Z" fill="#FFF9F0"/>
<path d="M42.5489 37.7844C42.5489 37.7844 50.7767 37.0404 52.6716 37.3234C52.6716 37.3234 53.1121 36.814 53.2118 36.6038C53.2118 36.6038 48.8735 37.4528 42.2996 37.1779C42.2996 37.1779 42.2913 37.5094 42.5489 37.7924V37.7844Z" fill="#E8DAC5"/>
<path d="M44.9844 40.2504C44.9844 40.2504 47.5026 40.6789 51.068 40.0159C51.068 40.0159 47.8849 41.0267 44.9844 40.2504Z" fill="#E8DAC5"/>
<path d="M42.9146 48.0052C42.6985 48.0052 42.4824 47.9162 42.3245 47.7707C42.1749 47.6171 42.0835 47.4068 42.0835 47.1966C42.0835 46.9863 42.1749 46.7761 42.3245 46.6225C42.6403 46.3152 43.1972 46.3233 43.5047 46.6225C43.6543 46.768 43.7457 46.9782 43.7457 47.1966C43.7457 47.4149 43.6543 47.6171 43.5047 47.7626C43.3467 47.9163 43.1307 48.0052 42.9146 48.0052Z" fill="#FFF9F0"/>
<path d="M46.6795 62.1884C46.2224 62.156 45.8734 61.7679 45.9066 61.3231C45.9316 60.8784 46.3305 60.5388 46.7876 60.5711C47.2447 60.6035 47.5937 60.9835 47.5605 61.4283C47.5356 61.8568 47.1699 62.1884 46.7377 62.1884H46.6795ZM47.7516 61.4121C47.5439 61.0158 47.7018 60.5226 48.109 60.3204C48.5246 60.1183 49.0232 60.28 49.231 60.6762C49.4388 61.0725 49.2808 61.5576 48.8653 61.7598C48.749 61.8245 48.616 61.8487 48.4913 61.8487C48.1921 61.8487 47.9012 61.687 47.7516 61.4121ZM44.5603 61.4768C44.1863 61.218 44.0948 60.7086 44.3608 60.3447C44.6267 59.9808 45.1503 59.8999 45.5243 60.1587C45.8983 60.4175 45.9814 60.9188 45.7155 61.2827C45.5576 61.501 45.2999 61.6223 45.0423 61.6223C44.8761 61.6223 44.7099 61.5738 44.5603 61.4768ZM49.3889 60.5388C48.965 60.3609 48.7656 59.8838 48.9484 59.4714C49.1313 59.059 49.6133 58.873 50.0371 59.0509C50.461 59.2207 50.6605 59.6978 50.4776 60.1102C50.3446 60.4175 50.0371 60.6034 49.713 60.6034C49.605 60.6034 49.4969 60.5792 49.3889 60.5388ZM43.2222 59.6008C43.1059 59.1722 43.3718 58.7274 43.8206 58.6142C44.2611 58.501 44.7182 58.7598 44.8345 59.1964C44.9509 59.625 44.6849 60.0698 44.2361 60.183C44.1696 60.1991 44.0949 60.2072 44.0284 60.2072C43.6627 60.2072 43.3219 59.9646 43.2222 59.6008ZM49.1063 58.0563C49.1063 57.6115 49.472 57.2476 49.9374 57.2476C50.3945 57.2476 50.7685 57.6115 50.7685 58.0563C50.7685 58.501 50.3945 58.8649 49.9374 58.8649C49.472 58.8649 49.1063 58.501 49.1063 58.0563ZM43.1059 57.6439C43.1059 57.1911 43.4798 56.8353 43.9369 56.8353C44.394 56.8353 44.768 57.1911 44.768 57.6439C44.768 58.0886 44.394 58.4525 43.9369 58.4525C43.4798 58.4525 43.1059 58.0886 43.1059 57.6439ZM49.1063 56.2935C49.1063 55.8406 49.472 55.4848 49.9374 55.4848C50.3945 55.4848 50.7685 55.8406 50.7685 56.2935C50.7685 56.7382 50.3945 57.1021 49.9374 57.1021C49.472 57.1021 49.1063 56.7382 49.1063 56.2935ZM43.1059 55.873C43.1059 55.4282 43.4798 55.0644 43.9369 55.0644C44.394 55.0644 44.768 55.4282 44.768 55.873C44.768 56.3258 44.394 56.6816 43.9369 56.6816C43.4798 56.6816 43.1059 56.3258 43.1059 55.873ZM49.1063 54.5226C49.1063 54.0778 49.472 53.7139 49.9374 53.7139C50.3945 53.7139 50.7685 54.0778 50.7685 54.5226C50.7685 54.9754 50.3945 55.3312 49.9374 55.3312C49.472 55.3312 49.1063 54.9754 49.1063 54.5226ZM43.1059 54.1102C43.1059 53.6654 43.4798 53.3015 43.9369 53.3015C44.394 53.3015 44.768 53.6654 44.768 54.1102C44.768 54.5549 44.394 54.9188 43.9369 54.9188C43.4798 54.9188 43.1059 54.5549 43.1059 54.1102ZM49.1063 52.7598C49.1063 52.315 49.472 51.9511 49.9374 51.9511C50.3945 51.9511 50.7685 52.315 50.7685 52.7598C50.7685 53.2045 50.3945 53.5684 49.9374 53.5684C49.472 53.5684 49.1063 53.2045 49.1063 52.7598ZM43.1059 52.3474C43.1059 51.9026 43.4798 51.5387 43.9369 51.5387C44.394 51.5387 44.768 51.9026 44.768 52.3474C44.768 52.7921 44.394 53.156 43.9369 53.156C43.4798 53.156 43.1059 52.7921 43.1059 52.3474ZM49.1063 50.997C49.1063 50.5441 49.472 50.1883 49.9374 50.1883C50.3945 50.1883 50.7685 50.5441 50.7685 50.997C50.7685 51.4417 50.3945 51.8056 49.9374 51.8056C49.472 51.8056 49.1063 51.4417 49.1063 50.997ZM43.0477 50.6816C42.9895 50.2369 43.3136 49.8325 43.7707 49.784C44.2278 49.7274 44.6434 50.0428 44.6932 50.4875C44.7514 50.9323 44.4273 51.3366 43.9702 51.3851C43.9702 51.3851 43.9037 51.3851 43.8705 51.3851C43.4549 51.3851 43.0975 51.0859 43.0477 50.6735V50.6816ZM49.0565 49.2989C49.0149 48.8541 49.3556 48.466 49.8127 48.4255C50.2698 48.3851 50.6688 48.7166 50.7103 49.1614C50.7519 49.6061 50.4111 50.0024 49.954 50.0347C49.954 50.0347 49.9042 50.0347 49.8792 50.0347C49.4554 50.0347 49.0897 49.7112 49.0565 49.2908V49.2989ZM42.6903 49.0967C42.5573 48.6681 42.8067 48.2153 43.2471 48.0859C43.6876 47.9565 44.153 48.2072 44.286 48.6277C44.419 49.0562 44.1696 49.5091 43.7292 49.6385C43.6461 49.6627 43.5713 49.6708 43.4881 49.6708C43.1308 49.6708 42.7983 49.4444 42.6903 49.0967Z" fill="#FFF9F0"/>
<path d="M49.4473 48.345C49.2312 48.345 49.0151 48.256 48.8572 48.1104C48.7076 47.9568 48.6162 47.7466 48.6162 47.5363C48.6162 47.3261 48.7076 47.1158 48.8572 46.9622C49.1647 46.663 49.7216 46.663 50.0374 46.9622C50.187 47.1158 50.2784 47.3261 50.2784 47.5363C50.2784 47.7466 50.187 47.9568 50.0374 48.1104C49.8795 48.256 49.6634 48.345 49.4473 48.345Z" fill="#FFF9F0"/>
<path d="M70.0001 86.2694C70.0001 86.9325 66.7921 87.4743 62.8444 87.4743C58.8967 87.4743 55.6887 86.9325 55.6887 86.2694C55.6887 85.6064 61.282 84.2317 62.8444 84.2317C64.4069 84.2317 70.0001 85.6064 70.0001 86.2694Z" fill="#292929"/>
<path d="M62.8443 85.0404C62.3872 85.0404 62.0132 84.6766 62.0132 84.2318V52.0242C62.0132 51.5795 62.3872 51.2156 62.8443 51.2156C63.3014 51.2156 63.6754 51.5795 63.6754 52.0242V84.2318C63.6754 84.6766 63.3014 85.0404 62.8443 85.0404Z" fill="#CFCFCF"/>
<path d="M61.6642 84.7654C61.1655 84.822 57.9243 85.6549 57.2178 85.8975C56.5114 86.1401 57.0267 86.5201 58.3149 86.7061C59.603 86.8921 65.8944 87.1104 68.4292 86.5039C65.562 86.6252 61.8886 86.7061 61.2071 86.3018C60.5256 85.8975 60.75 85.194 61.6642 84.7654Z" fill="#4F4F4F"/>
<path d="M60.5856 49.9642L61.7973 48.7421C62.2186 48.3172 62.9119 48.3051 63.3485 48.715L64.3295 49.6357C64.7661 50.0455 64.7786 50.7201 64.3574 51.1449L63.1456 52.3671C62.7244 52.7919 62.0311 52.8041 61.5945 52.3942L60.6135 51.4735C60.1769 51.0637 60.1644 50.3891 60.5856 49.9642Z" fill="#4F4F4F"/>
<path d="M62.9151 51.4198L63.3074 51.024C63.6247 50.7039 64.1418 50.6948 64.4708 51.0035L66.9116 53.2936C67.2407 53.6024 67.2501 54.1054 66.9328 54.4256L66.5405 54.8214C66.2232 55.1415 65.7061 55.1507 65.3771 54.842L62.9363 52.5518C62.6072 52.2431 62.5978 51.74 62.9151 51.4198Z" fill="#292929"/>
<path d="M66.4181 53.1722C66.6758 53.4148 66.7672 53.7221 66.6259 53.8677L66.4514 54.0456C66.3101 54.1911 65.986 54.1102 65.7283 53.8677L63.8168 52.0725C63.5592 51.8299 63.4678 51.5226 63.6091 51.3771L63.7836 51.1992C63.9249 51.0536 64.249 51.1345 64.5066 51.3771L66.4181 53.1722Z" fill="#4F4F4F"/>
<path d="M52.9848 42.379L53.6946 41.6632C54.9582 40.3887 57.05 40.3521 58.3599 41.5816L62.4033 45.3767C63.7132 46.6062 63.7508 48.6415 62.4872 49.916L61.7775 50.6318C60.5138 51.9063 58.422 51.9429 57.1121 50.7134L53.0687 46.9183C51.7588 45.6888 51.7212 43.6535 52.9848 42.379Z" fill="#999999"/>
<path d="M53.8021 42.4417L53.6775 42.5629C52.6552 43.5899 52.7466 45.2961 53.8769 46.3635L57.3758 49.6546C58.5061 50.7139 60.268 50.7382 61.2819 49.7112L61.8554 49.1371C62.1961 48.7975 62.4039 48.3689 62.4953 47.9241C58.2817 48.288 53.985 46.6789 53.7938 42.4417H53.8021Z" fill="#4F4F4F"/>
<path d="M53.6358 42.6117L54.201 42.0295C55.2066 40.9944 56.9685 41.0106 58.1071 42.0618L59.6031 43.4446C57.3757 43.6791 55.2481 44.5443 53.3532 45.7734C52.7299 44.7545 52.8047 43.4607 53.6275 42.6117H53.6358Z" fill="#F5F5F5"/>
<path d="M53.7523 46.8245C53.611 46.8245 53.4781 46.7759 53.37 46.6708C53.154 46.4687 53.1456 46.129 53.3534 45.9107L55.0738 44.1722C55.2815 43.9619 55.6306 43.9538 55.855 44.156C56.0711 44.3581 56.0794 44.6977 55.8716 44.9161L54.1513 46.6546C54.0432 46.7597 53.9019 46.8164 53.7523 46.8164V46.8245Z" fill="#292929"/>
<path d="M56.7028 43.8571C56.5615 43.8571 56.4285 43.8085 56.3205 43.7034C56.1044 43.5013 56.0961 43.1616 56.3039 42.9433L57.4757 41.7627C57.6835 41.5525 58.0325 41.5444 58.2569 41.7466C58.473 41.9487 58.4813 42.2883 58.2735 42.5067L57.1017 43.6873C56.9937 43.7924 56.8524 43.849 56.7028 43.849V43.8571Z" fill="#292929"/>
<path d="M55.0155 48.0132C54.8742 48.0132 54.7413 47.9647 54.6332 47.8595C54.4171 47.6574 54.4088 47.3177 54.6166 47.0994L56.337 45.3609C56.5447 45.1506 56.8938 45.1425 57.1182 45.3447C57.3342 45.5468 57.3426 45.8865 57.1348 46.1048L55.4144 47.8433C55.3064 47.9485 55.1651 48.0051 55.0155 48.0051V48.0132Z" fill="#292929"/>
<path d="M57.966 45.0375C57.8247 45.0375 57.6917 44.989 57.5837 44.8839C57.3676 44.6817 57.3593 44.3421 57.567 44.1238L58.7389 42.9431C58.9466 42.7329 59.2957 42.7248 59.5201 42.927C59.7362 43.1291 59.7445 43.4688 59.5367 43.6871L58.3649 44.8677C58.2568 44.9728 58.1156 45.0294 57.966 45.0294V45.0375Z" fill="#292929"/>
<path d="M56.2787 49.2019C56.1374 49.2019 56.0044 49.1534 55.8964 49.0483C55.6803 48.8461 55.672 48.5065 55.8798 48.2881L57.6001 46.5496C57.8079 46.3394 58.157 46.3313 58.3731 46.5334C58.5891 46.7356 58.5974 47.0752 58.3897 47.2855L56.6693 49.024C56.5613 49.1291 56.42 49.1857 56.2704 49.1857L56.2787 49.2019Z" fill="#292929"/>
<path d="M59.2291 46.2262C59.0878 46.2262 58.9549 46.1777 58.8468 46.0806C58.6307 45.8785 58.6224 45.5388 58.8302 45.3205L60.002 44.1399C60.2098 43.9297 60.5589 43.9216 60.7833 44.1238C60.9993 44.3259 61.0077 44.6655 60.7999 44.8839L59.6281 46.0645C59.52 46.1696 59.3787 46.2262 59.2291 46.2262Z" fill="#292929"/>
<path d="M57.5421 50.3823C57.4008 50.3823 57.2679 50.3338 57.1598 50.2287C56.9438 50.0265 56.9354 49.6869 57.1432 49.4685L58.8636 47.73C59.0713 47.5198 59.4204 47.5117 59.6448 47.7138C59.8609 47.916 59.8692 48.2556 59.6614 48.4739L57.9411 50.2125C57.833 50.3176 57.6917 50.3742 57.5421 50.3742V50.3823Z" fill="#292929"/>
<path d="M60.4926 47.4149C60.3513 47.4149 60.2183 47.3664 60.1103 47.2613C59.8942 47.0591 59.8859 46.7195 60.0936 46.5012L61.2655 45.3206C61.4733 45.1103 61.8223 45.1023 62.0467 45.3044C62.2628 45.5066 62.2711 45.8462 62.0633 46.0645L60.8915 47.2451C60.7834 47.3502 60.6422 47.4069 60.4926 47.4069V47.4149Z" fill="#292929"/>
<path d="M54.4005 44.0188C54.2592 44.0188 54.1263 43.9703 54.0182 43.8652L53.2204 43.1131C53.0043 42.911 52.996 42.5714 53.2037 42.3611C53.4115 42.1509 53.7606 42.1428 53.985 42.3449L54.7828 43.097C54.9989 43.2991 55.0072 43.6387 54.7994 43.8571C54.6914 43.9622 54.5501 44.0188 54.4005 44.0188Z" fill="#292929"/>
<path d="M55.5475 42.8704C55.4062 42.8704 55.2732 42.8218 55.1652 42.7167L54.3673 41.9647C54.1513 41.7625 54.143 41.4229 54.3507 41.2127C54.5585 41.0024 54.9076 40.9943 55.1236 41.1965L55.9215 41.9485C56.1376 42.1507 56.1459 42.4903 55.9381 42.7086C55.8301 42.8138 55.6888 42.8704 55.5392 42.8704H55.5475Z" fill="#292929"/>
<defs>
<radialGradient id="paint0_radial_144_259" cx="0" cy="0" r="1" gradientUnits="userSpaceOnUse" gradientTransform="translate(48.9242 -2.03372) scale(18.0332 1.90714)">
<stop/>
<stop offset="0.92"/>
</radialGradient>
</defs>
</svg>
