<svg width="95" height="95" viewBox="0 0 95 95" fill="none" xmlns="http://www.w3.org/2000/svg">
<circle cx="47.5" cy="47.5" r="47.5" fill="#0A4A81"/>
<path fill-rule="evenodd" clip-rule="evenodd" d="M67.8472 32.694C66.8695 33.7738 65.7313 34.7375 64.4527 35.5195C64.2972 35.6356 64.0816 35.6507 63.9061 35.5347C62.0208 34.3288 60.4313 32.8757 59.1878 31.2964C57.468 29.1268 56.3849 26.7201 56.0139 24.4042C55.6378 22.0529 55.9888 19.7925 57.1521 17.9509C57.6134 17.2294 58.2 16.5634 58.9121 15.9932C60.5517 14.6814 62.4219 13.9851 64.2922 14.0002C66.0873 14.0154 67.8623 14.6864 69.3966 16.0941C69.9381 16.5886 70.3894 17.1487 70.7604 17.7642C72.0089 19.8379 72.2797 22.4768 71.7281 25.156C71.1866 27.8049 69.8428 30.4942 67.8472 32.694ZM28.9727 60.4496C27.995 61.5294 26.8568 62.4931 25.5782 63.2751C25.4228 63.3912 25.2071 63.4063 25.0317 63.2903C23.1463 62.0793 21.5569 60.6312 20.3134 59.052C18.5985 56.8874 17.5155 54.4807 17.1444 52.1598C16.7684 49.8085 17.1194 47.5481 18.2826 45.7115C18.7389 44.985 19.3256 44.324 20.0426 43.7539C21.6822 42.442 23.5525 41.7457 25.4177 41.7609C27.2128 41.776 28.9878 42.4471 30.5221 43.8548C31.0636 44.3492 31.5149 44.9093 31.886 45.5249C33.1345 47.5986 33.4052 50.2374 32.8537 52.9166C32.3122 55.5605 30.9684 58.2497 28.9727 60.4496ZM25.5581 65.9896C27.8195 65.9896 29.7299 67.5134 30.3316 69.5922H60.4012C61.8854 69.5922 63.2392 68.9816 64.222 67.9927C65.2048 67.0038 65.8115 65.6465 65.8115 64.148C65.8115 62.6545 65.2048 61.2922 64.222 60.3033C63.2392 59.3144 61.8904 58.7038 60.4012 58.7038H49.8816C47.52 58.7038 45.3739 57.7351 43.8196 56.171C42.2652 54.6069 41.3025 52.4474 41.3025 50.0709C41.3025 47.6944 42.2652 45.535 43.8196 43.9708C45.3739 42.4067 47.52 41.438 49.8816 41.438H59.3934C60.0452 39.4399 61.9155 37.9969 64.1167 37.9969C66.8644 37.9969 69.0907 40.2371 69.0907 43.0021C69.0907 45.767 66.8644 48.0073 64.1167 48.0073C61.9356 48.0073 60.0854 46.5945 59.4135 44.6318H49.8816C48.3974 44.6318 47.0436 45.2423 46.0609 46.2312C45.0781 47.2202 44.4714 48.5774 44.4714 50.076C44.4714 51.5694 45.0781 52.9317 46.0609 53.9207C47.0336 54.8995 48.3724 55.51 49.8465 55.5201H60.4063C62.7679 55.5201 64.914 56.4888 66.4683 58.053C68.0227 59.6171 68.9854 61.7766 68.9854 64.153C68.9854 66.5295 68.0227 68.689 66.4683 70.2531C64.914 71.8172 62.7679 72.786 60.4063 72.786H30.2062C29.4892 74.668 27.6791 76 25.5581 76C22.8104 76 20.5841 73.7598 20.5841 70.9948C20.5841 68.2299 22.8104 65.9896 25.5581 65.9896ZM25.0617 45.9386C27.278 45.9386 29.073 47.7449 29.073 49.975C29.073 52.2052 27.278 54.0115 25.0617 54.0115C22.8455 54.0115 21.0504 52.2052 21.0504 49.975C21.0504 47.7449 22.8455 45.9386 25.0617 45.9386ZM63.9362 18.178C66.1524 18.178 67.9475 19.9843 67.9475 22.2144C67.9475 24.4445 66.1524 26.2508 63.9362 26.2508C61.72 26.2508 59.9249 24.4445 59.9249 22.2144C59.9249 19.9843 61.72 18.178 63.9362 18.178Z" fill="#C3DEDE"/>
</svg>
