<svg width="95" height="95" viewBox="0 0 95 95" fill="none" xmlns="http://www.w3.org/2000/svg">
<circle cx="47.5" cy="47.5" r="47.5" fill="#0A4A81"/>
<path opacity="0.2" d="M28.293 85.7341C28.293 86.986 35.4999 88.0001 44.3948 88.0001C53.2898 88.0001 60.4895 86.986 60.4895 85.7341C60.4895 84.4822 53.2826 83.468 44.3948 83.468C35.5071 83.468 28.293 84.4822 28.293 85.7341Z" fill="url(#paint0_radial_163_337)"/>
<path d="M40.2541 80.1799C43.4067 79.5856 43.3634 84.7199 41.127 86.8434C38.8546 88.9985 35.9545 87.7625 37.2169 84.2842C37.8662 82.4935 38.6093 80.4889 40.2541 80.1799Z" fill="#0D0F12"/>
<path d="M37.6641 84.3076C37.7579 84.0778 37.895 83.8718 38.0825 83.6975C38.4505 84.1967 39.6408 84.1808 40.1746 84.2442C40.7662 84.3155 41.5742 84.4265 40.8455 85.1713C40.254 85.7814 39.3089 86.2251 38.5082 86.1458C37.6136 86.0507 37.3467 85.092 37.6641 84.3076Z" fill="#252728"/>
<path d="M38.2631 71.7018C38.3424 70.9412 38.3713 69.9349 38.3641 69.3169C38.2991 61.6867 50.8372 61.6867 50.7723 69.3169C50.7723 69.9349 50.8011 70.9412 50.8733 71.7018C51.1835 74.7761 45.0371 75.1009 44.9649 72.3515C44.9649 72.3515 44.9217 71.789 44.9 71.575C44.8495 71.1155 44.2869 71.1155 44.2364 71.575C44.2147 71.789 44.1714 72.3515 44.1714 72.3515C44.0993 75.1009 37.9529 74.784 38.2631 71.7018Z" fill="#272733"/>
<path d="M44.1711 72.3431C44.1855 73.4286 43.8681 80.2348 43.998 82.6355C42.4469 83.7052 38.5297 83.5467 36.8921 81.9462C37.5197 79.5692 37.9381 75.1321 38.2844 71.4953C38.3782 70.497 44.1639 71.1546 44.1783 72.3431H44.1711Z" fill="#3A3A4A"/>
<path d="M48.8746 80.1799C45.7292 79.5856 45.7653 84.7199 48.0017 86.8434C50.2741 88.9985 53.1742 87.7625 51.9189 84.2842C51.2696 82.4935 50.5266 80.4889 48.8746 80.1799Z" fill="#0D0F12"/>
<path d="M51.4647 84.3076C51.3709 84.0778 51.2338 83.8718 51.0463 83.6975C50.6784 84.1967 49.488 84.1808 48.9542 84.2442C48.3626 84.3155 47.5546 84.4265 48.2761 85.1713C48.8676 85.7814 49.8126 86.2251 50.6134 86.1458C51.508 86.0507 51.7749 85.092 51.4574 84.3076H51.4647Z" fill="#252728"/>
<path d="M44.9574 72.3431C44.943 73.4286 45.2604 80.2348 45.1305 82.6355C46.6816 83.7052 50.606 83.5467 52.2364 81.9462C51.6088 79.5692 51.1904 75.1321 50.8441 71.4953C50.7503 70.497 44.9646 71.1546 44.9502 72.3431H44.9574Z" fill="#3A3A4A"/>
<path d="M53.2539 65.2127C52.5903 65.8941 53.8455 65.1731 54.0691 65.9734C54.2928 66.7816 51.5731 68.1523 50.9527 65.5455C50.3322 62.9308 51.7678 61.8136 54.0691 61.8057C56.3632 61.7978 53.9248 64.5234 53.2611 65.2048L53.2539 65.2127Z" fill="#D47844"/>
<path d="M54.271 65.1175L52.4963 61.6708C53.4414 61.0845 54.5884 60.0069 54.7183 58.2004C54.8698 56.1007 53.5713 53.6762 51.1401 51.5369L53.3981 48.4468C56.8248 51.4656 58.5634 55.039 58.3109 58.5173C58.1089 61.2747 56.6733 63.62 54.271 65.1175Z" fill="#3A3A4A"/>
<path d="M53.4391 60.7124L52.7441 61.2793L55.0668 64.7142L55.7618 64.1473L53.4391 60.7124Z" fill="#E0A859"/>
<path d="M54.1326 59.8668L53.5269 60.5461L56.3102 63.5397L56.9159 62.8604L54.1326 59.8668Z" fill="#E0A859"/>
<path d="M54.738 58.9148L54.2175 59.6746L57.3303 62.2471L57.8508 61.4874L54.738 58.9148Z" fill="#E0A859"/>
<path d="M36.2936 69.5783C35.9906 69.7843 35.702 68.5562 35.6227 68.1046C35.2042 69.7606 36.0339 70.4103 35.9329 70.7272C35.7886 71.1709 34.8435 70.537 34.8363 70.5291C34.9229 70.7668 35.3341 71.2343 35.1465 71.5037C34.9662 71.7652 34.4468 71.4482 34.2664 71.3056C32.838 70.1884 32.5855 68.2868 33.3214 65.5216C33.7542 63.8973 35.8102 64.7688 36.611 66.195C36.7408 66.4327 36.5966 69.3644 36.2936 69.5704V69.5783Z" fill="#D47844"/>
<path d="M36.5968 65.7511H32.9897V55.4349C32.9897 53.874 32.9898 49.7142 36.0341 47.9631L37.7077 51.4732C36.7194 52.0437 36.5896 53.8898 36.5896 55.4428V65.759L36.5968 65.7511Z" fill="#3A3A4A"/>
<path d="M36.7265 64.1187H32.7588V65.0695H36.7265V64.1187Z" fill="#E0A859"/>
<path d="M36.7265 62.7878H32.7588V63.7386H36.7265V62.7878Z" fill="#E0A859"/>
<path d="M36.7265 61.449H32.7588V62.3998H36.7265V61.449Z" fill="#E0A859"/>
<path d="M49.4085 45.8715C51.313 48.0663 51.8468 50.7048 48.9828 54.5476C46.1189 58.3983 44.0989 58.8579 44.0989 58.8579C41.3504 58.3349 37.8659 50.4274 38.9264 46.8699C40.2827 42.3456 47.504 43.6688 49.4085 45.8636V45.8715Z" fill="#D4D4D4"/>
<path d="M44.6473 49.1123C43.2405 48.7478 42.7572 50.2612 42.7572 50.2612L43.3848 52.0598L41.9636 57.2971L43.7383 62.6137L46.1694 57.5348L45.0513 52.345L46.0901 50.903C46.0901 50.903 45.9097 49.4213 44.6545 49.0965L44.6473 49.1123Z" fill="#4986C2"/>
<path d="M53.6723 48.8189C53.4343 48.1454 50.7579 46.3151 49.3078 45.4277C49.4449 45.6971 49.5531 45.9982 49.6397 46.3231C50.6929 50.2055 44.395 60.4346 44.395 60.4346C44.395 60.4346 38.0971 50.2134 39.1504 46.3231C39.2369 45.9982 39.3452 45.7051 39.4822 45.4277C38.025 46.3151 35.3486 48.1454 35.1177 48.8189C34.9734 49.2309 35.601 51.8932 36.0916 53.4303C36.3441 54.2227 36.0195 56.3303 36.4307 57.7406C36.9212 59.4441 37.7581 59.7373 37.7581 61.5438C37.7581 64.5072 37.0367 65.2757 37.0078 68.762C37.8735 69.3166 43.0244 69.9743 44.4022 69.0472C45.7801 69.9663 50.931 69.3166 51.7967 68.762C51.7606 65.2757 51.0464 64.5072 51.0464 61.5438C51.0464 59.7373 51.8833 59.4521 52.3738 57.7406C52.785 56.3303 52.4604 54.2227 52.7129 53.4303C53.2035 51.9011 53.8311 49.2389 53.6868 48.8189H53.6723Z" fill="#3A3A4A"/>
<path d="M44.0847 63.3902C44.0847 63.826 44.3949 64.1826 44.7845 64.1826C45.174 64.1826 45.4843 63.826 45.4843 63.3902C45.4843 62.9545 45.174 62.5979 44.7845 62.5979C44.3949 62.5979 44.0847 62.9545 44.0847 63.3902Z" fill="#E0A859"/>
<path d="M44.0847 66.7574C44.0847 67.1932 44.3949 67.5498 44.7845 67.5498C45.174 67.5498 45.4843 67.1932 45.4843 66.7574C45.4843 66.3216 45.174 65.9651 44.7845 65.9651C44.3949 65.9651 44.0847 66.3216 44.0847 66.7574Z" fill="#E0A859"/>
<path d="M40.0952 45.2937C40.0952 45.2937 37.6425 46.2049 36.8201 49.9368L39.2584 50.9589C39.2584 50.9589 38.0104 54.3659 37.9743 54.8572C37.9527 55.1662 44.2362 60.6967 44.2362 60.6967C44.2362 60.6967 44.7916 60.5541 44.6762 59.9123C44.5608 59.2705 40.0664 53.2408 40.0881 45.2937H40.0952Z" fill="#272733"/>
<path d="M40.0953 44.8416C40.0953 44.8416 37.9888 46.3311 37.1736 49.4133L39.6552 50.7999C39.6552 50.7999 38.5803 53.8742 38.5443 54.3733C38.5226 54.6744 44.2506 60.6962 44.2506 60.6962C44.2506 60.6962 44.8566 60.6249 44.7412 59.9831C44.6257 59.3413 40.0809 52.7887 40.1025 44.8495L40.0953 44.8416Z" fill="#636375"/>
<path d="M48.6944 45.2937C48.6944 45.2937 51.1472 46.2049 51.9696 49.9368L49.5312 50.9589C49.5312 50.9589 50.7793 54.3659 50.8154 54.8572C50.837 55.1662 44.0774 61.1959 44.0774 61.1959C44.0774 61.1959 43.998 60.5541 44.1134 59.9123C44.2289 59.2705 48.7233 53.2408 48.7016 45.2937H48.6944Z" fill="#272733"/>
<path d="M48.6946 44.8416C48.6946 44.8416 50.8011 46.3311 51.6163 49.4133L49.1346 50.7999C49.1346 50.7999 50.2167 53.8742 50.2528 54.3733C50.2744 54.6744 44.0703 61.2033 44.0703 61.2033C44.0703 61.2033 43.9333 60.6328 44.0487 59.991C44.1641 59.3492 48.709 52.7966 48.6873 44.8574L48.6946 44.8416Z" fill="#636375"/>
<path opacity="0.1" d="M39.5541 47.5199C39.7272 48.4073 40.124 49.9682 42.1728 52.4482L44.3154 49.9603L46.3281 52.5909C46.3281 52.5909 48.0956 51.1171 48.7737 48.1696C49.6611 44.2951 39.0275 44.7467 39.5541 47.5199Z" fill="url(#paint1_radial_163_337)"/>
<path d="M44.3154 49.9602L42.2954 51.6954C42.2954 51.6954 38.2988 48.8588 39.8138 44.7862C41.17 41.1257 47.9513 41.4188 49.1055 45.4676C50.1011 48.9618 46.4724 51.8063 46.4724 51.8063L44.3082 49.9602H44.3154Z" fill="#E8E8E8"/>
<path d="M47.4968 47.2422C47.1 47.781 46.458 48.3119 45.7943 48.5892C45.3182 48.7873 44.4885 49.5479 44.337 49.5559C44.2793 49.5559 44.0052 49.2231 43.5507 48.9141C42.8943 48.4545 41.9636 47.8365 41.6029 46.8698C41.0763 45.4516 40.6002 42.6467 41.6029 41.5374C42.6345 40.3965 44.6545 40.2142 45.8953 40.5866C47.1866 40.9749 48.0379 42.6546 48.1317 44.3819C48.1966 45.721 48.0451 46.4975 47.4968 47.2422Z" fill="#C2673C"/>
<path opacity="0.3" d="M52.4458 55.7757C52.3953 55.4746 51.2987 55.5618 50.9235 55.5618C50.5484 55.5618 50.1445 55.8787 49.9136 56.4492C49.9136 55.9738 49.726 55.8232 49.5024 55.8232C49.2788 55.8232 49.0912 55.9659 49.0912 56.4492C48.8675 55.8787 48.4563 55.5618 48.0812 55.5618C47.7061 55.5618 46.6095 55.4746 46.559 55.7757C46.5085 56.0768 47.2011 56.1877 47.2011 56.1877C47.2011 56.1877 46.7033 56.1798 46.7033 56.3937C46.7033 56.7106 47.468 56.8533 47.468 56.8533C47.468 56.8533 47.0496 56.8691 47.0496 57.091C47.0496 57.4158 48.0668 57.6773 49.1128 57.7328C49.1561 58.0655 49.3076 58.1923 49.5096 58.1923C49.7116 58.1923 49.8631 58.0735 49.9064 57.7328C50.9524 57.6773 51.9696 57.4158 51.9696 57.091C51.9696 56.877 51.5512 56.8533 51.5512 56.8533C51.5512 56.8533 52.3159 56.7106 52.3159 56.3937C52.3159 56.1798 51.8181 56.1877 51.8181 56.1877C51.8181 56.1877 52.5106 56.0768 52.4602 55.7757H52.4458Z" fill="url(#paint2_radial_163_337)"/>
<path d="M52.4458 55.4666C52.3953 55.1893 51.2987 55.2685 50.9235 55.2685C50.5484 55.2685 50.1445 55.5617 49.9136 56.0846C49.9136 55.6409 49.726 55.5142 49.5024 55.5142C49.2788 55.5142 49.0912 55.6489 49.0912 56.0846C48.8675 55.5617 48.4563 55.2685 48.0812 55.2685C47.7061 55.2685 46.6095 55.1893 46.559 55.4666C46.5085 55.7439 47.2011 55.8469 47.2011 55.8469C47.2011 55.8469 46.7033 55.839 46.7033 56.0371C46.7033 56.3303 47.468 56.457 47.468 56.457C47.468 56.457 47.0496 56.4729 47.0496 56.671C47.0496 56.9721 48.0668 57.2098 49.1128 57.2652C49.1561 57.5742 49.3076 57.6852 49.5096 57.6852C49.7116 57.6852 49.8631 57.5742 49.9064 57.2652C50.9524 57.2177 51.9696 56.9721 51.9696 56.671C51.9696 56.4729 51.5512 56.457 51.5512 56.457C51.5512 56.457 52.3159 56.3223 52.3159 56.0371C52.3159 55.839 51.8181 55.8469 51.8181 55.8469C51.8181 55.8469 52.5106 55.7439 52.4602 55.4666H52.4458Z" fill="#E0A859"/>
<path d="M50.2888 55.8865C50.397 55.6805 50.7505 55.4666 51.0679 55.4587C51.3853 55.4587 52.049 55.4191 52.0346 55.5617C52.0274 55.7043 51.7749 55.6726 51.6378 55.7122C51.5079 55.7518 51.5224 55.8469 51.6667 55.8548C51.811 55.8548 51.9192 55.9658 51.8975 56.0767C51.8759 56.1876 51.7027 56.2668 51.4214 56.3461C50.534 56.5996 50.0147 56.4412 50.2816 55.8944L50.2888 55.8865Z" fill="#F2DCB6"/>
<path d="M48.7162 55.8865C48.608 55.6805 48.2546 55.4666 47.9372 55.4587C47.6197 55.4587 46.956 55.4191 46.9704 55.5617C46.9777 55.7043 47.2301 55.6726 47.3672 55.7122C47.4971 55.7518 47.4827 55.8469 47.3384 55.8548C47.1941 55.8548 47.0859 55.9658 47.1075 56.0767C47.1292 56.1876 47.3023 56.2668 47.5836 56.3461C48.471 56.5996 48.9904 56.4412 48.7235 55.8944L48.7162 55.8865Z" fill="#F2DCB6"/>
<path d="M49.5674 56.1559C49.4736 56.2668 49.3509 56.2906 49.3004 56.2034C49.2499 56.1163 49.2211 55.8944 49.3149 55.7835C49.4087 55.6647 49.5962 55.7043 49.6467 55.7835C49.6972 55.8707 49.6612 56.037 49.5602 56.148L49.5674 56.1559Z" fill="#F2DCB6"/>
<path d="M42.5481 2C54.4874 2 63 12.237 63 23.2821C63 33.2893 52.4819 33.8043 43.4282 33.8043C31.157 33.8043 28.8846 29.1692 28.1704 23.2821C26.7709 11.7536 34.2086 2 42.5481 2Z" fill="#636375"/>
<path d="M57.9287 26.7922C62.1201 27.6638 63.4547 32.6872 60.6268 34.3986C61.983 36.538 60.7783 39.0497 58.3544 38.3841C59.8621 41.3395 57.6906 42.4171 55.6707 41.8308C56.4715 44.3821 53.6652 46.2916 51.3927 44.1523C50.2818 46.8462 45.571 44.8733 43.4861 44.8733C41.4012 44.8733 36.6616 46.767 36.3369 42.9242C34.4613 43.8116 32.1528 42.6865 33.1411 39.9846C31.2727 40.6026 30.1689 37.9008 32.0445 36.3716C29.2455 36.3478 29.4042 33.852 31.0851 32.3624C28.3509 32.5684 27.6728 28.6701 32.1167 27.4103C32.1167 27.4103 28.892 11.627 43.8612 11.627C58.8305 11.627 57.9287 26.7843 57.9287 26.7843V26.7922Z" fill="#231E1A"/>
<path d="M55.8944 30.5478C55.4039 40.2856 49.6831 46.3311 43.2553 46.545C38.3209 46.7114 32.3476 37.7818 33.1195 28.0598C33.8842 18.4647 38.6528 13.4334 45.0517 14.0514C51.4578 14.6773 56.385 20.8021 55.8872 30.5478H55.8944Z" fill="#D47844"/>
<path d="M57.1637 35.4682C53.8163 36.9023 54.2564 34.3985 55.086 30.421C55.4828 28.5194 56.1825 27.1883 57.5965 27.7587C60.5398 28.9472 59.5155 34.4619 57.1709 35.4682H57.1637Z" fill="#D47844"/>
<path opacity="0.3" d="M55.649 34.2874C54.2856 33.5981 55.1657 30.4208 56.0746 29.787C56.8177 29.264 58.8449 29.6919 58.109 31.5222C57.4598 30.0247 56.7023 31.1894 56.9548 32.2828C57.1207 33.0197 57.8493 32.9167 57.2289 33.9863C56.897 34.5647 56.0818 34.4934 55.6562 34.2795L55.649 34.2874Z" fill="#66241B"/>
<path opacity="0.3" d="M45.0659 14.2734C35.7453 14.2734 34.1943 20.8736 34.9013 23.2744C35.6082 25.6751 38.4145 25.8494 38.8618 24.447C40.1243 26.0713 42.4327 25.6989 43.2984 24.1697C43.6736 25.9683 46.7179 26.3962 47.5475 24.5183C47.9299 26.3724 50.7578 26.1426 51.6668 24.2093C51.3855 26.0396 52.8283 28.4958 54.5669 27.0696C54.5452 29.724 57.2 30.9362 57.4236 27.7352C57.6978 23.8528 57.2216 14.2814 45.0659 14.2814V14.2734Z" fill="#66241B"/>
<path d="M54.7906 25.3262C54.2279 26.9584 51.5947 26.7366 52.0276 21.7369C50.9238 26.1185 47.9516 25.4926 47.6558 23.6385C46.9633 25.3341 43.8468 25.9284 43.4428 23.4325C42.5266 25.5718 39.9945 25.4847 38.7464 23.4959C38.3424 25.136 34.9735 25.2707 35.1755 21.1902C34.5839 21.8954 33.0689 22.4976 32.4485 21.6339C31.9291 20.905 32.9679 18.314 33.206 17.5613C33.9202 15.2715 38.5228 11.9516 42.6637 11.904C51.3423 11.7931 58.6357 19.3203 57.5896 26.6573C57.0918 30.1515 55.2667 29.1373 54.7978 25.3341L54.7906 25.3262Z" fill="#231E1A"/>
<path d="M47.5041 32.3464C48.0091 32.1325 48.6223 32.1167 49.1272 32.3227C50.3104 31.3719 49.4952 28.1154 47.8143 28.7572C46.559 29.2326 46.4508 31.6333 47.5041 32.3464Z" fill="#292929"/>
<path d="M35.6372 28.6465C34.7499 29.1853 34.8076 30.8967 35.4352 31.7049C35.9113 31.6415 36.4452 31.6415 36.8853 31.9505C38.7248 31.4355 37.2964 27.6402 35.6372 28.6465Z" fill="#292929"/>
<path d="M33.011 27.3629C33.3645 26.111 34.7784 25.5802 35.5864 25.4455C36.5459 25.287 38.537 25.39 39.482 25.1206C39.2872 26.6419 38.5298 26.8003 37.325 26.7687C35.8245 26.729 33.516 27.0539 33.011 27.3629Z" fill="#2B241E"/>
<path d="M52.2438 27.7348C51.8759 26.475 50.3321 25.9283 49.4375 25.7778C48.3843 25.6114 46.184 25.6748 45.1523 25.3975C45.3471 26.9187 46.1767 27.0931 47.4969 27.0772C49.1489 27.0534 51.6811 27.4179 52.2366 27.7348H52.2438Z" fill="#2B241E"/>
<path opacity="0.3" d="M40.5642 34.6518C40.3189 34.9053 40.9393 35.7214 41.7689 35.8641C42.5047 35.9988 43.4931 35.1826 43.0963 34.8895C42.6995 34.6042 42.4398 34.8578 41.8411 34.7944C41.1774 34.731 40.8527 34.3428 40.5642 34.6439V34.6518Z" fill="#66241B"/>
<path d="M52.4672 29.6046C52.4672 29.6046 50.6925 31.4587 48.6365 29.8502L48.8746 28.8994C48.8746 28.8994 50.4977 30.7852 52.4672 29.5967V29.6046Z" fill="#292929"/>
<path d="M32.3977 29.6286C32.3977 29.6286 33.7828 31.1578 35.8533 29.5414L35.5935 28.7095C35.5935 28.7095 33.9776 30.3734 32.3977 29.6365V29.6286Z" fill="#292929"/>
<path d="M48.5719 29.3038C48.002 29.0344 47.5691 30.001 48.0092 30.413C48.6224 30.9756 49.2139 29.6048 48.5719 29.3038Z" fill="#A88686"/>
<path d="M36.4595 29.0263C35.8968 28.8837 35.6371 29.8424 36.106 30.1435C36.7481 30.5555 37.1016 29.1927 36.4595 29.0263Z" fill="#A88686"/>
<path d="M36.0553 33.3366C35.1391 33.2574 34.3455 33.7407 34.2951 34.4142C34.2446 35.0956 34.9443 35.7057 35.8605 35.7929C36.7767 35.88 37.5702 35.3967 37.6207 34.7153C37.6712 34.0339 36.9787 33.4159 36.0553 33.3366Z" fill="#D4502C"/>
<path d="M49.3581 33.337C50.368 33.2498 51.2337 33.7807 51.2914 34.5255C51.3492 35.2703 50.5772 35.9517 49.5673 36.0389C48.5573 36.1339 47.6916 35.5952 47.6339 34.8504C47.5762 34.1056 48.3481 33.4242 49.3581 33.3291V33.337Z" fill="#D4502C"/>
<g opacity="0.7">
<path d="M35.7234 36.9498C37.6423 37.346 39.2222 36.9102 42.0934 36.9181C44.4741 36.9181 48.2615 37.6708 50.0939 36.5774C47.504 42.092 45.5851 43.7163 42.8293 43.7163C39.2583 43.7163 38.3782 41.2918 37.866 39.7547C37.6496 39.097 36.3294 37.3222 35.7234 36.9498Z" fill="#C43A2D"/>
</g>
<path d="M48.6945 37.5044C48.6945 37.5044 43.6807 39.1445 37.0005 37.7025C37.0005 37.7025 38.0538 38.1303 38.5948 39.3743C39.0854 40.5153 40.7158 41.268 43.1469 41.1491C46.9415 40.9669 48.7018 37.5044 48.7018 37.5044H48.6945Z" fill="#78231F"/>
<path d="M47.2948 37.845C47.2948 37.845 47.2154 38.8829 45.8736 39.3187C44.1639 39.8813 42.2955 39.9684 40.3621 39.7228C39.0563 39.5564 38.3638 37.9638 38.3638 37.9638C38.3638 37.9638 42.1079 38.7482 47.2948 37.8529V37.845Z" fill="#FFF9F0"/>
<path d="M46.7035 39.3505C46.8261 39.0811 46.754 38.6533 46.148 39.0653C45.2967 39.6516 43.8612 39.818 42.1226 39.8022C40.5138 39.7942 39.6769 39.3347 39.374 39.6358C39.0637 39.9369 40.5643 41.577 43.3201 41.1887C46.1913 40.7767 46.7035 39.3505 46.7035 39.3505Z" fill="#FFF9F0"/>
<path d="M46.9701 38.5818C46.9701 38.5818 40.4558 38.2174 38.9192 38.8433C38.9192 38.8433 38.443 38.2887 38.3564 37.9559C38.3564 37.9559 42.9302 38.669 47.2875 37.845C47.2875 37.845 47.2081 38.3283 46.9701 38.5818Z" fill="#E8DAC5"/>
<path d="M45.6431 39.2871C45.6431 39.2871 43.4861 40.2458 40.5283 39.6595C40.5283 39.6595 43.3634 40.7609 45.6431 39.2871Z" fill="#E8DAC5"/>
<path opacity="0.1" d="M55.6055 25.1205C54.5883 26.0476 50.2815 23.623 42.0791 23.623C33.8767 23.623 32.4844 26.0079 31.7846 25.0968C31.0848 24.1776 32.9893 20.4933 32.9893 20.4933C32.9893 20.4933 36.5315 19.0354 43.1468 19.0354C49.7621 19.0354 58.2603 22.696 55.6055 25.1205Z" fill="url(#paint3_radial_163_337)"/>
<path d="M53.2179 23.2741C55.9376 24.8271 56.219 26.6732 56.9332 27.3388C57.4526 27.8221 57.8638 27.9093 58.275 27.0852C58.816 25.9997 58.8521 22.3233 57.2939 19.2173C55.1513 14.9387 51.1475 10.4541 41.4084 10.4541C31.6694 10.4541 30.7893 18.0685 31.8714 20.6911C30.8831 22.3708 31.3808 26.8634 32.1239 27.4101C32.3187 27.5527 32.4413 27.109 32.4846 26.5068C32.6866 23.8446 33.5234 22.149 34.1222 21.1982C34.9302 19.9146 48.2402 20.4217 53.2251 23.2741H53.2179Z" fill="#292929"/>
<path d="M55.6347 23.7735C54.6175 24.7005 50.2746 23.0762 42.0722 23.0762C33.8698 23.0762 31.5902 24.748 30.8904 23.8289C30.6307 23.4882 30.5513 22.7514 30.9048 22.1017C31.4819 21.0162 32.7588 19.9861 32.7588 19.9861C32.7588 19.9861 36.5318 18.449 43.1471 18.449C49.7624 18.449 54.87 20.5962 55.6347 23.7814V23.7735Z" fill="#292929"/>
<path d="M55.6342 22.7594C54.617 23.6389 50.2742 22.0939 42.0717 22.0939C33.8693 22.0939 31.5897 23.6785 30.8899 22.807C30.1901 21.9354 32.9892 19.0671 32.9892 19.0671C32.9892 19.0671 35.7882 17.6885 42.4036 17.6885C47.7203 17.6885 53.8235 19.3841 55.6342 22.7515V22.7594Z" fill="#4F4F4F"/>
<path d="M33.675 22.1965C32.6217 22.1965 31.8859 22.0459 31.7416 21.6497C31.3737 20.6355 32.3187 20.1126 33.3143 19.558L33.5235 19.4391C33.7904 19.2886 34.115 19.4074 34.2521 19.7006C34.3892 19.9938 34.2809 20.3503 34.014 20.5009L33.7976 20.6197C33.5668 20.7465 33.2998 20.897 33.0906 21.0238C34.4469 21.0238 37.7293 20.6197 39.6915 20.2473C39.9873 20.1919 40.2687 20.4058 40.3192 20.7306C40.3697 21.0555 40.1749 21.3645 39.8791 21.42C37.7365 21.824 35.3126 22.1965 33.6678 22.1965H33.675Z" fill="#E0A859"/>
<path d="M52.1355 22.482C51.0318 22.482 48.9036 22.2126 44.6834 21.4203C44.3876 21.3648 44.1928 21.0558 44.2433 20.731C44.2938 20.4061 44.5752 20.1922 44.871 20.2476C48.1895 20.8736 50.4402 21.1905 51.645 21.2777C51.544 21.2222 51.443 21.1747 51.3564 21.1351C51.1039 21.0083 50.837 20.8736 50.5845 20.7389C50.3176 20.5883 50.2094 20.2318 50.3464 19.9386C50.4835 19.6455 50.8082 19.5266 51.0751 19.6772C51.3131 19.8119 51.5656 19.9386 51.8037 20.0575C52.7632 20.5329 53.7515 21.0241 53.4052 21.9749C53.3114 22.2364 53.2176 22.4899 52.1427 22.4899L52.1355 22.482Z" fill="#E0A859"/>
<path d="M56.6733 22.7673C56.4136 22.7673 56.161 22.6485 55.9807 22.4187C54.271 20.2002 50.9813 17.2527 42.108 17.2527C36.7768 17.2527 33.3212 18.2589 31.9794 19.1226C31.5538 19.3999 30.9983 19.2414 30.7458 18.766C30.4933 18.2906 30.6376 17.6885 31.0705 17.4111C32.6792 16.3732 36.4233 15.2639 42.108 15.2639C49.4303 15.2639 54.2782 17.1259 57.3586 21.1351C57.6832 21.5551 57.6327 22.181 57.2504 22.5296C57.0845 22.6881 56.8752 22.7594 56.666 22.7594L56.6733 22.7673Z" fill="#E0A859"/>
<path d="M42.3243 5.17749C47.8215 5.17749 50.8947 9.24219 49.4879 13.4178C45.7799 12.9503 40.4703 12.6413 36.8488 13.4732C34.6413 10.6842 36.5963 5.17749 42.3243 5.17749Z" fill="#292929"/>
<path d="M52.8425 18.6708C52.792 18.6708 52.7343 18.655 52.6838 18.6312C47.6412 15.961 37.9959 15.8976 33.0615 17.6329C32.8739 17.7042 32.672 17.5853 32.607 17.3793C32.5493 17.1733 32.6503 16.9515 32.8378 16.8802C38.0031 15.0657 47.7205 15.1291 52.994 17.9181C53.1744 18.0132 53.2465 18.2509 53.16 18.449C53.095 18.5916 52.9724 18.6708 52.8353 18.6708H52.8425Z" fill="#F2DCB6"/>
<path d="M51.0393 21.959C51.0393 21.959 51.0393 21.959 51.032 21.959C49.8489 21.9115 46.5016 21.5074 45.2608 21.135C45.1165 21.0954 45.0299 20.929 45.0732 20.7705C45.1093 20.6121 45.2536 20.517 45.4051 20.5645C46.5954 20.9211 49.921 21.3173 51.0537 21.3648C51.2052 21.3648 51.3206 21.5074 51.3134 21.6738C51.3134 21.8323 51.1908 21.959 51.0465 21.959H51.0393Z" fill="#F2DCB6"/>
<path d="M35.0093 21.5788C34.8651 21.5788 34.7424 21.452 34.7424 21.2935C34.7424 21.1271 34.8578 20.9924 35.0021 20.9845C35.875 20.9607 38.3928 20.7627 39.4533 20.4219C39.5975 20.3744 39.749 20.4695 39.7851 20.6279C39.8284 20.7864 39.7418 20.9528 39.5975 20.9924C38.4289 21.3648 35.7885 21.555 35.0166 21.5788H35.0093Z" fill="#F2DCB6"/>
<path d="M48.1968 8.39391C48.103 7.72835 46.7395 7.68872 46.047 7.68872C45.3544 7.68872 44.9938 8.42559 44.8206 8.9723C44.5537 9.8201 43.9405 11.6346 43.6303 11.8802C43.5149 11.587 43.1614 11.3572 42.7357 11.3572C42.3101 11.3572 41.9494 11.5791 41.8412 11.8802C41.531 11.6346 40.9106 9.8201 40.6509 8.9723C40.4777 8.42559 40.1242 7.68872 39.4245 7.68872C38.7247 7.68872 37.3685 7.72835 37.2747 8.39391C37.1809 9.05947 38.465 9.30509 38.465 9.30509C38.465 9.30509 37.5416 9.28131 37.5416 9.76463C37.5416 10.4619 38.9556 10.7788 38.9556 10.7788C38.9556 10.7788 38.1837 10.8184 38.1837 11.2938C38.1837 12.102 39.8284 12.3952 39.8284 12.3952C39.8284 12.3952 40.586 13.8293 42.743 13.8293C44.9 13.8293 45.6574 12.3952 45.6574 12.3952C45.6574 12.3952 47.3023 12.102 47.3023 11.2938C47.3023 10.8184 46.5304 10.7788 46.5304 10.7788C46.5304 10.7788 47.9443 10.454 47.9443 9.76463C47.9443 9.28923 47.0209 9.30509 47.0209 9.30509C47.0209 9.30509 48.305 9.05947 48.2112 8.39391H48.1968Z" fill="#E0A859"/>
<path d="M44.4239 7.92704C44.3878 7.80026 44.2797 7.71311 44.1498 7.71311H43.2697L42.9955 6.794C42.9162 6.53253 42.5266 6.53253 42.4545 6.794L42.1803 7.71311H41.3002C41.1776 7.71311 41.0694 7.80026 41.0261 7.92704C40.99 8.05381 41.0261 8.19643 41.1271 8.27567L41.8413 8.84615L41.5671 9.76526C41.5311 9.89203 41.5672 10.0347 41.6682 10.1139C41.7692 10.1931 41.9062 10.1931 42.0072 10.1139L42.7214 9.54341L43.4356 10.1139C43.4861 10.1535 43.5438 10.1773 43.6015 10.1773C43.6592 10.1773 43.7169 10.1614 43.7674 10.1139C43.8684 10.0347 43.9117 9.89203 43.8684 9.76526L43.5943 8.84615L44.3085 8.27567C44.4095 8.19643 44.4528 8.05381 44.4095 7.92704H44.4239Z" fill="#E0A859"/>
<path d="M42.7286 6.8728C42.5915 6.89657 42.3318 7.91076 42.3318 7.91076C42.3318 7.91076 41.4012 7.85531 41.3146 7.99793C41.228 8.14055 41.9494 8.69516 41.9494 8.69516C41.9494 8.69516 42.4472 8.51295 42.8007 8.41787C43.1542 8.32279 44.2147 8.09299 44.1569 7.97414C44.0992 7.84736 43.1037 7.9583 43.1037 7.9583C43.1037 7.9583 42.9089 6.85695 42.7286 6.88864V6.8728Z" fill="#F2DCB6"/>
<path d="M42.6926 11.6506C43.1831 11.6506 43.6376 12.3717 43.6232 12.5856C43.6087 12.7995 41.8052 13.4017 41.5888 13.2353C41.3724 13.0689 42.101 11.6506 42.6926 11.6506Z" fill="#F2DCB6"/>
<path d="M44.6114 10.5492C44.8062 10.0104 45.0226 9.40036 45.1525 9.03589C45.3617 8.45748 45.4916 8.08508 46.0759 8.06131C46.6602 8.03754 47.8289 7.98206 47.8145 8.3703C47.7928 8.76647 47.1147 9.03587 46.8694 9.13887C46.6242 9.24187 46.6602 9.51127 46.9272 9.53504C47.1941 9.55881 47.5331 9.59843 47.4971 9.90744C47.461 10.2164 46.9055 10.2878 46.3861 10.5096C45.2535 10.985 44.5032 10.8582 44.6114 10.5492Z" fill="#F2DCB6"/>
<path d="M40.8458 10.5492C40.651 10.0104 40.4346 9.40036 40.3047 9.03589C40.0955 8.45748 39.9656 8.08508 39.3813 8.06131C38.7969 8.03754 37.6283 7.98206 37.6427 8.3703C37.6644 8.76647 38.3425 9.03587 38.5878 9.13887C38.833 9.24187 38.797 9.51127 38.53 9.53504C38.2631 9.55881 37.9241 9.59843 37.9601 9.90744C37.9962 10.2164 38.5517 10.2878 39.0711 10.5096C40.2037 10.985 40.954 10.8582 40.8458 10.5492Z" fill="#F2DCB6"/>
<defs>
<radialGradient id="paint0_radial_163_337" cx="0" cy="0" r="1" gradientUnits="userSpaceOnUse" gradientTransform="translate(44.5157 -58.2715) rotate(-180) scale(15.6052 1.93749)">
<stop/>
<stop offset="0.92"/>
</radialGradient>
<radialGradient id="paint1_radial_163_337" cx="0" cy="0" r="1" gradientUnits="userSpaceOnUse" gradientTransform="translate(44.8868 48.9699) rotate(180) scale(3.77442 5.18188)">
<stop/>
<stop offset="0.92"/>
</radialGradient>
<radialGradient id="paint2_radial_163_337" cx="0" cy="0" r="1" gradientUnits="userSpaceOnUse" gradientTransform="translate(49.5024 57.6297) scale(2.22915 2.66865)">
<stop/>
<stop offset="0.92"/>
</radialGradient>
<radialGradient id="paint3_radial_163_337" cx="0" cy="0" r="1" gradientUnits="userSpaceOnUse" gradientTransform="translate(43.8682 21.2951) rotate(180) scale(8.86611 10.2247)">
<stop/>
<stop offset="0.92"/>
</radialGradient>
</defs>
</svg>
