<svg width="95" height="95" viewBox="0 0 95 95" fill="none" xmlns="http://www.w3.org/2000/svg">
<circle cx="47.5" cy="47.5" r="47.5" fill="#0A4A81"/>
<mask id="path-2-inside-1_163_446" fill="white">
<path fill-rule="evenodd" clip-rule="evenodd" d="M53.8269 5L55.0757 8.94255L58.368 9.25991L55.8467 12.0124L56.632 16.1502L53.8221 13.9104L51.0123 16.1502L51.7975 12.0124L49.281 9.25991L52.5733 8.94255L53.8269 5ZM20 77.3147H25.7616V27.7826C25.7616 27.3126 26.0596 26.9281 26.4286 26.9281C28.4579 26.9281 31.0501 26.9281 33.9641 26.9342L34.5743 23.7058L32.053 20.9533L35.3453 20.6359L36.5941 16.6934L37.843 20.6359L41.1353 20.9533L38.614 23.7058L39.229 26.9404L45.4352 26.9465L46.0501 23.7058L43.5289 20.9533L46.8212 20.6359L48.07 16.6934L49.3188 20.6359L52.6112 20.9533L50.0899 23.7058L50.7048 26.9526L56.9063 26.9587L57.526 23.6997L55.0047 20.9472L58.316 20.6298L59.5648 16.6873L60.8136 20.6298L64.106 20.9472L61.5847 23.6997L62.2044 26.9648C64.6973 26.9648 66.8827 26.9709 68.5762 26.9709C68.9451 26.9709 69.2384 27.3554 69.2384 27.8253V77.3147H75V80H20V77.3147ZM34.929 26.9281L38.2781 26.9342L36.6036 25.5977L34.929 26.9281ZM46.3955 26.9465L49.7777 26.9526L48.0842 25.6038L46.3955 26.9465ZM57.8619 26.9587L61.2772 26.9648L59.5648 25.5977L57.8619 26.9587ZM42.3415 5L43.5904 8.94255L46.8827 9.25991L44.3614 12.0124L45.1466 16.1502L42.3368 13.9104L39.527 16.1502L40.3122 12.0124L37.7909 9.25991L41.0833 8.94255L42.3415 5ZM32.5307 66.1523H36.3009C36.4238 66.1523 36.5232 66.2804 36.5232 66.4391V71.3398C36.5232 71.4985 36.4238 71.6267 36.3009 71.6267H32.5307C32.4078 71.6267 32.3084 71.4985 32.3084 71.3398V66.4391C32.3084 66.2804 32.4078 66.1523 32.5307 66.1523ZM58.4437 66.1523H62.2138C62.3368 66.1523 62.4361 66.2804 62.4361 66.4391V71.3398C62.4361 71.4985 62.3368 71.6267 62.2138 71.6267H58.4437C58.3207 71.6267 58.2214 71.4985 58.2214 71.3398V66.4391C58.2167 66.2804 58.316 66.1523 58.4437 66.1523ZM51.8496 48.4901H55.6197C55.7427 48.4901 55.842 48.6183 55.842 48.777V53.6777C55.842 53.8364 55.7427 53.9645 55.6197 53.9645H51.8496C51.7266 53.9645 51.6272 53.8364 51.6272 53.6777V48.777C51.6272 48.6183 51.7266 48.4901 51.8496 48.4901ZM58.4437 48.4901H62.2138C62.3368 48.4901 62.4361 48.6183 62.4361 48.777V53.6777C62.4361 53.8364 62.3368 53.9645 62.2138 53.9645H58.4437C58.3207 53.9645 58.2214 53.8364 58.2214 53.6777V48.777C58.2167 48.6183 58.316 48.4901 58.4437 48.4901ZM58.4437 57.3212H62.2138C62.3368 57.3212 62.4361 57.4493 62.4361 57.608V62.5149C62.4361 62.6735 62.3368 62.8017 62.2138 62.8017H58.4437C58.3207 62.8017 58.2214 62.6735 58.2214 62.5149V57.608C58.2167 57.4493 58.316 57.3212 58.4437 57.3212ZM51.8496 57.3212H55.6197C55.7427 57.3212 55.842 57.4493 55.842 57.608V62.5149C55.842 62.6735 55.7427 62.8017 55.6197 62.8017H51.8496C51.7266 62.8017 51.6272 62.6735 51.6272 62.5149V57.608C51.6272 57.4493 51.7266 57.3212 51.8496 57.3212ZM51.8496 66.1523H55.6197C55.7427 66.1523 55.842 66.2804 55.842 66.4391V71.3398C55.842 71.4985 55.7427 71.6267 55.6197 71.6267H51.8496C51.7266 71.6267 51.6272 71.4985 51.6272 71.3398V66.4391C51.6272 66.2804 51.7266 66.1523 51.8496 66.1523ZM39.1202 48.4901H42.8903C43.0132 48.4901 43.1126 48.6183 43.1126 48.777V53.6777C43.1126 53.8364 43.0132 53.9645 42.8903 53.9645H39.1202C38.9972 53.9645 38.8978 53.8364 38.8978 53.6777V48.777C38.8978 48.6183 38.9972 48.4901 39.1202 48.4901ZM32.5307 48.4901H36.3009C36.4238 48.4901 36.5232 48.6183 36.5232 48.777V53.6777C36.5232 53.8364 36.4238 53.9645 36.3009 53.9645H32.5307C32.4078 53.9645 32.3084 53.8364 32.3084 53.6777V48.777C32.3084 48.6183 32.4078 48.4901 32.5307 48.4901ZM32.5307 57.3212H36.3009C36.4238 57.3212 36.5232 57.4493 36.5232 57.608V62.5149C36.5232 62.6735 36.4238 62.8017 36.3009 62.8017H32.5307C32.4078 62.8017 32.3084 62.6735 32.3084 62.5149V57.608C32.3084 57.4493 32.4078 57.3212 32.5307 57.3212ZM39.1202 57.3212H42.8903C43.0132 57.3212 43.1126 57.4493 43.1126 57.608V62.5149C43.1126 62.6735 43.0132 62.8017 42.8903 62.8017H39.1202C38.9972 62.8017 38.8978 62.6735 38.8978 62.5149V57.608C38.8978 57.4493 38.9972 57.3212 39.1202 57.3212ZM39.1202 66.1523H42.8903C43.0132 66.1523 43.1126 66.2804 43.1126 66.4391V71.3398C43.1126 71.4985 43.0132 71.6267 42.8903 71.6267H39.1202C38.9972 71.6267 38.8978 71.4985 38.8978 71.3398V66.4391C38.8978 66.2804 38.9972 66.1523 39.1202 66.1523ZM30.7237 32.0242H32.8335V35.1977H35.1419V32.0242H37.2658V41.1055H35.1419V37.4253H32.8335V41.1055H30.7237V32.0242ZM38.3964 36.5709C38.3964 35.0879 38.7039 33.9344 39.3283 33.1105C39.9527 32.2866 40.8136 31.8716 41.93 31.8716C43.0653 31.8716 43.9451 32.2744 44.5648 33.0922C45.1845 33.9039 45.4872 35.0391 45.4872 36.4977C45.4872 37.5596 45.3548 38.4262 45.0851 39.1098C44.8155 39.7872 44.4276 40.3182 43.9167 40.6966C43.4059 41.0749 42.7767 41.2641 42.0151 41.2641C41.2441 41.2641 40.6055 41.1055 40.0993 40.7759C39.5932 40.4463 39.1864 39.9337 38.8742 39.2257C38.5572 38.5178 38.3964 37.6328 38.3964 36.5709ZM40.5061 36.5831C40.5061 37.4986 40.6339 38.1577 40.8893 38.5605C41.1495 38.9572 41.4995 39.1586 41.9395 39.1586C42.3936 39.1586 42.7436 38.9633 42.9943 38.5666C43.245 38.176 43.368 37.4681 43.368 36.455C43.368 35.6005 43.2403 34.978 42.9801 34.5813C42.72 34.1907 42.3652 33.9893 41.9253 33.9893C41.4995 33.9893 41.1542 34.1907 40.894 34.5874C40.6386 34.9963 40.5061 35.6555 40.5061 36.5831ZM45.894 32.0242H52.3226V34.2701H50.1656V41.1055H48.0558V34.2701H45.8988L45.894 32.0242ZM53.2687 32.0242H58.9215V33.9649H55.3879V35.4113H58.666V37.2667H55.3879V39.0548H59.0255V41.1116H53.2687V32.0242ZM60.1656 32.0242H62.2753V38.8718H65.5771V41.1055H60.1656V32.0242ZM49.1911 44.7123H65.0946C65.3595 44.7123 65.5724 45.0419 65.5724 45.4447V75.0322C65.5724 75.4349 65.3595 75.7645 65.0946 75.7645H49.1911C48.9262 75.7645 48.7133 75.4349 48.7133 75.0322V45.4508C48.7133 45.0419 48.9262 44.7123 49.1911 44.7123ZM29.8392 44.6696H45.7474C46.0123 44.6696 46.2252 44.9992 46.2252 45.402V75.0322C46.2252 75.4349 46.0123 75.7645 45.7474 75.7645H29.8392C29.5743 75.7645 29.3614 75.4349 29.3614 75.0322V45.402C29.3614 44.9992 29.5743 44.6696 29.8392 44.6696Z"/>
</mask>
<path fill-rule="evenodd" clip-rule="evenodd" d="M53.8269 5L55.0757 8.94255L58.368 9.25991L55.8467 12.0124L56.632 16.1502L53.8221 13.9104L51.0123 16.1502L51.7975 12.0124L49.281 9.25991L52.5733 8.94255L53.8269 5ZM20 77.3147H25.7616V27.7826C25.7616 27.3126 26.0596 26.9281 26.4286 26.9281C28.4579 26.9281 31.0501 26.9281 33.9641 26.9342L34.5743 23.7058L32.053 20.9533L35.3453 20.6359L36.5941 16.6934L37.843 20.6359L41.1353 20.9533L38.614 23.7058L39.229 26.9404L45.4352 26.9465L46.0501 23.7058L43.5289 20.9533L46.8212 20.6359L48.07 16.6934L49.3188 20.6359L52.6112 20.9533L50.0899 23.7058L50.7048 26.9526L56.9063 26.9587L57.526 23.6997L55.0047 20.9472L58.316 20.6298L59.5648 16.6873L60.8136 20.6298L64.106 20.9472L61.5847 23.6997L62.2044 26.9648C64.6973 26.9648 66.8827 26.9709 68.5762 26.9709C68.9451 26.9709 69.2384 27.3554 69.2384 27.8253V77.3147H75V80H20V77.3147ZM34.929 26.9281L38.2781 26.9342L36.6036 25.5977L34.929 26.9281ZM46.3955 26.9465L49.7777 26.9526L48.0842 25.6038L46.3955 26.9465ZM57.8619 26.9587L61.2772 26.9648L59.5648 25.5977L57.8619 26.9587ZM42.3415 5L43.5904 8.94255L46.8827 9.25991L44.3614 12.0124L45.1466 16.1502L42.3368 13.9104L39.527 16.1502L40.3122 12.0124L37.7909 9.25991L41.0833 8.94255L42.3415 5ZM32.5307 66.1523H36.3009C36.4238 66.1523 36.5232 66.2804 36.5232 66.4391V71.3398C36.5232 71.4985 36.4238 71.6267 36.3009 71.6267H32.5307C32.4078 71.6267 32.3084 71.4985 32.3084 71.3398V66.4391C32.3084 66.2804 32.4078 66.1523 32.5307 66.1523ZM58.4437 66.1523H62.2138C62.3368 66.1523 62.4361 66.2804 62.4361 66.4391V71.3398C62.4361 71.4985 62.3368 71.6267 62.2138 71.6267H58.4437C58.3207 71.6267 58.2214 71.4985 58.2214 71.3398V66.4391C58.2167 66.2804 58.316 66.1523 58.4437 66.1523ZM51.8496 48.4901H55.6197C55.7427 48.4901 55.842 48.6183 55.842 48.777V53.6777C55.842 53.8364 55.7427 53.9645 55.6197 53.9645H51.8496C51.7266 53.9645 51.6272 53.8364 51.6272 53.6777V48.777C51.6272 48.6183 51.7266 48.4901 51.8496 48.4901ZM58.4437 48.4901H62.2138C62.3368 48.4901 62.4361 48.6183 62.4361 48.777V53.6777C62.4361 53.8364 62.3368 53.9645 62.2138 53.9645H58.4437C58.3207 53.9645 58.2214 53.8364 58.2214 53.6777V48.777C58.2167 48.6183 58.316 48.4901 58.4437 48.4901ZM58.4437 57.3212H62.2138C62.3368 57.3212 62.4361 57.4493 62.4361 57.608V62.5149C62.4361 62.6735 62.3368 62.8017 62.2138 62.8017H58.4437C58.3207 62.8017 58.2214 62.6735 58.2214 62.5149V57.608C58.2167 57.4493 58.316 57.3212 58.4437 57.3212ZM51.8496 57.3212H55.6197C55.7427 57.3212 55.842 57.4493 55.842 57.608V62.5149C55.842 62.6735 55.7427 62.8017 55.6197 62.8017H51.8496C51.7266 62.8017 51.6272 62.6735 51.6272 62.5149V57.608C51.6272 57.4493 51.7266 57.3212 51.8496 57.3212ZM51.8496 66.1523H55.6197C55.7427 66.1523 55.842 66.2804 55.842 66.4391V71.3398C55.842 71.4985 55.7427 71.6267 55.6197 71.6267H51.8496C51.7266 71.6267 51.6272 71.4985 51.6272 71.3398V66.4391C51.6272 66.2804 51.7266 66.1523 51.8496 66.1523ZM39.1202 48.4901H42.8903C43.0132 48.4901 43.1126 48.6183 43.1126 48.777V53.6777C43.1126 53.8364 43.0132 53.9645 42.8903 53.9645H39.1202C38.9972 53.9645 38.8978 53.8364 38.8978 53.6777V48.777C38.8978 48.6183 38.9972 48.4901 39.1202 48.4901ZM32.5307 48.4901H36.3009C36.4238 48.4901 36.5232 48.6183 36.5232 48.777V53.6777C36.5232 53.8364 36.4238 53.9645 36.3009 53.9645H32.5307C32.4078 53.9645 32.3084 53.8364 32.3084 53.6777V48.777C32.3084 48.6183 32.4078 48.4901 32.5307 48.4901ZM32.5307 57.3212H36.3009C36.4238 57.3212 36.5232 57.4493 36.5232 57.608V62.5149C36.5232 62.6735 36.4238 62.8017 36.3009 62.8017H32.5307C32.4078 62.8017 32.3084 62.6735 32.3084 62.5149V57.608C32.3084 57.4493 32.4078 57.3212 32.5307 57.3212ZM39.1202 57.3212H42.8903C43.0132 57.3212 43.1126 57.4493 43.1126 57.608V62.5149C43.1126 62.6735 43.0132 62.8017 42.8903 62.8017H39.1202C38.9972 62.8017 38.8978 62.6735 38.8978 62.5149V57.608C38.8978 57.4493 38.9972 57.3212 39.1202 57.3212ZM39.1202 66.1523H42.8903C43.0132 66.1523 43.1126 66.2804 43.1126 66.4391V71.3398C43.1126 71.4985 43.0132 71.6267 42.8903 71.6267H39.1202C38.9972 71.6267 38.8978 71.4985 38.8978 71.3398V66.4391C38.8978 66.2804 38.9972 66.1523 39.1202 66.1523ZM30.7237 32.0242H32.8335V35.1977H35.1419V32.0242H37.2658V41.1055H35.1419V37.4253H32.8335V41.1055H30.7237V32.0242ZM38.3964 36.5709C38.3964 35.0879 38.7039 33.9344 39.3283 33.1105C39.9527 32.2866 40.8136 31.8716 41.93 31.8716C43.0653 31.8716 43.9451 32.2744 44.5648 33.0922C45.1845 33.9039 45.4872 35.0391 45.4872 36.4977C45.4872 37.5596 45.3548 38.4262 45.0851 39.1098C44.8155 39.7872 44.4276 40.3182 43.9167 40.6966C43.4059 41.0749 42.7767 41.2641 42.0151 41.2641C41.2441 41.2641 40.6055 41.1055 40.0993 40.7759C39.5932 40.4463 39.1864 39.9337 38.8742 39.2257C38.5572 38.5178 38.3964 37.6328 38.3964 36.5709ZM40.5061 36.5831C40.5061 37.4986 40.6339 38.1577 40.8893 38.5605C41.1495 38.9572 41.4995 39.1586 41.9395 39.1586C42.3936 39.1586 42.7436 38.9633 42.9943 38.5666C43.245 38.176 43.368 37.4681 43.368 36.455C43.368 35.6005 43.2403 34.978 42.9801 34.5813C42.72 34.1907 42.3652 33.9893 41.9253 33.9893C41.4995 33.9893 41.1542 34.1907 40.894 34.5874C40.6386 34.9963 40.5061 35.6555 40.5061 36.5831ZM45.894 32.0242H52.3226V34.2701H50.1656V41.1055H48.0558V34.2701H45.8988L45.894 32.0242ZM53.2687 32.0242H58.9215V33.9649H55.3879V35.4113H58.666V37.2667H55.3879V39.0548H59.0255V41.1116H53.2687V32.0242ZM60.1656 32.0242H62.2753V38.8718H65.5771V41.1055H60.1656V32.0242ZM49.1911 44.7123H65.0946C65.3595 44.7123 65.5724 45.0419 65.5724 45.4447V75.0322C65.5724 75.4349 65.3595 75.7645 65.0946 75.7645H49.1911C48.9262 75.7645 48.7133 75.4349 48.7133 75.0322V45.4508C48.7133 45.0419 48.9262 44.7123 49.1911 44.7123ZM29.8392 44.6696H45.7474C46.0123 44.6696 46.2252 44.9992 46.2252 45.402V75.0322C46.2252 75.4349 46.0123 75.7645 45.7474 75.7645H29.8392C29.5743 75.7645 29.3614 75.4349 29.3614 75.0322V45.402C29.3614 44.9992 29.5743 44.6696 29.8392 44.6696Z" fill="#FF9819" stroke="#FF9819" stroke-width="2" mask="url(#path-2-inside-1_163_446)"/>
</svg>
