<svg width="95" height="95" viewBox="0 0 95 95" fill="none" xmlns="http://www.w3.org/2000/svg">
<circle cx="47.5" cy="47.5" r="47.5" fill="#0A4A81"/>
<path d="M27.3693 63.3542C27.3693 63.3542 27.3141 63.3542 27.2904 63.3542C25.5071 63.3231 23.8737 62.3048 22.4297 60.3303C21.9247 59.6385 22.0904 58.6746 22.7927 58.1771C23.495 57.6796 24.4735 57.835 24.9785 58.5347C25.8149 59.6774 26.604 60.2604 27.3457 60.2759C29.1763 60.2759 31.5909 57.2054 33.532 54.7101C34.3053 53.7151 35.0312 52.7823 35.773 51.9505C36.3411 51.3053 37.3353 51.2431 37.9824 51.8028C38.6373 52.3625 38.7004 53.3342 38.1323 53.9794C37.4616 54.7412 36.7593 55.6351 36.0176 56.5913C33.4215 59.9261 30.7387 63.3698 27.3772 63.3698L27.3693 63.3542Z" fill="#FFCB9E"/>
<path d="M39.647 47.2172C35.8121 48.7409 36.1593 50.7853 32.427 53.7237C33.003 55.154 35.1651 57.5638 36.8695 57.9292C40.4913 54.3844 40.8858 46.7275 39.647 47.2172Z" fill="#BA9561"/>
<path d="M23.0133 58.4812C22.1611 58.66 21.7035 58.8232 21.6798 58.2557C21.6324 57.2841 21.6088 55.6672 22.2716 55.5583C23.1475 55.4184 24.3784 58.1936 23.0212 58.4812H23.0133Z" fill="#FFCB9E"/>
<path d="M26.3749 58.8304C27.7005 55.5889 21.8457 56.1486 21.68 58.0686C21.6168 58.7683 21.9325 59.5378 22.3112 60.1131C22.69 60.6961 23.2581 61.0925 23.8578 61.4501C25.3175 62.3208 26.6827 61.7999 25.4044 60.1364C25.649 59.9343 26.1856 59.2735 26.367 58.8304H26.3749Z" fill="#FFCB9E"/>
<path d="M57.2674 62.4694C56.5257 62.4694 55.8629 61.9486 55.7287 61.2023C55.5788 60.3628 56.1391 59.5621 56.9913 59.4067C58.6878 59.1035 58.6404 58.5749 58.6168 58.3728C58.4274 56.3206 54.5451 53.3122 53.401 53.3122C52.533 53.3122 51.8386 52.6204 51.8386 51.7731C51.8386 50.9257 52.5409 50.2339 53.401 50.2339C56.2969 50.2339 61.4179 54.6337 61.7336 58.1085C61.8283 59.1734 61.6152 61.7309 57.5436 62.4539C57.4489 62.4694 57.3542 62.4772 57.2674 62.4772V62.4694Z" fill="#FFCB9E"/>
<path d="M51.7361 47.217C55.571 48.7406 56.1312 50 59.8635 52.9383C59.2875 54.3687 57.1254 56.7785 55.421 57.1438C54.4505 56.1955 53.2274 54.874 52.3121 53.8323C51.2547 52.6274 50.8286 46.8517 51.7361 47.2093V47.217Z" fill="#BA9561"/>
<path d="M57.7642 59.2896C56.6674 58.9398 55.7283 59.4607 54.7262 59.8182C54.0871 60.0437 52.6667 60.1836 52.6667 61.0698C52.6667 62.2591 55.6494 61.8394 57.4406 61.8394C59.2318 61.8394 58.8847 59.6472 57.7642 59.2896Z" fill="#FFCB9E"/>
<path opacity="0.2" d="M63.3272 84.0787C63.3272 85.3069 55.4444 86.3019 45.7151 86.3019C35.9859 86.3019 28.103 85.3069 28.103 84.0787C28.103 82.8505 35.9859 81.8555 45.7151 81.8555C55.4444 81.8555 63.3272 82.8505 63.3272 84.0787Z" fill="url(#paint0_radial_163_444)"/>
<path d="M40.0574 47.0459C37.3903 48.1031 39.3945 59.3592 39.3945 63.4869C39.3945 65.2981 52.0276 65.407 52.0276 63.4869C52.0276 59.4991 53.9924 47.9943 51.3884 47.1003C48.6346 46.1597 43.3636 45.7322 40.0653 47.0459H40.0574Z" fill="#BA9561"/>
<path d="M44.0897 54.6479H39.8839C39.8839 54.6479 39.3158 58.6435 42.0223 58.6435C44.7288 58.6435 44.0897 54.6479 44.0897 54.6479Z" fill="#DEBD8E"/>
<path opacity="0.1" d="M45.7624 46.2056C49.7393 46.2056 51.6725 46.773 51.6725 48.2733C51.6725 49.7736 51.4279 54.3211 51.4279 54.3211C51.4279 54.3211 47.2064 52.5643 46.9933 52.4943C46.7803 52.4244 45.7702 52.3389 45.7702 52.3389C45.7702 52.3389 44.7602 52.4244 44.5472 52.4943C44.3341 52.5643 40.1126 54.3211 40.1126 54.3211C40.1126 54.3211 39.8601 49.7736 39.8601 48.2733C39.8601 46.773 41.7854 46.2056 45.7702 46.2056H45.7624Z" fill="url(#paint1_radial_163_444)"/>
<path d="M45.7624 45.7944C49.7393 45.7944 51.6725 46.7739 51.6725 48.282C51.6725 49.79 51.1438 53.5446 51.1438 53.5446C51.1438 53.5446 47.8771 51.8578 47.6561 51.7878C47.4431 51.7178 45.7624 52.1376 45.7624 52.1376C45.7624 52.1376 44.0895 51.7178 43.8765 51.7878C43.6634 51.8578 40.4361 53.5446 40.4361 53.5446C40.4361 53.5446 39.8601 49.7823 39.8601 48.282C39.8601 46.7817 41.7854 45.7944 45.7702 45.7944H45.7624Z" fill="#F2DCB6"/>
<path d="M45.6916 51.6168C45.6916 51.6168 52.3829 48.8805 50.7101 46.222C49.203 43.8277 41.1544 43.8277 40.4048 46.6728C39.7735 49.0749 45.6916 51.6168 45.6916 51.6168Z" fill="#FF9819"/>
<path d="M41.3987 45.9417C41.5722 43.6641 44.0262 42.7935 45.7622 42.7935C47.4982 42.7935 49.9522 43.6563 50.1258 45.9417C50.2047 47.0067 50.0232 47.6208 49.3762 48.2116C48.3504 49.1522 47.0799 49.914 45.7622 49.9373C44.4444 49.914 43.1741 49.1522 42.1483 48.2116C41.5091 47.6208 41.3198 47.0067 41.4065 45.9417H41.3987Z" fill="#F7B179"/>
<path d="M45.0127 54.1979C45.0127 54.5632 45.3126 54.8586 45.6834 54.8586C46.0543 54.8586 46.3541 54.5632 46.3541 54.1979C46.3541 53.8325 46.0543 53.5371 45.6834 53.5371C45.3126 53.5371 45.0127 53.8325 45.0127 54.1979Z" fill="#DEBD8E"/>
<path d="M45.0127 56.9571C45.0127 57.3225 45.3126 57.6179 45.6834 57.6179C46.0543 57.6179 46.3541 57.3225 46.3541 56.9571C46.3541 56.5918 46.0543 56.2964 45.6834 56.2964C45.3126 56.2964 45.0127 56.5918 45.0127 56.9571Z" fill="#DEBD8E"/>
<path d="M45.0127 59.7169C45.0127 60.0823 45.3126 60.3777 45.6834 60.3777C46.0543 60.3777 46.3541 60.0823 46.3541 59.7169C46.3541 59.3516 46.0543 59.0562 45.6834 59.0562C45.3126 59.0562 45.0127 59.3516 45.0127 59.7169Z" fill="#DEBD8E"/>
<path d="M50.2754 82.2281C50.2754 82.2281 50.2596 82.2281 50.2517 82.2281C49.1549 82.2126 48.279 81.3264 48.2948 80.2459C48.3263 77.6262 48.0817 74.8044 47.8213 71.8194C47.7345 70.7933 47.6399 69.7516 47.561 68.7022C47.482 67.6295 48.2948 66.6889 49.3916 66.6034C50.4726 66.5256 51.4353 67.3263 51.5221 68.4068C51.601 69.4407 51.6878 70.4668 51.7825 71.4851C52.0508 74.5712 52.3111 77.4785 52.2717 80.2925C52.2559 81.3653 51.3721 82.2203 50.2911 82.2203L50.2754 82.2281Z" fill="#FFCB9E"/>
<path d="M38.9446 81.8014C38.6763 81.8014 38.4002 81.747 38.1398 81.6304C37.1377 81.1873 36.6879 80.0368 37.1377 79.0496C38.3292 76.4299 39.7258 72.2322 40.1046 68.3221C40.2072 67.2494 41.1777 66.4565 42.2666 66.5575C43.3555 66.6586 44.1604 67.6147 44.0578 68.6875C43.7028 72.4032 42.4718 76.873 40.7674 80.6431C40.436 81.3661 39.71 81.8014 38.9525 81.8014H38.9446Z" fill="#FFCB9E"/>
<path d="M52.4061 71.3069C52.4061 69.4102 52.0273 66.0909 52.0273 63.4868C52.0273 63.067 50.9699 63.72 45.7147 63.72C40.854 63.72 39.3942 63.0359 39.3942 63.4868C39.3942 66.363 38.9366 68.936 38.6604 70.6384C40.0334 71.8822 42.8267 72.2942 44.6258 71.89C44.6258 71.89 45.3596 68.7106 45.3833 68.5396C45.4307 68.1664 45.983 68.1664 46.0383 68.5396C46.0619 68.7106 46.3065 71.8122 46.3065 71.8122C48.0504 72.473 51.2777 72.0454 52.4139 71.3225L52.4061 71.3069Z" fill="#4F4F4F"/>
<path d="M47.1586 73.0092C46.8114 73.0092 46.4642 73.0091 46.1328 72.9936L46.2038 71.1435C48.2791 71.2212 50.6068 71.0424 52.6111 70.646L52.982 72.4572C51.1671 72.8148 49.0997 73.0092 47.1665 73.0092H47.1586Z" fill="#999999"/>
<path d="M44.5705 73.0562C42.5742 72.8229 40.0176 72.4498 37.895 71.6725L38.5499 69.939C40.4831 70.6464 42.9056 70.9962 44.7994 71.2216L44.5705 73.0562Z" fill="#999999"/>
<path d="M39.0653 62.3099L39.041 64.4863L52.1625 64.6285L52.1868 62.452L39.0653 62.3099Z" fill="#292929"/>
<path d="M44.2082 62.3366L44.1809 64.6685L47.5342 64.7065L47.5615 62.3746L44.2082 62.3366Z" fill="#E8E8E8"/>
<path d="M33.9894 82.9438C33.7448 83.1225 33.7369 84.4984 33.8395 84.755C34.2498 85.8355 38.0295 86.6128 39.363 85.5323C41.1779 84.0554 40.807 81.8244 40.6728 81.6533C40.5387 81.4823 34.1709 82.8116 33.9894 82.9438Z" fill="#999999"/>
<path d="M37.9111 80.3869C36.2146 79.9904 36.7433 78.8244 36.3251 79.3608C35.899 79.9049 35.5676 80.5346 35.1494 80.9232C34.5497 81.4752 33.8079 82.3302 34.021 83.1231C34.4471 84.6934 38.2662 85.1754 39.5129 84.1959C40.4914 83.4263 40.9333 81.9416 40.7754 80.6589C40.7439 80.3791 40.0258 80.2703 39.8996 80.3247C39.4972 80.4879 38.8817 80.6123 37.919 80.3869H37.9111Z" fill="#292929"/>
<path d="M37.58 84.4053C37.4696 84.0477 37.5248 83.1537 38.156 82.4308C38.7873 81.7078 39.6395 80.7672 39.8368 80.3397C40.034 79.9044 38.7163 77.0049 36.72 77.0826C34.7236 77.1681 36.5779 79.2203 36.6331 79.5079C36.6884 79.7955 35.7494 80.8838 34.9919 81.6534C34.2344 82.4152 34.2896 83.2237 34.3922 83.3791C34.8578 84.2342 37.6589 84.654 37.58 84.3975V84.4053Z" fill="#4F4F4F"/>
<path d="M39.7104 81.5993C37.9823 81.3583 36.4357 80.8763 35.4573 80.2622L36.0175 79.3916C36.8618 79.9202 38.2979 80.3633 39.8603 80.5809L39.7183 81.5993H39.7104Z" fill="#999999"/>
<path d="M38.8895 82.8124C37.3192 82.4004 35.7253 81.934 34.7468 81.3199L35.307 80.4492C36.175 80.9934 37.7374 81.4442 39.1577 81.8174L38.8895 82.8124Z" fill="#999999"/>
<path d="M54.9785 82.9438C55.2231 83.1225 55.2231 84.4984 55.1284 84.755C54.7181 85.8355 50.9385 86.6128 49.6049 85.5323C47.7822 84.0554 48.161 81.8244 48.2951 81.6533C48.4292 81.4823 54.797 82.8116 54.9785 82.9438Z" fill="#999999"/>
<path d="M51.0569 80.3869C52.7534 79.9904 52.2248 78.8244 52.643 79.3608C53.0691 79.9049 53.4005 80.5346 53.8187 80.9232C54.4184 81.4752 55.1601 82.3302 54.9549 83.1231C54.5288 84.6934 50.7097 85.1754 49.463 84.1959C48.4845 83.4263 48.0427 81.9416 48.2005 80.6589C48.232 80.3791 48.9501 80.2703 49.0763 80.3247C49.4788 80.4879 50.0943 80.6123 51.0569 80.3869Z" fill="#292929"/>
<path d="M51.3883 84.4053C51.4988 84.0477 51.4435 83.1537 50.8123 82.4308C50.181 81.7078 49.3288 80.7672 49.1316 80.3397C48.9343 79.9044 50.2521 77.0049 52.2484 77.0826C54.2448 77.1681 52.3904 79.2203 52.3352 79.5079C52.2878 79.7955 53.219 80.8838 53.9765 81.6534C54.734 82.4152 54.6787 83.2237 54.584 83.3791C54.1185 84.2342 51.3173 84.654 51.3962 84.3975L51.3883 84.4053Z" fill="#4F4F4F"/>
<path d="M49.258 81.5993L49.116 80.5809C50.6783 80.3633 52.1144 79.9202 52.9587 79.3916L53.519 80.2622C52.5406 80.8763 50.9861 81.3661 49.2659 81.5993H49.258Z" fill="#999999"/>
<path d="M50.0789 82.8124L49.8105 81.8174C51.2309 81.4442 52.7932 80.9934 53.6612 80.4492L54.2215 81.3199C53.2351 81.9418 51.6491 82.4004 50.0789 82.8124Z" fill="#999999"/>
<path d="M58.8846 33.8695C57.9377 40.7102 52.5878 48.2116 44.5235 47.6442C36.2935 47.0689 32.1982 37.01 33.2635 28.6068C34.4155 19.4652 38.8106 11.8394 48.4373 13.6895C55.3101 15.011 60.1471 24.7434 58.8846 33.8695Z" fill="#FFCB9E"/>
<path d="M60.5419 36.8082C59.6581 37.1192 58.7191 37.1658 57.8196 37.1036C57.8038 37.0726 57.788 37.0492 57.7644 37.0181C57.3619 36.3885 57.9222 32.8515 58.1352 32.183C58.656 30.5039 59.666 29.6255 61.2836 30.0686C64.6609 30.9859 63.3036 35.8366 60.5498 36.8082H60.5419Z" fill="#FFCB9E"/>
<path opacity="0.3" d="M59.24 35.6034C58.009 34.8416 59.1769 32.2685 60.1001 31.8487C60.8576 31.5067 62.7513 32.1208 61.8597 33.5822C61.3941 32.2297 60.5498 33.1158 60.684 34.0797C60.7708 34.7249 61.4731 34.7327 60.7787 35.5645C60.3999 36.0153 59.6345 35.8443 59.2479 35.6034H59.24Z" fill="#C94614"/>
<path d="M55.6338 20.08C57.1725 23.2205 57.5355 28.4287 56.9752 32.2766C56.9752 32.2766 58.9558 30.1389 60.5734 29.9523C61.615 28.7474 62.1357 23.1349 60.6996 21.2849C59.2556 20.251 57.1567 20.0644 55.6417 20.08H55.6338Z" fill="#4F3023"/>
<path d="M33.745 32.6807C33.6424 32.8284 33.5635 32.9917 33.5162 33.186C33.0348 35.0517 37.3195 34.4142 37.8245 33.598C38.7713 32.0744 37.3352 31.709 36.2542 31.7246C35.4257 31.7401 34.2736 31.9034 33.745 32.673V32.6807Z" fill="#FFA073"/>
<path d="M51.4989 32.3774C51.3569 32.5018 51.2306 32.6495 51.1359 32.8283C50.1496 34.6006 54.6789 35.0437 55.4048 34.3519C56.7699 33.0459 55.4048 32.3074 54.308 32.0509C53.4637 31.8566 52.2486 31.7244 51.5068 32.3774H51.4989Z" fill="#FFA073"/>
<path d="M52.1855 31.3979C52.7062 31.1492 53.3769 31.087 53.9372 31.2502C55.1444 30.2397 54.0319 27.1458 52.2643 27.8999C50.9466 28.4596 51.0018 30.7994 52.1855 31.3979Z" fill="#224245"/>
<path opacity="0.3" d="M41.6354 33.3954C42.0773 32.859 42.7007 33.4576 43.8448 33.4654C44.8785 33.4809 45.2888 33.0145 46.0148 33.4343C46.7407 33.854 45.6992 35.2144 43.8685 35.1522C42.0458 35.09 41.2567 33.854 41.6354 33.3954Z" fill="#B54D26"/>
<path d="M44.1133 29.6337C46.0544 29.4705 46.2043 33.5127 45.7625 33.8625C44.6735 34.7098 42.3931 34.1113 41.7303 33.4272C41.4699 33.1551 42.259 29.7892 44.1133 29.6337Z" fill="#FFDFC2"/>
<path d="M35.2125 27.7756C34.2498 28.3431 34.2577 30.3097 34.9758 31.0949C35.4334 30.885 36.3803 30.7917 36.8538 31.0949C38.3372 30.131 37.0116 26.7028 35.2125 27.7678V27.7756Z" fill="#224245"/>
<path opacity="0.7" d="M53.1087 28.6541C52.4696 28.4442 52.075 29.4081 52.58 29.7735C53.2823 30.271 53.8268 28.8951 53.1087 28.6541Z" fill="#D4E6DD"/>
<path opacity="0.7" d="M36.1359 28.3738C35.5046 28.2494 35.2521 29.2134 35.7808 29.501C36.5068 29.8897 36.846 28.5137 36.1359 28.3738Z" fill="#D4E6DD"/>
<g opacity="0.5">
<path d="M51.4756 35.231C50.4656 37.1044 52.8564 37.9906 53.8428 36.156C52.9985 36.5525 51.878 36.1638 51.4756 35.231Z" fill="#94110C"/>
<path d="M38.0218 34.9121C38.5505 36.8555 35.9545 37.524 35.4495 35.6273C36.1833 36.0937 37.3906 35.8061 38.0218 34.9121Z" fill="#94110C"/>
<path d="M44.9656 41.489C48.5164 41.3724 51.357 39.4989 52.5564 37.0192C52.6827 36.7627 52.5486 36.4828 52.2566 36.3895C51.9647 36.2963 51.6333 36.4284 51.507 36.6849C50.4654 38.846 47.9088 40.4862 44.721 40.5095C41.4069 40.5328 38.5583 38.8149 37.6115 36.1952C37.5168 35.9387 37.2011 35.8065 36.9013 35.9076C36.6014 36.0009 36.4357 36.2885 36.5225 36.545C37.6193 39.5689 40.8466 41.5278 44.6579 41.4967C44.7604 41.4967 44.8551 41.4967 44.9577 41.4967L44.9656 41.489Z" fill="#94110C"/>
</g>
<path d="M49.7947 24.4871C49.1318 24.5337 48.7137 25.0157 48.9819 25.8164C49.195 26.446 50.6548 26.1895 52.5722 26.3061C54.6554 26.4305 55.9653 26.7492 56.1546 26.3372C56.344 25.9252 55.1841 25.1168 53.3771 24.7203C52.1698 24.456 51.0256 24.4016 49.7947 24.4871Z" fill="#2B221C"/>
<path d="M38.7711 24.4871C39.4339 24.5337 39.8521 25.0157 39.5838 25.8164C39.3708 26.446 37.911 26.1895 35.9935 26.3061C33.9104 26.4305 33.287 26.6326 33.0976 26.2206C32.9083 25.8086 33.3817 25.1168 35.1887 24.7203C36.396 24.456 37.5401 24.4016 38.7711 24.4871Z" fill="#2B221C"/>
<path opacity="0.1" d="M57.8669 22.1398C56.1467 25.2259 53.7716 26.2753 50.71 25.5757C47.893 24.9304 47.8536 23.2514 41.7462 23.2125C37.0433 23.1814 35.5283 24.8294 34.5735 24.4407C33.6739 24.0754 35.3152 15.7344 43.3401 15.7344C51.3649 15.7344 58.4429 16.2474 60.242 19.971C61.6781 22.9482 60.4472 23.6556 57.8669 22.1475V22.1398Z" fill="url(#paint2_radial_163_444)"/>
<path d="M55.8152 20.4369C56.0756 20.5613 56.3282 20.6935 56.5807 20.8334C58.8847 22.1471 62.3646 23.6085 61.9148 20.9733C61.2993 17.3353 59.8474 7.65727 49.479 6.2114C33.9106 4.04259 31.5986 19.2865 33.5871 18.8589C35.8991 18.3614 38.0138 18.5868 39.8365 18.6335C45.2732 18.789 50.7336 18.0505 55.8152 20.4369Z" fill="#BA9561"/>
<path d="M37.0985 10.1141C37.7061 9.49995 38.3689 8.9558 39.0633 8.50494C41.6909 6.81808 44.0975 6.23508 47.2065 6.32836C50.6784 6.43719 54.0714 7.61098 55.5549 8.89361C56.0125 10.1607 56.3992 13.721 55.2866 17.5144C54.8447 19.0303 54.0951 17.9342 51.7673 17.1724C45.1785 15.0191 40.673 15.5788 35.5361 16.7682C34.6603 16.9703 33.6266 17.3357 33.7134 16.5505C33.9027 14.7549 35.0863 12.1507 37.0906 10.1141H37.0985Z" fill="#DEBD8E"/>
<path d="M49.558 10.0438C46.8673 8.95554 37.8167 8.67569 37.3117 13.0522C37.0355 15.4386 40.0576 14.3659 41.2886 14.1871C44.3739 13.744 46.3939 14.1094 48.406 14.498C50.9468 14.9878 51.9568 11.0233 49.5501 10.0438H49.558Z" fill="#F2DCB6"/>
<path d="M49.4947 15.734C49.3132 15.734 49.1317 15.7185 48.9423 15.6796L48.7135 15.633C48.6109 15.6097 48.5478 15.5086 48.5714 15.4153C48.5951 15.3143 48.6977 15.2521 48.7924 15.2754L49.0212 15.322C49.179 15.3531 49.3369 15.3687 49.4868 15.3687C49.5894 15.3687 49.6762 15.4464 49.6762 15.5552C49.6762 15.6485 49.6051 15.734 49.5104 15.7418H49.4947V15.734ZM50.047 15.4697C50.0076 15.3764 50.047 15.2676 50.1496 15.2287C50.3547 15.1432 50.5442 15.0266 50.7256 14.8712C50.8046 14.8012 50.9229 14.809 50.9939 14.8867C51.0649 14.9644 51.057 15.081 50.9781 15.151C50.7651 15.3376 50.5362 15.4775 50.2995 15.5786C50.2837 15.5786 50.268 15.5863 50.2522 15.5941C50.1733 15.6019 50.0865 15.563 50.0549 15.4775L50.047 15.4697ZM47.9875 15.4697C47.7429 15.4231 47.4983 15.3687 47.2616 15.3298C47.159 15.3142 47.0959 15.2132 47.1117 15.1121C47.1275 15.0111 47.23 14.9489 47.3326 14.9644C47.5772 15.0111 47.8219 15.0577 48.0665 15.1121C48.1691 15.1355 48.2321 15.2287 48.2164 15.3298C48.2006 15.4075 48.1296 15.4697 48.0507 15.4775C48.0349 15.4775 48.0112 15.4775 47.9875 15.4775V15.4697ZM46.5278 15.2054C46.2832 15.1666 46.0307 15.1355 45.7939 15.1044C45.6914 15.0888 45.6124 15.0033 45.6282 14.8945C45.6361 14.7934 45.7308 14.7157 45.8334 14.7312C46.078 14.7623 46.3305 14.7934 46.583 14.8323C46.6856 14.8479 46.7566 14.9411 46.7408 15.0422C46.725 15.1277 46.6619 15.1899 46.5751 15.1977C46.5593 15.1977 46.5435 15.1977 46.5199 15.1977L46.5278 15.2054ZM51.2385 14.6069C51.1517 14.5447 51.128 14.4358 51.1912 14.3503C51.3174 14.1638 51.4358 13.9539 51.5305 13.7362C51.5699 13.643 51.6804 13.5963 51.7751 13.6352C51.8698 13.674 51.9171 13.7829 51.8777 13.8762C51.7751 14.1249 51.6488 14.3503 51.5068 14.5524C51.4753 14.5991 51.4279 14.6302 51.3726 14.6302C51.3253 14.6302 51.2859 14.6302 51.2464 14.5991L51.2385 14.6069ZM45.0601 15.0422C44.8155 15.0266 44.5708 15.0111 44.3262 15.0033C44.2237 15.0033 44.1369 14.9178 44.1448 14.809C44.1448 14.7079 44.2316 14.6224 44.342 14.6302C44.5945 14.6302 44.8471 14.6535 45.0996 14.669C45.2021 14.669 45.281 14.7623 45.2731 14.8712C45.2731 14.9644 45.1943 15.0344 45.1075 15.0422C45.0917 15.0422 45.0837 15.0422 45.068 15.0422H45.0601ZM43.5845 15.0033C43.3399 15.0033 43.0953 15.0189 42.8428 15.0266C42.7402 15.0266 42.6455 14.9567 42.6455 14.8556C42.6455 14.7546 42.7244 14.6613 42.827 14.6613C43.0795 14.6457 43.332 14.638 43.5845 14.6302C43.6871 14.6302 43.7739 14.7079 43.7739 14.8167C43.7739 14.91 43.7029 14.9955 43.6082 15.0033H43.5924H43.5845ZM39.1499 15.5164C38.8659 15.5474 38.6134 15.563 38.3766 15.5552C38.2741 15.5552 38.1873 15.4697 38.1952 15.3609C38.1952 15.2598 38.282 15.1743 38.3924 15.1821C38.6055 15.1821 38.8422 15.1821 39.1105 15.1432C39.2131 15.1355 39.3078 15.2054 39.3235 15.3065C39.3314 15.4075 39.2604 15.5008 39.1578 15.5164H39.1499ZM39.6786 15.2521C39.6629 15.151 39.726 15.0577 39.8286 15.0344C39.9548 15.0111 40.081 14.9878 40.1994 14.9644C40.3257 14.9411 40.4519 14.9178 40.5624 14.9023C40.665 14.8867 40.7596 14.9489 40.7833 15.05C40.7991 15.151 40.736 15.2443 40.6255 15.2676C40.515 15.2909 40.3888 15.3065 40.2625 15.3298C40.1442 15.3531 40.0179 15.3764 39.8838 15.3998C39.8838 15.3998 39.8838 15.3998 39.8759 15.3998C39.7812 15.4075 39.6865 15.3454 39.6707 15.2443L39.6786 15.2521ZM42.101 15.081C41.8643 15.1044 41.6198 15.1277 41.3594 15.1588C41.2568 15.1743 41.1621 15.0966 41.1463 14.9955C41.1305 14.8945 41.2094 14.8012 41.312 14.7856C41.5724 14.7545 41.817 14.7235 42.0616 14.7001C42.1642 14.6924 42.2589 14.7623 42.2668 14.8712C42.2747 14.9722 42.2036 15.0655 42.101 15.0733V15.081ZM37.5876 15.4386C37.2956 15.3454 37.0589 15.2054 36.8774 15.0111C36.8064 14.9333 36.8143 14.8167 36.8853 14.7468C36.9642 14.6768 37.0826 14.6846 37.1536 14.7546C37.2956 14.9023 37.4692 15.0111 37.706 15.081C37.8085 15.1121 37.8637 15.2132 37.8322 15.3143C37.8085 15.3842 37.7454 15.4308 37.6744 15.4464C37.6507 15.4464 37.6191 15.4464 37.5955 15.4464L37.5876 15.4386ZM51.8856 13.2931C51.783 13.2698 51.7199 13.1688 51.7435 13.0677C51.7988 12.8423 51.8382 12.6013 51.854 12.3681C51.854 12.267 51.9487 12.1893 52.0592 12.1971C52.1618 12.1971 52.2406 12.2904 52.2327 12.3992C52.217 12.6557 52.1696 12.9045 52.1144 13.1532C52.0907 13.231 52.0276 13.2854 51.9487 13.2931C51.925 13.2931 51.9013 13.2931 51.8856 13.2931ZM36.4987 14.2804C36.475 14.1871 36.4592 14.0938 36.4434 13.9928C36.4276 13.8373 36.4198 13.674 36.4277 13.4953C36.4277 13.3942 36.5145 13.3087 36.6249 13.3165C36.7275 13.3165 36.8143 13.4097 36.8064 13.5108C36.8064 13.6663 36.8064 13.814 36.8222 13.9461C36.8301 14.0316 36.8459 14.1094 36.8695 14.1871C36.8932 14.2881 36.8301 14.3892 36.7354 14.4125C36.7354 14.4125 36.7196 14.4125 36.7117 14.4125C36.617 14.4203 36.5302 14.3659 36.5065 14.2726L36.4987 14.2804ZM52.0513 11.8317C51.9487 11.8395 51.854 11.7695 51.8461 11.6685C51.8461 11.6452 51.8461 11.6141 51.8382 11.5907C51.8145 11.3809 51.7672 11.171 51.712 10.9844C51.6804 10.8833 51.7356 10.7823 51.8382 10.7512C51.9329 10.7201 52.0434 10.7745 52.0749 10.8756C52.1381 11.0854 52.1854 11.3187 52.217 11.5519C52.217 11.583 52.217 11.6063 52.2249 11.6374C52.2327 11.7384 52.1618 11.8317 52.0592 11.8395L52.0513 11.8317ZM36.6644 12.9589C36.5618 12.9356 36.4987 12.8423 36.5144 12.7412C36.5697 12.4847 36.6407 12.2437 36.7354 12.0027C36.7748 11.9094 36.8853 11.8628 36.98 11.9017C37.0747 11.9405 37.122 12.0494 37.0826 12.1426C36.9958 12.3603 36.9247 12.5858 36.8774 12.8112C36.8616 12.8889 36.7906 12.9511 36.7117 12.9589C36.6959 12.9589 36.6722 12.9589 36.6486 12.9589H36.6644ZM51.4279 10.347C51.3095 10.1449 51.1596 9.97385 50.9939 9.81838C50.915 9.74841 50.9071 9.63181 50.9781 9.55408C51.0491 9.47634 51.1675 9.46855 51.2464 9.53852C51.4437 9.70953 51.6094 9.91944 51.7514 10.1449C51.8067 10.2304 51.7751 10.347 51.6883 10.4014C51.6646 10.4169 51.641 10.4247 51.6094 10.4247C51.5384 10.4247 51.4673 10.4014 51.4279 10.3314V10.347ZM37.1536 11.5752C37.0668 11.5208 37.0431 11.4042 37.0984 11.3187C37.2325 11.1088 37.3903 10.8989 37.5718 10.7123C37.6428 10.6346 37.7612 10.6268 37.8401 10.6968C37.919 10.7667 37.919 10.8833 37.8559 10.9611C37.6902 11.1399 37.5481 11.3264 37.4219 11.5208C37.3903 11.5674 37.3351 11.5985 37.2877 11.6063C37.2483 11.6063 37.2009 11.6063 37.1615 11.5752H37.1536ZM50.4021 9.44524C50.2048 9.35973 49.976 9.27424 49.7235 9.1965C49.6209 9.16541 49.5657 9.06434 49.5972 8.96328C49.6288 8.86223 49.7314 8.80781 49.834 8.8389C50.1023 8.92441 50.3469 9.00992 50.552 9.1032H50.5678C50.6625 9.15762 50.6941 9.25868 50.6546 9.35196C50.623 9.41415 50.5678 9.45302 50.5047 9.45302C50.4652 9.45302 50.4337 9.45303 50.4021 9.43748V9.44524ZM38.1083 10.448C38.0452 10.3703 38.0531 10.2537 38.132 10.1837C38.3293 10.0283 38.5345 9.88056 38.7633 9.74064C38.8501 9.68622 38.9685 9.70955 39.0237 9.80284C39.0789 9.88835 39.0552 10.0049 38.9606 10.0594C38.7475 10.1915 38.5502 10.3314 38.3687 10.4713C38.3372 10.4947 38.3056 10.5102 38.2741 10.5102C38.2109 10.5102 38.1478 10.4947 38.1083 10.4402V10.448ZM49.0133 9.0177C48.7845 8.96329 48.5399 8.91665 48.2874 8.87779C48.1848 8.86224 48.1138 8.76118 48.1296 8.66013C48.1453 8.55907 48.2479 8.4891 48.3505 8.50465C48.6109 8.55129 48.8555 8.59793 49.0923 8.65235C49.1948 8.67567 49.258 8.77673 49.2343 8.87779C49.2185 8.95552 49.1475 9.00993 49.0686 9.0177C49.0449 9.0177 49.0291 9.0177 49.0054 9.0177H49.0133ZM39.3472 9.63182C39.2998 9.53854 39.3472 9.4297 39.434 9.38306C39.655 9.27423 39.8916 9.17317 40.1363 9.08766C40.231 9.0488 40.3414 9.09545 40.3809 9.1965C40.4203 9.28979 40.3651 9.39861 40.2704 9.43748C40.0337 9.52299 39.8127 9.62404 39.5997 9.7251C39.5839 9.73287 39.5602 9.74064 39.5366 9.74064C39.4577 9.74841 39.3788 9.70954 39.3472 9.63958V9.63182ZM47.5615 8.76895C47.3168 8.73785 47.0722 8.71453 46.8276 8.69899C46.725 8.69899 46.6461 8.59792 46.654 8.49687C46.6619 8.39581 46.7566 8.31808 46.8592 8.32585C47.1117 8.34917 47.3642 8.3725 47.6088 8.40359C47.7114 8.41914 47.7824 8.51243 47.7745 8.61349C47.7666 8.699 47.6956 8.76895 47.6088 8.77673C47.593 8.77673 47.5772 8.77673 47.5615 8.77673V8.76895ZM46.0859 8.65235C45.8413 8.64457 45.5888 8.63681 45.3442 8.63681C45.2416 8.63681 45.1548 8.55128 45.1548 8.45023C45.1548 8.34917 45.2416 8.26367 45.3442 8.26367C45.5967 8.26367 45.8491 8.26366 46.1016 8.27921C46.2042 8.27921 46.2911 8.37249 46.2832 8.47355C46.2832 8.56683 46.2042 8.6368 46.1174 8.65235C46.1095 8.65235 46.0938 8.65235 46.0859 8.65235ZM40.7281 9.07988C40.6965 8.97883 40.7518 8.87778 40.8543 8.84669C41.0911 8.77672 41.3357 8.71454 41.5882 8.65235C41.6908 8.62903 41.7933 8.69121 41.817 8.79227C41.8407 8.89332 41.7775 8.99438 41.675 9.0177C41.4303 9.07212 41.1937 9.1343 40.9648 9.20426C40.9569 9.20426 40.9411 9.20426 40.9332 9.20426C40.8464 9.21203 40.7596 9.15763 40.7281 9.07212V9.07988ZM44.6024 8.65235C44.3578 8.66012 44.1053 8.67567 43.8607 8.69899C43.7581 8.70676 43.6634 8.62902 43.6555 8.52797C43.6476 8.42691 43.7265 8.33362 43.8291 8.32585C44.0737 8.3103 44.3341 8.29476 44.5866 8.27921C44.6892 8.27921 44.776 8.35695 44.7839 8.45801C44.7839 8.55129 44.7129 8.6368 44.6182 8.65235C44.6182 8.65235 44.6103 8.65235 44.6024 8.65235ZM42.18 8.72231C42.1642 8.62125 42.2273 8.52797 42.3299 8.50465C42.5745 8.46578 42.827 8.42693 43.0795 8.39583C43.1821 8.38029 43.2768 8.45801 43.2925 8.55907C43.3083 8.66013 43.2295 8.7534 43.1269 8.76895C42.8823 8.80004 42.6377 8.83892 42.393 8.87779C42.393 8.87779 42.393 8.87779 42.3851 8.87779C42.2826 8.88556 42.1958 8.82336 42.18 8.72231Z" fill="#F2DCB6"/>
<path d="M29.0971 23.6008C28.5685 24.3471 27.1166 26.2827 29.3181 25.5597C31.7327 23.2199 36.838 22.3959 42.3378 22.4425C45.352 22.4736 48.2321 23.3443 51.1517 24.0905C54.813 25.0311 54.8288 23.0022 57.3459 20.9734C50.6072 14.9411 34.9284 15.9439 33.0504 18.2993C31.6774 20.025 30.5411 21.5564 29.0971 23.593V23.6008Z" fill="#BA9561"/>
<path d="M29.397 23.5393C28.3239 24.7986 28.1661 25.5993 29.5864 24.4333C33.5397 20.5932 44.3815 21.2928 49.4316 22.5987C54.024 23.7803 53.6058 23.0263 56.7542 20.4921C50.1654 14.5998 35.0942 16.0612 33.2635 18.3699C31.9221 20.0568 30.9831 21.6892 29.397 23.5471V23.5393Z" fill="#DEBD8E"/>
<path d="M55.4204 18.8588C55.4204 18.8588 57.1406 20.7867 59.0107 21.5174C60.8808 22.2481 61.6383 21.7817 61.5831 21.3153C61.5278 20.8489 61.7015 20.3047 61.0229 20.6234C60.3442 20.9421 59.4053 20.7011 58.411 20.0093C57.4168 19.3252 55.8386 17.4829 55.8386 17.4829C55.8386 17.4829 55.7597 18.0426 55.4283 18.8588H55.4204Z" fill="#DEBD8E"/>
<path d="M34.873 22.054C34.873 22.054 39.3234 21.2689 44.6891 21.9296C50.0548 22.5904 51.12 23.7331 53.1006 23.3833C55.0812 23.0335 56.2095 20.9424 56.2095 20.9424C56.2095 20.9424 54.876 22.5282 53.0375 22.8236C51.1911 23.1268 48.6739 21.9607 44.7759 21.6109C39.3392 21.1212 34.8809 22.054 34.8809 22.054H34.873Z" fill="#F2DCB6"/>
<path d="M55.2863 20.2744C55.2863 20.2744 54.4578 22.1323 52.8639 22.2411C50.6387 22.3888 48.808 21.215 42.314 20.8574C42.314 20.8574 45.0757 20.5387 48.6502 21.1839C52.2247 21.8369 53.5267 21.8913 55.2863 20.2744Z" fill="#BA9561"/>
<path d="M38.0296 20.9032C38.0296 20.9032 32.5929 21.424 30.2888 23.1187L30.7228 22.4579C30.7228 22.4579 34.3131 20.7633 38.0217 20.9032H38.0296Z" fill="#BA9561"/>
<path d="M64.2109 72.1851H46.0859C45.6502 72.1851 45.2969 72.5331 45.2969 72.9624V85.5244C45.2969 85.9537 45.6502 86.3017 46.0859 86.3017H64.2109C64.6467 86.3017 65 85.9537 65 85.5244V72.9624C65 72.5331 64.6467 72.1851 64.2109 72.1851Z" fill="#E0A859"/>
<path d="M63.1458 74.3458H47.1513C46.8041 74.3458 46.52 74.066 46.52 73.7239C46.52 73.3819 46.8041 73.1021 47.1513 73.1021H63.1458C63.493 73.1021 63.777 73.3819 63.777 73.7239C63.777 74.066 63.493 74.3458 63.1458 74.3458Z" fill="#F2CA83"/>
<path d="M62.3569 75.8081H55.2947C54.8589 75.8081 54.5056 76.1561 54.5056 76.5855V80.721C54.5056 81.1503 54.8589 81.4983 55.2947 81.4983H62.3569C62.7927 81.4983 63.146 81.1503 63.146 80.721V76.5855C63.146 76.1561 62.7927 75.8081 62.3569 75.8081Z" fill="#F5F5F5"/>
<path d="M58.7345 79.8657H55.6177V80.6198H58.7345V79.8657Z" fill="#B8B8B8"/>
<path d="M60.2974 79.8657H59.1375V80.6198H60.2974V79.8657Z" fill="#B8B8B8"/>
<path opacity="0.5" d="M62.0412 84.3276H58.9243V85.0817H62.0412V84.3276Z" fill="#4F4F4F"/>
<path opacity="0.5" d="M63.6035 84.3276H62.4436V85.0817H63.6035V84.3276Z" fill="#4F4F4F"/>
<path d="M62.5697 77.386L55.113 78.3344V76.3677H62.5697V77.386Z" fill="#4986C2"/>
<path d="M62.5698 78.3346L57.4724 78.9798V78.0392L62.5698 77.3862V78.3346Z" fill="#71ADE8"/>
<path d="M62.7826 61.1553H49.6682C49.2324 61.1553 48.8792 61.5033 48.8792 61.9326V71.564C48.8792 71.9933 49.2324 72.3414 49.6682 72.3414H62.7826C63.2184 72.3414 63.5717 71.9933 63.5717 71.564V61.9326C63.5717 61.5033 63.2184 61.1553 62.7826 61.1553Z" fill="#E0A859"/>
<path d="M62.554 72.8929H49.8894C49.5816 72.8929 49.3291 72.6441 49.3291 72.341C49.3291 72.0378 49.5816 71.7891 49.8894 71.7891H62.554C62.8617 71.7891 63.1142 72.0378 63.1142 72.341C63.1142 72.6441 62.8617 72.8929 62.554 72.8929Z" fill="#C28A40"/>
<path d="M62.1517 63.106H50.2919C49.9447 63.106 49.6606 62.8262 49.6606 62.4842C49.6606 62.1421 49.9447 61.8623 50.2919 61.8623H62.1517C62.4989 61.8623 62.7829 62.1421 62.7829 62.4842C62.7829 62.8262 62.4989 63.106 62.1517 63.106Z" fill="#F2CA83"/>
<path d="M61.244 64.2568H56.5254C56.0896 64.2568 55.7363 64.6049 55.7363 65.0342V67.6305C55.7363 68.0599 56.0896 68.4079 56.5254 68.4079H61.244C61.6798 68.4079 62.0331 68.0599 62.0331 67.6305V65.0342C62.0331 64.6049 61.6798 64.2568 61.244 64.2568Z" fill="#F5F5F5"/>
<path d="M58.8138 67.2109H56.5413V67.7629H58.8138V67.2109Z" fill="#B8B8B8"/>
<path d="M59.95 67.2109H59.1057V67.7629H59.95V67.2109Z" fill="#B8B8B8"/>
<path opacity="0.5" d="M61.2283 70.4678H58.9558V71.0197H61.2283V70.4678Z" fill="#4F4F4F"/>
<path opacity="0.5" d="M62.3646 70.4678H61.5203V71.0197H62.3646V70.4678Z" fill="#4F4F4F"/>
<path d="M61.6148 65.4064L56.1702 66.0983V64.6602H61.6148V65.4064Z" fill="#4986C2"/>
<path d="M61.6148 66.0991L57.8904 66.5655V65.8814L61.6148 65.4072V66.0991Z" fill="#71ADE8"/>
<path d="M34.0474 51.0768C34.0316 52.7483 33.1042 54.7832 31.4338 55.4685C31.1282 55.593 30.9543 55.6346 30.7013 55.8734C29.3366 57.1555 27.5029 56.8077 25.843 57.2594C25.2476 57.4203 24.4151 57.3995 23.8249 57.2178C23.2769 57.0465 22.7394 56.9479 22.1862 56.7974C21.0216 56.4859 19.6516 56.2419 18.7084 55.4425C17.7125 54.6015 16.4953 53.7139 16.2898 52.3175C16.2318 51.9437 16.0421 51.6115 16.0105 51.2378C15.942 50.4747 16.2107 49.4884 16.7377 48.9122C16.9485 48.6786 17.0591 48.3775 17.2593 48.1335C17.6967 47.5884 18.0761 47.1887 18.661 46.8254C19.2248 46.4776 19.7412 46.0363 20.3419 45.7768C20.8267 45.5691 21.3114 45.3615 21.812 45.2006C22.281 45.05 22.7605 45.0708 23.24 44.9566C23.8407 44.8164 24.5099 44.8839 25.1264 44.8839C25.7429 44.8839 26.3173 44.9254 26.9022 45.0033C27.3237 45.0604 27.661 45.1954 28.0825 45.211C29.0731 45.2473 29.6686 45.7716 30.5011 46.218C31.2019 46.5866 32.0292 46.9603 32.514 47.5833C33.4045 48.7357 34.0632 49.7375 34.0526 51.082L34.0474 51.0768Z" fill="#EBA157"/>
<path opacity="0.4" d="M32.3823 50.6203C32.3823 53.2677 29.0521 55.4116 24.9473 55.4116C24.2781 55.4116 23.6142 55.3545 22.9555 55.2351C21.9175 55.043 20.8952 54.716 19.9731 54.1917C19.2986 53.8076 18.3238 53.1275 17.976 52.4164C17.6599 51.7675 17.5545 51.1134 17.5387 50.4126C17.5334 50.0129 17.7758 49.7949 17.8917 49.4367C18.034 48.9747 18.1394 48.3985 18.4819 48.0351C18.8718 47.6302 19.4672 47.2409 19.9784 47.0021C20.5053 46.7529 21.1113 46.4571 21.6751 46.2909C22.5761 46.0262 23.6932 45.7043 24.6364 45.7355C25.0369 45.7459 25.4532 45.8237 25.8589 45.8601C26.6809 45.9431 27.5872 46.0002 28.3144 46.3844C28.8361 46.6595 29.442 46.7529 29.9479 47.0592C30.4063 47.3343 30.8437 47.6718 31.2178 48.0507C31.9028 48.7411 32.377 49.6392 32.377 50.6203H32.3823Z" fill="#B55623"/>
<path d="M32.4399 50.7291C32.3714 51.6687 31.8919 52.6186 31.2227 53.2883C30.8591 53.6517 30.4903 53.9268 30.0213 54.1292C29.5313 54.3369 29.1519 54.7314 28.6408 54.9131C28.1138 55.1 27.4341 55.3284 26.8703 55.3128C26.259 55.2972 25.6583 55.4841 25.0365 55.5152C24.7415 55.5308 24.4622 55.4789 24.1724 55.4737C23.9405 55.4737 23.7139 55.5568 23.4768 55.5049C23.0342 55.4114 22.5442 55.2505 22.1226 55.0948C21.7959 54.9754 21.4323 54.9961 21.1214 54.8715C20.7631 54.7262 20.4944 54.4199 20.1203 54.3161C19.7251 54.2071 19.5248 54.015 19.1823 53.7866C19.0453 53.6932 18.9136 53.5946 18.7871 53.4855C18.5079 53.2519 18.3076 52.9664 18.1864 52.6238C18.0705 52.2864 17.8703 51.9801 17.7912 51.6271C17.67 51.0821 17.7175 50.3813 17.9019 49.8362C18.2233 48.8915 18.7871 47.6716 19.841 47.3393C20.0149 47.2822 20.115 47.2926 20.2678 47.1836C20.4259 47.0746 20.5471 46.9396 20.7315 46.8566C21.0319 46.7216 21.3533 46.5451 21.6695 46.4517C22.0436 46.3427 22.4072 46.4569 22.7971 46.3531C23.3872 46.1921 23.9827 46.0831 24.5781 45.9637C25.163 45.8443 25.7163 46.0883 26.3012 46.0675C26.9282 46.0468 27.6448 46.3167 28.2403 46.488C29.0518 46.7216 29.995 47.1006 30.6747 47.6145C31.0225 47.8792 31.3123 48.253 31.6285 48.5541C32.266 49.1614 32.4926 49.9401 32.4347 50.7239L32.4399 50.7291Z" fill="#FACF73"/>
<path opacity="0.4" d="M27.3869 47.1942C27.3869 47.7704 26.5544 48.2376 25.5216 48.2376C24.6574 48.2376 22.576 47.5161 23.9671 46.4779C24.4414 46.1249 24.9578 46.1508 25.5216 46.1508C26.5544 46.1508 27.3869 46.618 27.3869 47.1942Z" fill="#B55623"/>
<path opacity="0.4" d="M23.9196 48.1068C23.9196 48.683 23.0818 49.1502 22.0543 49.1502C21.1901 49.1502 19.1087 48.4287 20.4998 47.3905C20.9741 47.0375 21.4905 47.0634 22.0543 47.0634C23.0871 47.0634 23.9196 47.5306 23.9196 48.1068Z" fill="#B55623"/>
<path opacity="0.4" d="M21.4963 49.5966C21.5911 50.1676 20.9272 50.7438 20.0156 50.8944C19.2515 51.019 17.2913 50.6089 18.3505 49.3786C18.7141 48.9633 19.1778 48.9114 19.6731 48.8335C20.5847 48.6882 21.4014 49.0256 21.4963 49.5966Z" fill="#B55623"/>
<path opacity="0.4" d="M22.6235 52.6859C22.6235 53.2621 21.7909 53.7293 20.7581 53.7293C19.894 53.7293 17.8126 53.0078 19.2037 51.9696C19.6779 51.6166 20.1943 51.6425 20.7581 51.6425C21.7909 51.6425 22.6235 52.1097 22.6235 52.6859Z" fill="#B55623"/>
<path opacity="0.4" d="M24.6573 50.8222C24.6731 51.3984 23.8985 51.8863 22.9237 51.9175C22.1069 51.9382 20.1204 51.279 21.4061 50.1992C21.8434 49.8307 22.3335 49.8463 22.8604 49.8307C23.8352 49.8047 24.6362 50.246 24.652 50.8222H24.6573Z" fill="#B55623"/>
<path opacity="0.4" d="M28.1141 51.7096C28.1141 52.2702 27.3185 52.7322 26.3331 52.7322C25.5058 52.7322 23.5193 52.0314 24.8524 51.0088C25.3056 50.661 25.8009 50.687 26.3331 50.687C27.3185 50.687 28.1141 51.1438 28.1141 51.7096Z" fill="#B55623"/>
<path opacity="0.4" d="M27.7875 49.5302C27.7875 50.1064 26.9497 50.5736 25.9222 50.5736C25.058 50.5736 22.9767 49.8572 24.3678 48.8138C24.842 48.4608 25.3584 48.4868 25.9222 48.4868C26.955 48.4868 27.7875 48.9539 27.7875 49.5302Z" fill="#B55623"/>
<path opacity="0.4" d="M31.2704 48.6112C31.2704 49.1874 30.4379 49.6546 29.4051 49.6546C28.5409 49.6546 26.4596 48.9331 27.8507 47.8948C28.3249 47.5419 28.8413 47.5678 29.4051 47.5678C30.4379 47.5678 31.2704 48.035 31.2704 48.6112Z" fill="#B55623"/>
<path opacity="0.4" d="M32.1977 50.8685C32.1977 51.4447 31.3651 51.9119 30.3324 51.9119C29.4682 51.9119 27.3868 51.1904 28.7779 50.1522C29.2521 49.7992 29.7685 49.8251 30.3324 49.8251C31.3651 49.8251 32.1977 50.2923 32.1977 50.8685Z" fill="#B55623"/>
<path opacity="0.4" d="M30.6331 52.9508C30.7437 53.5166 30.0113 54.1291 28.9996 54.3212C28.1512 54.4821 25.9697 54.1603 27.1395 52.8781C27.5347 52.442 28.0511 52.3746 28.6044 52.2707C29.6161 52.0787 30.5277 52.3849 30.6331 52.9508Z" fill="#B55623"/>
<path opacity="0.4" d="M26.57 54.0717C26.57 54.6479 25.7375 55.1151 24.7047 55.1151C23.8405 55.1151 21.7591 54.3935 23.1502 53.3553C23.6245 53.0023 24.1409 53.0283 24.7047 53.0283C25.7375 53.0283 26.57 53.4954 26.57 54.0717Z" fill="#B55623"/>
<path d="M26.923 47.0999C26.923 47.5775 26.2274 47.9668 25.3685 47.9668C24.6519 47.9668 22.9183 47.3698 24.0776 46.5029C24.4727 46.207 24.9048 46.233 25.3685 46.233C26.2274 46.233 26.923 46.6223 26.923 47.0999Z" fill="#D41317"/>
<path d="M23.6086 48.0352C23.6086 48.5128 22.913 48.9021 22.0594 48.9021C21.6168 48.9021 20.8106 48.7827 20.526 48.409C19.7725 47.4019 23.6086 46.4468 23.6086 48.0352Z" fill="#D41317"/>
<path d="M27.287 49.4046C27.2659 50.0327 26.1805 50.1781 25.6746 50.2144C25.1529 50.2508 24.1096 50.0847 24.1096 49.3943C24.1096 48.9167 24.8052 48.5273 25.6641 48.5273C26.191 48.5273 27.0657 48.5844 27.2554 49.1814C27.2817 49.2645 27.2923 49.3371 27.287 49.4046Z" fill="#D41317"/>
<path d="M21.3797 49.9392C21.1636 50.5829 20.4417 50.7958 19.7883 50.7958C18.9294 50.7958 18.2339 50.4064 18.2339 49.9289C18.2339 49.3682 18.9242 49.0723 19.3984 48.9893C19.9833 48.8855 21.6379 49.1606 21.3744 49.9392H21.3797Z" fill="#D41317"/>
<path d="M22.4496 52.702C22.4496 53.1796 21.754 53.5689 20.8951 53.5689C20.4156 53.5689 19.8149 53.4599 19.4935 53.0706C18.192 51.5029 22.4496 51.2849 22.4496 52.6969V52.702Z" fill="#D41317"/>
<path d="M24.3096 50.6976C24.2832 51.3568 23.6878 51.7306 23.0186 51.6994C22.4653 51.6735 21.2375 51.4659 21.2375 50.7287C21.2375 50.2511 21.9331 49.8618 22.792 49.8618C23.3084 49.8618 24.2147 49.8566 24.3043 50.4951C24.3148 50.5678 24.3148 50.6353 24.3148 50.6976H24.3096Z" fill="#D41317"/>
<path d="M27.8453 51.5596C27.8453 52.0008 27.3237 52.2344 26.9654 52.3538C26.3699 52.5511 23.7616 52.4473 24.7206 51.3156C25.1 50.8692 25.7218 50.6875 26.2909 50.6875C27.1498 50.6875 27.8453 51.0768 27.8453 51.5544V51.5596Z" fill="#D41317"/>
<path d="M30.58 48.5269C30.5537 49.1809 29.6473 49.3938 29.0519 49.3938C28.5039 49.3938 27.7398 49.2484 27.5343 48.6722C27.0232 47.2551 30.3113 47.3952 30.5484 48.2673C30.5747 48.3607 30.5853 48.449 30.58 48.5269Z" fill="#D41317"/>
<path d="M32.029 50.8845C32.029 51.3621 31.3335 51.7514 30.4746 51.7514C29.9266 51.7514 28.7726 51.5023 28.8095 50.7599C28.8411 50.1474 29.7052 50.1318 30.1584 50.0955C30.7275 50.0436 32.029 50.0176 32.029 50.8845Z" fill="#D41317"/>
<path d="M30.4747 53.3656C30.2481 53.7965 29.5525 54.191 28.8464 54.191C27.9875 54.191 27.292 53.8017 27.292 53.3241C27.292 52.1873 28.8306 52.2444 29.6052 52.3897C30.5063 52.561 30.6854 52.9763 30.4747 53.3656Z" fill="#D41317"/>
<path d="M26.3436 54.1235C26.3436 54.6011 25.6481 54.9904 24.7892 54.9904C24.1463 54.9904 23.572 54.7776 23.1715 54.2689C22.7763 53.7705 23.1399 53.3864 23.709 53.2878C24.0093 53.2359 24.199 53.3293 24.4836 53.3708C24.9104 53.4331 25.2054 53.2255 25.6165 53.3916C25.9326 53.5214 26.3383 53.7394 26.3383 54.1287L26.3436 54.1235Z" fill="#D41317"/>
<path d="M23.3084 47.7848C23.3084 47.9769 22.9238 48.1326 22.4442 48.1326C21.9647 48.1326 21.5801 47.9769 21.5801 47.7848C21.5801 47.5927 21.9647 47.437 22.4442 47.437C22.9238 47.437 23.3084 47.5927 23.3084 47.7848Z" fill="#EA3232"/>
<path d="M24.1885 50.4328C24.1885 50.6248 23.8039 50.7806 23.3244 50.7806C22.8449 50.7806 22.4602 50.6248 22.4602 50.4328C22.4602 50.2407 22.8449 50.085 23.3244 50.085C23.8039 50.085 24.1885 50.2407 24.1885 50.4328Z" fill="#EA3232"/>
<path d="M26.4017 49.0885C26.4017 49.2806 26.017 49.4363 25.5375 49.4363C25.058 49.4363 24.6733 49.2806 24.6733 49.0885C24.6733 48.8965 25.058 48.7407 25.5375 48.7407C26.017 48.7407 26.4017 48.8965 26.4017 49.0885Z" fill="#EA3232"/>
<path d="M27.6028 51.3048C27.6028 51.4969 27.2182 51.6526 26.7387 51.6526C26.2592 51.6526 25.8745 51.4969 25.8745 51.3048C25.8745 51.1128 26.2592 50.957 26.7387 50.957C27.2182 50.957 27.6028 51.1128 27.6028 51.3048Z" fill="#EA3232"/>
<path d="M26.1487 53.9367C26.1487 54.1287 25.7641 54.2845 25.2846 54.2845C24.8051 54.2845 24.4204 54.1287 24.4204 53.9367C24.4204 53.7446 24.8051 53.5889 25.2846 53.5889C25.7641 53.5889 26.1487 53.7446 26.1487 53.9367Z" fill="#EA3232"/>
<path d="M21.2481 52.4728C21.2481 52.6649 20.8635 52.8206 20.3839 52.8206C19.9044 52.8206 19.5198 52.6649 19.5198 52.4728C19.5198 52.2807 19.9044 52.125 20.3839 52.125C20.8635 52.125 21.2481 52.2807 21.2481 52.4728Z" fill="#EA3232"/>
<path d="M31.8077 50.5578C31.8077 50.7498 31.423 50.9056 30.9435 50.9056C30.464 50.9056 30.0793 50.7498 30.0793 50.5578C30.0793 50.3657 30.464 50.21 30.9435 50.21C31.423 50.21 31.8077 50.3657 31.8077 50.5578Z" fill="#EA3232"/>
<path d="M29.4576 48.1071C29.4576 48.2991 29.0729 48.4549 28.5934 48.4549C28.1139 48.4549 27.7292 48.2991 27.7292 48.1071C27.7292 47.915 28.1139 47.7593 28.5934 47.7593C29.0729 47.7593 29.4576 47.915 29.4576 48.1071Z" fill="#EA3232"/>
<path d="M26.4175 47.381C26.4175 47.5731 26.0329 47.7288 25.5534 47.7288C25.0739 47.7288 24.6892 47.5731 24.6892 47.381C24.6892 47.1889 25.0739 47.0332 25.5534 47.0332C26.0329 47.0332 26.4175 47.1889 26.4175 47.381Z" fill="#EA3232"/>
<path d="M21.9125 48.3306C21.9125 48.4604 21.6754 48.5694 21.3803 48.5694C21.0853 48.5694 20.8481 48.4604 20.8481 48.3306C20.8481 48.2008 21.0853 48.0918 21.3803 48.0918C21.6754 48.0918 21.9125 48.2008 21.9125 48.3306Z" fill="#EA3232"/>
<path d="M25.2214 46.732C25.2214 46.8617 24.9843 46.9707 24.6892 46.9707C24.3941 46.9707 24.157 46.8617 24.157 46.732C24.157 46.6022 24.3941 46.4932 24.6892 46.4932C24.9843 46.4932 25.2214 46.6022 25.2214 46.732Z" fill="#EA3232"/>
<path d="M30.1376 48.7202C30.1376 48.85 29.9005 48.959 29.6054 48.959C29.3104 48.959 29.0732 48.85 29.0732 48.7202C29.0732 48.5905 29.3104 48.4814 29.6054 48.4814C29.9005 48.4814 30.1376 48.5853 30.1376 48.7202Z" fill="#EA3232"/>
<path d="M30.7121 51.2168C30.7121 51.3466 30.475 51.4556 30.1799 51.4556C29.8848 51.4556 29.6477 51.3466 29.6477 51.2168C29.6477 51.087 29.8848 50.978 30.1799 50.978C30.475 50.978 30.7121 51.0818 30.7121 51.2168Z" fill="#EA3232"/>
<path d="M26.0222 51.7251C26.0222 51.8549 25.785 51.9639 25.49 51.9639C25.1949 51.9639 24.9578 51.8549 24.9578 51.7251C24.9578 51.5953 25.1949 51.4863 25.49 51.4863C25.785 51.4863 26.0222 51.5953 26.0222 51.7251Z" fill="#EA3232"/>
<path d="M23.3085 51.0508C23.3085 51.1806 23.0714 51.2896 22.7763 51.2896C22.4813 51.2896 22.2441 51.1858 22.2441 51.0508C22.2441 50.9158 22.4813 50.812 22.7763 50.812C23.0714 50.812 23.3085 50.921 23.3085 51.0508Z" fill="#EA3232"/>
<path d="M21.8488 53.0235C21.8488 53.1532 21.6117 53.2622 21.3166 53.2622C21.0215 53.2622 20.7844 53.1532 20.7844 53.0235C20.7844 52.8937 21.0215 52.7847 21.3166 52.7847C21.6117 52.7847 21.8488 52.8937 21.8488 53.0235Z" fill="#EA3232"/>
<path d="M24.3676 53.7241C24.3676 53.8539 24.1305 53.9629 23.8354 53.9629C23.5403 53.9629 23.3032 53.8539 23.3032 53.7241C23.3032 53.5944 23.5403 53.4854 23.8354 53.4854C24.1305 53.4854 24.3676 53.5892 24.3676 53.7241Z" fill="#EA3232"/>
<path d="M28.9838 52.919C28.9838 53.0487 28.7467 53.1578 28.4516 53.1578C28.1566 53.1578 27.9194 53.0487 27.9194 52.919C27.9194 52.7892 28.1566 52.6802 28.4516 52.6802C28.7467 52.6802 28.9838 52.7892 28.9838 52.919Z" fill="#EA3232"/>
<path d="M30.1845 52.9966C30.1845 53.1264 29.9474 53.2354 29.6523 53.2354C29.3572 53.2354 29.1201 53.1316 29.1201 52.9966C29.1201 52.8616 29.3572 52.7578 29.6523 52.7578C29.9474 52.7578 30.1845 52.8668 30.1845 52.9966Z" fill="#EA3232"/>
<path d="M29.4579 53.6206C29.4579 53.7504 29.2208 53.8594 28.9258 53.8594C28.6307 53.8594 28.3936 53.7504 28.3936 53.6206C28.3936 53.4908 28.6307 53.3818 28.9258 53.3818C29.2208 53.3818 29.4579 53.4908 29.4579 53.6206Z" fill="#EA3232"/>
<path d="M20.1047 49.4522C20.1047 49.5819 19.8676 49.691 19.5725 49.691C19.2774 49.691 19.0403 49.5819 19.0403 49.4522C19.0403 49.3224 19.2774 49.2134 19.5725 49.2134C19.8676 49.2134 20.1047 49.3224 20.1047 49.4522Z" fill="#EA3232"/>
<path d="M21.1376 49.9453C21.1376 50.0751 20.9005 50.1841 20.6054 50.1841C20.3104 50.1841 20.0732 50.0751 20.0732 49.9453C20.0732 49.8156 20.3104 49.7065 20.6054 49.7065C20.9005 49.7065 21.1376 49.8104 21.1376 49.9453Z" fill="#EA3232"/>
<path d="M19.9677 50.2149C19.9677 50.3446 19.7306 50.4537 19.4355 50.4537C19.1404 50.4537 18.9033 50.3446 18.9033 50.2149C18.9033 50.0851 19.1404 49.9761 19.4355 49.9761C19.7306 49.9761 19.9677 50.0799 19.9677 50.2149Z" fill="#EA3232"/>
<path d="M28.446 49.8833C28.446 49.9144 28.4354 50.0286 28.4249 50.065C28.1456 49.8833 27.7293 50.1428 27.7557 50.4543C27.5449 50.4751 27.3131 50.4387 27.1023 50.4024C27.1708 50.0702 27.3183 49.9612 27.6081 49.8366C27.7504 49.7743 28.4091 49.5459 28.446 49.8833Z" fill="#9BB526"/>
<path d="M23.1242 49.0158C23.1137 48.9847 23.0979 48.8705 23.0979 48.8341C23.4141 48.9431 23.7513 48.5901 23.6459 48.2942C23.8461 48.2216 24.0833 48.2008 24.2888 48.1904C24.3046 48.5278 24.1939 48.668 23.941 48.8601C23.8145 48.9535 23.2402 49.3376 23.119 49.0158H23.1242Z" fill="#9BB526"/>
<path d="M18.5187 51.0972C18.5345 51.0712 18.6135 50.983 18.6399 50.957C18.7664 51.2633 19.2617 51.2737 19.4145 50.9986C19.6042 51.0972 19.7781 51.2529 19.9256 51.4035C19.6832 51.6422 19.4988 51.6526 19.1879 51.5955C19.0351 51.5696 18.3606 51.3983 18.5187 51.0972Z" fill="#9BB526"/>
<path d="M22.7603 52.2393C22.7656 52.2082 22.8182 52.1044 22.8393 52.0732C23.0396 52.3328 23.5191 52.2238 23.5981 51.9175C23.8036 51.9694 24.0144 52.0732 24.1935 52.177C24.0196 52.4677 23.8458 52.5248 23.5296 52.5508C23.3715 52.5664 22.676 52.5664 22.755 52.2393H22.7603Z" fill="#9BB526"/>
<path d="M27.4239 54.2538C27.3132 54.4147 27.1657 54.5964 27.134 54.6171C26.839 54.7936 26.6756 54.6794 26.4648 54.4458C26.6229 54.259 26.8758 54.1188 26.9496 53.8696C26.9338 53.9267 27.4871 53.9942 27.5398 54.0046C27.5819 54.0098 27.5134 54.1292 27.4239 54.259V54.2538Z" fill="#9BB526"/>
<path d="M31.4968 49.3012C31.4968 49.3012 31.4705 49.3375 31.4547 49.3531C31.3862 49.4361 30.6116 49.7061 30.6169 49.7217C30.5694 49.5971 30.5431 49.4621 30.5115 49.3375C30.7802 49.2596 31.0858 49.0468 31.0911 48.7354C31.0753 48.9326 31.8235 48.8496 31.5021 49.296L31.4968 49.3012Z" fill="#9BB526"/>
<path d="M22.2861 54.2273C22.1016 54.3259 21.9119 54.4141 21.854 54.4089C21.6696 54.3934 21.1637 54.0611 21.2849 53.8327C21.3587 53.6874 21.6011 53.812 21.717 53.8224C21.9963 53.8431 22.2334 53.812 22.4758 53.6562C22.5495 53.7497 22.6233 53.8587 22.6813 53.9677C22.6971 53.9937 22.5021 54.1183 22.2966 54.2273H22.2861Z" fill="#9BB526"/>
<path d="M27.4446 47.3652C27.6237 47.3133 27.8398 47.443 27.961 47.3081C28.0453 47.2146 28.0295 46.9032 28.0664 46.7682C28.04 46.8616 27.5447 46.6799 27.4815 46.6592C27.708 46.7422 27.5236 47.2613 27.4446 47.3652Z" fill="#9BB526"/>
<path d="M30.6064 52.2288C30.696 52.3845 30.8278 52.5455 30.891 52.722C31.0965 52.6285 31.2704 52.6337 31.4179 52.4313C31.3441 52.2444 31.4653 52.1094 31.4601 51.9277C31.4706 52.1354 30.7382 52.2911 30.6064 52.234V52.2288Z" fill="#9BB526"/>
<path d="M19.3831 48.0184C19.4726 48.1741 19.6044 48.335 19.6676 48.5115C19.8731 48.4181 20.047 48.4233 20.1945 48.2208C20.1208 48.0339 20.242 47.899 20.2367 47.7173C20.2472 47.9249 19.5148 48.0807 19.3831 48.0184Z" fill="#9BB526"/>
<path d="M33.6682 50.8168C33.5259 49.9447 33.4891 48.704 31.8081 47.4062C32.3193 48.1382 32.5142 48.4133 32.92 49.1868C33.1466 49.6176 32.9516 50.0589 32.941 50.4845C32.9358 50.8375 33.2467 51.123 33.2414 51.4553C33.2414 51.6214 33.194 51.6162 33.0781 51.7252C32.862 51.9276 32.9674 52.182 32.8567 52.4156C32.7777 52.5817 32.5722 52.8828 32.4194 52.9814C32.2297 53.1112 31.982 53.1164 31.8292 53.3085C31.6501 53.5421 31.7607 53.9573 31.5974 54.1909C31.1811 54.7723 30.8017 54.2948 30.2063 54.4972C29.6372 54.6945 29.5582 55.3693 28.9522 55.4887C28.6202 55.5562 28.2935 55.3434 27.9721 55.4108C27.7244 55.4627 27.598 55.686 27.3661 55.7534C26.7707 55.9248 26.249 55.5666 25.6799 55.7015C25.1109 55.8365 25.1635 56.1583 24.5839 56.0753C24.4417 56.0545 24.3152 55.7846 24.1202 55.7534C23.8726 55.7119 23.6987 55.8728 23.4721 55.8988C22.7766 55.9663 22.9662 55.8884 22.3866 55.525C21.7227 55.1098 20.9692 55.5147 20.242 55.2966C20.1735 55.2759 20.0997 55.2499 20.0312 55.2136C19.7045 55.0527 19.7889 54.6114 19.5096 54.4505C19.204 54.274 18.9194 54.5491 18.6191 54.3674C18.4663 54.274 18.2397 53.9573 18.1501 53.8224C18.0605 53.6822 18.0658 53.5421 17.9762 53.3915C17.8708 53.2098 17.776 53.241 17.6179 53.1579C17.1384 52.8932 17.4335 52.8257 17.3913 52.3845C17.3544 51.9899 16.8802 51.9899 16.975 51.5176C17.0067 51.3514 17.1647 51.2476 17.1068 51.0556C17.0541 50.8791 16.8064 50.8323 16.7274 50.6662C16.5535 50.3029 16.896 49.9551 16.9118 49.6073C16.29 50.1004 16.406 50.9673 16.5482 51.637C16.6747 52.2443 16.8486 53.0801 17.2859 53.5576C18.2344 54.6114 19.067 55.2966 20.4212 55.8054C22.7924 56.693 25.4586 57.181 27.9352 56.4023C28.9733 56.0753 29.8954 55.686 30.8649 55.1876C32.4405 54.3778 33.9738 52.6492 33.6682 50.8064V50.8168Z" fill="#F1B56C"/>
<defs>
<radialGradient id="paint0_radial_163_444" cx="0" cy="0" r="1" gradientUnits="userSpaceOnUse" gradientTransform="translate(45.7159 -57.2017) scale(17.0688 1.90085)">
<stop/>
<stop offset="0.92"/>
</radialGradient>
<radialGradient id="paint1_radial_163_444" cx="0" cy="0" r="1" gradientUnits="userSpaceOnUse" gradientTransform="translate(45.7624 50.2633) rotate(180) scale(5.09739 5.02169)">
<stop/>
<stop offset="0.92"/>
</radialGradient>
<radialGradient id="paint2_radial_163_444" cx="0" cy="0" r="1" gradientUnits="userSpaceOnUse" gradientTransform="translate(47.609 20.7561) rotate(180) scale(10.037 9.88792)">
<stop/>
<stop offset="0.92"/>
</radialGradient>
</defs>
</svg>
