<svg width="95" height="95" viewBox="0 0 95 95" fill="none" xmlns="http://www.w3.org/2000/svg">
<circle cx="47.5" cy="47.5" r="47.5" fill="#0A4A81"/>
<mask id="path-2-inside-1_167_448" fill="white">
<path fill-rule="evenodd" clip-rule="evenodd" d="M69.3765 73.5347H66.368V79.0484C66.3693 79.5658 66.2831 80.0785 66.1144 80.5571C65.9457 81.0357 65.6978 81.4709 65.3847 81.8378C65.0717 82.2048 64.6997 82.4962 64.29 82.6957C63.8804 82.8951 63.441 82.9985 62.997 83H61.0112C60.1183 82.9954 59.2632 82.5801 58.6319 81.8443C58.0005 81.1086 57.6441 80.112 57.6402 79.0715V73.5578H37.2655V79.0715C37.2615 80.115 36.9031 81.1142 36.2685 81.8504C35.634 82.5867 34.775 83 33.8796 83H31.8938C31.0014 82.9954 30.1468 82.5799 29.5163 81.844C28.8857 81.1081 28.5304 80.1115 28.5278 79.0715V73.5578H25.9859C24.2285 73.5231 23.3845 72.4007 23.2554 70.4972V25.4443C22.2625 25.56 21.7908 25.8262 21.5525 26.4163V39.2894H19.4178C18.7769 39.2879 18.1627 38.9905 17.7096 38.4624C17.2565 37.9344 17.0013 37.2186 17 36.4718V28.8694C17.0022 28.1368 17.2482 27.4338 17.6862 26.9083C18.1242 26.3828 18.72 26.0758 19.3483 26.0518C19.5518 23.8417 20.371 23.1995 23.3199 23.0375C23.7403 19.1804 25.9959 16.328 30.0867 14.4805C38.8889 12.6002 55.5898 12.415 64.9183 14.4805C69.029 16.3261 71.273 19.1784 71.6801 23.0375C74.6588 23.211 75.4581 23.859 75.6517 26.0518C76.28 26.0758 76.8758 26.3828 77.3138 26.9083C77.7518 27.4338 77.9978 28.1368 78 28.8694V36.4718C77.9987 37.2186 77.7435 37.9344 77.2904 38.4624C76.8373 38.9905 76.2231 39.2879 75.5822 39.2894H73.4475V26.3816C73.2092 25.803 72.7177 25.5485 71.7446 25.4385V70.0343C71.7446 72.6147 71.0297 73.5057 69.3715 73.5057L69.3765 73.5347ZM25.0079 62.0964L25.1469 58.2258C25.2263 57.5489 25.5341 57.2481 26.0852 57.358C28.8678 59.089 31.5376 61.0556 34.0732 63.242C34.6144 63.6586 34.4009 64.4628 33.686 64.3123L26.1746 63.6759C25.8492 63.6214 25.5517 63.4314 25.3372 63.141C25.1227 62.8506 25.0057 62.4796 25.0079 62.0964ZM42.8159 67.0605H52.3976C52.5213 67.0605 52.64 67.1178 52.7276 67.2198C52.8151 67.3218 52.8642 67.4601 52.8642 67.6044V69.4789C52.8642 69.6232 52.8151 69.7615 52.7276 69.8635C52.64 69.9655 52.5213 70.0228 52.3976 70.0228H42.8159C42.6921 70.0228 42.5734 69.9655 42.4859 69.8635C42.3984 69.7615 42.3492 69.6232 42.3492 69.4789V67.6044C42.3492 67.4601 42.3984 67.3218 42.4859 67.2198C42.5734 67.1178 42.6921 67.0605 42.8159 67.0605ZM67.8126 67.0605C68.0578 67.0628 68.297 67.1494 68.5001 67.3093C68.7033 67.4693 68.8615 67.6955 68.9548 67.9597C69.0482 68.2239 69.0726 68.5144 69.025 68.7947C68.9773 69.075 68.8598 69.3326 68.6872 69.5355C68.5145 69.7383 68.2943 69.8773 68.0541 69.935C67.814 69.9927 67.5646 69.9665 67.3372 69.8598C67.1097 69.7531 66.9144 69.5706 66.7755 69.3351C66.6367 69.0996 66.5605 68.8216 66.5566 68.5359C66.5566 68.1517 66.6872 67.7832 66.9198 67.511C67.1524 67.2389 67.4681 67.0852 67.7978 67.0837L67.8126 67.0605ZM26.7803 67.0605C27.0252 67.064 27.2639 67.1515 27.4664 67.3121C27.6689 67.4728 27.8263 67.6994 27.9189 67.9637C28.0115 68.228 28.0352 68.5182 27.987 68.7981C27.9388 69.078 27.8209 69.3352 27.6481 69.5375C27.4752 69.7397 27.255 69.8781 27.015 69.9353C26.775 69.9926 26.5259 69.9661 26.2987 69.8592C26.0715 69.7523 25.8765 69.5698 25.7378 69.3344C25.5992 69.0991 25.5232 68.8213 25.5192 68.5359C25.5192 68.1507 25.6505 67.7813 25.8842 67.509C26.1179 67.2367 26.4349 67.0837 26.7654 67.0837L26.7803 67.0605ZM70.012 62.0675L69.873 58.1969C69.7935 57.52 69.4857 57.2191 68.9396 57.3291C66.1548 59.0587 63.4832 61.0254 60.9466 63.2131C60.4055 63.6296 60.6189 64.4338 61.3339 64.2834L68.8453 63.647C69.1711 63.5936 69.4692 63.4039 69.6839 63.1133C69.8985 62.8227 70.0152 62.451 70.012 62.0675ZM40.9244 16.5286H54.0806C54.2935 16.5301 54.4973 16.6294 54.6478 16.8048C54.7984 16.9803 54.8835 17.2178 54.8848 17.4659V19.9364C54.8835 20.1845 54.7984 20.422 54.6478 20.5974C54.4973 20.7729 54.2935 20.8721 54.0806 20.8736H40.9244C40.7115 20.8721 40.5077 20.7729 40.3571 20.5974C40.2066 20.422 40.1214 20.1845 40.1201 19.9364V17.4659C40.1214 17.2178 40.2066 16.9803 40.3571 16.8048C40.5077 16.6294 40.7115 16.5301 40.9244 16.5286ZM27.0881 23.9343H67.7382C68.0015 23.9343 68.2541 24.0562 68.4403 24.2732C68.6265 24.4902 68.7311 24.7845 68.7311 25.0914V50.0738C68.7311 50.6987 68.2892 51.0516 67.7382 51.231C53.7926 56.1661 41.0286 55.9636 27.0881 51.231C26.537 51.0574 26.0951 50.7103 26.0951 50.0738V25.0798C26.0951 24.7729 26.1998 24.4786 26.386 24.2616C26.5722 24.0446 26.8247 23.9227 27.0881 23.9227V23.9343Z"/>
</mask>
<path fill-rule="evenodd" clip-rule="evenodd" d="M69.3765 73.5347H66.368V79.0484C66.3693 79.5658 66.2831 80.0785 66.1144 80.5571C65.9457 81.0357 65.6978 81.4709 65.3847 81.8378C65.0717 82.2048 64.6997 82.4962 64.29 82.6957C63.8804 82.8951 63.441 82.9985 62.997 83H61.0112C60.1183 82.9954 59.2632 82.5801 58.6319 81.8443C58.0005 81.1086 57.6441 80.112 57.6402 79.0715V73.5578H37.2655V79.0715C37.2615 80.115 36.9031 81.1142 36.2685 81.8504C35.634 82.5867 34.775 83 33.8796 83H31.8938C31.0014 82.9954 30.1468 82.5799 29.5163 81.844C28.8857 81.1081 28.5304 80.1115 28.5278 79.0715V73.5578H25.9859C24.2285 73.5231 23.3845 72.4007 23.2554 70.4972V25.4443C22.2625 25.56 21.7908 25.8262 21.5525 26.4163V39.2894H19.4178C18.7769 39.2879 18.1627 38.9905 17.7096 38.4624C17.2565 37.9344 17.0013 37.2186 17 36.4718V28.8694C17.0022 28.1368 17.2482 27.4338 17.6862 26.9083C18.1242 26.3828 18.72 26.0758 19.3483 26.0518C19.5518 23.8417 20.371 23.1995 23.3199 23.0375C23.7403 19.1804 25.9959 16.328 30.0867 14.4805C38.8889 12.6002 55.5898 12.415 64.9183 14.4805C69.029 16.3261 71.273 19.1784 71.6801 23.0375C74.6588 23.211 75.4581 23.859 75.6517 26.0518C76.28 26.0758 76.8758 26.3828 77.3138 26.9083C77.7518 27.4338 77.9978 28.1368 78 28.8694V36.4718C77.9987 37.2186 77.7435 37.9344 77.2904 38.4624C76.8373 38.9905 76.2231 39.2879 75.5822 39.2894H73.4475V26.3816C73.2092 25.803 72.7177 25.5485 71.7446 25.4385V70.0343C71.7446 72.6147 71.0297 73.5057 69.3715 73.5057L69.3765 73.5347ZM25.0079 62.0964L25.1469 58.2258C25.2263 57.5489 25.5341 57.2481 26.0852 57.358C28.8678 59.089 31.5376 61.0556 34.0732 63.242C34.6144 63.6586 34.4009 64.4628 33.686 64.3123L26.1746 63.6759C25.8492 63.6214 25.5517 63.4314 25.3372 63.141C25.1227 62.8506 25.0057 62.4796 25.0079 62.0964ZM42.8159 67.0605H52.3976C52.5213 67.0605 52.64 67.1178 52.7276 67.2198C52.8151 67.3218 52.8642 67.4601 52.8642 67.6044V69.4789C52.8642 69.6232 52.8151 69.7615 52.7276 69.8635C52.64 69.9655 52.5213 70.0228 52.3976 70.0228H42.8159C42.6921 70.0228 42.5734 69.9655 42.4859 69.8635C42.3984 69.7615 42.3492 69.6232 42.3492 69.4789V67.6044C42.3492 67.4601 42.3984 67.3218 42.4859 67.2198C42.5734 67.1178 42.6921 67.0605 42.8159 67.0605ZM67.8126 67.0605C68.0578 67.0628 68.297 67.1494 68.5001 67.3093C68.7033 67.4693 68.8615 67.6955 68.9548 67.9597C69.0482 68.2239 69.0726 68.5144 69.025 68.7947C68.9773 69.075 68.8598 69.3326 68.6872 69.5355C68.5145 69.7383 68.2943 69.8773 68.0541 69.935C67.814 69.9927 67.5646 69.9665 67.3372 69.8598C67.1097 69.7531 66.9144 69.5706 66.7755 69.3351C66.6367 69.0996 66.5605 68.8216 66.5566 68.5359C66.5566 68.1517 66.6872 67.7832 66.9198 67.511C67.1524 67.2389 67.4681 67.0852 67.7978 67.0837L67.8126 67.0605ZM26.7803 67.0605C27.0252 67.064 27.2639 67.1515 27.4664 67.3121C27.6689 67.4728 27.8263 67.6994 27.9189 67.9637C28.0115 68.228 28.0352 68.5182 27.987 68.7981C27.9388 69.078 27.8209 69.3352 27.6481 69.5375C27.4752 69.7397 27.255 69.8781 27.015 69.9353C26.775 69.9926 26.5259 69.9661 26.2987 69.8592C26.0715 69.7523 25.8765 69.5698 25.7378 69.3344C25.5992 69.0991 25.5232 68.8213 25.5192 68.5359C25.5192 68.1507 25.6505 67.7813 25.8842 67.509C26.1179 67.2367 26.4349 67.0837 26.7654 67.0837L26.7803 67.0605ZM70.012 62.0675L69.873 58.1969C69.7935 57.52 69.4857 57.2191 68.9396 57.3291C66.1548 59.0587 63.4832 61.0254 60.9466 63.2131C60.4055 63.6296 60.6189 64.4338 61.3339 64.2834L68.8453 63.647C69.1711 63.5936 69.4692 63.4039 69.6839 63.1133C69.8985 62.8227 70.0152 62.451 70.012 62.0675ZM40.9244 16.5286H54.0806C54.2935 16.5301 54.4973 16.6294 54.6478 16.8048C54.7984 16.9803 54.8835 17.2178 54.8848 17.4659V19.9364C54.8835 20.1845 54.7984 20.422 54.6478 20.5974C54.4973 20.7729 54.2935 20.8721 54.0806 20.8736H40.9244C40.7115 20.8721 40.5077 20.7729 40.3571 20.5974C40.2066 20.422 40.1214 20.1845 40.1201 19.9364V17.4659C40.1214 17.2178 40.2066 16.9803 40.3571 16.8048C40.5077 16.6294 40.7115 16.5301 40.9244 16.5286ZM27.0881 23.9343H67.7382C68.0015 23.9343 68.2541 24.0562 68.4403 24.2732C68.6265 24.4902 68.7311 24.7845 68.7311 25.0914V50.0738C68.7311 50.6987 68.2892 51.0516 67.7382 51.231C53.7926 56.1661 41.0286 55.9636 27.0881 51.231C26.537 51.0574 26.0951 50.7103 26.0951 50.0738V25.0798C26.0951 24.7729 26.1998 24.4786 26.386 24.2616C26.5722 24.0446 26.8247 23.9227 27.0881 23.9227V23.9343Z" fill="#FF9819" stroke="#D4D4D4" stroke-width="2" mask="url(#path-2-inside-1_167_448)"/>
</svg>
